<svg width="26" height="26" viewBox="0 0 26 26" fill="none" xmlns="http://www.w3.org/2000/svg">
<path d="M4.69844 15.3001H20.8984C21.3758 15.3001 21.8337 15.4898 22.1712 15.8273C22.5088 16.1649 22.6984 16.6227 22.6984 17.1001V24.3001H2.89844V17.1001C2.89844 16.6227 3.08808 16.1649 3.42565 15.8273C3.76321 15.4898 4.22105 15.3001 4.69844 15.3001V15.3001Z" stroke="#000001" stroke-width="1.8" stroke-linecap="round" stroke-linejoin="round"/>
<path d="M2.89766 17.1001C2.42027 17.1001 1.96243 16.9104 1.62486 16.5729C1.2873 16.2353 1.09766 15.7775 1.09766 15.3001V11.7001C1.09766 11.2227 1.2873 10.7649 1.62486 10.4273C1.96243 10.0897 2.42027 9.90009 2.89766 9.90009H22.6977C23.175 9.90009 23.6329 10.0897 23.9704 10.4273C24.308 10.7649 24.4977 11.2227 24.4977 11.7001V15.3001C24.4977 15.7775 24.308 16.2353 23.9704 16.5729C23.6329 16.9104 23.175 17.1001 22.6977 17.1001" stroke="#000001" stroke-width="1.8" stroke-linecap="round" stroke-linejoin="round"/>
<path d="M19.9977 0.900085H5.59766V9.90009H19.9977V0.900085Z" stroke="#000001" stroke-width="1.8" stroke-linecap="round" stroke-linejoin="round"/>
<path d="M7.39844 19.8001H18.1984" stroke="#000001" stroke-width="1.8" stroke-linecap="round" stroke-linejoin="round"/>
</svg>
