<svg width="26" height="26" viewBox="0 0 26 26" fill="none" xmlns="http://www.w3.org/2000/svg">
<path d="M4.94844 16.65C7.18519 16.65 8.99844 14.8368 8.99844 12.6C8.99844 10.3633 7.18519 8.55005 4.94844 8.55005C2.71168 8.55005 0.898438 10.3633 0.898438 12.6C0.898438 14.8368 2.71168 16.65 4.94844 16.65Z" stroke="#000001" stroke-width="1.8" stroke-linecap="round" stroke-linejoin="round"/>
<path d="M20.2492 24.3C22.486 24.3 24.2992 22.4868 24.2992 20.25C24.2992 18.0133 22.486 16.2 20.2492 16.2C18.0125 16.2 16.1992 18.0133 16.1992 20.25C16.1992 22.4868 18.0125 24.3 20.2492 24.3Z" stroke="#000001" stroke-width="1.8" stroke-linecap="round" stroke-linejoin="round"/>
<path d="M20.2492 9.00002C22.486 9.00002 24.2992 7.18678 24.2992 4.95002C24.2992 2.71327 22.486 0.900024 20.2492 0.900024C18.0125 0.900024 16.1992 2.71327 16.1992 4.95002C16.1992 7.18678 18.0125 9.00002 20.2492 9.00002Z" stroke="#000001" stroke-width="1.8" stroke-linecap="round" stroke-linejoin="round"/>
<path d="M8.56641 10.8L16.6304 6.75" stroke="#000001" stroke-width="1.8" stroke-linecap="round" stroke-linejoin="round"/>
<path d="M8.56641 14.4L16.6304 18.45" stroke="#000001" stroke-width="1.8" stroke-linecap="round" stroke-linejoin="round"/>
</svg>
