<svg xmlns="http://www.w3.org/2000/svg" xml:space="preserve" x="0px" y="0px" baseProfile="tiny" overflow="visible" version="1.2" viewBox="0 0 2048 534"><path fill="#FFF" d="M523.598 274.671c0 107.169-86.887 194.048-194.048 194.048-107.172 0-194.048-86.879-194.048-194.048 0-107.164 86.876-194.043 194.048-194.043 107.161 0 194.048 86.879 194.048 194.043z"/><path fill="#003764" d="M420.627 261.146c-30.865-20.977-70.381-12.435-91.158 19.104-17.282 26.362-43.44 29.642-53.515 29.642-33.048 0-55.597-23.23-62.299-47.255 0 0-.328-1.216-.413-1.491-2.635-10.043-3.301-14.812-3.301-25.468 0-57.421 58.961-121.386 143.808-121.386 86.924 0 136.672 66.17 149.526 102.955a45.098 45.098 0 0 1-.676-1.956c-24.661-71.938-92.867-123.644-173.216-123.644-101.025 0-182.976 81.908-182.976 183.018 0 90.354 65.168 167.687 155.582 167.687 72.075 0 120.533-40.409 142.729-96.127 12.206-30.486 3.586-66.283-24.091-85.079z"/><path fill="#E4032E" d="M504.395 220.8c-10.722-35.887-60.79-106.508-150.647-106.508-84.847 0-143.808 63.965-143.808 121.386 0 10.656.666 15.425 3.301 25.468-1.103-4.398-1.666-8.776-1.666-13.058 0-59.819 59.879-101.255 121.441-101.255 83.359 0 150.916 67.56 150.916 150.884 0 65.317-37.598 121.893-92.198 149.049v.05c70.412-25.501 120.692-92.95 120.692-172.151.001-18.745-2.512-35.278-8.031-53.865z"/><g fill="#575757"><path d="M684.505 303.241v-26.292h-71.424v-19.665h165.62v19.665H707.07v26.292h58.381v62.937h-22.358V322.91H624.261v-19.669h60.244zm80.533-114.069v53.62H742.68V208.84H625.918v-19.668h139.12zM808.51 283.367v-92.746h92.748v92.746H808.51zm5.176 78.879V302h22.359v40.37h125.458v19.876H813.686zm65.627-152.164h-48.651v54.033h48.651v-54.033zm58.174 90.882V185.446h22.359v115.518h-22.359zM1109.73 286.266h-47.823v31.055h-22.359v-31.055h-49.685v-19.667h119.867v19.667zm-37.885-31.675v-45.958h-72.46v-19.461h94.612v65.419h-22.152zm-69.767 108.068v-59.417h22.359v39.75h124.007v19.667h-146.366zm121.938-177.213h22.358V319.39h-22.358v-71.837h-20.289v-19.667h20.289v-42.44zM1280.938 233.89c0 6.489-1.313 12.596-3.934 18.321-2.623 5.728-6.211 10.732-10.765 15.009-4.554 4.28-9.87 7.661-15.94 10.143-6.076 2.484-12.494 3.727-19.255 3.727-6.764 0-13.182-1.243-19.253-3.727-6.074-2.482-11.386-5.863-15.942-10.143-4.554-4.276-8.144-9.28-10.765-15.009-2.623-5.726-3.934-11.832-3.934-18.321 0-6.486 1.311-12.593 3.934-18.321 2.621-5.726 6.211-10.731 10.765-15.01 4.556-4.276 9.868-7.66 15.942-10.145 6.071-2.483 12.489-3.725 19.253-3.725 6.76 0 13.179 1.242 19.255 3.725 6.071 2.485 11.386 5.869 15.94 10.145 4.554 4.279 8.142 9.283 10.765 15.01 2.62 5.728 3.934 11.835 3.934 18.321zm-87.573 63.555h144.089v66.664h-22.358v-46.788h-121.731v-19.876zm65.836-63.348c0-3.862-.76-7.485-2.279-10.869-1.52-3.38-3.518-6.382-6.004-9.006-2.623-2.484-5.624-4.483-9.005-6.003-3.383-1.518-7.007-2.278-10.869-2.278-3.866 0-7.452.76-10.765 2.278a32.588 32.588 0 0 0-8.902 6.003c-2.484 2.624-4.487 5.626-6.004 9.006-1.52 3.384-2.277 7.007-2.277 10.869 0 3.866.757 7.453 2.277 10.766a32.565 32.565 0 0 0 6.004 8.901 32.584 32.584 0 0 0 8.902 6.004c3.313 1.52 6.899 2.277 10.765 2.277 3.862 0 7.486-.757 10.869-2.277 3.381-1.519 6.382-3.52 9.005-6.004a32.602 32.602 0 0 0 6.004-8.901c1.519-3.313 2.279-6.9 2.279-10.766zm55.895-48.651h22.358V286.68h-22.358V185.446zM1487.34 311.11h-49.686v48.858h-22.358V311.11h-47.824v-19.876h119.868v19.876zm-12.422-76.806c0 6.211-1.277 12.079-3.83 17.595a46.378 46.378 0 0 1-10.455 14.492c-4.419 4.141-9.594 7.422-15.528 9.834-5.935 2.416-12.213 3.622-18.838 3.622-6.625 0-12.907-1.207-18.84-3.622-5.935-2.412-11.111-5.692-15.527-9.834a46.218 46.218 0 0 1-10.453-14.492c-2.556-5.517-3.83-11.384-3.83-17.595s1.274-12.075 3.83-17.597a46.314 46.314 0 0 1 10.453-14.492c4.417-4.141 9.592-7.418 15.527-9.834 5.934-2.413 12.215-3.622 18.84-3.622s12.903 1.209 18.838 3.622c5.934 2.417 11.109 5.693 15.528 9.834 4.415 4.14 7.899 8.973 10.455 14.492 2.553 5.522 3.83 11.386 3.83 17.597zm-21.945 0c0-7.175-2.623-13.353-7.866-18.529-5.247-5.175-11.525-7.763-18.838-7.763-7.317 0-13.56 2.588-18.736 7.763-5.177 5.176-7.764 11.355-7.764 18.529 0 7.178 2.587 13.352 7.764 18.529 5.175 5.175 11.419 7.762 18.736 7.762 7.313 0 13.591-2.587 18.838-7.762 5.243-5.176 7.866-11.351 7.866-18.529zm48.652-48.858h22.358v180.318h-22.358V185.446zM1676.144 293.72h-47.824v27.326h-22.358V293.72h-49.686v-19.667h119.868v19.667zm-107.653 68.939V311.11h22.36v32.089h124.008v19.46h-146.368zm91.713-137.671c0 5.797-1.211 11.215-3.624 16.252a46.12 46.12 0 0 1-9.626 13.352c-4.141 3.727-8.938 6.697-14.387 8.902-5.454 2.21-11.284 3.313-17.495 3.313-6.209 0-12.042-1.102-17.493-3.313-5.454-2.205-10.248-5.175-14.389-8.902a45.963 45.963 0 0 1-9.626-13.352c-2.417-5.037-3.622-10.455-3.622-16.252s1.205-11.212 3.622-16.252a46.062 46.062 0 0 1 9.626-13.353c4.141-3.726 8.935-6.692 14.389-8.901 5.451-2.206 11.284-3.313 17.493-3.313 6.211 0 12.04 1.107 17.495 3.313 5.449 2.209 10.246 5.175 14.387 8.901a46.2 46.2 0 0 1 9.626 13.353c2.413 5.04 3.624 10.455 3.624 16.252zm-21.739 0c0-6.346-2.313-11.729-6.935-16.148-4.626-4.415-10.113-6.624-16.459-6.624-6.35 0-11.835 2.209-16.459 6.624-4.626 4.419-6.935 9.802-6.935 16.148 0 6.351 2.309 11.733 6.935 16.148 4.624 4.42 10.109 6.624 16.459 6.624 6.346 0 11.833-2.205 16.459-6.624 4.622-4.415 6.935-9.798 6.935-16.148zm51.964-39.542h22.36v137.671h-22.36v-66.455h-25.049v-19.46h25.049v-51.756zM1848.181 266.391c0 5.523-1.138 10.765-3.417 15.733a40.978 40.978 0 0 1-9.419 13.043c-4.004 3.727-8.695 6.625-14.078 8.695-2.21.829-4.212 1.45-6.004 1.864V328.5h49.686v19.667h-119.868V328.5h47.822v-22.772c-1.794-.414-3.797-1.036-6.004-1.864-5.382-2.07-10.077-4.968-14.078-8.695a40.958 40.958 0 0 1-9.419-13.043c-2.277-4.968-3.417-10.21-3.417-15.733 0-5.517 1.14-10.765 3.417-15.733s5.415-9.316 9.419-13.042c4.001-3.727 8.695-6.625 14.078-8.695 5.384-2.071 11.109-3.105 17.185-3.105 6.071 0 11.801 1.035 17.183 3.105 5.382 2.07 10.073 4.968 14.078 8.695a40.97 40.97 0 0 1 9.419 13.042c2.278 4.967 3.417 10.214 3.417 15.731zm-56.312-62.934v-19.253h24.223v19.253h42.854v19.254h-110.137v-19.254h43.06zm34.573 62.934c0-5.932-2.174-11.04-6.521-15.319-4.348-4.276-9.626-6.417-15.837-6.417s-11.458 2.141-15.735 6.417c-4.28 4.278-6.418 9.387-6.418 15.319 0 5.937 2.138 11.044 6.418 15.32 4.276 4.278 9.524 6.416 15.735 6.416s11.489-2.138 15.837-6.416c4.347-4.276 6.521-9.382 6.521-15.32zm52.79-80.945h22.36v180.318h-22.36V185.446z"/></g></svg>