<svg width="106" height="40" viewBox="0 0 106 40" fill="none" xmlns="http://www.w3.org/2000/svg">
<g clip-path="url(#clip0_616_3942)">
<path d="M105.804 8.97229H102.103V34.1081H105.804V8.97229Z" fill="#06286B"/>
<path d="M53.3426 8.97229H49.472V18.8818H39.6241V15.5676H45.7702L48.3615 12.8296H39.6241V8.97229H35.7535L35.748 21.6252H53.3426V8.97229Z" fill="#06286B"/>
<path d="M67.6821 25.3395H63.8115V34.1077H81.1992V31.3642H67.6821V25.3395Z" fill="#06286B"/>
<path d="M94.0889 18.3002V9.66919H90.436V18.3002C90.436 19.436 89.8426 23.2933 84.5186 24.5828L86.4293 27.1287C89.1839 26.2837 91.0621 24.8516 92.2597 23.3098C93.4628 24.8571 95.3464 26.2892 98.101 27.1342L100.017 24.5883C94.6822 23.3043 94.0834 19.4415 94.0834 18.3057L94.0889 18.3002Z" fill="#06286B"/>
<path d="M32.8135 26.9752H42.6941V34.1082H46.3959V26.9752H56.282V24.2317H32.8135V26.9752Z" fill="#06286B"/>
<path d="M72.4287 18.4702H77.0233V26.975H80.7252V8.97229H77.0233V15.7267H72.4287V18.4702Z" fill="#06286B"/>
<path d="M66.9247 19.9572C68.1223 21.4936 69.6412 22.9202 72.3849 23.7597L74.2957 21.5045C68.9716 20.2151 68.7375 16.0669 68.7375 14.9311V14.5032H72.1562L74.7421 11.7597H68.7375V8.97229H65.1119V11.7597H60.6098V14.5032H65.1119V14.9311C65.1119 16.0669 64.8778 20.2151 59.5537 21.5045L61.4645 23.7597C64.2082 22.9202 65.727 21.499 66.9247 19.9572Z" fill="#06286B"/>
<path d="M25.0188 34.1055L16.7495 39.9985L0.200195 34.1055L8.47486 28.218L25.0188 34.1055Z" fill="url(#paint0_linear_616_3942)"/>
<path d="M0.200195 6.61176L8.47486 0.724243V28.2194L0.200195 34.107V6.61176Z" fill="#06286B"/>
<path d="M16.7503 13.4586L8.47559 19.3461L16.7503 22.2926V39.9991L25.0195 34.1061V16.4051L16.7503 13.4586Z" fill="#06286B"/>
<path d="M16.749 5.88678L25.0182 -0.000732422V12.0102L16.749 17.8978V5.88678Z" fill="#39BB9D"/>
</g>
<defs>
<linearGradient id="paint0_linear_616_3942" x1="6.78182" y1="31.9821" x2="29.0658" y2="39.9794" gradientUnits="userSpaceOnUse">
<stop stop-color="#06286B"/>
<stop offset="0.06" stop-color="#0A346F"/>
<stop offset="0.17" stop-color="#15547A"/>
<stop offset="0.32" stop-color="#27878B"/>
<stop offset="0.45" stop-color="#39BB9D"/>
</linearGradient>
<clipPath id="clip0_616_3942">
<rect width="105.6" height="40" fill="white" transform="translate(0.200195)"/>
</clipPath>
</defs>
</svg>
