<svg xmlns="http://www.w3.org/2000/svg" width="819.48309mm" height="200mm" viewBox="0 0 819.48309 200"><path d="M0 0h4.713s.266 15.898 12.122 27.078l-1.347 1.211S8.757 22.168 4.147 13.416l-.588 14.885H1.148L.561 13.416c-4.606 8.752-11.336 14.873-11.336 14.873l-1.352-1.211C-.273 15.898 0 0 0 0" style="fill:#288943;fill-opacity:1;fill-rule:evenodd;stroke:none" transform="matrix(2.96168 0 0 -2.96168 78.279 200)"/><path d="M0 0c0-7.961-6.455-14.416-14.417-14.416-7.96 0-14.414 6.455-14.414 14.416s6.454 14.414 14.414 14.414C-6.455 14.414 0 7.961 0 0" style="fill:#ed1c24;fill-opacity:1;fill-rule:evenodd;stroke:none" transform="matrix(2.96168 0 0 -2.96168 127.945 42.69)"/><path d="M0 0c0-7.961-6.452-14.416-14.413-14.416-7.962 0-14.415 6.455-14.415 14.416s6.453 14.414 14.415 14.414C-6.452 14.414 0 7.961 0 0" style="fill:#ed1c24;fill-opacity:1;fill-rule:evenodd;stroke:none" transform="matrix(2.96168 0 0 -2.96168 85.38 116.078)"/><path d="M0 0c0-7.961-6.455-14.416-14.415-14.416-7.961 0-14.416 6.455-14.416 14.416s6.455 14.414 14.416 14.414C-6.455 14.414 0 7.961 0 0" style="fill:#ed1c24;fill-opacity:1;fill-rule:evenodd;stroke:none" transform="matrix(2.96168 0 0 -2.96168 170.504 116.078)"/><path d="M321.104 139.415h30.85v-2.238h-30.85z" style="fill:#231f20;fill-opacity:1;fill-rule:nonzero;stroke:none;stroke-width:2.1095" transform="translate(134.445 -19.782) scale(1.40397)"/><path d="M0 0h-11.441v-.965h9.496" style="fill:#231f20;fill-opacity:1;fill-rule:nonzero;stroke:none" transform="matrix(2.96168 0 0 -2.96168 623.997 153.672)"/><path d="M0 0c.363.613.649 2.053.649 3.024v3.439h1.956V3.646c0-1.482-.12-2.814-.6-3.646Z" style="fill:#231f20;fill-opacity:1;fill-rule:nonzero;stroke:none" transform="matrix(2.96168 0 0 -2.96168 616.28 172.813)"/><path d="M0 0v10.441h1.939V7.163h1.707v-.966H1.939V.003Z" style="fill:#231f20;fill-opacity:1;fill-rule:nonzero;stroke:none" transform="matrix(2.96168 0 0 -2.96168 427.734 184.31)"/><path d="M0 0v-10.441l1.938.003V0Z" style="fill:#231f20;fill-opacity:1;fill-rule:nonzero;stroke:none" transform="matrix(2.96168 0 0 -2.96168 572.468 153.385)"/><path d="M0 0h-2.085c-.365-3.549-1.822-6.594-4.168-8.605l.634-.67C-3.85-7.967-2.403-6.184-1.44-4.089l.397.863.397-.863c.968-2.095 2.412-3.878 4.185-5.186l.626.67C1.82-6.594.365-3.549 0 0" style="fill:#231f20;fill-opacity:1;fill-rule:nonzero;stroke:none" transform="matrix(2.96168 0 0 -2.96168 410.672 153.862)"/><path d="M0 0v-9.454h-11.692v-.963H1.936V0Z" style="fill:#231f20;fill-opacity:1;fill-rule:nonzero;stroke:none" transform="matrix(2.96168 0 0 -2.96168 479.225 153.385)"/><path d="M0 0v-1.059h14.625V0H8.276v2.689H6.35V0Z" style="fill:#231f20;fill-opacity:1;fill-rule:nonzero;stroke:none" transform="matrix(2.96168 0 0 -2.96168 681.669 181.212)"/><path d="M0 0h-8.185v4.825h7.651c.395 0 .534-.151.534-.495Zm.409 5.795h-10.536V-.923h12.07v5.278c0 .836-.373 1.44-1.534 1.44" style="fill:#231f20;fill-opacity:1;fill-rule:nonzero;stroke:none" transform="matrix(2.96168 0 0 -2.96168 715.444 171.089)"/><path d="M0 0v-1.058h14.623V0H8.276v2.083H6.35V0Z" style="fill:#231f20;fill-opacity:1;fill-rule:nonzero;stroke:none" transform="matrix(2.96168 0 0 -2.96168 491.173 172.77)"/><path d="M0 0c-.39 0-.526.152-.526.496v2.496h7.714V0Zm-2.416 3.938V.482c0-.83.37-1.43 1.524-1.43h9.971v4.886z" style="fill:#231f20;fill-opacity:1;fill-rule:nonzero;stroke:none" transform="matrix(2.96168 0 0 -2.96168 741.51 187.91)"/><path d="M220.966 126h22.33v-2.033h-22.33z" style="fill:#231f20;fill-opacity:1;fill-rule:nonzero;stroke:none;stroke-width:2.1095" transform="translate(134.445 -19.782) scale(1.40397)"/><path d="M229.836 125.91h4.597v-3.738h-4.597zM229.836 143.973h4.597v-4.902h-4.597z" style="fill:#231f20;fill-opacity:1;fill-rule:nonzero;stroke:none;stroke-width:2.1095" transform="translate(134.445 -19.782) scale(1.40397)"/><path d="M0 0c0 1.5 1.472 2.717 3.275 2.717C5.087 2.717 6.561 1.5 6.561 0c0-1.497-1.474-2.715-3.286-2.715C1.472-2.715 0-1.497 0 0m-1.915 0c0-1.955 2.326-3.546 5.19-3.546 2.867 0 5.202 1.591 5.202 3.546 0 1.955-2.335 3.545-5.202 3.545-2.864 0-5.19-1.59-5.19-3.545" style="fill:#231f20;fill-opacity:1;fill-rule:nonzero;stroke:none" transform="matrix(2.96168 0 0 -2.96168 450.643 166.479)"/><path d="M0 0v-9.454h-11.695v-.963h13.63V0Z" style="fill:#231f20;fill-opacity:1;fill-rule:nonzero;stroke:none" transform="matrix(2.96168 0 0 -2.96168 813.72 153.385)"/><path d="M459.217 126h22.33v-2.033h-22.33z" style="fill:#231f20;fill-opacity:1;fill-rule:nonzero;stroke:none;stroke-width:2.1095" transform="translate(134.445 -19.782) scale(1.40397)"/><path d="M468.088 125.91h4.59v-3.738h-4.59zM468.088 143.973h4.59v-4.902h-4.59z" style="fill:#231f20;fill-opacity:1;fill-rule:nonzero;stroke:none;stroke-width:2.1095" transform="translate(134.445 -19.782) scale(1.40397)"/><path d="M0 0c0 1.5 1.468 2.717 3.274 2.717C5.087 2.717 6.555 1.5 6.555 0c0-1.497-1.468-2.715-3.281-2.715C1.468-2.715 0-1.497 0 0m-1.918 0c0-1.955 2.328-3.546 5.192-3.546C6.14-3.546 8.475-1.955 8.475 0c0 1.955-2.335 3.545-5.201 3.545C.41 3.545-1.918 1.955-1.918 0" style="fill:#231f20;fill-opacity:1;fill-rule:nonzero;stroke:none" transform="matrix(2.96168 0 0 -2.96168 785.142 166.479)"/><path d="M0 0h10.158v-3.136h1.887V.908H0Z" style="fill:#231f20;fill-opacity:1;fill-rule:nonzero;stroke:none" transform="matrix(2.96168 0 0 -2.96168 495.022 181.29)"/><path d="M0 0h-8.185v-.783c0-.343.136-.496.53-.496L0-1.275Zm1.947 2.984v-5.228H-8.607c-1.154 0-1.524.596-1.524 1.426v3.802h1.946V.918H0v2.066z" style="fill:#231f20;fill-opacity:1;fill-rule:nonzero;stroke:none" transform="matrix(2.96168 0 0 -2.96168 524.948 162.03)"/><path d="M0 0c0 1.535 1.71 2.785 3.806 2.785 2.1 0 3.814-1.25 3.814-2.785 0-1.533-1.714-2.783-3.814-2.783C1.71-2.783 0-1.533 0 0m-1.96 0c0-2.041 2.585-3.705 5.766-3.705 3.177 0 5.77 1.664 5.77 3.705 0 2.043-2.593 3.701-5.77 3.701C.625 3.701-1.96 2.043-1.96 0" style="fill:#231f20;fill-opacity:1;fill-rule:nonzero;stroke:none" transform="matrix(2.96168 0 0 -2.96168 595.728 188.98)"/><path d="M0 0v2.547h10.127v.924H-1.944V-.027c0-.835.372-1.439 1.536-1.439h10.535v.97H.534C.137-.496 0-.346 0 0" style="fill:#231f20;fill-opacity:1;fill-rule:nonzero;stroke:none" transform="matrix(2.96168 0 0 -2.96168 643.557 164.211)"/><path d="M0 0c0 1.535 1.71 2.785 3.805 2.785 2.1 0 3.814-1.25 3.814-2.785 0-1.533-1.714-2.783-3.814-2.783C1.71-2.783 0-1.533 0 0m-1.958 0c0-2.041 2.585-3.705 5.763-3.705 3.18 0 5.771 1.664 5.771 3.705 0 2.043-2.591 3.701-5.771 3.701C.627 3.701-1.958 2.043-1.958 0" style="fill:#231f20;fill-opacity:1;fill-rule:nonzero;stroke:none" transform="matrix(2.96168 0 0 -2.96168 644.393 188.98)"/><path d="M0 0v-1.058h14.62V0H8.274v2.341H6.347V0Z" style="fill:#231f20;fill-opacity:1;fill-rule:nonzero;stroke:none" transform="matrix(2.96168 0 0 -2.96168 634.024 172.821)"/><path d="M0 0v2.863h1.927V-.03" style="fill:#231f20;fill-opacity:1;fill-rule:nonzero;stroke:none" transform="matrix(2.96168 0 0 -2.96168 602.044 173.53)"/><path d="M423.906 137.624h30.848v-2.24h-30.848z" style="fill:#231f20;fill-opacity:1;fill-rule:nonzero;stroke:none;stroke-width:2.1095" transform="translate(134.445 -19.782) scale(1.40397)"/><path d="M0 0h-11.438v-.967h9.493" style="fill:#231f20;fill-opacity:1;fill-rule:nonzero;stroke:none" transform="matrix(2.96168 0 0 -2.96168 768.324 153.95)"/><path d="M0 0c.22.793.509 1.377.509 2.348v3.349h1.954V2.969c0-1.483-.121-1.959-.46-2.969Z" style="fill:#231f20;fill-opacity:1;fill-rule:nonzero;stroke:none" transform="matrix(2.96168 0 0 -2.96168 761.03 170.823)"/><path d="M288.907 125.756h20.135v-2.034h-20.135z" style="fill:#231f20;fill-opacity:1;fill-rule:nonzero;stroke:none;stroke-width:2.1095" transform="translate(134.445 -19.782) scale(1.40397)"/><path d="M0 0h-2.112a13.384 13.384 0 0 0-4.134-8.335l.629-.655a13.45 13.45 0 0 1 4.562 6.139A13.458 13.458 0 0 1 3.507-8.99l.629.655C1.873-6.19.343-3.273 0 0" style="fill:#231f20;fill-opacity:1;fill-rule:nonzero;stroke:none" transform="matrix(2.96168 0 0 -2.96168 557.321 154.89)"/><path d="M0 0v26.271h4.879v-8.255h4.302v-2.428H4.879V.006Z" style="fill:#231f20;fill-opacity:1;fill-rule:nonzero;stroke:none" transform="matrix(2.96168 0 0 -2.96168 294.033 96.636)"/><path d="M0 0h-4.875v-4.132h-9.061v-2.436h9.061v-5.498h-9.061v-2.43h9.061v-6.174L0-20.664Z" style="fill:#231f20;fill-opacity:1;fill-rule:nonzero;stroke:none" transform="matrix(2.96168 0 0 -2.96168 691.566 18.834)"/><path d="M0 0h2.613v-18.557h4.863v29.385H2.613V2.453H0v8.375h-4.866v-29.385H0Z" style="fill:#231f20;fill-opacity:1;fill-rule:nonzero;stroke:none" transform="matrix(2.96168 0 0 -2.96168 797.342 50.915)"/><path d="M0 0h4.875v-6.773h4.583v-2.426H4.875v-8.621H0Z" style="fill:#231f20;fill-opacity:1;fill-rule:nonzero;stroke:none" transform="matrix(2.96168 0 0 -2.96168 420.31 18.834)"/><path d="M0 0c0 4.552 4.281 8.246 9.538 8.246 5.275 0 9.57-3.694 9.57-8.246 0-4.546-4.295-8.242-9.57-8.242C4.281-8.242 0-4.546 0 0m-4.915 0c0-5.797 6.484-10.517 14.451-10.517 7.989 0 14.485 4.72 14.485 10.517 0 5.801-6.496 10.519-14.485 10.519C1.569 10.519-4.915 5.801-4.915 0" style="fill:#231f20;fill-opacity:1;fill-rule:nonzero;stroke:none" transform="matrix(2.96168 0 0 -2.96168 365.168 105.122)"/><path d="M0 0h-11.058v15.198h6.005A5.068 5.068 0 0 0 0 10.144Zm-3.045 17.65h-12.89V-2.442h20.83V9.71c0 4.364-3.573 7.94-7.94 7.94" style="fill:#231f20;fill-opacity:1;fill-rule:nonzero;stroke:none" transform="matrix(2.96168 0 0 -2.96168 759.48 72.76)"/><path d="M0 0h-5.239c-.921-8.931-4.585-16.59-10.49-21.656l1.591-1.679c4.456 3.284 8.09 7.775 10.521 13.048l.998 2.172 1.003-2.172C.811-15.56 4.445-20.051 8.902-23.335l1.587 1.679C4.587-16.59.924-8.931 0 0" style="fill:#231f20;fill-opacity:1;fill-rule:nonzero;stroke:none" transform="matrix(2.96168 0 0 -2.96168 251.103 20.604)"/><path d="M0 0c0 4.295 3.685 7.788 8.216 7.788 4.538 0 8.236-3.493 8.236-7.788s-3.698-7.789-8.236-7.789C3.685-7.789 0-4.295 0 0m-4.811 0c0-5.438 5.84-9.859 13.022-9.859C15.404-9.859 21.26-5.438 21.26 0c0 5.435-5.856 9.858-13.049 9.858C1.029 9.858-4.811 5.435-4.811 0" style="fill:#231f20;fill-opacity:1;fill-rule:nonzero;stroke:none" transform="matrix(2.96168 0 0 -2.96168 477.105 45.31)"/><path d="M0 0c-.987 0-1.335.38-1.335 1.245v3.274H18.17v8.186H-6.208v-2.42h19.503V6.828H-6.208V1.172c0-2.097.932-3.605 3.848-3.605h21.04V0Z" style="fill:#231f20;fill-opacity:1;fill-rule:nonzero;stroke:none" transform="matrix(2.96168 0 0 -2.96168 356.02 57.926)"/><path d="M0 0c0 4.295 3.686 7.788 8.217 7.788 4.542 0 8.237-3.493 8.237-7.788s-3.695-7.789-8.237-7.789C3.686-7.789 0-4.295 0 0m-4.812 0c0-5.438 5.845-9.859 13.025-9.859 7.193 0 13.048 4.421 13.048 9.859 0 5.435-5.855 9.858-13.048 9.858C1.033 9.858-4.812 5.435-4.812 0" style="fill:#231f20;fill-opacity:1;fill-rule:nonzero;stroke:none" transform="matrix(2.96168 0 0 -2.96168 597.773 45.31)"/><path d="M0 0v-23.871h-28.322v-2.425H4.871V0Z" style="fill:#231f20;fill-opacity:1;fill-rule:nonzero;stroke:none" transform="matrix(2.96168 0 0 -2.96168 549.906 18.834)"/><path d="M0 0c-.99 0-1.335.381-1.335 1.248v2.104h24.654v7.734H-6.209V8.664h24.657V5.662H-6.209V1.174c0-2.097.93-3.61 3.846-3.61h26.195V0Z" style="fill:#231f20;fill-opacity:1;fill-rule:nonzero;stroke:none" transform="matrix(2.96168 0 0 -2.96168 622.635 122.678)"/><path d="M52.615 132.502h121.896v-1.793H52.615Z" style="fill:#231f20;fill-opacity:1;fill-rule:nonzero;stroke:none;stroke-width:2.1095" transform="translate(134.445 -19.782) scale(1.40397)"/></svg>