<svg xmlns="http://www.w3.org/2000/svg" xml:space="preserve" width="639.19843" height="200" viewBox="0 0 639.19842 200"><path d="M138.712 437.935c-6.68 6.308-16.406-2.607-10.81-10.936 2.86-4.258 10.222-7.025 20.781-6.47 1.508.08 2 .412.501 1.094-9.244 4.199-5.544 11.66-10.472 16.313" style="fill:#6fba2c;fill-opacity:1;fill-rule:evenodd;stroke:none" transform="matrix(2.75835 0 0 -2.75835 -252.653 1290.687)"/><path d="M117.12 418.49c.69 1.309.874 1.635-.898.81-10.022-4.656-11.986 2.857-18.644 1.857-3.695-.554-6.532-4.108-5.892-8.01.768-4.66 6.17-6.425 10.463-5.987 8.85.905 13.835 9.166 14.971 11.33" style="fill:#f39700;fill-opacity:1;fill-rule:evenodd;stroke:none" transform="matrix(2.75835 0 0 -2.75835 -252.653 1290.687)"/><path d="M109.463 421.671c.354-.3.815-.88-.473-.685-16.027 2.417-18.936 11.897-14.77 16.557 2.21 2.471 6.94 2.79 9.2.297 4.281-4.72-.332-10.785 6.043-16.169" style="fill:#0093d4;fill-opacity:1;fill-rule:evenodd;stroke:none" transform="matrix(2.75835 0 0 -2.75835 -252.653 1290.687)"/><path d="M167.239 459.636c1.562-.06 1.962-.372.38-1.004-3.766-1.507-7.568-4.31-7.718-10.65-.217-9.143-13.447-6.717-11.956 2.838 1.685 10.816 17.48 8.883 19.294 8.816" style="fill:#f39700;fill-opacity:1;fill-rule:evenodd;stroke:none" transform="matrix(2.75835 0 0 -2.75835 -252.653 1290.687)"/><path d="M120.483 413.127c2.716-8.126 14.139-5.294 13.194 2.516-.813 6.725-8.853 4.57-8.853 11.969 0 .901-.074 1.643-.978.263-2.52-3.85-4.712-10.723-3.363-14.748" style="fill:#b964a4;fill-opacity:1;fill-rule:evenodd;stroke:none" transform="matrix(2.75835 0 0 -2.75835 -252.653 1290.687)"/><path d="M169.692 417.546c-7.03-4.969-9.602 1.04-14.661 1.321-5.83.33-7.518-9.136-.022-10.879 3.475-.82 12.048.855 15.572 9.388.189.45-.004.96-.89.17" style="fill:#6fba2c;fill-opacity:1;fill-rule:evenodd;stroke:none" transform="matrix(2.75835 0 0 -2.75835 -252.653 1290.687)"/><path d="M167.653 423.764c1.574 7.988-5.056 15.448-5.687 16.239-.166.208-1.518 1.838-.932-.556 1.752-7.146-1.942-9.17-3.062-14.263-1.615-7.324 8.305-8.384 9.681-1.42" style="fill:#f39700;fill-opacity:1;fill-rule:evenodd;stroke:none" transform="matrix(2.75835 0 0 -2.75835 -252.653 1290.687)"/><path d="M126.974 439.995c-8.41-.85-13.312-3.2-15.957-5.252-3.899-3.025-3.437-7.847-1.106-10.188 2.447-2.46 7.143-3.218 10.187.525 3.666 4.519.076 10.024 7.266 14.193 1.053.609.392.802-.39.722" style="fill:#eb6100;fill-opacity:1;fill-rule:nonzero;stroke:none" transform="matrix(2.75835 0 0 -2.75835 -252.653 1290.687)"/><path d="M181.447 438.98c-1.584-.683-2.818-1.946-3.706-3.405-.935-1.541-1.3-3.349-2.25-4.877-.82-1.32-1.867-2.588-3.102-3.514-.683-.51-1.065-1.232.244-.959 1.05.215 2.534.425 4.335.242 1.805-.179 4.196-1.051 5.282-1.314 2.233-.741 4.843-.708 6.532 1.077 2.76 2.904 2.405 8.291-.299 11.134-1.767 1.857-4.64 2.649-7.036 1.616" style="fill:#6fba2c;fill-opacity:1;fill-rule:evenodd;stroke:none" transform="matrix(2.75835 0 0 -2.75835 -252.653 1290.687)"/><path d="M187.964 422.391c-5.648.886-8.42-3.41-16.732 2.313-.737.506-1.358.928-.812-.752.892-2.734 4.856-13.713 12.537-15.663 11.245-2.856 14.225 12.401 5.007 14.102M134.568 463.004c-1.217-6.247 3.61-9.202 2.423-18.392-.094-.73.566-.712.746-.304 3.665 8.425 9.14 8.096 11.212 14.597 3.098 9.716-12.774 12.336-14.38 4.1" style="fill:#0093d4;fill-opacity:1;fill-rule:evenodd;stroke:none" transform="matrix(2.75835 0 0 -2.75835 -252.653 1290.687)"/><path d="M110.648 438.925c7.452-.585 7.837 4.904 21.074 4.159 1.077-.06.946.646.254.854-11.866 3.58-13.888 11.18-20.057 11.415-10.08.384-11.504-15.631-1.271-16.428" style="fill:#b964a4;fill-opacity:1;fill-rule:evenodd;stroke:none" transform="matrix(2.75835 0 0 -2.75835 -252.653 1290.687)"/><path d="M119.677 454.392c4.566-5.867 8.113-1.994 13.35-7.646.764-.82 1.34-.42.746.542-3.65 5.912.455 11.26-2.613 15.17-5.775 7.364-16.855-1.163-11.483-8.066M162.384 448.319c0-6.224 6.841-9.107 7.28-20.708.028-.771.734-.791.883-.033 2.261 11.558 8.598 13.792 9.144 20.436.845 10.264-17.307 12.123-17.307.305" style="fill:#eb6100;fill-opacity:1;fill-rule:evenodd;stroke:none" transform="matrix(2.75835 0 0 -2.75835 -252.653 1290.687)"/><path d="M156.286 427.936c2.77 2.396 3.724 6.665 1.208 9.759-4.615 5.286-9.566.023-14.279 8.849-.775 1.45-1.278 1.139-.996-.43.97-5.389-.8-10.747 2.35-15.533 3.121-4.741 8.696-5.266 11.717-2.645" style="fill:#b964a4;fill-opacity:1;fill-rule:evenodd;stroke:none" transform="matrix(2.75835 0 0 -2.75835 -252.653 1290.687)"/><path d="M142.017 417.9a6.097 6.097 0 0 1-6.098-6.097v-16.39h12.196v16.39a6.097 6.097 0 0 1-6.098 6.098" style="fill:#aaa893;fill-opacity:1;fill-rule:evenodd;stroke:none" transform="matrix(2.75835 0 0 -2.75835 -252.653 1290.687)"/><path d="M223.156 421.332c1.746-2.064 6.594-3.64 10.928-3.64h.777v3.329h-.777c-3.512 0-7.114 1.678-8.186 3.83h8.578v3.342h-8.804c-.29 1.813-.885 2.39-.885 2.39h-4.729s.535-.578.784-2.39h-9.006v-3.342h8.578c-1.072-2.152-4.674-3.83-8.182-3.83h-.779v-3.33h.78c4.331 0 9.17 1.577 10.923 3.64M227.941 405.032c0-2.108-2.15-3.804-4.785-3.804-2.637 0-4.779 1.696-4.779 3.804 0 2.094 2.142 3.791 4.78 3.791 2.634 0 4.784-1.697 4.784-3.79m9.781 8.25v3.337h-29.13v-3.338h12.286v-1.28c-4.29-.745-7.013-3.586-7.013-6.97 0-3.962 3.71-7.173 9.291-7.173 5.582 0 9.297 3.211 9.297 7.173 0 3.388-2.727 6.225-7.02 6.97v1.28zM313.465 403.758v7.514h-4.55v-7.514h-9.805v-3.343h24.218v3.343zM300.824 417.09a4.364 4.364 0 0 1 4.367-4.372l15.928-.004v3.336h-14.467c-.71 0-1.277.574-1.277 1.284v3.974c0 2.85-.612 4.037-.838 4.376h16.582v3.34h-21.217s.922-.994.922-4.488zM293.197 423.443v5.205c0 .712-.578 1.281-1.285 1.281h-3.27v-11.242h-.004c-.63-.297-1.546-.723-4.115-.723h-8.148c-.709 0-1.278.574-1.278 1.278v5.178c0 3.494-1.04 4.485-1.04 4.485h-4.43s.92-.99.92-4.485v-5.425a4.363 4.363 0 0 1 4.36-4.363h7.95c2.404 0 4.252.211 5.781.827l.004.006v-1.858h4.555v6.5h4.506v3.336zM279.644 409.051h8.998v-6.995h-7.717c-.703 0-1.28.576-1.28 1.283zm-4.547-5.965a4.368 4.368 0 0 1 4.367-4.362h13.733v13.663h-18.1zM256.977 401.228c-2.607 0-4.715 2.087-4.715 4.663 0 2.578 2.108 4.668 4.715 4.668 2.604 0 4.709-2.09 4.709-4.668 0-2.576-2.105-4.663-4.71-4.663m0 12.663c-5.095 0-9.224-3.593-9.224-8.014 0-4.427 4.129-8.018 9.225-8.018 5.092 0 9.223 3.591 9.223 8.018 0 4.421-4.131 8.014-9.223 8.014M264.926 429.9h-3.273v-7.165h-4.756v-3.34h4.756v-5.787h4.546v15.013c0 .705-.57 1.279-1.273 1.279" style="fill:#004c98;fill-opacity:1;fill-rule:nonzero;stroke:none" transform="matrix(2.75835 0 0 -2.75835 -252.653 1290.687)"/><path d="M249.053 418.66c1.346-2.084 5.289-4.167 8.438-4.167h.304v3.457c-2.73.324-6.168 2.044-6.467 6.218h6.008v3.343h-6.02c-.228 2.321-.966 3.033-.966 3.033h-4.5s.65-.712.85-3.033h-5.934v-3.343h6.008c-.295-4.174-3.735-5.894-6.465-6.218v-3.457h.305c3.152 0 7.093 2.083 8.439 4.166M233.947 443.74v-1.838h10.916v-4.311h.988c.826 0 1.38.537 1.38 1.38v4.77zM236.316 451.364v1.313h8.547v-1.313c0-.363-.242-.595-.6-.595h-7.349c-.358 0-.598.232-.598.595m5.46-3.922v1.488h3.421c1.22 0 2.033.788 2.033 2.036v4.34c0 .844-.553 1.377-1.379 1.377h-.988v-2.165h-8.547v.788c0 .844-.55 1.377-1.377 1.377h-.992v-5.717c0-1.248.816-2.036 2.033-2.036h3.422v-1.488h-7.815v-1.838h16.831c.584.003.951.387.951.957v.881zM278.125 448.155h-3.863c-.36 0-.6.233-.6.598v5.433h5.065v-5.433c0-.365-.243-.598-.602-.598m-6.832 7.871v-7.675c0-1.244.816-2.035 2.035-2.035h5.731c1.22 0 2.037.791 2.037 2.035v6.294c0 .845-.555 1.381-1.381 1.381zM286.025 451.996v4.688h-2.369V443.33h.99c.824 0 1.38.534 1.38 1.38v5.447h2.618v1.839zM276.66 439.871v4.264h-2.37v-4.666c0-1.246.815-2.038 2.032-2.038h9.026c.583.007.953.391.953.964v.877h-9.043c-.358 0-.598.231-.598.6M263.607 441.154c0-1.382-1.477-2.3-3.299-2.3-1.826 0-3.303.918-3.303 2.3 0 1.384 1.477 2.303 3.303 2.303 1.822 0 3.3-.92 3.3-2.303m-12.302 7.32v-1.841h7.817v-1.4c-2.588-.312-4.496-1.921-4.496-4.08 0-2.47 2.39-4.143 5.681-4.143s5.676 1.673 5.676 4.144c0 2.158-1.906 3.764-4.492 4.08v1.399h6.642c.582.005.952.39.952.962v.879zM260.162 451.91c1.45-1.95 4.182-2.841 7.463-2.638v1.889c-2.168 0-5.23.434-5.92 2.797v.003h4.146c.584.003.954.39.954.963v.876h-5.459v1.51h-2.368v-1.51h-5.459v-1.84h5.102l-.002-.002c-.687-2.363-3.752-2.797-5.918-2.797v-1.89c3.277-.202 6.01.689 7.461 2.64M228.691 456.683h-2.15v-4.03h-1.496v4.03h-2.147v-10.367h.772c.822 0 1.375.532 1.375 1.377v3.12h1.496v-5.147h.77c.823 0 1.38.537 1.38 1.38zM222.54 438.854c-1.505 0-2.728.988-2.728 2.49 0 1.505 1.223 2.489 2.727 2.489 1.5 0 2.72-.984 2.72-2.489 0-1.502-1.22-2.49-2.72-2.49m0 6.828c-2.828 0-5.117-1.742-5.117-4.338 0-2.594 2.29-4.334 5.117-4.334 2.824 0 5.113 1.74 5.113 4.334 0 2.596-2.289 4.338-5.113 4.338M216.916 447.845c-1.195 0-2.164.881-2.164 2.221s.969 2.22 2.164 2.22c1.197 0 2.164-.88 2.164-2.22 0-1.34-.967-2.22-2.164-2.22m4.557 2.22c0 1.58-.864 2.82-2.157 3.496h2.813v1.84h-3.961v1.511h-2.371v-1.512h-3.961v-1.839h2.68c-1.293-.677-2.153-1.916-2.153-3.496 0-2.434 2.037-4.067 4.553-4.067s4.557 1.633 4.557 4.067" style="fill:#004c98;fill-opacity:1;fill-rule:nonzero;stroke:none" transform="matrix(2.75835 0 0 -2.75835 -252.653 1290.687)"/></svg>