<svg width="400" height="220" viewBox="0 0 400 220" fill="none" xmlns="http://www.w3.org/2000/svg">
    <path fill="#E2E2E2" d="M9 0h.5v220H9zM224.801 0h.5v220h-.5zM244 0h.5v220h-.5zM391.121 0h.5v220h-.5z"/>
    <path fill="#E2E2E2" d="M400 7v.5H0V7zM400 58v.5H0V58zM400 71v.5H0V71zM400 163.9v.5H0v-.5zM400 153v.5H0v-.5zM400 169.9v.5H0v-.5zM400 180v.5H0v-.5zM400 201v.5H0v-.5zM400 211.004v.5H0v-.5z"/>
    <path d="M11.164 190.833c0-3.03.916-5.446 2.762-7.255 1.839-1.808 4.383-2.769 7.64-2.896 1.717-.073 3.366.007 4.947.274v2.229a18.965 18.965 0 0 0-4.52-.267c-2.584.1-4.532.814-5.828 2.149-1.472 1.488-2.212 3.45-2.212 5.879v.32c0 2.476.76 4.378 2.26 5.733 1.506 1.348 3.453 2.095 5.842 2.236 1.649.1 3.175.026 4.546-.214v2.236c-1.411.24-3.06.307-4.94.207-3.298-.154-5.876-1.115-7.722-2.877-1.852-1.755-2.775-4.177-2.775-7.261v-.507.014zM29.043 180.652h2.728v8.149c1.276-1.595 2.836-2.389 4.675-2.389 1.56 0 2.864.467 3.915 1.388 1.052.921 1.575 2.429 1.575 4.518v8.742H39.2v-9.129c0-2.163-1.147-3.244-3.454-3.244-1.52 0-2.843 1.001-3.976 3.01v9.363h-2.728v-20.408zM45.215 195.748v-8.923h2.728v9.183c0 2.209 1.255 3.31 3.766 3.31 2.51 0 3.725-1.101 3.725-3.31v-9.183h2.728v8.949c0 1.929-.597 3.384-1.792 4.358-1.187.975-2.768 1.455-4.73 1.455-1.96 0-3.575-.447-4.708-1.361-1.14-.915-1.717-2.409-1.717-4.472v-.006zM60.813 192.191c0-1.882.597-3.317 1.764-4.291 1.167-.981 2.748-1.468 4.73-1.468 1.98 0 3.528.52 4.702 1.568 1.174 1.034 1.757 2.422 1.757 4.158v8.889h-2.734v-8.889c0-2.289-1.242-3.431-3.726-3.431-2.483 0-3.759 1.135-3.759 3.431v8.889h-2.734v-8.863.007zM86.877 200.16v-1.008c-1.317 1.248-2.79 1.875-4.425 1.875-1.805 0-3.284-.6-4.465-1.815-1.289-1.375-1.94-3.177-1.94-5.406 0-2.229.651-3.937 1.94-5.452 1.113-1.295 2.6-1.942 4.465-1.942 1.867 0 3.36.681 4.669 2.029v-1.608h2.483v12.472c0 2.843-.624 4.799-1.88 5.873-1.309 1.148-3.148 1.755-5.516 1.815-1.594.04-3.06-.08-4.39-.36v-2.182c1.228.307 2.646.447 4.248.447 1.601 0 2.795-.387 3.616-1.181.801-.788 1.208-1.969 1.208-3.564l-.013.007zm-3.787-1.402c1.378 0 2.64-.734 3.787-2.209v-5.872c-1.127-1.349-2.396-2.036-3.787-2.036-1.316 0-2.354.514-3.128 1.535-.767 1.028-1.153 2.249-1.153 3.65 0 1.402.386 2.563 1.14 3.511.76.941 1.805 1.415 3.141 1.415v.006zM111.373 201.053h-1.846l-6.826-17.064v17.064h-2.545v-20.014h3.576l6.738 16.223 6.671-16.223h3.616v20.014h-2.585v-17.064l-6.792 17.064h-.007zM138.618 193.986c0 2.196-.746 3.984-2.239 5.399-1.493 1.408-3.318 2.116-5.463 2.116-2.144 0-3.861-.701-5.401-2.109-1.533-1.402-2.3-3.203-2.3-5.412s.753-4.051 2.253-5.459c1.513-1.415 3.325-2.123 5.448-2.123 2.124 0 3.963.728 5.463 2.156 1.493 1.428 2.239 3.243 2.239 5.426v.006zm-12.709 0c0 1.562.475 2.85 1.411 3.811.937.974 2.138 1.461 3.596 1.461 1.459 0 2.681-.493 3.61-1.461.923-.961 1.391-2.249 1.391-3.811 0-1.561-.468-2.883-1.391-3.864-.929-.981-2.137-1.475-3.61-1.475-1.472 0-2.653.494-3.596 1.475-.943.988-1.411 2.269-1.411 3.864zM140.938 192.191c0-1.882.59-3.317 1.764-4.291 1.167-.981 2.748-1.468 4.729-1.468 1.982 0 3.536.52 4.696 1.568 1.181 1.034 1.764 2.422 1.764 4.158v8.889h-2.728v-8.889c0-2.289-1.241-3.431-3.732-3.431-2.49 0-3.759 1.135-3.759 3.431v8.889h-2.728v-8.863l-.006.007zM167.002 200.16v-1.008c-1.317 1.248-2.796 1.875-4.431 1.875-1.799 0-3.285-.6-4.458-1.815-1.296-1.375-1.941-3.177-1.941-5.406 0-2.229.651-3.937 1.941-5.452 1.106-1.295 2.598-1.942 4.458-1.942 1.859 0 3.359.681 4.668 2.029v-1.608h2.484v12.472c0 2.843-.631 4.799-1.88 5.873-1.323 1.148-3.162 1.755-5.517 1.815-1.601.04-3.067-.08-4.397-.36v-2.182c1.229.307 2.647.447 4.241.447 1.595 0 2.81-.387 3.61-1.181.808-.788 1.215-1.969 1.215-3.564l.007.007zm-3.794-1.402c1.378 0 2.64-.734 3.794-2.209v-5.872c-1.134-1.349-2.396-2.036-3.794-2.036-1.309 0-2.347.514-3.121 1.535-.767 1.028-1.147 2.249-1.147 3.65 0 1.402.374 2.563 1.134 3.511.76.941 1.805 1.415 3.141 1.415l-.007.006zM172.504 189.835h11.169v2.382h-11.169v-2.382zM189.314 181.04v9.363l8.889-9.363h3.243l-9.404 10.01 9.981 9.997h-3.182l-9.527-9.309v9.309h-2.728v-20.014h2.728v.007zM217.349 193.986c0 2.196-.74 3.984-2.246 5.399-1.5 1.408-3.319 2.116-5.456 2.116-2.138 0-3.861-.701-5.401-2.109-1.527-1.402-2.301-3.203-2.301-5.412s.754-4.051 2.26-5.459c1.5-1.415 3.318-2.123 5.442-2.123s3.963.728 5.456 2.156c1.506 1.428 2.246 3.243 2.246 5.426v.006zm-12.71 0c0 1.562.468 2.85 1.405 3.811.943.974 2.144 1.461 3.596 1.461s2.68-.493 3.61-1.461c.923-.961 1.391-2.249 1.391-3.811 0-1.561-.468-2.883-1.391-3.864-.93-.981-2.131-1.475-3.61-1.475s-2.653.494-3.596 1.475c-.943.988-1.405 2.269-1.405 3.864zM234.105 193.986c0 2.196-.746 3.984-2.246 5.399-1.499 1.408-3.318 2.116-5.462 2.116-2.144 0-3.861-.701-5.401-2.109-1.534-1.402-2.301-3.203-2.301-5.412s.754-4.051 2.267-5.459c1.499-1.415 3.311-2.123 5.442-2.123 2.13 0 3.962.728 5.462 2.156 1.5 1.428 2.246 3.243 2.246 5.426l-.007.006zm-12.716 0c0 1.562.475 2.85 1.418 3.811.937.974 2.138 1.461 3.597 1.461s2.68-.493 3.603-1.461c.936-.961 1.391-2.249 1.391-3.811 0-1.561-.462-2.883-1.391-3.864-.923-.981-2.131-1.475-3.603-1.475-1.473 0-2.653.494-3.597 1.475-.936.988-1.418 2.269-1.418 3.864zM246.407 201.053h-2.727v-20.014h12.377v2.262h-9.65v6.42h8.496v2.236h-8.496v9.096zM272.014 193.986c0 2.196-.746 3.984-2.246 5.399-1.492 1.408-3.318 2.116-5.462 2.116-2.144 0-3.861-.701-5.401-2.109-1.534-1.402-2.307-3.203-2.307-5.412s.753-4.051 2.259-5.459c1.5-1.415 3.318-2.123 5.442-2.123s3.97.728 5.463 2.156c1.492 1.428 2.246 3.243 2.246 5.426l.006.006zm-12.709 0c0 1.562.468 2.85 1.418 3.811.937.974 2.138 1.461 3.59 1.461s2.68-.493 3.603-1.461c.93-.961 1.398-2.249 1.398-3.811 0-1.561-.468-2.883-1.398-3.864-.923-.981-2.124-1.475-3.603-1.475s-2.653.494-3.59 1.475c-.95.988-1.418 2.269-1.418 3.864zM274.335 195.748v-8.923h2.728v9.183c0 2.209 1.248 3.31 3.759 3.31s3.725-1.101 3.725-3.31v-9.183h2.728v8.949c0 1.929-.597 3.384-1.785 4.358-1.194.975-2.768 1.455-4.736 1.455s-3.569-.447-4.709-1.361c-1.147-.915-1.717-2.409-1.717-4.472l.007-.006zM289.93 192.191c0-1.882.59-3.317 1.764-4.291 1.167-.981 2.748-1.468 4.729-1.468 1.982 0 3.529.52 4.696 1.568 1.181 1.034 1.764 2.422 1.764 4.158v8.889h-2.727v-8.889c0-2.289-1.249-3.431-3.733-3.431-2.483 0-3.759 1.135-3.759 3.431v8.889h-2.734v-8.863.007zM311.567 201.447c-1.859 0-3.393-.667-4.594-1.989-1.201-1.321-1.805-3.149-1.805-5.499 0-2.349.617-4.217 1.846-5.552 1.235-1.321 2.755-2.002 4.553-2.002 1.642 0 3.121.581 4.458 1.735v-7.488h2.734v20.401h-2.49v-1.581c-1.296 1.314-2.863 1.975-4.695 1.975h-.007zm.604-12.766c-1.391 0-2.457.487-3.183 1.468-.733.988-1.092 2.256-1.092 3.804s.366 2.776 1.092 3.737c.706.961 1.744 1.468 3.122 1.481h.061-.095.034c1.513 0 2.822-.734 3.915-2.208v-6.234c-1.255-1.374-2.524-2.055-3.82-2.055h-.028l-.006.007zM331.136 199.385c-1.635 1.368-3.365 2.056-5.184 2.056-1.534 0-2.735-.447-3.596-1.342-.862-.894-1.29-2.002-1.29-3.31 0-1.308.536-2.509 1.609-3.403.99-.821 2.293-1.248 3.915-1.282 1.594-.04 3.033.147 4.309.568v-.628c0-2.142-1.31-3.276-3.916-3.396-1.499-.054-2.863.066-4.091.36v-2.176a23.733 23.733 0 0 1 4.37-.387c1.879 0 3.399.481 4.573 1.428 1.174 1.001 1.778 2.45 1.791 4.352v8.829h-2.483v-1.669h-.007zm-.237-4.658a21.542 21.542 0 0 0-2.219-.46 8.624 8.624 0 0 0-1.819-.08c-.868.04-1.56.247-2.056.6-.651.454-.984 1.108-1.004 1.969 0 .854.244 1.502.726 1.922.489.434 1.093.627 1.819.581 1.743-.081 3.257-.755 4.553-2.023v-2.515.006zM340.453 196.909c0 .888.204 1.495.618 1.815.468.361 1.011.534 1.662.534h2.151v2.183h-2.544c-1.554 0-2.701-.361-3.434-1.075-.74-.741-1.12-1.862-1.12-3.37v-8.055h-2.856v-2.116h2.856v-3.85l2.667-.834v4.684h3.732v2.116h-3.732v7.968zM346.297 183.455v-2.803h2.918v2.803h-2.918zm.095 17.598v-14.228h2.728v14.228h-2.728zM366.835 193.986c0 2.196-.753 3.984-2.246 5.399-1.5 1.408-3.312 2.116-5.463 2.116-2.151 0-3.861-.701-5.394-2.109-1.534-1.402-2.314-3.203-2.314-5.412s.76-4.051 2.266-5.459c1.507-1.415 3.325-2.123 5.442-2.123s3.963.728 5.463 2.156c1.486 1.428 2.246 3.243 2.246 5.426v.006zm-12.71 0c0 1.562.469 2.85 1.412 3.811.943.974 2.137 1.461 3.589 1.461s2.681-.493 3.617-1.461c.93-.961 1.391-2.249 1.391-3.811 0-1.561-.461-2.883-1.391-3.864-.936-.981-2.131-1.475-3.617-1.475-1.486 0-2.646.494-3.589 1.475-.943.988-1.412 2.269-1.412 3.864zM369.156 192.191c0-1.882.584-3.317 1.758-4.291 1.18-.981 2.755-1.468 4.729-1.468 1.975 0 3.529.52 4.709 1.568 1.168 1.034 1.758 2.422 1.758 4.158v8.889h-2.735v-8.889c0-2.289-1.241-3.431-3.732-3.431-2.49 0-3.752 1.135-3.752 3.431v8.889h-2.735v-8.863.007zM382.383 164.096H10.887v5.812h371.496v-5.812z" fill="#004282"/>
    <path d="M23.866 12.018V7h7.037v5.018h11.494v5.366h-6.039c.116.113.292.287.469.4 1.167 1.155 2.164 2.423 2.93 3.864a11.176 11.176 0 0 1 1.06 4.785c0 1.669-.353 3.284-1.06 4.732a14.105 14.105 0 0 1-2.93 3.924c-1.235 1.148-2.64 2.015-4.228 2.65-1.642.694-3.4.987-5.218.987-1.819 0-3.576-.287-5.164-.988-1.642-.627-3.108-1.494-4.275-2.649-1.235-1.094-2.171-2.422-2.87-3.924-.767-1.448-1.12-3.003-1.12-4.732 0-1.728.353-3.29 1.12-4.785a12.95 12.95 0 0 1 2.87-3.863c.116-.114.292-.288.468-.4h-6.27v-5.367h11.733-.007zM34.54 26.146c0-1.841-.706-3.517-2.11-4.898-1.405-1.328-3.115-2.015-5.042-2.015-1.927 0-3.637.687-5.042 2.015-1.404 1.381-2.11 3.057-2.11 4.898 0 1.842.706 3.517 2.11 4.852 1.405 1.375 3.047 2.069 5.042 2.069 1.995 0 3.637-.694 5.041-2.069 1.405-1.328 2.11-2.943 2.11-4.852zm21.347 32.02H21.81V42.59h6.684v9.977H55.88v5.6h.007zm-8.095-34.782h-5.924v-5.826h5.924V7.814h6.33V45.24h-6.33v-9.863h-5.924V29.55h5.924v-6.173.007zM59.633 45.3V10.063h17.065v5.653H65.91v23.938h4.281c3.983 0 8.088-.294 12.194-.981V7.814h6.1v16.838h5.571V7.814h6.222v50.352h-6.222V30.305h-5.571v27.863h-6.1V44.319c-3.63.694-7.797.98-12.377.98H59.633zM116.578 20.727V18.54h-11.494v-5.653h11.494V7h6.453v5.886h10.789v5.653h-10.789v2.188c0 4.151 1.052 8.075 3.047 11.773 1.873 3.577 4.987 7.094 9.323 10.61l-4.044 4.092c-4.512-3.69-8.088-7.788-10.673-12.173a7.403 7.403 0 0 1-.876-1.495c-.292.52-.583 1.041-.882 1.562a45.04 45.04 0 0 1-10.965 12.286l-4.52-3.864c4.228-3.29 7.566-6.98 10.029-11.072 1.995-3.403 3.047-7.327 3.108-11.712v-.007zm28.031-12.913v17.532h7.743v5.886h-7.743v26.94h-6.331V7.815h6.331z" fill="#B5B6B6"/>
    <path d="M33.577 100.871c-5.082 6.78-11.243 11.952-18.592 15.422L9 109.793c5.618-2.582 10.606-6.426 15.057-11.598 2.721-3.124 4.085-7.141 4.085-12.133v-3.03H12.176V74.47h42.722v8.562H38.117v2.77c0 4.905 1.635 9.01 5.082 12.22 4.078 3.923 8.794 7.04 14.053 9.189l-4.716 6.68c-7.437-2.416-13.788-6.774-18.959-13.02zm39.818 33.541c0 2.503-.543 4.999-1.635 7.314-1.181 2.229-2.721 4.198-4.533 5.98a27.797 27.797 0 0 1-6.711 4.017 22.592 22.592 0 0 1-8.163 1.515 22.62 22.62 0 0 1-8.163-1.515c-2.538-1.068-4.804-2.402-6.711-4.017-1.907-1.782-3.359-3.751-4.444-5.98-1.181-2.315-1.724-4.805-1.724-7.314 0-2.509.55-4.992 1.724-7.314 1.092-2.229 2.537-4.191 4.444-5.973 1.907-1.608 4.173-2.95 6.71-4.011a22.495 22.495 0 0 1 8.164-1.521c2.904 0 5.625.54 8.163 1.521 2.545 1.061 4.716 2.409 6.71 4.011 1.813 1.782 3.36 3.744 4.534 5.973a17.165 17.165 0 0 1 1.635 7.314zm-9.792 0c0-2.856-1.092-5.259-3.263-7.314-2.274-1.962-4.9-3.03-7.987-3.03-3.087 0-5.714 1.074-7.885 3.03-2.273 2.055-3.359 4.458-3.359 7.314s1.086 5.265 3.36 7.314c2.177 1.962 4.803 3.037 7.884 3.037 3.08 0 5.713-1.075 7.987-3.037 2.17-2.049 3.263-4.451 3.263-7.314zm11.332-63.059v44.86h-9.798V98.108H50.9v-8.469h14.236V71.36h9.798v-.007zM90.616 73.402h53.151v30.232h-21.673v8.295h30.379v8.475h-20.038c1.819 1.695 3.353 3.657 4.445 5.893 1.086 2.402 1.717 4.905 1.717 7.574 0 2.67-.631 5.173-1.717 7.582-1.181 2.322-2.714 4.284-4.628 6.066a26.184 26.184 0 0 1-6.806 4.198c-2.619.974-5.347 1.514-8.251 1.514-2.904 0-5.713-.54-8.258-1.514-2.626-1.068-4.899-2.496-6.799-4.198-1.995-1.782-3.535-3.744-4.621-6.066-1.18-2.409-1.724-4.905-1.724-7.582 0-2.676.543-5.172 1.724-7.574a18.771 18.771 0 0 1 4.438-5.893H81.91v-8.475h30.386v-8.295h-21.68V73.402zm43.36 8.296h-33.555v13.647h33.555V81.698zm-5.171 51.907c0-3.03-1.181-5.706-3.359-7.935-2.354-2.143-5.075-3.304-8.251-3.304-3.176 0-5.985 1.161-8.156 3.304-2.362 2.229-3.447 4.905-3.447 7.935 0 3.029 1.085 5.712 3.447 7.941 2.178 2.142 4.892 3.297 8.156 3.297 3.264 0 5.897-1.161 8.251-3.297 2.178-2.229 3.359-4.912 3.359-7.941zM202.538 111.221c1.723-10.077 2.626-18.56 2.626-25.34v-2.395h-43.347V74.83h53.145v9.81c0 9.276-1.181 18.199-3.447 26.588h13.245v8.649h-30.935v30.771h-9.799v-30.771h-29.842v-8.649h48.347l.007-.007zM260.854 92.308v-8.915h-13.605V74.83h34.925v8.563h-11.793v8.915c0 8.216 1.357 14.722 4.262 19.627 2.992 5.353 6.805 9.724 11.426 13.121l-5.808 5.973c-5.802-4.285-10.429-9.637-13.876-16.057-.272-.36-.455-.808-.638-1.248l-.91 1.602c-4.532 7.941-9.167 13.567-13.869 16.777l-6.718-5.706c4.892-3.75 8.977-8.656 12.336-14.722 2.816-5.178 4.261-11.685 4.261-19.36l.007-.007zm44.167 13.121h-7.43v43.798h-9.438V71.353h9.438v25.333h7.43V71.353h9.616v77.874h-9.616v-43.798zM323.07 115.238V74.469h36.364v8.743h-26.572v23.377h12.967c7.987 0 16.15-.54 24.489-1.695V71.359h9.799v20.515h10.884v8.916h-10.884v27.555h-9.799V113.45c-8.163 1.247-16.414 1.788-24.76 1.788H323.07zm59.32 33.989h-51.34v-24.986h9.975v16.33h41.365v8.656z" fill="#004282"/>
</svg>
