<svg xmlns="http://www.w3.org/2000/svg" width="322.21194mm" height="200mm" viewBox="0 0 322.21194 200"><path d="M118.267 193.34c-13.926 1.01-18.563-2.382-20.089-4.492-1.835-2.543-1.239-6.022 1.634-9.539.33-.402.626-.793.905-1.177 18.957-2.402 40.132-2.51 65.805 2.497.006.175.018.345.04.515-19.733 7.191-35.964 11.297-48.294 12.196M56.05 184.45c-32.994 8.286-64.25 16.132-110.06.531 20.224-.878 40.276-5.043 59.893-9.684a22.63 22.63 0 0 1-1.11 2.767c-.723 1.597-2.435 4.305-2.474 7.227-.01 1.162.33 2.427 1.206 3.457.872 1.035 2.176 1.778 3.906 2.244.233.067 1.247.31 3.155.31 4.193 0 12.693-1.179 26.93-7.992 11.364-5.442 33.7-15.082 61.79-16.863.618.595 1.071 1.25 1.342 1.956.888 2.261-.117 4.856-1.533 7.061-15.364 2.04-29.306 5.536-43.045 8.986m-89.32-7.923c6.983-3.285 19.703-9.727 28.66-10.676a24.527 24.527 0 0 1 2.665-.153c2.759-.004 4.96.56 6.349 1.531 1.373.984 2.106 2.25 2.135 4.396 0 .189-.009.388-.023.59-17.224 4.096-34.781 7.866-52.442 9.38 3.7-1.226 7.956-2.866 12.657-5.068m51.497-4.202c26.38-6.406 51.298-12.457 71.06-9.646 2.097.299 3.923.72 5.478 1.248-26.593 2.472-47.585 11.57-58.512 16.797-13.954 6.678-22.04 7.71-25.688 7.71-.889 0-1.516-.06-1.903-.117-.194-.026-.327-.055-.405-.07a.364.364 0 0 1-.063-.014l-.022-.004-.015-.004c-1.355-.369-2.078-.866-2.46-1.321-.377-.46-.524-.935-.53-1.61-.041-1.715 1.336-4.257 2.2-6 .803-1.71 1.362-3.287 1.688-4.75 3.072-.735 6.129-1.477 9.172-2.217m143.107 4.46c-22.52-3.84-41.557-3.757-58.742-1.758 1.618-3.388 1.364-5.953.695-7.665a7.953 7.953 0 0 0-.539-1.093c1.84-.071 3.7-.113 5.585-.113 16.332 0 34.289 2.84 53.001 10.63m11.249-2.432a6.054 6.054 0 0 0-4.673 2.198c-21.048-9.775-41.328-13.267-59.577-13.266-2.745 0-5.44.087-8.086.236-2.372-1.774-5.898-3-10.557-3.662-20.305-2.894-45.48 3.22-72.136 9.694-2.708.657-5.424 1.318-8.15 1.972 0-2.862-1.276-5.241-3.367-6.655-2.105-1.445-4.862-2.037-7.983-2.042-.955 0-1.951.057-2.976.169-9.858 1.1-22.6 7.694-29.564 10.933-8.321 3.894-15.18 5.984-19.94 7.104-.584.136-1.137.259-1.658.369a6.075 6.075 0 0 0-5.61-3.75 6.067 6.067 0 0 0-6.069 6.07 6.066 6.066 0 0 0 6.068 6.068 6.06 6.06 0 0 0 5.05-2.7c20.271 7.105 37.723 9.724 53.694 9.724 21.482-.004 40.294-4.729 59.695-9.601 12.815-3.22 25.81-6.477 39.985-8.537-2.904 4.182-3.249 8.53-.862 11.836 2.008 2.782 6.697 5.856 17.639 5.856 1.53 0 3.181-.062 4.97-.189 12.593-.914 29.088-5.075 49.073-12.36a6.066 6.066 0 0 0 5.034 2.674 6.071 6.071 0 1 0 0-12.141M73.847 245.08c0 7.219-6.08 13.094-13.298 13.094-7.216 0-13.084-5.875-13.084-13.094 0-7.214 5.868-13.083 13.084-13.083 6.98 0 13.028 5.623 13.298 12.59zm-.217-37.57v22.409l-.793-.618a19.804 19.804 0 0 0-12.288-4.224c-11.028 0-19.998 8.976-19.998 20.003 0 11.032 8.97 20.007 19.998 20.007 11.032 0 20.007-8.975 20.007-20.007v-37.57M121.396 245.08c0 7.219-6.077 13.094-13.295 13.094-7.217 0-13.089-5.875-13.089-13.094 0-7.214 5.872-13.083 13.09-13.083 6.981 0 13.028 5.623 13.294 12.59zm-.212-37.57v22.409l-.798-.618a19.793 19.793 0 0 0-12.285-4.224c-11.029 0-20 8.976-20 20.003 0 11.032 8.971 20.007 20 20.007 11.032 0 20.004-8.975 20.004-20.007v-37.57M156.235 258.169c-6.982 0-13.029-5.625-13.298-12.592v-.494c0-7.216 6.077-13.09 13.298-13.09 7.214 0 13.085 5.874 13.085 13.09 0 7.214-5.871 13.086-13.085 13.086m0-33.093c-11.033 0-20.005 8.975-20.005 20.007v38.246h6.922v-23.085l.794.62a19.81 19.81 0 0 0 12.289 4.223c11.025 0 19.998-8.975 19.998-20.004 0-11.032-8.973-20.007-19.998-20.007" style="fill:#5c98d2;fill-opacity:1;fill-rule:nonzero;stroke:none;stroke-width:1.54879" transform="translate(105.66 -121.226)"/></svg>