<svg xmlns="http://www.w3.org/2000/svg" xmlns:xlink="http://www.w3.org/1999/xlink" xml:space="preserve" id="레이어_1" x="0px" y="0px" style="enable-background:new 0 0 363.4 247.7" version="1.1" viewBox="0 0 363.4 247.7"><style>.st6{fill:#b38910}.st7{fill:#816021}</style><defs><path id="SVGID_1_" d="M220.5 2.6c-9.3 4.2-16.3 9.7-20.5 13.9-1.3 1.3-4.7 5-5.6 6.5-.7 1.1-.8 1.7-1.1 2.7-.2.8-.2 1-.5 1.5-.5.7-1.5 3.9-.9 5.3.2.5.7.7.7 1.5 0 .6-.4 1.1-.3 1.7.1.5.6.6.4 1.3-.1.3-.3.3-.4.4-.1 0-.2 0-.3.1-.1.1 0 .4 0 .5 0 .1-.1 0-.1.1h-.1c0-.4-.4.4-.4.5v.3c0 .1-.1.2-.2.3-.1 0-.1 0-.2.1 0 .1 0 .2-.1.2-.1.1-.3 0-.4.3v.5c0 .1-.1.1-.1.2s.1.1.1.2c0 .2-.1.3-.2.5s-.1.4-.1.6c0 0 .3.4.3.5.1.4.2.7.1 1.1-.3.8-.9.6-1.2 1.3-.1.3-.5 1-.5 1.2 0 .2.2.6.2.8 0 .3-.1.4-.1.7 0 .3-.1.8-.1 1.2.1.6.1.3.2.7.3 1.4-.2.6-.5 1.5-.2.7 0 1.2.2 1.7.1.6.1.8.1 1.6 0 .3-.1.6-.2.9 0 .2.2.6.5.2.3-.4.6-.8 1-1.2 4.3-5.2 9.2-10.9 14.4-15.5 1.7-1.6 3.9-2.9 5.9-3.7 2-.8 4-1.1 6.3-1.1 6.5.1 14.1 3.3 24.4 8.3 8.9 4.4 20.4 10.9 31.2 17.6l.2-.3-.5-1.2c.1-.2.5.1 1 .5s1.2.8 1.5.4c.7-.9-.4-1.7 0-2.8.3-1.1 1.6-.1 1.9-1.5.1-.5 0-1.3-.1-2-.1-.6-.2-1.2-.2-1.6 0-.6.2-1.2.1-1.9-.1-.9-.7-1.5-.9-2.3-.2-1.2.3-2.5.1-3.8-.3-1.4-1.2-2.8-1.2-4.2 0-.6.1-1 .1-1.5.1.1.3.2.4-.1.5-1.3-.2-3-.6-4.1-.1-.5-.9-2.4-1.6-4.5-1.2-2.9-2.6-5.1-4.2-6.8-.3-.3-.7-.7-.8-.9-1.6-1.2-2.8-2.3-4.5-3.2-1.8-1-3.7-2-5.6-3-3.9-2-7.8-4-11.7-5.8-3.3-1.6-6.7-3.1-10.1-4.4-3.4-1.3-6.4-2.2-8.3-2.5-.8-.2-1.7-.3-2.7-.3-1.4 0-2.9.2-4.2.8"/></defs><clipPath id="SVGID_2_"><use xlink:href="#SVGID_1_" style="overflow:visible"/></clipPath><linearGradient id="SVGID_3_" x1="406.2553" x2="409.0208" y1="329.8101" y2="329.8101" gradientTransform="matrix(31.7471 0 0 -31.7471 -12708.728 10501.189)" gradientUnits="userSpaceOnUse"><stop offset="0" style="stop-color:#e2cd00"/><stop offset="0.7" style="stop-color:#c5b000"/><stop offset="1" style="stop-color:#b49907"/></linearGradient><path d="M188.5 1.8h88v57.7h-88z" style="clip-path:url(#SVGID_2_);fill:url(#SVGID_3_)"/><defs><path id="SVGID_4_" d="M160.9 34.2c-14.6 6-25.8 13.1-33.3 19.5-2.3 2-8.4 7.8-10 10-1.2 1.7-1.4 2.6-1.9 4.1-.4 1.2-.3 1.5-1 2.2-1 1.1-2.6 6.1-1.7 8.1.4.8 1.2 1.2 1.2 2.3 0 .9-.7 1.7-.5 2.6.1.7 1.1 1 .7 2-.2.4-.4.5-.7.6-.1.1-.4.1-.5.2-.1.2-.1.6 0 .7-.1.1-.2 0-.2.2 0 0-.1 0-.1-.1 0-.6-.7.6-.8.8v.4c-.1.2-.2.4-.4.4-.1 0-.2 0-.4.1-.1.1-.1.2-.2.3-.2.2-.5 0-.6.5 0 .2.1.5 0 .8 0 .1-.1.2-.1.3 0 .1.1.2.1.4 0 .3-.2.5-.3.7-.1.3-.2.6-.1.9 0 0 .6.6.6.7.3.6.4 1.1.1 1.8-.6 1.3-1.6.9-2.2 2.1-.2.4-.8 1.5-.9 1.9 0 .3.3.9.3 1.2 0 .5-.1.7-.1 1 0 .5-.2 1.3-.1 1.8.1.9.2.5.3 1.1.5 2.2-.3 1-.9 2.3-.4 1 .1 1.8.3 2.7.2.8.2 1.5.2 2.3 0 .8.5 1.8 2.1.1 5.2-5.4 10.5-10.7 15.9-15.6 2.6-2.4 6.9-6.2 9.7-8.4 3.4-2.7 6.9-4.5 10.5-5.7 13.9-4.7 30.1.8 54.7 11.1 14.2 6 32.1 14.7 49.4 23.8 2.1 1.1 4.2 2.2 6.2 3.3l.3-.4-.8-1.9c.2-.3.9.2 1.8.8 1 .6 2.1 1.2 2.7.6 1.3-1.4-.7-2.6 0-4.4.3-.9 1-.9 1.6-.9.6 0 1.1 0 1.5-.6.8-1.5-.6-2.9-1.2-4.1-.6-1.2-1.2-2.4-2-3.2-.4-.4-.7-.3-1-.2-.2.1-.3.1-.5.1-.6 0-.8-1.5-.9-2.5.2-.6.6-.5.9-.5.2 0 .4.1.5 0 1-.3.5-1.9.9-3.1.2-.5.5-.6.7-.9.3-.4.4-.9.6-1.5.3-1.5.1-2.2-.6-2.7-.2-.1-.3-.3-.5-.3-.2-.1-.4-.1-.6-.1-.1 0-.2.2-.4.3-.1 0-.2.1-.2.1-.2.1-.3.5-.2.8.1.2.2.3.2.5.1.2.1.4.1.6 0 .6-.2 1-.5 1.2-1.1-.1-1-2.3-1.4-3.8v-.1c-.1-1 .6-2.8-.3-3.1-.6.2-1.1 2.4-1.7.9.3-1.8.1-4.9 1.4-5.4.2.1.3.6.4 1-.2.7.1.9.1 1.3.2.1.5.3.7-.1.5-1-.4-3.8.4-4.3.4-.3.7.2 1 .7.2.4.3.7.4.7.1 0 .2.1.4.1.2.1.5.3.7-.1.8-2-.4-4.6-1-6.3-.3-.7-.4-.8-.3-1.7.1-1.4.5-1.1-.2-2.2-.2-.4-.9-1-1.2-1.4-.4-.5-2.1-1.9-1.6-2.8.3-.6.6-.4.8-.2.3.3.6.5.9-.5.3-1-.4-2.1-.9-2.8-.4-.6-.9-.7-1.4-1-.4-.2-.9-.5-1.1-1.1-.2-.7.1-1.2.1-1.9l-2-1.4c-1.7-1-3.5-2-5.5-3-16-8.4-41.6-19.2-56.2-24.1-7.6-2.5-13.4-3.6-16.4-4-.5-.1-1-.1-1.5-.1-3 .5-7.5 1.5-12.3 3.5"/></defs><clipPath id="SVGID_5_"><use xlink:href="#SVGID_4_" style="overflow:visible"/></clipPath><linearGradient id="SVGID_6_" x1="409.8849" x2="412.65" y1="326.7568" y2="326.7568" gradientTransform="matrix(56.625 0 0 -56.625 -23102.367 18578.273)" gradientUnits="userSpaceOnUse"><stop offset="0" style="stop-color:#65a9dc"/><stop offset="0.55" style="stop-color:#008cce"/><stop offset="1" style="stop-color:#006fbb"/></linearGradient><path d="M107.1 31.2h157.4v88.9H107.1z" style="clip-path:url(#SVGID_5_);fill:url(#SVGID_6_)"/><path d="M276.3 52.6c-.1-.6-.2-1.2-.2-1.6 0-.6.2-1.2.1-1.9-.1-.9-.7-1.5-.9-2.3-.2-1.2.3-2.5.1-3.8-.3-1.4-1.2-2.8-1.2-4.2 0-.6.1-1 .1-1.5 0-.4 0-.8-.4-1.4-.3-.6-.6-.6-1.1-1-.9-.7-1.9-.9-2.8-1.3-1.8-.9-3.6-1.7-5.3-2.5-6.1-2.7-12.3-5.1-18.5-7-2.5-.8-5-1.5-7.6-1.9-1.5-.2-3.2-.6-4.7 0h-.1c-4.8 1.4-9.1 4.5-14.3 8.9-1 .8-1.9 1.6-2.8 2.5 6.5.1 14.1 3.3 24.4 8.3 8.9 4.4 20.4 10.9 31.2 17.5l.2-.3-.5-1.2c.2-.5 1.9 1.7 2.5.9.7-.9-.4-1.7 0-2.8.3-1.1 1.6-.1 1.9-1.5.1-.4 0-1.1-.1-1.9" style="fill:#b79100"/><path d="M135.8 87.6c3.4-2.7 6.9-4.5 10.5-5.7 13.9-4.7 30.1.7 54.7 11.1 14.2 6 32.1 14.7 49.4 23.8-.2-.2-.3-.5-.4-.7-.5-1-1-2-1.7-2.6-.6-.5-.8 0-1.4 0-.5 0-.7-1.2-.8-2.1.3-.7.8-.3 1.3-.4.8-.3.5-1.5.8-2.6.2-.4.4-.5.7-.7.3-.3.4-.7.5-1.2.3-1.2.1-1.8-.5-2.2-.1-.1-.3-.2-.4-.3-.2 0-.3-.1-.5 0-.1 0-.2.1-.3.2-.1 0-.1.1-.2.1-.2.1-.2.4-.1.7 0 .1.1.2.2.4.1.1.1.3.1.5 0 .5-.2.8-.5 1-1-.1-.8-1.9-1.2-3.1v-.1c-.1-.8.5-2.3-.3-2.5-.5.1-1 2-1.5.8.3-1.4.2-4 1.3-4.4.2.1.2.5.4.8-.2.6.1.7.1 1.1.2.1.4.2.6-.1.5-.9-.3-3.1.4-3.6.6-.4 1 1.1 1.2 1.1.3 0 .6.5.9 0 .7-1.7-.4-3.8-.9-5.2-.2-.6-.3-.7-.2-1.4.1-1.1.4-.9-.1-1.8-.2-.3-.7-.8-1-1.1-.3-.4-1.8-1.5-1.4-2.3.6-1.1 1.1 1 1.5-.6.2-.8-.3-1.7-.8-2.3-.4-.5-.8-.6-1.2-.8-.4-.2-.8-.4-1-.9-.2-.6.1-1 .1-1.5-.1-1-.9-1.6-1.5-2-1.5-1.1-3.3-1.4-4.9-2-3.2-1.3-6.3-2.6-9.5-3.8-10.9-4.1-21.9-7.9-33-10.8-4.5-1.2-9-2.3-13.5-2.9-2.7-.4-5.7-.9-8.4 0h-.1c-8.5 2.2-16.2 6.9-25.5 13.7-3.8 2.7-7.5 5.7-11.2 8.8-1.4 1.2-2.9 2.5-4.3 3.8-1.3 1.2-2.6 2-2.9 4.6-.2 1-.3 1.2-.8 1.8-.7.8-1.8 3.7-1.7 5.7 1.8-2.3 6.2-6.2 9-8.3" style="fill:#006fbb"/><defs><path id="SVGID_7_" d="M208.3 62.4c-25.2 10.3-44.7 22.6-56.1 32.5-3.6 3.1-13 11.8-15.5 15.2-1.8 2.6-2.1 4-3 6.3-.7 1.8-.5 2.3-1.5 3.4-1.5 1.7-4.1 9.3-2.6 12.4.6 1.2 1.8 1.8 1.8 3.6 0 1.4-1.1 2.6-.9 4 .2 1.1 1.6 1.5 1 3-.2.6-.7.8-1 1-.2.1-.5.1-.7.3-.2.3-.1.8 0 1.1-.1.2-.2 0-.3.3-.1 0-.1 0-.2-.1 0-.9-1.1.9-1.2 1.3 0 .2 0 .4-.1.6-.1.3-.4.6-.6.6-.2.1-.4 0-.6.2-.1.1-.1.4-.3.5-.3.2-.8 0-1 .8-.1.4.1.8 0 1.2 0 .2-.2.3-.1.5 0 .2.2.3.1.6 0 .5-.3.8-.5 1.1-.2.4-.3.9-.2 1.4 0-.1.8.9 1 1.1.4.9.6 1.7.1 2.7-.9 2-2.5 1.3-3.4 3.2-.3.7-1.3 2.2-1.3 2.9 0 .4.5 1.4.5 1.8.1.8-.2 1-.2 1.6-.1.8-.3 1.9-.2 2.7.1 1.3.3.8.5 1.8.8 3.3-.5 1.5-1.3 3.6-.6 1.6.1 2.7.5 4.1.4 1.5.1 3.6-.1 5.3-.2 1.4.1 1.7.5 1.7.2 0 .4-.2.4-.2 1-1.1 1.8-2.1 2.8-3.2 11.8-12.1 26.4-26.3 39.5-36.5 5.3-4 10.6-6.9 16.2-8.7 3.3-1.1 6.8-1.8 10.3-2.1 19.1-2 41.7 6.1 73.4 19.7 24.3 10.4 55.7 26.1 85.1 42 0 0 .2.1.4.1.3 0 .1-.7.1-.7l-1.2-2.9c.3-.5 1.4.3 2.7 1.2 1.5 1 3.2 1.9 4.1.9 2-2.2-1-4 0-6.7.4-1 1-1.3 1.7-1.3-.1-.3-.1-.7-.1-1 .3-.7.8-.7 1.2-.6.2 0 .5.1.7 0 1-.3.9-1.6 1.1-2.9.1-.4.1-.7.3-1.1.3-.7.7-.7 1-1.1.4-.5.6-1.1.8-1.9.5-1.9.2-2.8-.8-3.4-.2-.1-.4-.3-.7-.4-.3-.1-.5-.1-.8-.1-.2 0-.3.2-.5.3-.1.1-.2.1-.3.1-.3.2-.3.6-.2 1 .1.2.2.3.3.6.1.2.1.5.1.8-.1.7-.4 1.2-.7 1.5-.2 0-.4-.1-.5-.2-.2-.5-.5-.9-.7-1.3-.2-1-.3-2.2-.6-3.2v-.1c-.1-1.3.8-3.5-.4-3.9-.7.2-1.5 3.1-2.4 1.2.1-.4.1-.9.2-1.4 1.1-.7.6-2.8 1.2-4.6.1-.3.3-.5.5-.7.2-.2.5-.4.7-.6.5-.6.7-1.3.9-2.3.5-2.3.2-3.4-1-4.1-.3-.2-.5-.4-.8-.5-.3-.1-.6-.2-.9-.1-.2.1-.3.2-.5.4-.1.1-.3.1-.4.2-.3.2-.4.7-.2 1.3.1.3.2.4.3.7.1.3.2.6.2 1-.1.9-.4 1.5-.8 1.8-1.8-.2-1.5-3.6-2.1-5.8v-.2c-.1-1.6.9-4.2-.5-4.7-.9.2-1.7 3.7-2.7 1.4.5-2.7.3-7.5 2.2-8.2.3.2.4 1 .6 1.5-.4 1 .1 1.3.2 2 .4.1.8.5 1.1-.2.8-1.6-.6-5.9.6-6.6.6-.4 1.1.3 1.5 1 .3.6.5 1.1.6 1.1.2 0 .4.1.6.2.4.2.7.4 1-.2.4-.9.4-1.8.4-2.7-.1-2.5-1.3-5.1-1.9-7-.4-1.1-.5-1.2-.4-2.6.2-2.1.7-1.7-.2-3.4-.3-.6-1.3-1.5-1.8-2.1-.6-.7-3.2-2.9-2.5-4.3.5-.9.9-.6 1.3-.2.5.4.9.8 1.3-.8.4-1.5-.6-3.2-1.4-4.3-.6-.9-1.4-1.1-2.2-1.6-.6-.4-1.4-.8-1.7-1.7-.4-1.1.2-1.8.1-2.9l-3.1-2.2c-2.5-1.5-5.4-3.1-8.5-4.7-24.4-13-63.6-29.9-85.9-37.4-10.8-3.6-21.2-5.7-25.1-6.3-1.8-.3-3.8-.5-5.9-.5-3.4.2-6.9.7-10.4 2.1"/></defs><clipPath id="SVGID_8_"><use xlink:href="#SVGID_7_" style="overflow:visible"/></clipPath><linearGradient id="SVGID_9_" x1="412.3662" x2="415.1314" y1="325.3863" y2="325.3863" gradientTransform="matrix(87.8271 -.0026 -.0026 -87.8271 -36095.535 28707.988)" gradientUnits="userSpaceOnUse"><stop offset="0" style="stop-color:#a9ce45"/><stop offset="0.35" style="stop-color:#7fbe26"/><stop offset="1" style="stop-color:#00a23e"/></linearGradient><path d="M120.2 60.5h242.1v137.3H120.2z" style="clip-path:url(#SVGID_8_);fill:url(#SVGID_9_)"/><defs><path id="SVGID_10_" d="M244.9 103.9c-.1 0-.1 0-.2.1-13.1 3.3-24.8 10.4-39.2 20.7-4.9 3.5-9.8 7.3-14.7 11.3 19.1-2 41.7 6.1 73.4 19.7 24.3 10.4 55.7 26.1 85.1 42 0 0 .2.1.4.1.3 0 .1-.7.1-.7l-1.2-2.9c.3-.5 1.4.3 2.7 1.2 1.5 1 3.2 1.9 4.1.9 2-2.2-1-4 0-6.7.4-1 1-1.3 1.7-1.3-.1-.3-.1-.7-.1-1 .3-.7.8-.7 1.2-.6.2 0 .5.1.7 0 1-.3.9-1.6 1.1-2.9.1-.4.1-.7.3-1.1.3-.7.7-.7 1-1.1.4-.5.6-1.1.8-1.9.5-1.9.2-2.8-.8-3.4-.2-.1-.4-.3-.7-.4-.3-.1-.5-.1-.8-.1-.2 0-.3.2-.5.3-.1.1-.2.1-.3.1-.3.2-.3.6-.2 1 .1.2.2.3.3.6.1.2.1.5.1.8-.1.7-.4 1.2-.7 1.5-.2 0-.4-.1-.5-.2-.2-.5-.5-.9-.7-1.3-.2-1-.3-2.2-.6-3.2v-.1c-.1-1.3.8-3.5-.4-3.9-.7.2-1.5 3.1-2.4 1.2.1-.4.1-.9.2-1.4 1.1-.7.6-2.8 1.2-4.6.1-.3.3-.5.5-.7.2-.2.5-.4.7-.6.5-.6.7-1.3.9-2.3.5-2.3.2-3.4-1-4.1-.3-.2-.5-.4-.8-.5-.3-.1-.6-.2-.9-.1-.2.1-.3.2-.5.4-.1.1-.3.1-.4.2-.3.2-.4.7-.2 1.3.1.3.2.4.3.7.1.3.2.6.2 1-.1.9-.4 1.5-.8 1.8-1.8-.2-1.5-3.6-2.1-5.8v-.2c-.1-1.6.9-4.2-.5-4.7-.9.2-1.7 3.7-2.7 1.4.5-2.7.3-7.5 2.2-8.2.3.2.4 1 .6 1.5-.4 1 .1 1.3.2 2 .4.1.8.5 1.1-.2.8-1.6-.6-5.9.6-6.6.6-.4 1.1.3 1.5 1 .3.6.5 1.1.6 1.1.2 0 .4.1.6.2.4.2.7.4 1-.2.4-.9.4-1.8.4-2.7-.5-.6-1.1-.8-1.7-1.1-.5-.3-1.2-.6-1.5-1.4-.3-.9.2-1.5.1-2.4-.2-1.5-1.4-2.4-2.3-3.1-2.3-1.6-5-2.1-7.6-3.1-4.8-2.1-9.7-4-14.6-5.9-16.6-6.5-33.5-12.2-50.5-16.9-6.8-1.9-13.7-3.5-20.7-4.6-2.5-.4-5.2-.8-7.9-.8-1.9.2-3.6.4-5.2.9"/></defs><clipPath id="SVGID_11_"><use xlink:href="#SVGID_10_" style="overflow:visible"/></clipPath><linearGradient id="SVGID_12_" x1="411.3473" x2="414.1132" y1="325.7422" y2="325.7422" gradientTransform="matrix(62.2977 -.0018 -.0018 -62.2977 -25434.617 20444.24)" gradientUnits="userSpaceOnUse"><stop offset="0" style="stop-color:#23ab38"/><stop offset="0.25" style="stop-color:#009e3e"/><stop offset="1" style="stop-color:#008841"/></linearGradient><path d="M190.8 103.2h171.6v94.6H190.8z" style="clip-path:url(#SVGID_11_);fill:url(#SVGID_12_)"/><path d="M25.3 218.8c2 0 3.7-.4 4-2.7l2.4-17.8-8.1.3v5.4H12l.3-5.2-8.8.2L6 218.7l19.3.1zm-4.2-9.6c1 .1 1.5.1 1.9-.7l.6-1.7-.1 6.9-12 .4.3-5.6 9.3.7zM35.4 226.2l.1-3.9-34.1.2.6 4c.2 1.1.8 1.7 2.5 1.6l10.7-.6.8 4.1H4.1l1.6 5.3 18.9-.2-.7 5.7h7.9l-.2-10.9h-9.4l.1-4.5 13.1-.8zM57.8 205.6l-9.4-.3 1-.5c.4-.2.6-.5.7-.9l.9-7-7.5.5 1.3 7.8-6.9-.2.7 5.2 18.8-.7.4-3.9zM57.5 237.4l.1-8.5-7.9.3.6 10.8c.2 1.5.9 1.9 2.5 1.9H72l-.3-5-14.2.5zM69.4 208.9l.7-9.4c.1-1.4-.4-1.7-2-1.7h-7.4L63 227l4.1-.9c.8-.2 1.2-.4 1.2-1.3l.9-11.7 5.9.3.1-4.8-5.8.3zM56.5 218.9c0-3.8-3.6-6.9-7.9-6.9-4.4 0-7.9 3.1-7.9 6.9 0 3.8 3.5 6.9 7.9 6.9 4.3-.1 7.9-3.1 7.9-6.9m-8 2.8c-1.1 0-2-1.3-2-2.9 0-1.6.9-2.9 2-2.9s2 1.3 2 2.9c0 1.6-.9 2.9-2 2.9M95.9 236.7l.1-8.4-8.1.3.6 11.5c0 1.4 1.1 1.8 2.5 1.8h19.7l-.3-5.8-14.5.6zM108 210.8l1.2-11.6c.1-1-.6-1.4-2-1.4h-6.7l1.3 27.6 4.7-.7 1.1-10.9.3 1c.1.2.3.5.7.6l6.8.8.2-5.7-7.6.3zM93.8 220.3c.5.4 1.1.5 2 .1L98 219l-9.5-8.5L92 202c.2-1 .1-2.2-1.6-2.7l-5.8-1.2-6.7 26.2 4.8.8 3.9-9.7 7.2 4.9zM201.1 234l1.5 8.4c-1.2 1.9-2.5 3.8-2.5 3.9.1 0 3 .6 3.6.7.4.1.8-.1 1.1-.7.8-1.4 1.8-3.2 2.6-4.6l.8-.3c.4-.2.6-.5.7-.9l.9-7-8.7.5zM144.2 220.3c1-.3 2.1-.7 2.9-.9.6-.2.8-.4 1-1 .7-3.8 4.1-18 4.2-18.4-.6 0-29.3-1.9-29.9-1.9 0 .4.2 3.4.4 5.4.1 1 .8 1.9 2.5 1.9 5.3-.1 17.1-.5 17.1-.5l-.3 4.5h-15.4c.2.5 1.7 5.1 1.8 5.4.4 0 13.4-.8 13.4-.8s-.3 4.2-.4 6.3c-9.8 0-21.3.1-21.8.1.1.3.8 2.3 1.4 3.8.4 1 1.2 1.5 3 1.4 7.6-.3 30.4-1.4 30.8-1.4.1-.3.5-3.5.6-3.9-.3-.1-5.2 0-11.3 0M136.2 236.8s-.4-7.7-.4-8.2c-.5 0-7.7-.1-8.2-.1 0 .4.4 8 .7 11.3.1 1.4 1.4 2 3.1 2h19.9c0-.4-.4-6.2-.4-6.6-.6.1-14.7 1.6-14.7 1.6M176.3 207.8l-.1.9c0 .4.1.7.4.8l11.6 6.3c1.3.6 2.3.7 3.3-.2l4.5-3.9-17.1-6.6 3.4-3.4c.7-.8.6-1.7-.2-2.3l-5-3.5-14.5 18.6 4.5 2.7 9.2-9.4zM161.2 221.4c0 .9.8 1.5 2.3 1.5l13.3.2v3.9h-11l.4 4.5 5.3-.1.3 5.8-6.5-.1v4.7h28.4v-4.3l-6.2-.1.7-6.2 4.2-.1v-4.2h-9.2v-3.8l12 .2V218l-33.8 1.2v2.2zm17.1 10h3.1l.7 6.1-4.6-.1.8-6z" class="st6"/><path d="M232 236.4v-8.8l-8.8.4.8 13.9h24.1l-.4-6.1zM288.7 197.8h-6.1l.1 4.5-6.3.3.9 4.2 5.5-.7.1 3.3-6 .3.9 4 5.2-.3.2 8.3c.1 1.2.9 1.7 2.2 1.6h3.6l1.6-23.7c0-1.2-.7-1.8-1.9-1.8M234.2 213.7c5.4 0 9.7-3.8 9.7-8.4 0-4.7-4.3-8.4-9.7-8.4-5.4 0-9.7 3.8-9.7 8.4 0 4.6 4.3 8.4 9.7 8.4m0-12c1.3 0 2.4 1.6 2.4 3.6 0 1.9-1.1 3.5-2.4 3.5-1.3 0-2.4-1.6-2.4-3.5 0-2 1.1-3.6 2.4-3.6M278.3 225.1c-5.4 0-9.8 3.9-9.8 8.6 0 4.8 4.4 8.6 9.8 8.6s9.8-3.9 9.8-8.6c0-4.7-4.4-8.6-9.8-8.6m0 12.4c-1.5 0-2.6-1.7-2.6-3.8 0-2.1 1.2-3.8 2.6-3.8 1.5 0 2.6 1.7 2.6 3.8 0 2.1-1.2 3.8-2.6 3.8M217.2 222.7c.2.9 1.2 1.7 3 1.6l30-1.5.8-4.8-34.7-.5.9 5.2zM254 218.3l22-.6.1-3.9-3.7-.1.8-10.1 2.2-.1V199h-22l.4 4.9 3.5-.1.3 9.7-3.4-.1-.2 4.9zm9.8-14.5 2.4-.1.8 9.9h-4.1l.9-9.8z" class="st7"/><path d="M9.3 161.3c0 .2 0 .5-.1.7-.2.6-.7 1-1.4 1-1.1 0-1.7-1-1.7-2.2 0-1.5.8-2.4 1.7-2.4.7 0 1.2.5 1.4 1.2 0 .2.1.3.1.5v1.2zm2.6-2.1c0-1.3 0-2 .1-2.5H9.7l-.1 1c-.4-.7-1.2-1.2-2.3-1.2-2.1 0-3.8 1.7-3.8 4.4 0 2.4 1.5 4.1 3.6 4.1 1 0 1.8-.4 2.3-1.1v.5c0 1.6-.9 2.2-2.2 2.2-1 0-1.9-.3-2.4-.6l-.5 2c.8.4 1.9.6 3 .6 1.2 0 2.5-.2 3.4-1 1-.8 1.3-2.2 1.3-3.8v-4.6zM14.2 159.4c0-1.2 0-2.1-.1-2.8h2.2l.1 1.6h.1c.4-1.2 1.4-1.8 2.3-1.8h.6v2.5c-.2 0-.4-.1-.7-.1-1 0-1.6.5-1.8 1.3 0 .2-.1.4-.1.6v4.3h-2.6v-5.6zM22.6 159.9c.1-.7.5-1.7 1.6-1.7 1.2 0 1.5 1.1 1.5 1.7h-3.1zm5.4 1.8c0-.2.1-.6.1-1.1 0-2.1-1-4.2-3.8-4.2-2.9 0-4.3 2.4-4.3 4.5 0 2.7 1.6 4.3 4.5 4.3 1.1 0 2.2-.2 3.1-.5l-.3-1.8c-.7.2-1.4.4-2.3.4-1.2 0-2.3-.5-2.4-1.6H28zM31.9 159.9c.1-.7.5-1.7 1.6-1.7 1.2 0 1.5 1.1 1.5 1.7h-3.1zm5.4 1.8c0-.2.1-.6.1-1.1 0-2.1-1-4.2-3.8-4.2-2.9 0-4.3 2.4-4.3 4.5 0 2.7 1.6 4.3 4.5 4.3 1.1 0 2.2-.2 3-.5l-.3-1.8c-.7.2-1.4.4-2.3.4-1.2 0-2.3-.5-2.4-1.6h5.5zM39.1 159.3c0-1.1 0-1.9-.1-2.7h2.3l.1 1.2c.3-.6 1.2-1.4 2.6-1.4 1.7 0 3 1.2 3 3.6v5h-2.6v-4.7c0-1.1-.4-1.8-1.3-1.8-.7 0-1.2.5-1.3 1-.1.2-.1.4-.1.7v4.9h-2.6v-5.8zM59.2 164.9c-.5.2-1.3.4-2.3.4-2.7 0-4.5-1.7-4.5-4.3 0-2.5 1.7-4.5 4.8-4.5.7 0 1.5.1 2 .3l-.4 2c-.3-.1-.8-.3-1.5-.3-1.4 0-2.3 1-2.3 2.4 0 1.6 1 2.4 2.3 2.4.6 0 1.1-.1 1.5-.3l.4 1.9zM60.8 153h2.6v4.7c.3-.4.6-.7 1-.9.4-.2.9-.3 1.4-.3 1.7 0 3 1.2 3 3.7v4.9h-2.6v-4.6c0-1.1-.4-1.9-1.4-1.9-.7 0-1.1.4-1.3.9-.1.2-.1.4-.1.6v5h-2.6V153zM74.9 163.4c-1.1 0-1.7-1.1-1.7-2.5 0-1.3.5-2.5 1.7-2.5s1.7 1.3 1.7 2.5c0 1.5-.6 2.5-1.7 2.5zm0 1.9c2.2 0 4.4-1.4 4.4-4.5 0-2.5-1.7-4.3-4.3-4.3-2.7 0-4.5 1.7-4.5 4.5 0 2.7 1.9 4.3 4.4 4.3zM81 159.4c0-1.2 0-2.1-.1-2.8h2.2l.1 1.6h.1c.4-1.2 1.5-1.8 2.3-1.8h.5v2.5c-.2 0-.4-.1-.7-.1-1 0-1.6.5-1.8 1.3 0 .2-.1.4-.1.6v4.3H81v-5.6zM95.6 162.4c0 1.1 0 2 .1 2.7h-2.3l-.1-1.2c-.3.5-1.1 1.4-2.6 1.4-1.7 0-3-1.1-3-3.7v-4.9h2.6v4.5c0 1.2.4 2 1.3 2 .7 0 1.2-.5 1.3-.9.1-.2.1-.3.1-.6v-5h2.6v5.7zM97.9 162.8c.5.3 1.5.6 2.3.6.8 0 1.1-.3 1.1-.7 0-.5-.3-.7-1.2-1-1.8-.6-2.4-1.5-2.4-2.5 0-1.6 1.3-2.8 3.4-2.8 1 0 1.8.2 2.4.5l-.5 1.8c-.4-.2-1.1-.5-1.8-.5-.6 0-1 .3-1 .7 0 .4.3.6 1.4 1 1.6.5 2.3 1.4 2.3 2.6 0 1.6-1.2 2.7-3.6 2.7-1.1 0-2.1-.3-2.7-.6l.3-1.8zM5.9 175.9c.1-.7.5-1.7 1.6-1.7 1.2 0 1.5 1.1 1.5 1.7H5.9zm5.5 1.8c0-.2.1-.6.1-1 0-2.1-1-4.2-3.8-4.2-2.9 0-4.3 2.4-4.3 4.5 0 2.7 1.6 4.3 4.5 4.3 1.1 0 2.2-.2 3.1-.5l-.3-1.8c-.7.2-1.4.4-2.3.4-1.2 0-2.3-.5-2.4-1.6l5.4-.1zM21.2 178.4c0 1.1 0 2 .1 2.7H19l-.1-1.2c-.3.5-1.1 1.4-2.6 1.4-1.7 0-3-1.1-3-3.7v-4.9h2.6v4.5c0 1.2.4 2 1.3 2 .7 0 1.2-.5 1.3-.9.1-.2.1-.3.1-.6v-5h2.6v5.7zM23.5 175.4c0-1 0-1.9-.1-2.7h2.3l.1 1.2h.1c.3-.5 1.2-1.4 2.6-1.4 1.7 0 3 1.2 3 3.6v5h-2.6v-4.7c0-1.1-.4-1.8-1.3-1.8-.7 0-1.2.5-1.3 1-.1.2-.1.4-.1.7v4.9h-2.6v-5.8zM36.5 176.3c0-.2 0-.3.1-.5.2-.8.8-1.3 1.6-1.3 1.2 0 1.8 1 1.8 2.4s-.7 2.4-1.8 2.4c-.8 0-1.4-.5-1.5-1.2 0-.2-.1-.3-.1-.5v-1.3zm-2.6 8.2h2.6v-4.2c.4.6 1.2 1 2.2 1 1.9 0 3.8-1.4 3.8-4.5 0-2.7-1.7-4.3-3.5-4.3-1.2 0-2.2.5-2.8 1.4l-.1-1.2h-2.3c0 .8.1 1.7.1 2.8v9zM46 172.7l1.3 4.1c.1.5.3 1.1.4 1.6h.1c.1-.5.3-1.1.4-1.6l1-4.1H52l-2 5.6c-1.2 3.3-2 4.7-3 5.5-.9.8-1.9 1.1-2.5 1.1l-.6-2.2c.3-.1.7-.2 1.1-.5.4-.2.8-.6 1.1-1.1.1-.1.1-.3.1-.4 0-.1 0-.2-.1-.4l-3.1-7.7h3zM54.8 175.9c.1-.7.5-1.7 1.6-1.7 1.2 0 1.5 1.1 1.5 1.7h-3.1zm5.5 1.8c0-.2.1-.6.1-1 0-2.1-1-4.2-3.8-4.2-2.9 0-4.3 2.4-4.3 4.5 0 2.7 1.6 4.3 4.5 4.3 1.1 0 2.2-.2 3.1-.5l-.3-1.8c-.7.2-1.4.4-2.3.4-1.2 0-2.3-.5-2.4-1.6l5.4-.1zM66 179.4c-1.1 0-1.7-1.1-1.7-2.5 0-1.3.5-2.5 1.7-2.5s1.7 1.3 1.7 2.5c0 1.5-.6 2.5-1.7 2.5zm0 1.9c2.2 0 4.4-1.4 4.4-4.5 0-2.6-1.7-4.3-4.3-4.3-2.7 0-4.5 1.7-4.5 4.5s1.9 4.3 4.4 4.3zM72.1 175.4c0-1 0-1.9-.1-2.7h2.3l.1 1.2h.1c.3-.5 1.2-1.4 2.6-1.4 1.7 0 3 1.2 3 3.6v5h-2.6v-4.7c0-1.1-.4-1.8-1.3-1.8-.7 0-1.2.5-1.3 1-.1.2-.1.4-.1.7v4.9h-2.6v-5.8zM87.7 177.3c0 .2 0 .5-.1.7-.2.6-.7 1.1-1.4 1.1-1.1 0-1.7-1-1.7-2.2 0-1.5.8-2.4 1.7-2.4.7 0 1.2.5 1.4 1.2 0 .2.1.3.1.5v1.1zm2.6-2.1c0-1.3 0-2 .1-2.5h-2.3l-.1 1c-.4-.7-1.2-1.2-2.3-1.2-2.1 0-3.8 1.7-3.8 4.4 0 2.4 1.5 4.1 3.6 4.1 1 0 1.8-.4 2.3-1.1v.5c0 1.6-.9 2.2-2.2 2.2-1 0-1.9-.3-2.4-.6l-.5 2c.8.4 1.9.6 3 .6 1.2 0 2.5-.2 3.4-1 1-.8 1.3-2.2 1.3-3.8v-4.6z" class="st6"/></svg>