<svg xmlns="http://www.w3.org/2000/svg" xml:space="preserve" x="0px" y="0px" overflow="visible" version="1.2" viewBox="0 0 1350 900"><path fill="#FFF" d="M0 0h1350v900H0z"/><path fill="#6E6C70" d="M886.891 425.889a2.31 2.31 0 0 0 2.316 2.3h113.981a2.311 2.311 0 0 0 2.323-2.3V139.631a2.312 2.312 0 0 0-2.323-2.308h-53.746a2.316 2.316 0 0 0-2.316 2.308v237.228c0 .9-.735 1.63-1.634 1.63h-56.286a2.31 2.31 0 0 0-2.316 2.3v45.1zM708.982 530.364h300.695c1.394 0 2.316-.922 2.316-2.299v-46.946c0-1.377-.922-2.3-2.316-2.3H761.093l-52.111 51.545zM807.194 118c-53.745 0-98.228 38.661-98.228 91.122s44.483 91.122 98.228 91.122c53.753 0 98.228-38.661 98.228-91.122.001-52.461-44.475-91.122-98.228-91.122m0 132.544c-22.706 0-41.695-17.492-41.695-41.423 0-23.93 18.989-41.422 41.695-41.422s41.703 17.492 41.703 41.422c0 23.931-18.996 41.423-41.703 41.423" style="fill:#63666f;fill-opacity:1"/><path fill="#E60F33" d="M695.065 368.751c0 1.269 1.037 2.3 2.316 2.3h90.809c1.472 0 2.2 1.776 1.155 2.799l-77.095 75.076a10.833 10.833 0 0 0-3.284 7.761v73.676l208.422-206.12c2.416-2.4.713-6.508-2.703-6.508H697.381a2.31 2.31 0 0 0-2.316 2.3v48.716z" style="fill:#d50037;fill-opacity:1"/><path fill="#6E6C70" d="M500.458 311.298c-73.206 0-129.732 54.3-129.732 121.037 0 66.73 56.525 121.037 129.732 121.037 73.215 0 129.74-54.307 129.74-121.037.001-66.738-56.524-121.037-129.74-121.037m0 189.613c-41.702 0-72.277-30.377-72.277-68.577s30.575-68.576 72.277-68.576c41.703 0 72.286 30.376 72.286 68.576s-30.583 68.577-72.286 68.577" style="fill:#63666f;fill-opacity:1"/><path fill="#E60F33" d="M334.793 391.643 547.66 146.946c2.021-2.323.356-5.938-2.734-5.938H335.978a2.31 2.31 0 0 0-2.316 2.307v48.715c0 1.27 1.038 2.3 2.316 2.3h92.815c1.688 0 2.595 1.969 1.495 3.238l-98.6 113.43a10.804 10.804 0 0 0-2.656 7.1v71.415c0 3.022 3.77 4.415 5.761 2.13" style="fill:#d50037;fill-opacity:1"/><path fill="#6E6C70" d="M574.138 319.575h53.745a2.31 2.31 0 0 0 2.316-2.3V196.03c0-.907.728-1.631 1.642-1.631h37.738a2.307 2.307 0 0 0 2.316-2.308v-48.784c0-1.27-1.03-2.3-2.316-2.3h-95.44c-1.278 0-2.324 1.03-2.324 2.3v173.967c0 1.269 1.045 2.301 2.323 2.301M888.703 761.147c0 .484.403.885.891.885h121.515c.496 0 .891-.4.891-.885v-18.815a.883.883 0 0 0-.891-.885h-50.222a.298.298 0 0 1-.232-.484l46.203-57.323c.759-.954.062-2.369-1.162-2.369h-89.377a.635.635 0 0 1-.635-.63v-42.577c0-.346.286-.623.635-.623h90.321a.9.9 0 0 0 .891-.892v-18.461a.889.889 0 0 0-.891-.885H894.062a.883.883 0 0 0-.891.885v82.53c0 .5.395.892.891.892h70.086c.534 0 .821.615.488 1.023l-31.209 38.307c-.31.385-.775.608-1.278.608h-42.555a.887.887 0 0 0-.891.885v18.814zm-42.81 3.546c0 .531.356.885.899.885h20.716c.542 0 .898-.354.898-.885V614.894c0-.539-.356-.892-.898-.892h-20.716c-.543 0-.899.354-.899.892v149.799zm-97.989-.885h20.832a.894.894 0 0 0 .86-.654l15.946-56.931a.638.638 0 0 1 .611-.454h11.903a.63.63 0 0 1 .611.454l15.946 56.931a.911.911 0 0 0 .868.654h20.832a.755.755 0 0 0 .736-.962l-21.53-76.661a.893.893 0 0 0-.86-.654h-22.652a.462.462 0 0 1-.45-.585l11.625-41.184a.887.887 0 0 1 .859-.646h28.809c.488 0 .891-.4.891-.892v-18.815a.889.889 0 0 0-.891-.885h-28.855a.636.636 0 0 1-.635-.63v-16.231a.888.888 0 0 0-.883-.892h-20.732a.89.89 0 0 0-.898.892v16.231c0 .346-.287.63-.635.63h-28.848a.894.894 0 0 0-.898.885v18.815c0 .492.411.892.898.892h28.87c.31 0 .534.292.45.584l-33.518 119.145a.765.765 0 0 0 .738.963m-49.192.885c0 .492.395.885.883.885h20.731a.89.89 0 0 0 .899-.885V636.64a.63.63 0 0 1 .635-.63h14.551a.887.887 0 0 0 .891-.878V616.31a.888.888 0 0 0-.891-.878h-36.816a.88.88 0 0 0-.883.878v148.383zm-94.441-.885h20.839a.909.909 0 0 0 .868-.669l15.248-58.676a.636.636 0 0 1 .612-.477h11.523c.286 0 .542.2.611.477l15.249 58.676a.91.91 0 0 0 .875.669h20.84a.75.75 0 0 0 .728-.947l-20.484-78.438a.886.886 0 0 0-.86-.661h-23.016a.462.462 0 0 1-.449-.577l12.011-46.507a.882.882 0 0 1 .868-.669h27.717a.889.889 0 0 0 .891-.885V616.31a.888.888 0 0 0-.891-.878h-79.704a.88.88 0 0 0-.883.878v18.822a.88.88 0 0 0 .883.878h28.181c.302 0 .519.284.442.577l-32.836 126.275a.753.753 0 0 0 .737.946m-54.768-94.607a.89.89 0 0 0 .891.892h13.661a.63.63 0 0 1 .635.623v19.077c0 .492.395.885.898.885h20.716a.884.884 0 0 0 .898-.885V616.31a.884.884 0 0 0-.898-.878h-35.91a.882.882 0 0 0-.891.878v18.461c0 .492.395.885.891.885h13.661c.348 0 .635.285.635.631v12.946c0 .346-.287.63-.635.63h-13.661a.881.881 0 0 0-.891.878v18.46zm-58.438-2.223v-15.777c0-.347.286-.631.634-.631h29.468c.348 0 .634.284.634.631v15.777a.636.636 0 0 1-.634.631H491.7a.636.636 0 0 1-.635-.631m-16.441 97.715c0 .492.411.885.898.885h112.579a.89.89 0 0 0 .891-.892v-16.669a.89.89 0 0 0-.891-.892h-90.685a.628.628 0 0 1-.627-.631v-6.731c0-.346.278-.623.627-.623h88.888a.89.89 0 0 0 .898-.892v-41.353a.89.89 0 0 0-.898-.892H475.522a.9.9 0 0 0-.898.892v16.685a.9.9 0 0 0 .898.885h88.889c.348 0 .635.284.635.631v6.377c0 .346-.287.63-.635.63h-88.889a.893.893 0 0 0-.898.878v41.712zm-5.36-78.807c0 .492.403.892.898.892h72.185c.496 0 .898-.4.898-.892V616.31a.889.889 0 0 0-.898-.878H522.7a.888.888 0 0 0-.898.878v14.815a.624.624 0 0 1-.634.623H491.7a.624.624 0 0 1-.634-.623V616.31a.883.883 0 0 0-.891-.878h-20.012a.888.888 0 0 0-.898.878v69.576zm-135.803-1.769c0 .484.403.885.898.885h112.579c.488 0 .883-.4.883-.885v-16.685a.888.888 0 0 0-.883-.892h-90.685a.63.63 0 0 1-.635-.63v-6.554c0-.346.286-.615.635-.615h88.889a.896.896 0 0 0 .898-.892V642.58a.89.89 0 0 0-.898-.885h-88.889a.628.628 0 0 1-.635-.623v-6.554c0-.346.286-.631.635-.631h90.685c.488 0 .883-.4.883-.892V616.31a.88.88 0 0 0-.883-.878H334.359a.888.888 0 0 0-.898.878v67.807zm-.713 57.145c0 .492.403.892.899.892h91.026c.348 0 .635.285.635.631v23.33c0 .485.403.885.898.885h20.731a.886.886 0 0 0 .883-.885V723.87a.892.892 0 0 0-.883-.892h-113.29a.9.9 0 0 0-.899.892v17.392zM329 712.87c0 .53.357.885.891.885h121.507c.543 0 .898-.354.898-.885v-17.754c0-.531-.356-.885-.898-.885H329.891c-.534 0-.891.354-.891.885v17.754z" style="fill:#63666f;fill-opacity:1"/></svg>