<svg width="110" height="40" viewBox="0 0 110 40" fill="none" xmlns="http://www.w3.org/2000/svg">
<g clip-path="url(#clip0_616_3907)">
<path d="M55.8278 6.17711C55.6015 10.6745 52.5656 13.9533 46.7241 16.0092L45.457 13.9657C49.723 12.3616 51.965 10.1771 52.1748 7.4082C52.2036 7.02685 52.0143 6.83203 51.6029 6.83203H45.8149V4.59784H54.2028C55.33 4.59784 55.873 5.12426 55.8278 6.17297V6.17711ZM61.5541 19.8642C61.5541 21.2693 61.0316 22.4258 59.9908 23.3336C58.8925 24.2828 57.4403 24.7595 55.6385 24.7595C53.8367 24.7595 52.3928 24.2828 51.3068 23.3336C50.2495 22.4258 49.723 21.2693 49.723 19.8642C49.723 18.459 50.2495 17.3025 51.3068 16.3947C52.3928 15.4289 53.8326 14.9481 55.6385 14.9481C57.4444 14.9481 58.8925 15.4289 59.9908 16.3947C61.0316 17.3025 61.5541 18.459 61.5541 19.8642ZM58.259 19.8642C58.259 19.1553 58.0121 18.5543 57.5185 18.0652C57.0248 17.5761 56.3996 17.3315 55.6385 17.3315C54.8775 17.3315 54.2728 17.5761 53.7791 18.0652C53.2855 18.5543 53.0386 19.1553 53.0386 19.8642C53.0386 20.573 53.2855 21.1533 53.7791 21.6424C54.2728 22.1315 54.8898 22.3761 55.6385 22.3761C56.3872 22.3761 57.0248 22.1357 57.5185 21.6507C58.0121 21.1699 58.259 20.573 58.259 19.8642ZM64.8697 10.3885H61.5952V14.7947H58.1931V4.26208H60.5462C61.1262 4.26208 61.5952 4.73462 61.5952 5.31908V8.15846H64.8697V10.3927V10.3885Z" fill="#164190"/>
<path d="M87.5154 10.4336H84.2408V15.2668H80.8388V12.4979C80.3451 13.0243 79.436 13.4347 78.1155 13.7331C76.8484 14.0191 75.0672 14.1601 72.7717 14.1601C71.8708 14.1601 71.1098 14.1269 70.4886 14.0523C69.744 13.9528 69.2134 13.6917 68.9048 13.2647C68.6498 12.8958 68.5264 12.3404 68.5264 11.6067V4.62223H71.9284V11.0098C71.9284 11.4367 72.1177 11.6772 72.5002 11.7352C73.0227 11.8056 73.7261 11.843 74.6147 11.843C76.2478 11.843 77.5149 11.7642 78.4158 11.6108C79.2468 11.4533 79.8103 11.2917 80.1065 11.1217C80.6002 10.8233 80.847 10.3259 80.847 9.63363V4.2699H83.2C83.7801 4.2699 84.2491 4.74244 84.2491 5.32689V8.20772H87.5236V10.4419L87.5154 10.4336ZM84.3066 17.4347L84.031 24.415H72.7306C72.0971 24.415 71.6405 24.2782 71.369 24.0005C71.0933 23.7227 70.9576 23.2668 70.9576 22.6284V16.1994H83.1671C83.9693 16.1994 84.3519 16.6098 84.3066 17.4347ZM80.8388 22.1808V18.8606C80.8388 18.5787 80.703 18.4336 80.4356 18.4336H74.3514V21.6046C74.3514 21.986 74.5571 22.1808 74.9644 22.1808H80.8388Z" fill="#164190"/>
<path d="M109.401 16.1377H101.1V23.0434C101.1 23.661 100.602 24.1626 99.9892 24.1626H97.702V16.1377H90.0957V13.9243H103.321V7.41234C103.321 6.93151 103.095 6.68696 102.647 6.68696H92.7408V4.45276H105.543C106.682 4.45276 107.205 5.01234 107.106 6.13566L106.493 13.9284H109.41V16.1419L109.401 16.1377Z" fill="#164190"/>
<path d="M51.7428 31.7635H49.0441C48.9866 31.7635 48.9372 31.8132 48.9372 31.8712V32.9034C48.9372 32.9614 48.9866 33.0111 49.0441 33.0111H50.3235V34.2795C50.0808 34.3832 49.7764 34.4329 49.4185 34.4329C48.7891 34.4329 48.2913 34.2422 47.9334 33.8692C47.5755 33.492 47.3945 32.9531 47.3945 32.2692C47.3945 31.5852 47.5961 31.0547 47.9951 30.6484C48.3942 30.2422 48.9166 30.0391 49.5543 30.0391C50.2906 30.0391 50.9159 30.1883 51.4178 30.4826C51.4507 30.5034 51.4918 30.5034 51.5247 30.4826C51.5576 30.4619 51.5782 30.4288 51.5782 30.3915V29.1604C51.5782 29.1148 51.5494 29.0775 51.5083 29.0609C50.9653 28.8536 50.3194 28.75 49.5913 28.75C48.46 28.75 47.5385 29.0899 46.8474 29.7573C46.1563 30.4246 45.8066 31.2951 45.8066 32.3396C45.8066 33.3842 46.1316 34.2132 46.7651 34.8184C47.3987 35.4236 48.2667 35.7303 49.3362 35.7303C50.2906 35.7303 51.1175 35.5355 51.7921 35.1583C51.825 35.1376 51.8456 35.1044 51.8456 35.0671V31.8795C51.8456 31.8215 51.7962 31.7718 51.7386 31.7718L51.7428 31.7635Z" fill="#164190"/>
<path d="M71.4107 31.7635H68.7121C68.6545 31.7635 68.6052 31.8132 68.6052 31.8712V32.9034C68.6052 32.9614 68.6545 33.0111 68.7121 33.0111H69.9915V34.2795C69.7488 34.3832 69.4444 34.4329 69.0865 34.4329C68.4571 34.4329 67.9593 34.2422 67.6014 33.8692C67.2435 33.492 67.0625 32.9531 67.0625 32.2692C67.0625 31.5852 67.2641 31.0547 67.6631 30.6484C68.0622 30.2422 68.5846 30.0391 69.2222 30.0391C69.9586 30.0391 70.5839 30.1883 71.0857 30.4826C71.1186 30.5034 71.1598 30.5034 71.1927 30.4826C71.2256 30.4619 71.2462 30.4288 71.2462 30.3915V29.1604C71.2462 29.1148 71.2174 29.0775 71.1762 29.0609C70.6332 28.8536 69.9874 28.75 69.2592 28.75C68.128 28.75 67.2065 29.0899 66.5154 29.7573C65.8243 30.4246 65.4746 31.2951 65.4746 32.3396C65.4746 33.3842 65.7996 34.2132 66.4331 34.8184C67.0666 35.4236 67.9346 35.7303 69.0042 35.7303C69.9586 35.7303 70.7854 35.5355 71.4601 35.1583C71.493 35.1376 71.5136 35.1044 71.5136 35.0671V31.8795C71.5136 31.8215 71.4642 31.7718 71.4066 31.7718L71.4107 31.7635Z" fill="#164190"/>
<path d="M100.828 31.7635H98.1291C98.0715 31.7635 98.0222 31.8132 98.0222 31.8712V32.9034C98.0222 32.9614 98.0715 33.0111 98.1291 33.0111H99.4085V34.2795C99.1658 34.3832 98.8614 34.4329 98.5035 34.4329C97.8741 34.4329 97.3763 34.2422 97.0184 33.8692C96.6605 33.492 96.4795 32.9531 96.4795 32.2692C96.4795 31.5852 96.6811 31.0547 97.0801 30.6484C97.4791 30.2422 98.0016 30.0391 98.6392 30.0391C99.3756 30.0391 100.001 30.1883 100.503 30.4826C100.536 30.5034 100.577 30.5034 100.61 30.4826C100.643 30.4619 100.663 30.4288 100.663 30.3915V29.1604C100.663 29.1148 100.634 29.0775 100.593 29.0609C100.05 28.8536 99.4044 28.75 98.6762 28.75C97.545 28.75 96.6235 29.0899 95.9324 29.7573C95.2413 30.4246 94.8916 31.2951 94.8916 32.3396C94.8916 33.3842 95.2166 34.2132 95.8501 34.8184C96.4836 35.4236 97.3516 35.7303 98.4212 35.7303C99.3756 35.7303 100.202 35.5355 100.877 35.1583C100.91 35.1376 100.931 35.1044 100.931 35.0671V31.8795C100.931 31.8215 100.881 31.7718 100.824 31.7718L100.828 31.7635Z" fill="#164190"/>
<path d="M56.2349 29.036C56.2184 28.9946 56.1814 28.9656 56.1362 28.9656H54.7416C54.6963 28.9656 54.6552 28.9946 54.6429 29.036L52.3351 35.5811C52.3227 35.6143 52.3268 35.6516 52.3474 35.6765C52.368 35.7013 52.4009 35.7221 52.4338 35.7221H53.7502C53.7954 35.7221 53.8366 35.693 53.853 35.6474L54.322 34.1552H56.5105L56.9918 35.6474C57.0042 35.693 57.0453 35.7221 57.0905 35.7221H58.4069C58.4398 35.7221 58.4728 35.7055 58.4933 35.6765C58.5139 35.6474 58.518 35.6143 58.5057 35.5811L56.2349 29.036ZM55.4039 30.6526C55.408 30.6733 55.4162 30.6941 55.4204 30.7107L56.1362 32.9407H54.6634L55.3833 30.6982C55.3833 30.6982 55.3916 30.6651 55.3957 30.6485L55.4039 30.6526Z" fill="#164190"/>
<path d="M64.8248 28.9656H63.6195C63.5619 28.9656 63.5126 29.0153 63.5126 29.0733V32.9822C63.5126 33.1853 63.5126 33.3552 63.5167 33.4961C63.4838 33.4464 63.4509 33.3925 63.4138 33.3345L60.6165 29.0153C60.5959 28.9863 60.563 28.9656 60.526 28.9656H59.1109C59.0533 28.9656 59.0039 29.0153 59.0039 29.0733V35.6184C59.0039 35.6765 59.0533 35.7262 59.1109 35.7262H60.3203C60.3779 35.7262 60.4273 35.6765 60.4273 35.6184V31.693C60.4273 31.4692 60.4273 31.2702 60.419 31.1044C60.4478 31.15 60.4766 31.1956 60.5095 31.2454L63.4097 35.6765C63.4303 35.7055 63.4632 35.7262 63.5002 35.7262H64.829C64.8865 35.7262 64.9359 35.6765 64.9359 35.6184V29.0733C64.9359 29.0153 64.8865 28.9656 64.829 28.9656H64.8248Z" fill="#164190"/>
<path d="M79.5397 28.9656H78.3344C78.2768 28.9656 78.2274 29.0153 78.2274 29.0733V32.9822C78.2274 33.1853 78.2274 33.3552 78.2315 33.4961C78.1986 33.4464 78.1657 33.3925 78.1287 33.3345L75.3313 29.0153C75.3108 28.9863 75.2779 28.9656 75.2408 28.9656H73.8257C73.7681 28.9656 73.7188 29.0153 73.7188 29.0733V35.6184C73.7188 35.6765 73.7681 35.7262 73.8257 35.7262H75.0351C75.0927 35.7262 75.1421 35.6765 75.1421 35.6184V31.693C75.1421 31.4692 75.1421 31.2702 75.1339 31.1044C75.1627 31.15 75.1915 31.1956 75.2244 31.2454L78.1246 35.6765C78.1451 35.7055 78.178 35.7262 78.2151 35.7262H79.5438C79.6014 35.7262 79.6508 35.6765 79.6508 35.6184V29.0733C79.6508 29.0153 79.6014 28.9656 79.5438 28.9656H79.5397Z" fill="#164190"/>
<path d="M84.0318 29.036C84.0153 28.9946 83.9783 28.9656 83.933 28.9656H82.5385C82.4932 28.9656 82.4521 28.9946 82.4397 29.036L80.1319 35.5811C80.1196 35.6143 80.1237 35.6516 80.1443 35.6765C80.1649 35.7013 80.1978 35.7221 80.2307 35.7221H81.5471C81.5923 35.7221 81.6335 35.693 81.6499 35.6474L82.1189 34.1552H84.3074L84.7887 35.6474C84.801 35.693 84.8422 35.7221 84.8874 35.7221H86.2038C86.2367 35.7221 86.2696 35.7055 86.2902 35.6765C86.3108 35.6474 86.3149 35.6143 86.3025 35.5811L84.0318 29.036ZM83.2008 30.6526C83.2049 30.6733 83.2131 30.6941 83.2172 30.7107L83.933 32.9407H82.4603L83.1802 30.6982C83.1802 30.6982 83.1884 30.6651 83.1926 30.6485L83.2008 30.6526Z" fill="#164190"/>
<path d="M89.7623 33.5873C89.7952 33.4423 91.0417 29.0443 91.0417 29.0443C91.054 28.9987 91.0952 28.9656 91.1445 28.9656H92.6214C92.679 28.9656 92.7283 29.0153 92.7283 29.0733V35.6184C92.7283 35.6765 92.679 35.7262 92.6214 35.7262H91.6258C91.5682 35.7262 91.5189 35.6765 91.5189 35.6184C91.5189 35.6184 91.5189 31.4236 91.5189 31.2495L90.2971 35.6474C90.2848 35.693 90.2436 35.7221 90.1943 35.7221H89.7747H89.3221C89.2769 35.7221 89.2358 35.6889 89.2193 35.6474L87.9975 31.2495C87.9975 31.4195 87.9975 35.6184 87.9975 35.6184C87.9975 35.6765 87.9482 35.7262 87.8906 35.7262H86.895C86.8375 35.7262 86.7881 35.6765 86.7881 35.6184V29.0733C86.7881 29.0153 86.8375 28.9656 86.895 28.9656H88.3719C88.4212 28.9656 88.4624 28.9987 88.4747 29.0443C88.4747 29.0443 89.7171 33.4381 89.7541 33.5873H89.7623Z" fill="#164190"/>
<path d="M106.817 28.9906H105.62C105.587 28.9906 105.558 29.0196 105.558 29.0528V32.9284C105.558 33.9937 105.163 34.5118 104.349 34.5118C103.534 34.5118 103.115 33.9771 103.115 32.8745V29.0569C103.115 29.0238 103.086 28.9947 103.053 28.9947H101.852C101.819 28.9947 101.79 29.0238 101.79 29.0569V32.8745C101.79 34.7688 102.629 35.7305 104.287 35.7305C105.945 35.7305 106.879 34.744 106.879 32.7958V29.0569C106.879 29.0238 106.85 28.9947 106.817 28.9947V28.9906Z" fill="#164190"/>
<path d="M29.1171 28.7331C38.9736 18.8015 43.0832 6.83883 38.2948 2.01396C34.9339 -1.37257 28.0845 -0.340443 20.8896 4.00774C20.614 4.17355 20.4453 4.47199 20.4453 4.79531V19.9995H24.773C25.0239 19.9995 25.2255 20.2026 25.2255 20.4554V35.2616C25.2255 35.5145 25.427 35.7176 25.678 35.7176H35.5921C35.843 35.7176 36.0446 35.5145 36.0446 35.2616V31.3611C36.0446 31.1083 35.843 30.9051 35.5921 30.9051H26.8298C27.5991 30.2171 28.3642 29.4958 29.1171 28.7373V28.7331Z" fill="#164190"/>
<path d="M20.4489 19.9988V35.2029C20.4489 35.5262 20.2803 35.8247 20.0047 35.9905C12.8097 40.3428 5.96037 41.3708 2.59945 37.9843C-2.18893 33.1594 1.92068 21.1967 11.7772 11.2651C12.53 10.5066 13.291 9.78531 14.0603 9.09723H5.30217C5.05124 9.09723 4.84966 8.89412 4.84966 8.64127V4.74075C4.84966 4.4879 5.05124 4.28479 5.30217 4.28479H15.2163C15.4672 4.28479 15.6688 4.4879 15.6688 4.74075V19.547C15.6688 19.7998 15.8704 20.0029 16.1213 20.0029H20.4489V19.9988Z" fill="#164190"/>
</g>
<defs>
<clipPath id="clip0_616_3907">
<rect width="108.8" height="40" fill="white" transform="translate(0.599609)"/>
</clipPath>
</defs>
</svg>
