<svg width="156" height="40" viewBox="0 0 156 40" fill="none" xmlns="http://www.w3.org/2000/svg">
<g clip-path="url(#clip0_616_3893)">
<path d="M20.9896 21.2009C30.3437 19.3768 35.5741 24.5813 38.2943 29.185C39.7195 26.4343 40.5297 23.3073 40.5297 19.9993C40.5297 18.6674 40.3995 17.3645 40.1463 16.105C19.4125 12.5364 12.8725 28.2512 10.8252 37.5454C13.6828 39.109 16.9672 39.9993 20.4542 39.9993C26.0247 39.9993 31.0599 37.7409 34.6915 34.0927C30.6041 21.476 20.9751 21.2081 20.9751 21.2081L20.9896 21.2009Z" fill="#E8380D"/>
<path d="M33.4617 4.762C29.8517 11.0305 24.7876 13.9621 24.7876 13.9621C27.6018 10.5818 28.9981 5.78987 29.6853 2.22852C26.9218 0.802534 23.7893 -0.00817871 20.4614 -0.00817871C13.3934 -0.000940202 7.17181 3.64727 3.598 9.15577C6.50624 11.6241 13.0679 15.7283 23.7531 14.6498C23.7531 14.6498 12.2865 16.6549 1.38427 13.7957C0.747643 15.7428 0.400391 17.8275 0.400391 19.9918C0.400391 25.218 2.41879 29.981 5.71045 33.5423C11.5052 14.2444 34.1273 13.0863 39.2999 13.0718C38.099 9.81448 36.0661 6.95527 33.4617 4.74752V4.762ZM19.8248 13.5206C17.9728 13.5206 16.468 12.0367 16.468 10.2126C16.468 8.38849 17.9728 6.9046 19.8248 6.9046C21.6768 6.9046 23.1816 8.38849 23.1816 10.2126C23.1816 12.0367 21.6768 13.5206 19.8248 13.5206Z" fill="#E8380D"/>
<path d="M145.298 13.687C145.298 15.6849 145.848 17.3931 146.955 18.8046C148.062 20.2234 150.232 20.9472 151.657 21.2078L149.943 22.6845C148.8 22.5976 146.752 22.2285 145.631 21.3743C144.503 20.5202 143.801 19.6154 143.519 18.6599C143.265 19.6154 142.578 20.5129 141.442 21.3598C140.314 22.2067 138.418 22.5252 137.275 22.6266L135.539 21.1499C136.979 20.8966 138.997 20.2162 140.09 18.7902C141.182 17.3714 141.732 15.6631 141.732 13.6798V11.2549C141.732 10.8278 141.761 9.67689 141.732 9.66241H145.298C145.298 9.66241 145.298 10.8278 145.298 11.2549V13.6798V13.687ZM152.084 9.21362H155.6C155.6 9.21362 155.571 30.075 155.6 30.104H152.084C152.084 30.104 152.113 9.2281 152.084 9.21362Z" fill="#231815"/>
<path d="M78.8211 11.6683C78.8211 11.6683 72.6429 11.6538 72.6285 11.6683V9.7356H88.5876V11.6683H82.3877V11.8058C82.3877 13.3187 83.2197 14.6578 84.8908 15.8159C86.5547 16.9741 88.2838 17.5604 90.0634 17.5749L88.1897 19.1674C86.6994 19.1674 85.3683 18.6969 83.7622 17.973C82.1562 17.2564 81.1072 16.4023 80.6008 15.4178C80.1161 16.4167 79.0743 17.2709 77.4683 17.9875C75.8623 18.6969 74.3141 19.0516 72.8093 19.0516L71.1454 17.5749C72.9468 17.5604 74.6758 16.9741 76.3325 15.8304C77.9892 14.6795 78.8211 13.3404 78.8211 11.813V11.6755V11.6683ZM78.8428 22.6346H70.5088V20.7092H89.217C89.5787 20.7092 90.6783 20.7237 90.7001 20.7092V22.6346H82.366C82.366 22.6346 82.3371 29.8442 82.366 29.8804H78.8428V22.6346Z" fill="#231815"/>
<path d="M124.318 19.45C125.092 19.1243 125.758 18.69 126.3 18.1471H130.786V20.5792H134.309C134.309 20.5792 134.28 9.24373 134.309 9.22925H130.786V11.2271H126.488C125.953 10.6046 125.28 10.1196 124.47 9.7649C123.653 9.41021 122.777 9.22925 121.844 9.22925C120.202 9.22925 118.798 9.75042 117.634 10.7928C116.462 11.8351 115.883 13.1019 115.883 14.5857C115.883 16.0696 116.462 17.3147 117.634 18.3642C118.798 19.4211 120.202 19.9422 121.844 19.9422C122.719 19.9422 123.544 19.7758 124.318 19.4573V19.45ZM127.769 13.8257C127.733 13.5868 127.675 13.348 127.595 13.1236H130.786V16.2361H127.523C127.632 15.9828 127.711 15.7077 127.762 15.4327C127.805 15.1576 127.834 14.868 127.834 14.5785C127.834 14.3252 127.812 14.0718 127.776 13.8329L127.769 13.8257ZM120.129 16.9962C119.645 16.323 119.399 15.5195 119.399 14.5785C119.399 13.6375 119.645 12.834 120.129 12.1608C120.614 11.4877 121.186 11.1475 121.844 11.1475C122.502 11.1475 123.096 11.4804 123.58 12.1608C124.065 12.834 124.311 13.6375 124.311 14.5785C124.311 15.5195 124.072 16.323 123.58 16.9962C123.096 17.6693 122.517 18.0023 121.844 18.0023C121.171 18.0023 120.614 17.6693 120.129 16.9962Z" fill="#231815"/>
<path d="M134.302 24.357C134.266 23.1409 133.231 22.1637 131.958 22.1637H118.697V24.0964H130.786C130.786 24.0964 130.815 30.0826 130.786 30.1116H134.309C134.309 30.1116 134.309 26.7022 134.309 24.357H134.302Z" fill="#231815"/>
<path d="M101.472 11.6026V14.165C101.472 14.7731 101.443 15.3666 101.378 15.9602C101.313 16.5465 101.19 17.0677 101.002 17.502H104.055C104.308 17.2414 104.525 16.7637 104.713 16.0615C104.901 15.3594 104.995 14.6934 104.995 14.0782V11.9428C104.995 10.6906 103.946 9.66992 102.651 9.66992H93.29V11.6026H101.479H101.472Z" fill="#231815"/>
<path d="M110.305 13.3685C110.305 13.3685 110.276 9.2281 110.305 9.21362H106.782V17.9071C106.34 18.0591 105.791 18.1894 105.125 18.2907C104.46 18.3993 103.707 18.45 102.861 18.45H99.0843C99.0843 18.45 99.0699 13.9042 99.0843 13.8897H95.7493V18.45C95.7493 18.45 92.4938 18.4644 92.4648 18.45V20.3826H102.723C103.505 20.3826 104.257 20.303 104.98 20.1438C105.697 19.9845 106.304 19.7891 106.789 19.5647V21.4467H110.312V15.294C110.312 15.294 113.814 15.2795 113.835 15.294V13.3613H110.312L110.305 13.3685Z" fill="#231815"/>
<path d="M107.904 22.6639C106.659 21.7301 105.162 21.2668 103.404 21.2668C101.646 21.2668 100.141 21.7301 98.9042 22.6639C97.6671 23.5976 97.0449 24.7413 97.0449 26.0877C97.0449 27.4341 97.6671 28.556 98.9042 29.497C100.148 30.438 101.646 30.9085 103.404 30.9085C105.162 30.9085 106.667 30.438 107.904 29.497C109.148 28.556 109.763 27.4196 109.763 26.0877C109.763 24.7558 109.141 23.5976 107.904 22.6639ZM105.444 28.0855C104.88 28.6646 104.2 28.9541 103.397 28.9541C102.594 28.9541 101.906 28.6646 101.349 28.0855C100.785 27.5064 100.503 26.8405 100.503 26.0877C100.503 25.3349 100.785 24.6472 101.349 24.0609C101.914 23.4674 102.594 23.1778 103.397 23.1778C104.2 23.1778 104.88 23.4746 105.444 24.0609C106.008 24.6472 106.291 25.3277 106.291 26.0877C106.291 26.8477 106.008 27.4992 105.444 28.0855Z" fill="#231815"/>
<path d="M58.5723 11.4223V13.9848C58.5723 14.5928 58.5433 15.1864 58.4782 15.7799C58.4131 16.3662 58.2901 16.8874 58.102 17.3217H61.1549C61.4082 17.0684 61.6252 16.5834 61.8133 15.8813C62.0014 15.1791 62.0954 14.5132 62.0954 13.8907V11.7553C62.0954 10.5031 61.0464 9.48242 59.7442 9.48242H50.665V11.4151H58.5723V11.4223Z" fill="#231815"/>
<path d="M67.3974 13.1888C67.3974 13.1888 67.3612 9.04841 67.3974 9.03394H63.8742V17.7274C63.4329 17.8794 62.8831 18.0097 62.2175 18.111C61.552 18.2196 60.7996 18.2703 59.9532 18.2703H56.1768C56.1768 18.2703 56.1623 13.7173 56.1768 13.7028H52.849V18.2703C52.849 18.2703 49.8756 18.2847 49.8467 18.2703V20.203H59.8229C60.6043 20.203 61.3566 20.1233 62.0728 19.9641C62.7963 19.8048 63.3967 19.6094 63.8815 19.385V21.267H67.4046V15.1143C67.4046 15.1143 70.9061 15.0998 70.9278 15.1143V13.1816H67.4046L67.3974 13.1888Z" fill="#231815"/>
<path d="M64.9966 22.4826C63.7522 21.5488 62.2547 21.0856 60.4968 21.0856C58.7388 21.0856 57.234 21.5561 55.9969 22.4826C54.7526 23.4164 54.1377 24.5601 54.1377 25.9064C54.1377 27.2528 54.7599 28.382 55.9969 29.3158C57.234 30.2568 58.7388 30.7273 60.4968 30.7273C62.2547 30.7273 63.7595 30.2568 64.9966 29.3158C66.2409 28.3748 66.863 27.2383 66.863 25.9064C66.863 24.5745 66.2409 23.4164 64.9966 22.4826ZM62.5441 27.897C61.9798 28.4761 61.2998 28.7656 60.4968 28.7656C59.6937 28.7656 59.0137 28.4761 58.4494 27.897C57.8851 27.3179 57.603 26.652 57.603 25.8992C57.603 25.1464 57.8851 24.4587 58.4494 23.8724C59.0137 23.2861 59.6937 22.9893 60.4968 22.9893C61.2998 22.9893 61.9798 23.2861 62.5441 23.8724C63.1084 24.4587 63.3905 25.1391 63.3905 25.8992C63.3905 26.6592 63.1084 27.3107 62.5441 27.897Z" fill="#231815"/>
</g>
<defs>
<clipPath id="clip0_616_3893">
<rect width="155.2" height="40" fill="white" transform="translate(0.400391)"/>
</clipPath>
</defs>
</svg>
