<svg width="150" height="40" viewBox="0 0 150 40" fill="none" xmlns="http://www.w3.org/2000/svg">
<g clip-path="url(#clip0_616_3928)">
<path d="M2.23678 33.0909C7.08812 41.4401 21.2443 42.3452 33.8539 35.1176C46.4635 27.8901 52.7523 15.2578 47.8945 6.90857C43.0368 -1.4407 28.8935 -2.35211 16.2838 4.8818C3.67421 12.1093 -2.61456 24.7416 2.23678 33.0909ZM29.24 2.12846L40.6175 18.827H32.2945V21.1979H44.3844C44.3844 21.1979 44.3844 21.1979 44.3844 21.2043C44.5705 21.2043 44.7181 21.3509 44.7181 21.5357C44.7181 21.6887 44.6154 21.8162 44.4742 21.8544C44.4742 21.8544 44.4742 21.8544 44.4742 21.8608C44.4742 21.8608 38.6603 23.4414 32.2881 27.3993V27.4312C32.2881 27.4312 32.2753 27.4312 32.2624 27.4185C28.2582 29.9041 24.0421 33.3267 20.8913 37.8965L9.51379 21.1979H19.0047C19.3833 20.4395 19.8197 19.6428 20.3266 18.827H5.75978C5.75978 18.827 5.75978 18.827 5.75978 18.8206C5.57368 18.8206 5.42608 18.674 5.42608 18.4892C5.42608 18.3362 5.52876 18.2088 5.66994 18.1705C5.66994 18.1705 5.66994 18.1705 5.66994 18.1642C5.66994 18.1642 21.0838 13.9831 29.2528 2.13483L29.24 2.12846Z" fill="#0B318F"/>
<path d="M44.4863 21.8672C44.4863 21.8672 44.4863 21.8672 44.4863 21.8608C44.6275 21.8226 44.7302 21.6951 44.7302 21.5421C44.7302 21.3573 44.5826 21.2107 44.3965 21.2107V21.2043H32.3066V27.4121C38.6852 23.4542 44.4927 21.8736 44.4927 21.8736L44.4863 21.8672Z" fill="white"/>
<path d="M18.234 27.4823C18.234 27.4823 18.3687 26.8577 18.7024 25.8506C18.1505 26.0482 17.5858 26.2713 17.0083 26.5326C17.0083 26.5326 17.5217 24.1999 19.0104 21.198H9.51953L20.8971 37.8965C24.0415 33.3331 28.2639 29.9106 32.2682 27.4185C31.8447 27.1827 26.0436 24.1107 18.234 27.4823Z" fill="white"/>
<path d="M5.6501 18.1698C5.50892 18.208 5.40625 18.3355 5.40625 18.4884C5.40625 18.6733 5.55384 18.8198 5.73994 18.8198V18.8262H20.326C22.4565 15.41 25.8063 11.707 30.9464 9.66752V11.4585C31.3763 11.2609 31.8191 11.0633 32.2811 10.8912V18.8262H40.6041L29.2394 2.12769C21.0704 13.9824 5.65652 18.1634 5.65652 18.1634C5.65652 18.1634 5.65652 18.1634 5.65652 18.1698H5.6501Z" fill="#00A73C"/>
<path d="M30.9595 11.4591V25.5445C30.9595 25.5445 25.8515 23.2819 18.7028 25.8504C18.3691 26.8638 18.2344 27.4821 18.2344 27.4821C26.0376 24.1105 31.8451 27.1889 32.2686 27.4183C32.2879 27.4247 32.2943 27.4311 32.2943 27.4311V10.8855C31.8322 11.064 31.3895 11.2552 30.9595 11.4527V11.4591Z" fill="#0B318F"/>
<path d="M18.7092 25.8506C25.8578 23.2821 30.9659 25.5447 30.9659 25.5447V9.66833C25.8258 11.7079 22.476 15.4108 20.3455 18.827C19.8386 19.6428 19.3958 20.4395 19.0236 21.198C17.5349 24.1999 17.0215 26.5326 17.0215 26.5326C17.599 26.2713 18.1637 26.0482 18.7156 25.8506H18.7092Z" fill="white"/>
<path d="M97.1579 19.7825L101.233 13.0648L105.346 19.7825H110.948L105.872 12.2235H110.647V10.0183H91.7932V12.2235H96.5676L91.498 19.7825H97.1579Z" fill="black"/>
<path d="M113.361 9.99963V27.839H100.886V21.8225H95.7139V26.7555C95.7139 26.7555 95.7139 30.0442 99.5834 30.0442H114.471C118.43 30.0761 118.552 26.8256 118.552 26.8256V9.99963H113.367H113.361Z" fill="black"/>
<path d="M64.0464 14.5118V17.9917H59.3105V20.1969H81.2186V21.8986C79.6785 21.4589 77.8881 21.2103 75.9694 21.2103C70.2068 21.2103 65.5287 23.492 65.5287 26.3091C65.5287 29.1262 70.2004 31.4079 75.9694 31.4079C81.7384 31.4079 86.41 29.1262 86.41 26.3091C86.41 26.2262 86.41 26.1498 86.3972 26.0733H86.4421V15.3913H90.4015V13.1861H86.4421V10.0121H81.2186V17.9917H78.0036V13.3008C78.0036 13.3008 78.0036 10.0121 74.1341 10.0121H61.3704V12.2173H72.825V17.9917H69.2635V14.5118H64.04H64.0464ZM75.9052 29.1899C73.0175 29.1899 70.6817 27.9152 70.6817 26.3473C70.6817 24.7795 73.0175 23.5048 75.9052 23.5048C78.7929 23.5048 81.1287 24.7795 81.1287 26.3473C81.1287 27.9152 78.7929 29.1899 75.9052 29.1899Z" fill="black"/>
<path d="M120.555 18.9284V21.1337H132.163V30.0183H137.387V21.1337H149.406V18.9284H146.794V13.307C146.794 13.307 146.794 10.0183 142.925 10.0183H124.123V12.2235H141.616V18.9284H120.555Z" fill="black"/>
</g>
<defs>
<clipPath id="clip0_616_3928">
<rect width="148.8" height="40" fill="white" transform="translate(0.599609)"/>
</clipPath>
</defs>
</svg>
