<svg width="152" height="40" viewBox="0 0 152 40" fill="none" xmlns="http://www.w3.org/2000/svg">
<g clip-path="url(#clip0_616_3476)">
<path d="M118.464 9.69002H121.161V15.8148H123.785V7.22281H118.464V4.80042H115.84V15.8148H118.464V9.69002Z" fill="#0F0F0F"/>
<path d="M129.513 16.0485C130.684 16.0485 131.58 15.7253 132.367 14.5829H132.444V15.8181H135.02V7.22613H132.444V8.55413H132.367C131.891 7.64533 130.841 6.99573 129.513 6.99573C127.139 6.99573 125.439 9.00213 125.439 11.5301C125.439 14.0581 127.135 16.0517 129.513 16.0517V16.0485ZM130.131 9.45973C131.35 9.45973 132.06 10.3077 132.06 11.5269C132.06 12.7461 131.35 13.5781 130.131 13.5781C128.911 13.5781 128.265 12.7301 128.265 11.5269C128.265 10.3237 128.927 9.45973 130.131 9.45973Z" fill="#0F0F0F"/>
<path d="M139.981 7.22302H137.328V15.9686H136.512V18.2694H139.981V7.22302Z" fill="#0F0F0F"/>
<path d="M138.655 6.17254C139.459 6.17254 140.121 5.51014 140.121 4.69094C140.121 3.87174 139.459 3.22534 138.655 3.22534C137.852 3.22534 137.174 3.88774 137.174 4.69094C137.174 5.49414 137.836 6.17254 138.655 6.17254Z" fill="#0F0F0F"/>
<path d="M148.624 7.22295V8.55095H148.547C148.07 7.64215 147.021 6.99255 145.693 6.99255C143.318 6.99255 141.619 8.99895 141.619 11.527C141.619 14.055 143.315 16.0486 145.693 16.0486C146.864 16.0486 147.76 15.7254 148.547 14.583H148.624V15.8182H151.2V7.22615H148.624V7.22295ZM146.31 13.5782C145.107 13.5782 144.445 12.7302 144.445 11.527C144.445 10.3238 145.107 9.45975 146.31 9.45975C147.514 9.45975 148.24 10.3078 148.24 11.527C148.24 12.7462 147.53 13.5782 146.31 13.5782Z" fill="#0F0F0F"/>
<path d="M118.972 35.0181C119.568 35.0181 120.057 35.2517 120.387 35.6229L121.248 34.7397C120.684 34.1445 119.865 33.7637 118.976 33.7637C117.244 33.7637 115.843 35.1557 115.843 36.8773C115.843 38.5989 117.244 40.0005 118.976 40.0005C119.836 40.0005 120.611 39.6613 121.174 39.0885L120.313 38.2181C119.984 38.5477 119.539 38.7493 118.976 38.7493C117.977 38.7493 117.18 37.9429 117.18 36.8805C117.18 35.8181 117.977 35.0213 118.976 35.0213L118.972 35.0181Z" fill="#0F0F0F"/>
<path d="M124.906 33.8082C123.111 33.8082 121.709 35.1586 121.709 36.877C121.709 38.5954 123.111 40.0002 124.906 40.0002C126.371 40.0002 127.539 39.0978 127.955 37.8338H126.49C126.215 38.429 125.629 38.7586 124.928 38.7586C124.035 38.7586 123.283 38.1538 123.133 37.3474H128.061C128.093 37.1874 128.103 37.0178 128.103 36.9218C128.103 35.1586 126.701 33.8082 124.906 33.8082ZM123.155 36.3362C123.251 35.5938 123.952 35.0498 124.887 35.0498C125.821 35.0498 126.512 35.6354 126.627 36.3362H123.155Z" fill="#0F0F0F"/>
<path d="M129.382 39.8404H130.697V35.21H133.363V39.8404H134.681V33.9684H129.382V39.8404Z" fill="#0F0F0F"/>
<path d="M138.128 32.3105H136.8V33.9681H135.897V35.2097H136.8V39.8401H139.03V38.5985H138.128V35.2097H139.062V33.9681H138.128V32.3105Z" fill="#0F0F0F"/>
<path d="M143.156 33.8082C141.361 33.8082 139.959 35.1586 139.959 36.877C139.959 38.5954 141.361 40.0002 143.156 40.0002C144.621 40.0002 145.789 39.0978 146.205 37.8338H144.74C144.465 38.429 143.879 38.7586 143.178 38.7586C142.285 38.7586 141.53 38.1538 141.383 37.3474H146.311C146.343 37.1874 146.353 37.0178 146.353 36.9218C146.353 35.1586 144.951 33.8082 143.156 33.8082ZM141.405 36.3362C141.501 35.5938 142.202 35.0498 143.137 35.0498C144.071 35.0498 144.762 35.6354 144.877 36.3362H141.405Z" fill="#0F0F0F"/>
<path d="M147.664 39.8404H149.002V35.21H151.2V33.9684H147.664V39.8404Z" fill="#0F0F0F"/>
<path d="M18.4795 17.1207C9.64429 17.1207 2.47949 24.2855 2.47949 33.1207C2.47949 35.5847 3.03629 37.9175 4.03149 40.0007H15.2539C12.6715 38.7847 10.8795 36.1575 10.8795 33.1207C10.8795 28.9287 14.2875 25.5207 18.4795 25.5207C22.6715 25.5207 26.0795 28.9287 26.0795 33.1207C26.0795 36.1575 24.2875 38.7847 21.7051 40.0007H32.9275C33.9227 37.9175 34.4795 35.5847 34.4795 33.1207C34.4795 24.2855 27.3147 17.1207 18.4795 17.1207Z" fill="#0F0F0F"/>
<path d="M59.123 40.0007H69.299L75.9998 30.7591L82.7006 40.0007H92.8766L75.9998 16.7207L59.123 40.0007Z" fill="#0F0F0F"/>
<path d="M22.6398 0.000366211H14.3198V4.80037H0.799805V13.1204H36.1598V4.80037H22.6398V0.000366211Z" fill="#0F0F0F"/>
<path d="M49.9997 4.80042H41.6797V40.0004H49.9997V29.0404H58.3197V20.7204H49.9997V4.80042Z" fill="#0F0F0F"/>
<path d="M93.6803 4.80042H58.3203V13.1204H93.6803V4.80042Z" fill="#0F0F0F"/>
<path d="M107.52 4.80042H99.2002V40.0004H107.52V29.0404H151.2V20.7204H107.52V4.80042Z" fill="#0F0F0F"/>
</g>
<defs>
<clipPath id="clip0_616_3476">
<rect width="150.4" height="40" fill="white" transform="translate(0.799805)"/>
</clipPath>
</defs>
</svg>
