<svg xmlns="http://www.w3.org/2000/svg" viewBox="0 0 1602.4410203 541.5305176"><path d="M581.993 298.956c-8.593-84.745-104.255-154.19-213.616-155.134-109.362-.909-191.116 67.087-182.512 151.855 8.593 84.802 104.243 154.26 213.64 155.134 109.373.943 191.058-67.088 182.488-151.867m-361.848-21.212c-7.477-68.341 63.544-123.2 158.585-122.43 95.017.748 178.128 56.746 185.57 125.087 7.49 68.353-63.498 123.2-158.595 122.441-94.983-.759-178.106-56.71-185.56-125.098" style="fill-rule:evenodd;fill:#fbb584"/><path d="M217.27 266.033c-62.613 66.064-63.637 167.638-2.336 226.926 61.359 59.31 161.886 53.789 224.487-12.217 62.658-66.029 63.648-167.603 2.324-226.948-61.325-59.277-161.829-53.767-224.476 12.24M416.817 452.57c-53.835 56.804-140.294 61.509-193.037 10.491-52.846-50.96-51.949-138.384 1.956-195.222 53.881-56.792 140.386-61.428 193.117-10.49 52.789 50.97 51.891 138.418-2.036 195.21" style="fill:#f89b6c;fill-rule:evenodd"/><path d="M118.928 89.837C2.64 182.727-26.922 317.303 52.807 390.464c79.718 73.138 238.624 57.16 354.9-35.763C523.935 261.8 553.51 127.177 473.826 54.05 394.03-19.11 235.168-3.087 118.917 89.836m104.012-36.42c112.042-42.412 222.83.495 247.493 95.754 24.663 95.305-46.22 206.91-158.262 249.277-112.042 42.435-222.796-.518-247.493-95.788C40.05 207.412 110.92 95.796 222.929 53.418" style="fill-rule:evenodd;fill:#f37321"/><path d="M884.035 220.124h-31.013v-55.527h-29.76v155.686h29.76v-76.428h31.013zm-136.383 59.794c-5.568 4.37-12.286 6.556-20.12 6.556s-14.551-2.185-20.13-6.556c-5.591-4.372-8.363-9.836-8.363-16.393 0-6.395 2.772-11.779 8.363-16.15 5.579-4.371 12.297-6.557 20.13-6.557s14.552 2.186 20.131 6.557 8.351 9.755 8.351 16.15c0 6.557-2.772 12.033-8.362 16.393m14.356-97.134h-68.963v-21.948h68.974v21.948zm92.003 174.85H737.793c-11.515 0-17.255-5.97-17.255-17.922V319.04h-30.023v24.215c0 25.065 13.344 37.592 40.02 37.592H854.01v-23.225zm-167.983-62.935c10.664 8.662 24.502 12.999 41.493 12.999 17.002 0 30.829-4.337 41.48-12.999 10.687-8.662 16.013-19.05 16.013-31.174 0-11.94-5.326-22.235-16.012-30.897-10.652-8.662-24.48-13-41.481-13-16.99 0-30.829 4.338-41.493 13-10.663 8.662-15.99 18.957-15.99 30.909 0 12.113 5.327 22.5 15.99 31.162m108.741-82.386H660.296v-21.718h134.473zm202.113 67.616c-5.602 4.371-12.309 6.557-20.13 6.557s-14.553-2.186-20.132-6.557-8.374-9.835-8.374-16.392c0-6.396 2.795-11.78 8.374-16.15s12.309-6.558 20.131-6.558 14.529 2.186 20.13 6.557c5.568 4.372 8.364 9.755 8.364 16.15 0 6.558-2.796 12.033-8.375 16.393zm14.356-97.134H942.24v-21.948h68.997zm32.244 29.518H909.008v-21.718h134.474zM934.73 294.32c7.511 6.211 16.599 10.26 27.262 12.113v22.949h-57.746v23.478h125.984c17.669 0 31.013-4.038 39.997-12.113v40.618h29.77V261.271h30.99v-23.985h-30.99V164.62h-29.759v129.7c0 23.386-14.989 35.062-44.978 35.062h-33.267v-22.95c10.502-2.024 19.417-6.062 26.768-12.112 10.33-8.582 15.484-18.843 15.484-30.783 0-11.952-5.326-22.247-15.99-30.91-10.687-8.661-24.502-12.998-41.504-12.998-16.99 0-30.829 4.337-41.492 12.999-10.664 8.662-15.99 18.957-15.99 30.909 0 11.94 5.177 22.201 15.472 30.783zm392.986-129.723h29.253V279.4h-29.253v-49.464h-19.75v44.172h-28.736v-109.51h28.735v41.63h19.751zm-47.255 140.294c-11.48 0-20.821 2.945-28 8.823-7.154 5.89-10.732 12.953-10.732 21.2 0 8.249 3.532 15.392 10.606 21.454 7.086 6.051 16.473 9.077 28.126 9.077 11.515 0 20.844-2.991 28.01-8.95 7.155-5.982 10.744-13.171 10.744-21.58 0-8.248-3.612-15.311-10.87-21.2-7.259-5.879-16.553-8.824-27.884-8.824m68.502 30.024c0 14.471-6.407 26.987-19.245 37.581-12.838 10.606-29.253 15.91-49.257 15.91-19.832 0-36.2-5.292-49.107-15.91-12.919-10.583-19.372-23.121-19.372-37.581 0-14.471 6.453-26.883 19.372-37.225 12.906-10.341 29.275-15.518 49.107-15.518 20.004 0 36.42 5.177 49.257 15.53 12.838 10.33 19.245 22.742 19.245 37.213m-127.226-158.458c0 26.906 5.153 46.255 15.483 58.034 8.685 9.755 18.497 15.645 29.495 17.658v23.708a88.03 88.03 0 0 1-49.223-23.202 61 61 0 0 1-10.26-12.366c-2.992 4.705-6.431 8.834-10.25 12.366a88.06 88.06 0 0 1-49.257 23.202V252.16c11.008-2.024 20.844-7.914 29.517-17.68 10.307-11.768 15.484-31.117 15.484-58.023v-8.834h29.01zm341.935 54.503h-43.989v-18.935h43.989zm-67.352 82.754c6.925-5.866 16.128-8.823 27.62-8.823 11.319 0 20.499 2.945 27.493 8.823 7.005 5.89 10.514 12.965 10.514 21.2 0 8.421-3.474 15.6-10.376 21.581-6.925 5.959-16.128 8.95-27.631 8.95-11.665 0-20.913-3.026-27.746-9.088-6.822-6.05-10.261-13.194-10.261-21.442 0-8.236 3.474-15.311 10.387-21.2m76.497 58.667c12.585-10.686 18.865-23.179 18.865-37.466 0-14.299-6.28-26.665-18.865-37.087-12.584-10.433-28.885-15.644-48.877-15.644-19.844 0-36.086 5.21-48.728 15.644-12.677 10.422-19.015 22.777-19.015 37.087 0 14.287 6.338 26.78 19.015 37.466 12.642 10.675 28.884 16.024 48.728 16.024 19.992 0 36.293-5.349 48.877-16.024M1429.198 191.09h61.244v58.034h-48.498c-8.49 0-12.746-4.716-12.746-14.126zm5.499 80.995h84.986v-17.91h44v27.24h29.76V164.608h-29.76v24.214h-44v-4.026c0-11.112-5.406-16.657-16.242-16.657h-103.737v67.11c0 24.56 11.676 36.845 34.993 36.845z" style="fill-rule:evenodd"/></svg>