<svg xmlns="http://www.w3.org/2000/svg" xmlns:xlink="http://www.w3.org/1999/xlink" width="170.03" height="97.857" viewBox="287.8 106.291 173.94 101.78"><defs><path id="a" d="M377.89 173.21c18.86 0 31.27-14.96 40.75-28.11 7.97-10.87 21.76-29.8 43.45-33.24 1.12-.18.86-1.04-.27-1.12-5.67-.4-16.09.16-27.76 7.11-14.6 8.7-25.53 26.69-37.49 35.55-6.6 4.89-17.45 9.8-27.6 4.31 0 0-9.62-4.49-9.2-16.97 0 0 .04-12.96 12.55-15.51 0 0 8.89-1.57 13.04 5.35.42.69.52 1.68-.66.77-1.37-1.05-3.46-1.92-6.69-1.62 0 0-6.25.47-8.06 6.71 0 0-1.94 5.83 2.7 10.49 0 0 2.77 3.5 8.77 3.21 12.21 0 23.75-16.22 27.19-19.65 7.48-7.48 20.31-20.24 43.04-21.74 1.16-.08 1.03-.86-.14-1.03-10.36-1.49-34.52-.24-56.53 22.89-2.69-9.22-11.64-15.35-22.46-15.13-9.62.2-25.94 7.62-25.94 27.39 0 20.99 18.16 30.34 31.31 30.34"/><path id="b" d="M350.93 164.57a32.86 32.86 0 0 1-8.14-21.7c0-.38 0-.75.02-1.13-7.57-8.67-15.74-18.18-25.3-23.88-11.57-6.9-21.92-7.51-27.62-7.13-1.3.09-1.51.95-.25 1.15 21.59 3.51 35.34 22.38 43.29 33.22 4.98 6.91 10.53 14.31 17.54 19.79.82.63 1.11.42.46-.32"/><path id="c" d="M300.1 107.71c-1.22.18-1.28.97-.09 1.04 22.7 1.42 36.34 15.15 42.95 21.74.41.41.95.99 1.59 1.71 1.07-3.12 2.59-6.03 4.48-8.65-19.73-16.29-39.73-17.15-48.93-15.84"/><path id="d" d="M290.11 186.36h3.39v16.29h-3.39z"/><path id="e" d="M297.1 202.65v-12.09h3.26v2.28c.59-.93 1.24-1.59 1.95-1.97.71-.39 1.43-.58 2.17-.58.95 0 1.77.31 2.45.92.69.61 1.03 1.58 1.03 2.9v8.54h-3.26v-7.74c0-.66-.06-1.11-.18-1.34-.12-.24-.29-.42-.49-.54-.21-.12-.45-.18-.7-.18-.45 0-.92.15-1.4.45s-1 .88-1.57 1.74v7.61z"/><path id="f" d="M320.22 202.37c-1.33.37-2.58.55-3.73.55q-3.075 0-4.62-1.83c-1.03-1.22-1.54-2.72-1.54-4.5 0-1.86.54-3.37 1.63-4.55 1.09-1.16 2.69-1.75 4.8-1.75.98 0 2.1.16 3.37.47v2.36c-1.31-.43-2.36-.64-3.14-.64-1.11 0-1.92.42-2.43 1.28-.51.85-.77 1.79-.77 2.82 0 .79.15 1.53.45 2.21.29.69.7 1.19 1.24 1.5.52.32 1.12.47 1.78.47.96 0 1.95-.22 2.96-.65z"/><path id="g" d="M322.93 202.65v-17.38h3.26v7.57c.59-.93 1.24-1.59 1.95-1.97.71-.39 1.44-.58 2.17-.58.96 0 1.77.31 2.46.92.68.61 1.03 1.58 1.03 2.9v8.54h-3.26v-7.74c0-.66-.07-1.11-.19-1.34a1.23 1.23 0 0 0-.49-.54c-.21-.12-.44-.18-.7-.18-.44 0-.91.15-1.39.45s-1.01.88-1.58 1.74v7.61z"/><path id="h" d="M339.27 195.41h4.3c0-1.1-.19-1.89-.56-2.36-.36-.48-.84-.72-1.42-.72-.63 0-1.15.27-1.56.79-.4.52-.66 1.28-.76 2.29m7.49 6.82c-1.54.46-2.99.69-4.37.69-1.31 0-2.45-.24-3.43-.73s-1.74-1.25-2.27-2.29a7.5 7.5 0 0 1-.79-3.38c0-1.13.22-2.18.67-3.13a5.35 5.35 0 0 1 1.96-2.27c.86-.55 1.92-.83 3.17-.83 1.54 0 2.77.49 3.69 1.48.91.98 1.37 2.81 1.37 5.48h-7.43c.08.82.26 1.46.55 1.93.3.46.7.84 1.2 1.11s1.17.41 2.02.41c1.08 0 2.31-.25 3.66-.76z"/><path id="i" d="M354.87 200.87c.92 0 1.62-.4 2.09-1.21s.7-1.83.7-3.06c0-1.22-.23-2.23-.7-3.05-.47-.81-1.17-1.21-2.09-1.21s-1.61.4-2.08 1.21c-.47.82-.7 1.83-.7 3.05 0 1.23.23 2.25.7 3.06s1.16 1.21 2.08 1.21m0 2.05c-1.31 0-2.43-.26-3.36-.77a5.04 5.04 0 0 1-2.15-2.25c-.49-.99-.73-2.09-.73-3.3 0-1.2.24-2.29.72-3.28.49-.99 1.2-1.74 2.14-2.25.94-.52 2.07-.78 3.38-.78q1.98 0 3.39.78 1.41.765 2.13 2.25c.49.99.74 2.08.74 3.28 0 1.21-.25 2.31-.74 3.3s-1.21 1.74-2.14 2.25c-.94.51-2.06.77-3.38.77"/><path id="j" d="M363.24 202.65v-12.09h3.26v2.28c.59-.93 1.24-1.59 1.95-1.97.71-.39 1.43-.58 2.16-.58.96 0 1.78.31 2.46.92.69.61 1.03 1.58 1.03 2.9v8.54h-3.26v-7.74c0-.66-.06-1.11-.18-1.34a1.25 1.25 0 0 0-.5-.54c-.2-.12-.44-.18-.69-.18-.45 0-.92.15-1.4.45s-1.01.88-1.57 1.74v7.61z"/><path id="k" d="M388 196.13h5.06l-2.53-6.49zm-5 6.52 6.35-16.29h3.39l6.34 16.29h-3.48l-1.7-4.35h-6.74l-1.7 4.35z"/><path id="l" d="M400.78 190.56h3.26v12.09h-3.26zm0-4.76h3.26v2.71h-3.26z"/><path id="m" d="M407.5 202.65v-12.09h3.26v2.28c.39-.78.92-1.4 1.6-1.86q1.005-.69 2.25-.69c.2 0 .41.02.61.06v2.91c-.46-.17-.88-.25-1.29-.25-.65 0-1.23.16-1.76.49-.53.32-1 .82-1.41 1.47v7.68z"/><path id="n" d="M420.39 199.49q.675.765 1.26 1.05.6.27 1.2.27c.87 0 1.51-.43 1.93-1.29s.63-1.85.63-2.96c0-1.15-.2-2.06-.6-2.72s-.98-.99-1.72-.99c-.46 0-.93.17-1.4.5s-.9.79-1.3 1.36zm-3.26 7.52v-16.45h3.26v2.29q.615-1.275 1.59-1.92c.65-.42 1.42-.64 2.3-.64 1.46 0 2.6.55 3.4 1.65s1.2 2.55 1.2 4.33c0 1.9-.45 3.48-1.34 4.75-.9 1.26-2.15 1.9-3.76 1.9-.43 0-.82-.05-1.19-.14-.36-.09-.71-.23-1.04-.42s-.72-.5-1.16-.93v5.58z"/><path id="o" d="M436.86 200.87c.93 0 1.63-.4 2.09-1.21.47-.81.7-1.83.7-3.06 0-1.22-.23-2.23-.7-3.05-.46-.81-1.16-1.21-2.09-1.21-.91 0-1.61.4-2.08 1.21-.46.82-.7 1.83-.7 3.05 0 1.23.24 2.25.7 3.06.47.81 1.17 1.21 2.08 1.21m0 2.05c-1.3 0-2.42-.26-3.36-.77s-1.65-1.26-2.14-2.25c-.5-.99-.74-2.09-.74-3.3 0-1.2.24-2.29.72-3.28.49-.99 1.2-1.74 2.14-2.25.94-.52 2.07-.78 3.38-.78q1.995 0 3.39.78c.94.51 1.65 1.26 2.14 2.25s.73 2.08.73 3.28c0 1.21-.24 2.31-.74 3.3-.49.99-1.2 1.74-2.14 2.25s-2.06.77-3.38.77"/><path id="p" d="M445.23 202.65v-12.09h3.26v2.28c.39-.78.93-1.4 1.6-1.86.68-.46 1.43-.69 2.26-.69.2 0 .4.02.61.06v2.91a3.7 3.7 0 0 0-1.29-.25c-.65 0-1.24.16-1.77.49-.53.32-1 .82-1.41 1.47v7.68z"/><path id="q" d="M461.5 202.58c-.78.22-1.39.34-1.84.34-1.07 0-1.9-.15-2.48-.45-.59-.3-1.03-.71-1.33-1.23-.29-.51-.44-1.28-.44-2.28v-6.36h-1.36v-2.04h1.36v-2.05l3.27-.37v2.42h2.59v2.04h-2.59v5.92c0 .87.15 1.45.46 1.76q.465.45 1.35.45c.28 0 .62-.04 1.01-.12z"/></defs><g transform="translate(-4.987 -1.622)scale(1.01052)"><use xlink:href="#a" width="100%" height="100%" fill="#00aab4"/><use xlink:href="#a" width="100%" height="100%" fill-opacity="0" stroke="#000" stroke-opacity="0"/></g><g transform="translate(-4.987 -1.622)scale(1.01052)"><use xlink:href="#b" width="100%" height="100%" fill="#5786c5"/><use xlink:href="#b" width="100%" height="100%" fill-opacity="0" stroke="#000" stroke-opacity="0"/></g><g transform="translate(-4.987 -1.622)scale(1.01052)"><use xlink:href="#c" width="100%" height="100%" fill="#f99d1b"/><use xlink:href="#c" width="100%" height="100%" fill-opacity="0" stroke="#000" stroke-opacity="0"/></g><g fill="#555759" transform="translate(-4.987 -1.622)scale(1.01052)"><use xlink:href="#d" width="100%" height="100%"/><use xlink:href="#d" width="100%" height="100%" stroke="#000" stroke-opacity="0"/></g><g fill="#555759" transform="translate(-4.987 -1.622)scale(1.01052)"><use xlink:href="#e" width="100%" height="100%"/><use xlink:href="#e" width="100%" height="100%" stroke="#000" stroke-opacity="0"/></g><g fill="#555759" transform="translate(-4.987 -1.622)scale(1.01052)"><use xlink:href="#f" width="100%" height="100%"/><use xlink:href="#f" width="100%" height="100%" stroke="#000" stroke-opacity="0"/></g><g fill="#555759" transform="translate(-4.987 -1.622)scale(1.01052)"><use xlink:href="#g" width="100%" height="100%"/><use xlink:href="#g" width="100%" height="100%" stroke="#000" stroke-opacity="0"/></g><g fill="#555759" transform="translate(-4.987 -1.622)scale(1.01052)"><use xlink:href="#h" width="100%" height="100%"/><use xlink:href="#h" width="100%" height="100%" stroke="#000" stroke-opacity="0"/></g><g fill="#555759" transform="translate(-4.987 -1.622)scale(1.01052)"><use xlink:href="#i" width="100%" height="100%"/><use xlink:href="#i" width="100%" height="100%" stroke="#000" stroke-opacity="0"/></g><g fill="#555759" transform="translate(-4.987 -1.622)scale(1.01052)"><use xlink:href="#j" width="100%" height="100%"/><use xlink:href="#j" width="100%" height="100%" stroke="#000" stroke-opacity="0"/></g><g fill="#555759" transform="translate(-4.987 -1.622)scale(1.01052)"><use xlink:href="#k" width="100%" height="100%"/><use xlink:href="#k" width="100%" height="100%" stroke="#000" stroke-opacity="0"/></g><g fill="#555759" transform="translate(-4.987 -1.622)scale(1.01052)"><use xlink:href="#l" width="100%" height="100%"/><use xlink:href="#l" width="100%" height="100%" stroke="#000" stroke-opacity="0"/></g><g fill="#555759" transform="translate(-4.987 -1.622)scale(1.01052)"><use xlink:href="#m" width="100%" height="100%"/><use xlink:href="#m" width="100%" height="100%" stroke="#000" stroke-opacity="0"/></g><g fill="#555759" transform="translate(-4.987 -1.622)scale(1.01052)"><use xlink:href="#n" width="100%" height="100%"/><use xlink:href="#n" width="100%" height="100%" stroke="#000" stroke-opacity="0"/></g><g fill="#555759" transform="translate(-4.987 -1.622)scale(1.01052)"><use xlink:href="#o" width="100%" height="100%"/><use xlink:href="#o" width="100%" height="100%" stroke="#000" stroke-opacity="0"/></g><g fill="#555759" transform="translate(-4.987 -1.622)scale(1.01052)"><use xlink:href="#p" width="100%" height="100%"/><use xlink:href="#p" width="100%" height="100%" stroke="#000" stroke-opacity="0"/></g><g fill="#555759" transform="translate(-4.987 -1.622)scale(1.01052)"><use xlink:href="#q" width="100%" height="100%"/><use xlink:href="#q" width="100%" height="100%" stroke="#000" stroke-opacity="0"/></g></svg>