<svg xmlns="http://www.w3.org/2000/svg" viewBox="0 0 293.959 59.029"><path d="M279.998 16.234h2.912v-3.433h6.108v-2.269h-14.37v2.269h5.35v3.433z" style="fill:#fff"/><path d="M286.426 16.65h4.322v1.713h2.945V1.246h-2.945v13.142h-4.322v2.262zM281.684 9.9c3.039 0 5.507-2.124 5.507-4.629 0-2.528-2.418-4.518-5.507-4.518s-5.5 1.99-5.5 4.518c-.004 2.501 2.464 4.629 5.5 4.629Zm0-2.221a2.623 2.623 0 0 1-2.752-2.44 2.785 2.785 0 0 1 5.506 0 2.625 2.625 0 0 1-2.754 2.436ZM279.578 20.618v-4.384h-2.947v6.829h17.328v-2.445h-14.381zM142.74 15.343h-3.027v7.72h15.555v-2.542H142.74v-5.178zM154.988 1.243h-2.943v15.109h2.943V8.176h2.981V5.628h-2.981V1.243zM225.1 1.243h-2.944v12.539h2.944V8.176h2.982V5.628H225.1V1.243zM201.611 1.243h-2.945v13.345h-9.152V8.4h-2.903v6.188h-3.431v2.474h15.486v6.001h2.945V10.156h2.981V7.608h-2.981V1.243zM244.598 1.243h3.006v21.82h-3.006zM229.578 4.299h8.377v12.86l3.035-1.267V1.931h-11.412v2.368zM250.816 12.774h9.389v1.494h-6.82v2.059h13.947v1.284h-14.049v5.454h17.17v-2.094h-14.426V19.67h14.047v-5.402h-6.834v-1.494h9.387v-2.242h-21.811v2.242zM209.422 17.405h12.642v5.658h3.036v-8.146h-15.678v2.488zM159.228 12.485h9.26v2.602h-7.215v2.368h13.989v5.608h2.947v-7.976h-6.686v-2.602h9.258v-2.432h-21.553v2.432zM219.8 2.088h-5.09V0h-2.945v2.088h-5.09v2.287h1.98A4.532 4.532 0 0 0 207.57 7.5c0 3.165 2.323 5.376 5.672 5.376s5.674-2.211 5.674-5.376a4.517 4.517 0 0 0-1.088-3.123h-.008 1.981Zm-6.559 8.63a3.069 3.069 0 0 1-2.881-3.324 2.911 2.911 0 1 1 5.764 0 3.07 3.07 0 0 1-2.882 3.324ZM149.742 2.088h-5.09V0h-2.945v2.088h-5.092v2.287h1.985a4.518 4.518 0 0 0-1.09 3.125c0 3.165 2.322 5.376 5.672 5.376s5.673-2.211 5.673-5.376a4.515 4.515 0 0 0-1.086-3.123h-.009 1.981Zm-6.56 8.63a3.071 3.071 0 0 1-2.882-3.324 2.912 2.912 0 1 1 5.765 0 3.071 3.071 0 0 1-2.883 3.324ZM162.123 1.622V3.99h12.815v5.248l2.949-1.225V1.622h-15.764z" style="fill:#fff"/><path d="M184.092 1.622V3.99h9.187v8.503l2.949-1.227V1.622h-12.136zM270.434 7.459 261.721.34l-8.711 7.119 1.652 2.027 7.059-5.765 7.058 5.765 1.655-2.027zM136.615 32.239h1.375v4.126h.037l3.319-4.126h1.529l-2.7 3.368 3.154 5.359H141.8l-2.47-4.266-1.34 1.635v2.633h-1.375ZM143.885 37.717a3.091 3.091 0 1 1 6.142 0 3.087 3.087 0 1 1-6.142 0Zm4.742 0c0-1.387-.641-2.312-1.672-2.312s-1.66.925-1.66 2.312.641 2.288 1.66 2.288 1.672-.913 1.672-2.288ZM151.746 34.444h1.115l.106 1.174H153a2.261 2.261 0 0 1 1.851-1.339 1.616 1.616 0 0 1 .735.142l-.248 1.186a1.914 1.914 0 0 0-.652-.107c-.534 0-1.176.368-1.588 1.4v4.067h-1.354ZM156.123 37.717a3.166 3.166 0 0 1 2.977-3.438c1.728 0 2.656 1.245 2.656 3.094a3.533 3.533 0 0 1-.061.687h-4.232a1.967 1.967 0 0 0 2.014 1.992 2.764 2.764 0 0 0 1.554-.485l.475.866a3.969 3.969 0 0 1-2.205.687 3.132 3.132 0 0 1-3.178-3.403Zm4.457-.593c0-1.126-.508-1.778-1.457-1.778a1.771 1.771 0 0 0-1.674 1.778ZM162.846 39.235c0-1.4 1.185-2.123 3.9-2.419-.012-.759-.283-1.423-1.242-1.423a3.59 3.59 0 0 0-1.887.664l-.51-.925a4.991 4.991 0 0 1 2.631-.853c1.625 0 2.371 1.031 2.371 2.762v3.925H167l-.121-.747h-.033a3.241 3.241 0 0 1-2.076.9 1.8 1.8 0 0 1-1.924-1.884Zm3.9.047v-1.6c-1.932.237-2.584.723-2.584 1.458 0 .64.44.9 1.02.9a2.294 2.294 0 0 0 1.564-.758ZM177.1 38.476h-3.038l-.746 2.49h-1.4l2.893-8.727h1.591l2.9 8.727h-1.459Zm-.334-1.078-.344-1.174c-.295-.95-.557-1.921-.828-2.9h-.049a71.458 71.458 0 0 1-.8 2.9l-.355 1.174ZM180.006 37.717c0-2.122 1.338-3.438 2.8-3.438a2.511 2.511 0 0 1 1.754.735l-.057-1.08v-2.418h1.361v9.45h-1.113l-.119-.735h-.037a2.73 2.73 0 0 1-1.9.889c-1.634 0-2.689-1.245-2.689-3.403ZM184.5 39.2v-3.19a2.05 2.05 0 0 0-1.438-.593c-.912 0-1.646.865-1.646 2.276 0 1.482.582 2.3 1.6 2.3a1.924 1.924 0 0 0 1.484-.793ZM187.154 34.444h1.4l1.113 3.51c.178.641.381 1.3.57 1.945h.047c.19-.641.393-1.3.568-1.945l1.116-3.51h1.332l-2.252 6.522h-1.576ZM193.973 39.235c0-1.4 1.185-2.123 3.9-2.419-.014-.759-.285-1.423-1.246-1.423a3.6 3.6 0 0 0-1.885.664l-.51-.925a4.992 4.992 0 0 1 2.633-.853c1.625 0 2.371 1.031 2.371 2.762v3.925h-1.115l-.121-.747h-.035a3.241 3.241 0 0 1-2.075.9 1.8 1.8 0 0 1-1.917-1.884Zm3.9.047v-1.6c-1.932.237-2.586.723-2.586 1.458 0 .64.439.9 1.022.9a2.3 2.3 0 0 0 1.566-.758ZM201.289 34.444h1.117l.106.9h.035a3.108 3.108 0 0 1 2.158-1.067c1.387 0 2 .925 2 2.585v4.1h-1.363V37.03c0-1.127-.334-1.577-1.1-1.577a2.223 2.223 0 0 0-1.6.888v4.625h-1.354ZM208.346 37.717a3.2 3.2 0 0 1 3.224-3.438 2.8 2.8 0 0 1 1.908.746l-.675.891a1.705 1.705 0 0 0-1.172-.511c-1.092 0-1.873.925-1.873 2.312s.746 2.288 1.836 2.288a2.232 2.232 0 0 0 1.424-.592l.556.9a3.177 3.177 0 0 1-2.111.807 3.081 3.081 0 0 1-3.117-3.403ZM214.287 37.717a3.167 3.167 0 0 1 2.975-3.438c1.732 0 2.658 1.245 2.658 3.094a3.613 3.613 0 0 1-.061.687h-4.234a1.972 1.972 0 0 0 2.018 1.992 2.768 2.768 0 0 0 1.552-.485l.475.866a3.965 3.965 0 0 1-2.207.687 3.131 3.131 0 0 1-3.176-3.403Zm4.457-.593c0-1.126-.51-1.778-1.457-1.778a1.768 1.768 0 0 0-1.672 1.778ZM221.129 37.717c0-2.122 1.34-3.438 2.8-3.438a2.516 2.516 0 0 1 1.756.735l-.059-1.08v-2.418h1.363v9.45h-1.115l-.117-.735h-.037a2.734 2.734 0 0 1-1.9.889c-1.634 0-2.691-1.245-2.691-3.403Zm4.494 1.483v-3.19a2.045 2.045 0 0 0-1.435-.593c-.913 0-1.649.865-1.649 2.276 0 1.482.582 2.3 1.6 2.3a1.917 1.917 0 0 0 1.484-.793ZM231.826 32.239h1.374v8.727h-1.373ZM235.488 34.444h1.112l.108.9h.033a3.112 3.112 0 0 1 2.158-1.067c1.389 0 2 .925 2 2.585v4.1h-1.363V37.03c0-1.127-.332-1.577-1.1-1.577a2.219 2.219 0 0 0-1.6.888v4.625h-1.354ZM242.32 40.219l.639-.877a2.889 2.889 0 0 0 1.85.746c.783 0 1.15-.379 1.15-.877 0-.592-.734-.854-1.445-1.126-.866-.332-1.864-.794-1.864-1.9s.877-1.909 2.313-1.909a3.428 3.428 0 0 1 2.123.771l-.641.842a2.439 2.439 0 0 0-1.457-.571c-.713 0-1.045.357-1.045.807 0 .558.676.771 1.387 1.032.912.344 1.92.747 1.92 1.98 0 1.091-.865 1.98-2.477 1.98a4 4 0 0 1-2.453-.898ZM248.769 38.832v-3.3h-.947v-1.02l1.008-.071.152-1.8h1.153v1.8h1.693v1.091h-1.693v3.309c0 .782.271 1.184.947 1.184a1.938 1.938 0 0 0 .7-.153l.25 1.007a4.137 4.137 0 0 1-1.281.238c-1.472.003-1.982-.91-1.982-2.285ZM253.182 32.417a.8.8 0 0 1 .865-.805.811.811 0 0 1 .877.805.82.82 0 0 1-.877.807.808.808 0 0 1-.865-.807Zm.189 2.027h1.352v6.522h-1.352ZM257.105 38.832v-3.3h-.947v-1.02l1.008-.071.154-1.8h1.149v1.8h1.695v1.091h-1.695v3.309c0 .782.271 1.184.951 1.184a1.937 1.937 0 0 0 .7-.153l.25 1.007a4.125 4.125 0 0 1-1.281.238c-1.474.003-1.984-.91-1.984-2.285ZM261.623 38.547v-4.1h1.363v3.937c0 1.127.323 1.565 1.092 1.565.6 0 1.022-.284 1.565-.971v-4.534h1.365v6.522h-1.115l-.106-.985h-.037a2.731 2.731 0 0 1-2.135 1.139c-1.387 0-1.992-.913-1.992-2.573ZM269.391 38.832v-3.3h-.948v-1.02l1.008-.071.154-1.8h1.149v1.8h1.7v1.091h-1.7v3.309c0 .782.273 1.184.949 1.184a1.929 1.929 0 0 0 .7-.153l.25 1.007a4.125 4.125 0 0 1-1.281.238c-1.472.003-1.981-.91-1.981-2.285ZM273.328 37.717a3.167 3.167 0 0 1 2.977-3.438c1.73 0 2.656 1.245 2.656 3.094a3.477 3.477 0 0 1-.059.687h-4.234a1.97 1.97 0 0 0 2.016 1.992 2.763 2.763 0 0 0 1.552-.485l.475.866a3.965 3.965 0 0 1-2.207.687 3.132 3.132 0 0 1-3.176-3.403Zm4.459-.593c0-1.126-.512-1.778-1.459-1.778a1.769 1.769 0 0 0-1.672 1.778ZM282.457 37.717a3.092 3.092 0 1 1 6.145 0 3.089 3.089 0 1 1-6.145 0Zm4.746 0c0-1.387-.642-2.312-1.674-2.312s-1.66.925-1.66 2.312.641 2.288 1.66 2.288 1.671-.913 1.671-2.288ZM293.451 32.607a1.782 1.782 0 0 0-.713-.166c-.58 0-.865.379-.865 1.173v.83h1.316v1.091h-1.316v5.431h-1.363v-5.431h-.889v-1.02l.889-.071v-.817c0-1.339.605-2.264 2.064-2.264a2.961 2.961 0 0 1 1.149.224ZM136 54.975l.805-.949a3.39 3.39 0 0 0 2.324 1.032c1.055 0 1.646-.5 1.646-1.234 0-.794-.591-1.043-1.4-1.4l-1.209-.523a2.508 2.508 0 0 1-1.777-2.287 2.593 2.593 0 0 1 2.869-2.408 3.734 3.734 0 0 1 2.642 1.1l-.722.878a2.781 2.781 0 0 0-1.92-.783c-.889 0-1.471.426-1.471 1.127 0 .747.7 1.03 1.41 1.315l1.2.51a2.437 2.437 0 0 1 1.78 2.359c0 1.4-1.164 2.537-3.073 2.537A4.348 4.348 0 0 1 136 54.975ZM143.363 52.852a3.2 3.2 0 0 1 3.225-3.438 2.8 2.8 0 0 1 1.908.746l-.676.89a1.7 1.7 0 0 0-1.174-.509c-1.089 0-1.873.924-1.873 2.311s.748 2.289 1.838 2.289a2.219 2.219 0 0 0 1.422-.594l.559.9a3.178 3.178 0 0 1-2.11.806 3.082 3.082 0 0 1-3.119-3.401ZM149.885 47.552a.8.8 0 0 1 .865-.806.808.808 0 1 1-.865.806Zm.189 2.029h1.352V56.1h-1.352ZM153.135 52.852a3.165 3.165 0 0 1 2.974-3.438c1.731 0 2.657 1.246 2.657 3.094a3.552 3.552 0 0 1-.061.688h-4.232a1.97 1.97 0 0 0 2.017 1.992 2.755 2.755 0 0 0 1.551-.486l.475.865a3.947 3.947 0 0 1-2.2.687 3.131 3.131 0 0 1-3.181-3.402Zm4.457-.592c0-1.127-.51-1.779-1.457-1.779a1.768 1.768 0 0 0-1.674 1.779ZM160.414 49.581h1.115l.106.9h.037a3.1 3.1 0 0 1 2.158-1.067c1.387 0 2 .925 2 2.584v4.1h-1.363v-3.934c0-1.126-.332-1.577-1.1-1.577a2.225 2.225 0 0 0-1.6.889V56.1h-1.352ZM167.471 52.852a3.2 3.2 0 0 1 3.224-3.438 2.814 2.814 0 0 1 1.91.746l-.677.89a1.712 1.712 0 0 0-1.174-.509c-1.09 0-1.873.924-1.873 2.311s.748 2.289 1.838 2.289a2.223 2.223 0 0 0 1.422-.594l.558.9a3.176 3.176 0 0 1-2.111.806 3.081 3.081 0 0 1-3.117-3.401ZM173.412 52.852a3.167 3.167 0 0 1 2.975-3.438c1.732 0 2.656 1.246 2.656 3.094a3.574 3.574 0 0 1-.059.688h-4.232a1.97 1.97 0 0 0 2.014 1.992 2.762 2.762 0 0 0 1.554-.486l.475.865a3.955 3.955 0 0 1-2.207.687 3.131 3.131 0 0 1-3.176-3.402Zm4.457-.592c0-1.127-.51-1.779-1.459-1.779a1.769 1.769 0 0 0-1.67 1.779ZM182.861 54.369c0-1.4 1.188-2.122 3.9-2.419-.01-.757-.284-1.422-1.244-1.422a3.57 3.57 0 0 0-1.883.665l-.512-.925a4.984 4.984 0 0 1 2.633-.854c1.623 0 2.371 1.032 2.371 2.763V56.1h-1.115l-.119-.748h-.036a3.233 3.233 0 0 1-2.076.9 1.8 1.8 0 0 1-1.919-1.883Zm3.9.048v-1.6c-1.93.238-2.584.724-2.584 1.459 0 .64.439.9 1.021.9a2.293 2.293 0 0 0 1.564-.759ZM190.178 49.581h1.115l.1.9h.038a3.1 3.1 0 0 1 2.158-1.067c1.386 0 2 .925 2 2.584v4.1h-1.362v-3.934c0-1.126-.332-1.577-1.1-1.577a2.235 2.235 0 0 0-1.6.889V56.1h-1.351ZM197.258 52.852c0-2.122 1.34-3.438 2.8-3.438a2.515 2.515 0 0 1 1.754.735l-.059-1.079v-2.419h1.363V56.1H202l-.119-.735h-.035a2.734 2.734 0 0 1-1.9.888c-1.634.001-2.688-1.242-2.688-3.401Zm4.494 1.482v-3.189a2.044 2.044 0 0 0-1.434-.593c-.916 0-1.65.865-1.65 2.276 0 1.483.58 2.3 1.6 2.3a1.92 1.92 0 0 0 1.484-.794ZM208.309 48.525h-2.561v-1.15h6.508v1.15h-2.57V56.1h-1.377ZM212.377 52.852a3.165 3.165 0 0 1 2.976-3.438c1.731 0 2.655 1.246 2.655 3.094a3.42 3.42 0 0 1-.059.688h-4.232a1.968 1.968 0 0 0 2.013 1.992 2.766 2.766 0 0 0 1.555-.486l.475.865a3.953 3.953 0 0 1-2.2.687 3.131 3.131 0 0 1-3.183-3.402Zm4.459-.592c0-1.127-.512-1.779-1.461-1.779a1.769 1.769 0 0 0-1.67 1.779ZM219.2 52.852a3.2 3.2 0 0 1 3.225-3.438 2.808 2.808 0 0 1 1.91.746l-.676.89a1.713 1.713 0 0 0-1.176-.509c-1.089 0-1.873.924-1.873 2.311s.748 2.289 1.838 2.289a2.231 2.231 0 0 0 1.424-.594l.557.9a3.17 3.17 0 0 1-2.11.806 3.082 3.082 0 0 1-3.119-3.401ZM225.906 46.651h1.352v2.5l-.047 1.294a3.034 3.034 0 0 1 2.111-1.032c1.387 0 2 .925 2 2.584v4.1h-1.363v-3.933c0-1.126-.332-1.577-1.1-1.577a2.232 2.232 0 0 0-1.6.889V56.1h-1.352ZM233.389 49.581h1.111l.107.9h.035a3.108 3.108 0 0 1 2.157-1.067c1.388 0 2 .925 2 2.584v4.1h-1.362v-3.934c0-1.126-.334-1.577-1.1-1.577a2.232 2.232 0 0 0-1.6.889V56.1h-1.351ZM240.445 52.852a3.091 3.091 0 1 1 6.143 0 3.088 3.088 0 1 1-6.143 0Zm4.743 0c0-1.387-.641-2.311-1.672-2.311s-1.661.924-1.661 2.311.641 2.289 1.661 2.289 1.672-.914 1.672-2.289ZM248.307 54.571v-7.92h1.349v7.992c0 .368.168.5.334.5a.96.96 0 0 0 .227-.024l.176 1.031a2.2 2.2 0 0 1-.737.106c-.982-.002-1.349-.629-1.349-1.685ZM251.5 52.852a3.09 3.09 0 1 1 6.141 0 3.087 3.087 0 1 1-6.141 0Zm4.74 0c0-1.387-.64-2.311-1.672-2.311s-1.658.924-1.658 2.311.639 2.289 1.658 2.289 1.67-.914 1.67-2.289ZM258.885 57.31a1.72 1.72 0 0 1 .947-1.422v-.06a1.2 1.2 0 0 1-.592-1.079 1.607 1.607 0 0 1 .723-1.209v-.048a2.227 2.227 0 0 1-.854-1.731 2.353 2.353 0 0 1 2.528-2.347 2.7 2.7 0 0 1 .947.167h2.31V50.6h-1.244a1.754 1.754 0 0 1 .426 1.2 2.227 2.227 0 0 1-2.439 2.242 2.264 2.264 0 0 1-.916-.2.865.865 0 0 0-.354.687c0 .392.26.641 1.09.641h1.2c1.541 0 2.348.474 2.348 1.589 0 1.256-1.328 2.276-3.414 2.276-1.57-.006-2.706-.587-2.706-1.725Zm4.8-.343c0-.547-.426-.713-1.221-.713h-.985a4.173 4.173 0 0 1-.877-.094 1.178 1.178 0 0 0-.558.948c0 .641.666 1.02 1.744 1.02 1.138 0 1.898-.557 1.898-1.161Zm-.819-5.206a1.241 1.241 0 1 0-2.465 0 1.243 1.243 0 1 0 2.465 0ZM269.353 56.492c-.509 1.4-1.2 2.336-2.572 2.336a2.345 2.345 0 0 1-.818-.13l.262-1.068a1.735 1.735 0 0 0 .474.095c.709 0 1.127-.521 1.363-1.221l.131-.45-2.586-6.473h1.4l1.209 3.354c.189.582.39 1.234.594 1.838h.056l.51-1.838 1.045-3.354h1.328ZM59.111 1.218h5.805v21.847h-5.805zM90.144 1.218V5.77h7.303v17.295h5.805V5.77h7.305V1.218H90.144zM82.057 9.867h-4.971a1.945 1.945 0 0 1-2.215-2.049 1.944 1.944 0 0 1 2.215-2.048h10.553V1.218H76.516c-4.153 0-7.52 2.4-7.52 6.6s3.367 6.6 7.52 6.6h5.109a1.945 1.945 0 0 1 2.215 2.047 1.945 1.945 0 0 1-2.215 2.049H69.8v4.553h12.257c4.152 0 7.515-2.392 7.515-6.6s-3.363-6.6-7.515-6.6ZM41.436 1.218l-8.211 19.658-7.831-8.735 9.792-10.923h-6.633L19.277 11.59V1.218h-5.804v21.847h5.804V12.694l9.276 10.371h9.658L44.859 6.59l4.83 12.112h-7.677l1.824 4.363H57.41L48.285 1.218h-6.849zM0 32.239a440.691 440.691 0 0 0 62.012 4.369 440.652 440.652 0 0 0 62.013-4.369A442.38 442.38 0 0 0 0 32.239Z" style="fill:#fff"/></svg>