<svg xmlns="http://www.w3.org/2000/svg" width="360" height="113.33333" viewBox="0 0 360 113.33333"><defs><clipPath id="a" clipPathUnits="userSpaceOnUse"><path d="M0 85h270V0H0Z"/></clipPath></defs><path d="M0 0v-8.572h-3.577v5.414h-18.595V0Zm-12.826-18.208v4.189h-11.408v3.159H2.191v-3.159h-11.44v-4.189H.064V-28.23h-3.577v6.897H-22.43v3.125z" style="fill:#4f4c4d;fill-opacity:1;fill-rule:nonzero;stroke:none" transform="matrix(1.33333 0 0 -1.33333 163.455 39.47)"/><path d="M0 0h4.125v-3.577H0v-14.018h-3.545V11.15H0zm-9.861-13.825h-3.545v19.98h-10.732v3.223h14.277z" style="fill:#4f4c4d;fill-opacity:1;fill-rule:nonzero;stroke:none" transform="matrix(1.33333 0 0 -1.33333 202.341 53.565)"/><g clip-path="url(#a)" transform="matrix(1.33333 0 0 -1.33333 0 113.333)"><path d="M0 0q0 1.03-.419 1.934a6.4 6.4 0 0 1-1.063 1.611 5.6 5.6 0 0 1-1.627 1.08 4.8 4.8 0 0 1-1.951.402 4.8 4.8 0 0 1-1.95-.402 5.6 5.6 0 0 1-1.627-1.08A6.4 6.4 0 0 1-9.7 1.934 4.55 4.55 0 0 1-10.119 0q0-.999.419-1.918a5.8 5.8 0 0 1 1.063-1.595A5.1 5.1 0 0 1-7.01-4.608a5 5 0 0 1 1.95-.387 5 5 0 0 1 1.951.387 5.1 5.1 0 0 1 1.627 1.095q.644.678 1.063 1.595Q0-.998 0 0m3.513 0a7.4 7.4 0 0 0-.677-3.143A8.6 8.6 0 0 0 .999-5.736 9 9 0 0 0-1.74-7.509a8.6 8.6 0 0 0-3.32-.644 8.7 8.7 0 0 0-3.335.644 8.5 8.5 0 0 0-2.723 1.773 8.6 8.6 0 0 0-1.837 2.593A7.4 7.4 0 0 0-13.632 0q0 1.708.677 3.174a8.6 8.6 0 0 0 1.837 2.595q1.159 1.095 2.723 1.74a8.7 8.7 0 0 0 3.335.644 8.6 8.6 0 0 0 3.32-.644 9.3 9.3 0 0 0 2.739-1.74 8.7 8.7 0 0 0 1.837-2.595A7.5 7.5 0 0 0 3.513 0m-21.785-10.795H8.153v-3.191H2.288v-6.993h-3.513v6.993h-7.67v-6.993h-3.512v6.993h-5.865z" style="fill:#4f4c4d;fill-opacity:1;fill-rule:nonzero;stroke:none" transform="translate(176.828 48.21)"/><path d="M0 0h-3.545v18.401H0v-6.768h4.125V8.121H0Zm-18.595-.161v-6.445H.741v-3.159h-22.913v9.604zm3.126 18.723 8.83-14.728-2.9-1.74-5.93 10.248-5.865-10.473-2.965 1.74z" style="fill:#4f4c4d;fill-opacity:1;fill-rule:nonzero;stroke:none" transform="translate(211.955 37.576)"/><path d="M0 0v6.542h-5.027v3.062H0v6.477h3.577V0Zm-2.385-6.509q0 1.611-1.176 2.771-1.177 1.16-2.82 1.16-1.611 0-2.771-1.16-1.161-1.16-1.161-2.771 0-1.645 1.161-2.787 1.16-1.145 2.771-1.145 1.643 0 2.82 1.145 1.176 1.142 1.176 2.787m3.513-.033q0-1.45-.597-2.723a7.5 7.5 0 0 0-1.594-2.239 7.5 7.5 0 0 0-2.369-1.531 7.6 7.6 0 0 0-2.917-.564 7.6 7.6 0 0 0-2.9.564 7.4 7.4 0 0 0-2.385 1.531 7.5 7.5 0 0 0-1.595 2.239 6.3 6.3 0 0 0-.596 2.723q0 1.45.596 2.724a7.5 7.5 0 0 0 1.595 2.239 7.4 7.4 0 0 0 2.385 1.53 7.6 7.6 0 0 0 2.9.565 7.6 7.6 0 0 0 2.917-.565 7.5 7.5 0 0 0 2.369-1.53A7.5 7.5 0 0 0 .531-3.818a6.3 6.3 0 0 0 .597-2.724m-22.945 17.145V13.6h6.735v2.803h3.803V13.6h6.413v-2.997h-6.961l7.219-7.316-2.385-2.224-6.22 6.446-6.091-6.961-2.449 2.256 7.187 7.799z" style="fill:#4f4c4d;fill-opacity:1;fill-rule:nonzero;stroke:none" transform="translate(240.38 39.896)"/><path d="M0 0c0-16.777-13.598-30.376-30.375-30.376C-47.151-30.376-60.75-16.777-60.75 0c0 16.776 13.599 30.374 30.375 30.374C-13.598 30.374 0 16.776 0 0" style="fill:#fff;fill-opacity:1;fill-rule:nonzero;stroke:none" transform="translate(84.602 41.138)"/><path d="M0 0c-4.83 3.284-11.017 1.943-14.263-2.994a10.09 10.09 0 0 0-8.39-4.634c-5.166 0-8.706 3.632-9.752 7.394h-.001c-.01.038-.019.067-.028.105q-.017.06-.034.128c-.412 1.567-.514 2.319-.514 3.986 0 8.996 9.229 19.007 22.517 19.007 13.61 0 21.402-10.362 23.403-16.119q-.05.152-.103.305C8.974 18.441-1.704 26.539-14.278 26.539c-15.824 0-28.657-12.829-28.657-28.657 0-14.147 10.206-26.256 24.361-26.256 11.286 0 18.871 6.328 22.351 15.051C5.687-8.552 4.335-2.946 0 0" style="fill:#1e3760;fill-opacity:1;fill-rule:nonzero;stroke:none" transform="translate(68.505 43.254)"/><path d="M0 0c-1.674 5.616-9.519 16.677-23.581 16.677-13.289 0-22.517-10.011-22.517-19.007 0-1.667.101-2.419.514-3.986a8.2 8.2 0 0 0-.263 2.044c0 9.366 9.376 15.856 19.016 15.856 13.052 0 23.632-10.579 23.632-23.624 0-10.232-5.889-19.086-14.443-23.339l.003-.008C-6.612-31.394 1.262-20.834 1.262-8.433 1.262-5.497.867-2.91 0 0" style="fill:#e51a2f;fill-opacity:1;fill-rule:nonzero;stroke:none" transform="translate(81.621 49.57)"/></g></svg>