<svg xmlns="http://www.w3.org/2000/svg" xml:space="preserve" width="939.77997" height="200" viewBox="0 0 939.77996 200"><path d="M1137.725 1181.191v6.131h32.771v7.9c0 3.896-.528 7.533-1.205 10.268h-40.148v6.131h24.476v10.732h-16.478v6.143h33.941v18.076h4.51c3.627 0 5.467-.89 5.467-4.293v-19.925h-17.457v-10.733h25.453v-6.13h-10.977c1.508-3.771 2.4-9.002 2.4-13.651v-10.649zM1105.457 1179.664v49.393h4.516c3.62 0 5.476-.887 5.476-4.293V1201.2h9.977v-6.127h-9.977v-15.41zM1075.564 1178.924v7.414h-13.685v6.135h6.922c-3.192 2.863-5.184 6.875-5.184 11.328 0 8.699 7.579 15.744 16.938 15.744 9.352 0 16.933-7.045 16.933-15.744 0-4.453-1.992-8.465-5.183-11.328h6.927v-6.135h-13.689v-7.414zm4.99 15.057c3.84 0 6.952 4.394 6.952 9.82 0 5.423-3.112 9.82-6.951 9.82-3.843 0-6.957-4.397-6.957-9.82 0-5.426 3.114-9.82 6.957-9.82z" style="fill:#58595b;fill-opacity:1;fill-rule:nonzero;stroke:none;stroke-width:3.02776" transform="translate(-785.94 -1132.37)"/><path d="M812.596 487.05v11.186h-7.492v-10.205c0-3.543 2.133-5.577 5.925-5.577h25.994v4.596z" style="fill:#58595b;fill-opacity:1;fill-rule:nonzero;stroke:none;stroke-width:2.27082" transform="matrix(1.33333 0 0 -1.33333 -785.94 757.39)"/><path d="M1624.158 1177.223v6.83h-19.32v6.134h10.982c-2.088 2.313-3.341 5.176-3.341 8.292 0 7.648 7.464 13.85 16.666 13.85 9.22 0 16.687-6.202 16.687-13.85 0-3.116-1.253-5.979-3.344-8.292h10.979v-6.134h-19.326v-6.83zm4.987 13.543c3.69 0 6.67 3.45 6.67 7.712 0 4.258-2.98 7.715-6.67 7.715-3.68 0-6.672-3.457-6.672-7.715 0-4.263 2.993-7.712 6.672-7.712zM1598.86 1214.975v6.14h19.816c-4.532 2.794-7.492 7.342-7.492 12.494 0 8.49 8.039 15.377 17.96 15.377 9.935 0 17.979-6.887 17.979-15.377 0-5.152-2.964-9.7-7.5-12.494h19.84v-6.14zm30.285 9.232c4.223 0 7.644 4.204 7.644 9.402 0 5.184-3.42 9.385-7.644 9.385-4.212 0-7.631-4.201-7.631-9.385 0-5.198 3.419-9.402 7.63-9.402zM1713.414 1179.664v38.953h-14.838v5.842h14.838v6.135h4.51c3.618 0 5.467-.893 5.467-4.293v-46.637z" style="fill:#58595b;fill-opacity:1;fill-rule:nonzero;stroke:none;stroke-width:3.02776" transform="translate(-785.94 -1132.37)"/><path d="M1667.008 1209.252v5.836h14.418v9.852h9.976v-9.852h16.79v-5.836z" style="fill:#58595b;fill-opacity:1;fill-rule:nonzero;stroke:none;stroke-width:3.02776" transform="translate(-785.94 -1132.37)"/><path d="M1268.552 484.852v11.282h-7.483v-8.105c0-3.54 2.135-5.577 5.92-5.577h25.992v4.598h-25.992M1265.39 516.063c-2.603 0-4.724 2.929-4.724 6.535 0 3.615 2.12 6.542 4.723 6.542 2.616 0 4.737-2.927 4.737-6.542 0-3.606-2.12-6.535-4.737-6.535m0 17.02c-6.728 0-12.183-4.694-12.183-10.485 0-5.788 5.455-10.487 12.183-10.487 6.742 0 12.206 4.699 12.206 10.487 0 5.79-5.464 10.484-12.206 10.484" style="fill:#58595b;fill-opacity:1;fill-rule:nonzero;stroke:none;stroke-width:2.27082" transform="matrix(1.33333 0 0 -1.33333 -785.94 757.39)"/><path d="M1510.617 1179.662v13.238h-9.902c-1.822-7.536-8.94-13.162-17.465-13.162-9.907 0-17.932 7.585-17.932 16.95 0 9.361 8.025 16.956 17.932 16.956 9.063 0 16.534-6.365 17.74-14.619h9.627v15.342h4.512c3.624 0 5.473-.888 5.473-4.29v-30.415zm-27.367 6.46c4.175 0 7.557 4.728 7.557 10.565 0 5.841-3.382 10.563-7.557 10.563-4.175 0-7.559-4.722-7.559-10.563 0-5.837 3.384-10.566 7.559-10.566zM1478.353 1218.728v20.325c0 4.72 2.843 7.437 7.899 7.437h34.348v-27.762h-9.983v7.483h-22.281v-7.482zm9.983 13.618h22.281v8.015h-22.281zM1278.88 1178.924v7.414h-13.685v6.135h6.282c-2.636 2.69-4.252 6.232-4.252 10.129 0 6.817 4.9 12.586 11.656 14.525v6.197h-14.076v6.137h28.18c5.743 0 12.34-1.024 16.085-2.59v19.701h4.518c3.63 0 5.465-.89 5.465-4.293v-62.617h-9.983v41.817c-4.258 1.273-11.51 1.845-16.086 1.845h-4.12v-6.197c6.75-1.94 11.648-7.708 11.648-14.525 0-3.897-1.615-7.439-4.25-10.13h6.279v-6.134h-13.678v-7.414zm4.991 14.197c3.685 0 6.658 4.249 6.658 9.48 0 5.25-2.973 9.493-6.658 9.493-3.679 0-6.664-4.242-6.664-9.492 0-5.232 2.985-9.48 6.664-9.48zM1238.084 1179.662v66.91h4.506c3.618 0 5.459-.89 5.459-4.293v-39.254h9.974v-6.134h-9.974v-17.229zM1208.158 1181.191v11.791c0 5.173-.741 18.244-15.978 25.78l4.867 4.693c4.775-1.841 12.29-7 16.238-13 3.95 6 11.469 11.159 16.238 13l4.852-4.693c-15.222-7.536-15.957-20.607-15.957-25.78v-11.789z" style="fill:#58595b;fill-opacity:1;fill-rule:nonzero;stroke:none;stroke-width:3.02776" transform="translate(-785.94 -1132.37)"/><path d="M1085.546 482.39h-3.383v50.184h7.496V485.61c0-2.553-1.4-3.22-4.113-3.22" style="fill:#58595b;fill-opacity:1;fill-rule:nonzero;stroke:none;stroke-width:2.27082" transform="matrix(1.33333 0 0 -1.33333 -785.94 757.39)"/><path d="M1421.736 1181.912h-21.41v6.137h21.358c-.79 13.626-11.573 26.209-23.811 32.058l4.863 4.706c8.575-3.658 29.852-15.75 29.852-38.94v-3.965zM1375.86 1179.662v14.578h-11.487v6.13h11.486v16.501h4.516c3.618 0 5.473-.896 5.473-4.299v-32.91zM1341.353 1221.793v6.139h34.506v18.64h4.516c3.618 0 5.473-.89 5.473-4.293v-20.486z" style="fill:#58595b;fill-opacity:1;fill-rule:nonzero;stroke:none;stroke-width:3.02776" transform="translate(-785.94 -1132.37)"/><path d="M1332.768 1181.191v6.131h11.9c-.01 7.507-1.048 16.929-15.688 23.938l4.868 4.693c4.851-1.83 12.128-6.155 15.955-11.834 3.82 5.68 11.099 10.005 15.96 11.834l4.868-4.693c-14.64-7.01-15.674-16.43-15.682-23.938h11.893v-6.13z" style="fill:#58595b;fill-opacity:1;fill-rule:nonzero;stroke:none;stroke-width:3.02776" transform="translate(-785.94 -1132.37)"/><path d="M1186.789 495.528h-3.388v37.044h7.491v-33.824c0-2.555-1.376-3.22-4.103-3.22" style="fill:#58595b;fill-opacity:1;fill-rule:nonzero;stroke:none;stroke-width:2.27082" transform="matrix(1.33333 0 0 -1.33333 -785.94 757.39)"/><path d="M1186.789 495.528h-3.388v37.044h7.491v-33.824c0-2.555-1.376-3.22-4.103-3.22M1166.897 484.852v14.309h-7.483v-11.132c0-3.54 2.137-5.577 5.92-5.577h25.997v4.598h-25.997" style="fill:#58595b;fill-opacity:1;fill-rule:nonzero;stroke:none;stroke-width:2.27082" transform="matrix(1.33333 0 0 -1.33333 -785.94 757.39)"/><path d="M1534.201 1181.191v6.131h12.174c-.01 7.53-1.126 20.056-15.977 27.028l4.86 4.705c5.067-1.746 12.383-6.57 16.262-12.422 3.884 5.852 11.184 10.676 16.252 12.422l4.867-4.705c-14.842-6.972-15.963-19.497-15.971-27.028h12.18v-6.13z" style="fill:#58595b;fill-opacity:1;fill-rule:nonzero;stroke:none;stroke-width:3.02776" transform="translate(-785.94 -1132.37)"/><path d="M803.796 467.976h3.584v-8.284h.084l5.572 8.284h4.117l-6.635-9.208 7.162-10.332h-4.333l-5.883 9.18h-.084v-9.18h-3.584zM821.648 453.81a6.198 6.198 0 0 1 .432-1.582 2.78 2.78 0 0 1 .856-1.136c.368-.277.817-.418 1.355-.418.543 0 .997.141 1.363.418.361.282.643.654.836 1.124.2.463.336.99.42 1.583.084.588.127 1.206.127 1.857 0 .657-.043 1.27-.127 1.851a5.954 5.954 0 0 1-.434 1.567 2.937 2.937 0 0 1-.836 1.122c-.356.277-.806.418-1.349.418-.538 0-.987-.141-1.355-.418a2.827 2.827 0 0 1-.856-1.122 5.954 5.954 0 0 1-.432-1.567 12.58 12.58 0 0 1-.127-1.85c0-.652.041-1.27.127-1.847m-3.165 5.405c.36.97.854 1.737 1.473 2.298.611.559 1.29.958 2.026 1.201a7.29 7.29 0 0 0 2.31.361c.806 0 1.57-.116 2.311-.36a5.55 5.55 0 0 0 2.019-1.202c.604-.561 1.088-1.329 1.456-2.298.363-.977.542-2.157.542-3.559 0-1.43-.18-2.65-.542-3.637-.368-.988-.852-1.76-1.456-2.314a5.297 5.297 0 0 0-2.005-1.159 7.908 7.908 0 0 0-2.326-.336c-.82 0-1.594.114-2.32.336a5.271 5.271 0 0 0-2.015 1.175c-.62.56-1.112 1.332-1.473 2.311-.361.979-.548 2.194-.548 3.624 0 1.402.187 2.582.548 3.559M833.477 460.472c0 1.013-.041 1.803-.116 2.384h3.136c0-.224.02-.572.057-1.037.036-.711.057-1.243.057-1.597h.054a5.468 5.468 0 0 0 1.32 1.99c.595.576 1.385.862 2.352.862a1.6 1.6 0 0 0 .393-.054c.111-.016.175-.03.188-.03v-3.242c-.329.09-.658.14-.974.14a2.932 2.932 0 0 1-2.114-.858c-.588-.572-.88-1.47-.88-2.7v-7.896h-3.473ZM850.89 456.89c0 2.557-.804 3.836-2.412 3.836-.856 0-1.503-.377-1.926-1.12-.434-.747-.643-1.65-.643-2.716zm2.634-7.757a15.65 15.65 0 0 0-1.917-.642c-.706-.189-1.501-.28-2.398-.28-1.117 0-2.107.184-2.952.561-.85.373-1.551.89-2.1 1.565a6.62 6.62 0 0 0-1.218 2.298c-.26.858-.39 1.792-.39 2.8 0 1.076.134 2.087.406 3.009a7.68 7.68 0 0 0 1.186 2.436 5.542 5.542 0 0 0 1.891 1.62c.74.39 1.556.576 2.446.576.824 0 1.58-.127 2.27-.393.69-.256 1.297-.688 1.82-1.29.526-.592.935-1.392 1.233-2.388.3-1 .45-2.205.45-3.63v-.67h-8.342c0-1.287.284-2.268.85-2.938.574-.676 1.505-1.01 2.816-1.01.949 0 1.707.104 2.268.311a5.867 5.867 0 0 1 1.51.81zM864.469 455.491h-.307c-1.569 0-2.745-.202-3.544-.604-.788-.4-1.188-1.104-1.188-2.114 0-.647.198-1.18.604-1.592.4-.413.936-.62 1.608-.62.988 0 1.705.352 2.157 1.05.447.701.67 1.723.67 3.067zm-6.833 6.522c.71.32 1.41.574 2.087.77.681.2 1.505.293 2.477.293 1.102 0 2.012-.127 2.73-.393.72-.257 1.283-.631 1.68-1.113.405-.488.688-1.083.856-1.782.166-.702.255-1.533.255-2.507v-6.297c0-.466.016-.925.052-1.372.04-.45.084-.84.143-1.176h-3.14c-.13.427-.191 1.083-.191 1.962h-.064c-.5-.695-1.058-1.231-1.673-1.613-.616-.381-1.404-.574-2.355-.574-1.177 0-2.185.381-3.034 1.149-.852.763-1.276 1.792-1.276 3.077 0 .954.181 1.748.542 2.393a3.844 3.844 0 0 0 1.556 1.515c.674.363 1.46.618 2.368.77.906.147 1.944.225 3.118.225h.702v.53c0 .784-.214 1.436-.643 1.958-.436.523-1.108.786-2.046.786a5.801 5.801 0 0 1-2.237-.438c-.71-.286-1.283-.606-1.707-.96zM878.47 452.216c.485-.298 1.089-.577 1.806-.83a6.956 6.956 0 0 1 2.337-.376c.833 0 1.54.236 2.116.713.568.48.852 1.18.852 2.116 0 .652-.182 1.179-.563 1.579-.368.408-1.034.865-1.983 1.387l-1.819 1.006c-1.033.565-1.819 1.258-2.364 2.091-.554.83-.833 1.838-.833 3.039 0 1.673.595 2.981 1.778 3.915 1.188.933 2.648 1.399 4.383 1.399.806 0 1.517-.057 2.127-.18a13.86 13.86 0 0 0 1.767-.465l.193-.055-.168-2.993a.734.734 0 0 0-.195.089c-.611.234-1.183.424-1.694.556a7.515 7.515 0 0 1-1.778.198c-.875 0-1.553-.212-2.014-.634-.466-.415-.695-.97-.695-1.662 0-.656.159-1.163.495-1.517.334-.35.86-.724 1.576-1.12l2.093-1.176c1.215-.667 2.08-1.394 2.607-2.155.525-.767.777-1.803.777-3.104 0-1.908-.595-3.363-1.805-4.374-1.202-1.006-2.782-1.51-4.746-1.51-1.997 0-3.482.289-4.449.87zM895.533 453.81a6.199 6.199 0 0 1 .43-1.582c.208-.477.488-.854.855-1.136.366-.277.818-.418 1.363-.418.536 0 .99.141 1.358.418.363.282.642.654.838 1.124.195.463.331.99.42 1.583.082.588.125 1.206.125 1.857 0 .657-.043 1.27-.125 1.851-.089.581-.225 1.1-.434 1.567a2.942 2.942 0 0 1-.838 1.122c-.359.277-.808.418-1.344.418-.545 0-.997-.141-1.363-.418-.367-.284-.647-.656-.856-1.122a5.954 5.954 0 0 1-.429-1.567 12.894 12.894 0 0 1-.13-1.85c0-.652.046-1.27.13-1.847m-3.159 5.405c.361.97.847 1.737 1.465 2.298.615.559 1.29.958 2.026 1.201a7.333 7.333 0 0 0 2.316.361c.8 0 1.565-.116 2.312-.36a5.524 5.524 0 0 0 2.012-1.202c.604-.561 1.092-1.329 1.45-2.298.364-.977.546-2.157.546-3.559 0-1.43-.182-2.65-.545-3.637-.36-.988-.847-1.76-1.451-2.314a5.264 5.264 0 0 0-2.001-1.159 7.926 7.926 0 0 0-2.323-.336 7.86 7.86 0 0 0-2.323.336c-.734.225-1.404.616-2.019 1.175-.618.56-1.104 1.332-1.465 2.311-.367.979-.554 2.194-.554 3.624 0 1.402.187 2.582.554 3.559M917.026 448.8a8.93 8.93 0 0 0-1.553-.42 9.727 9.727 0 0 0-1.853-.17c-1.163 0-2.16.193-3.02.575-.861.381-1.57.908-2.13 1.58a6.65 6.65 0 0 0-1.229 2.357 10.459 10.459 0 0 0-.393 2.907c0 1.047.146 2.021.42 2.93.28.9.707 1.691 1.274 2.366.563.667 1.3 1.196 2.182 1.573.882.39 1.91.577 3.087.577a7.85 7.85 0 0 0 1.614-.182 8.403 8.403 0 0 0 1.406-.406l-.196-2.741c-.413.209-.81.37-1.196.504-.4.134-.809.198-1.238.198-1.287 0-2.239-.416-2.852-1.233-.613-.825-.917-2.028-.917-3.611 0-1.406.336-2.546 1.02-3.436.683-.88 1.648-1.328 2.917-1.328.395 0 .829.08 1.33.227.494.147.87.306 1.132.479zM919.483 462.857h3.472v-14.422h-3.472zm-.048 6.126h3.57v-3.413h-3.57zM933.938 455.491h-.312c-1.569 0-2.74-.202-3.528-.604-.8-.4-1.195-1.104-1.195-2.114 0-.647.2-1.18.6-1.592.404-.413.94-.62 1.61-.62.987 0 1.703.352 2.155 1.05.447.701.67 1.723.67 3.067zm-6.827 6.522c.711.32 1.406.574 2.08.77.689.2 1.508.293 2.48.293 1.1 0 2.01-.127 2.718-.393.725-.257 1.283-.631 1.68-1.113.405-.488.689-1.083.862-1.782.16-.702.245-1.533.245-2.507v-6.297c0-.466.022-.925.061-1.372.036-.45.084-.84.134-1.176h-3.127c-.138.427-.195 1.083-.195 1.962h-.06c-.499-.695-1.062-1.231-1.68-1.613-.606-.381-1.396-.574-2.34-.574-1.177 0-2.188.381-3.03 1.149-.856.763-1.274 1.792-1.274 3.077 0 .954.18 1.748.543 2.393a3.892 3.892 0 0 0 1.546 1.515c.675.363 1.465.618 2.364.77.906.147 1.94.225 3.118.225h.702v.53c0 .784-.218 1.436-.643 1.958-.436.523-1.113.786-2.046.786a5.728 5.728 0 0 1-2.225-.438c-.716-.286-1.284-.606-1.713-.96zM940.731 469.435h3.477v-21h-3.477zM955.462 467.976h10.275v-2.854h-6.692v-5.212h6.324v-2.854h-6.324v-5.768h6.971v-2.852h-10.554zM968.953 460.472c0 1.013-.04 1.803-.106 2.384h3.247c0-.186.014-.483.052-.872.041-.597.055-1.042.055-1.337h.08-.024c.169.277.35.545.545.806.196.261.441.518.745.77.298.254.666.46 1.093.62.42.154.912.231 1.455.231.802 0 1.472-.134 2.026-.4a3.31 3.31 0 0 0 1.317-1.135c.33-.488.563-1.051.706-1.694.136-.645.209-1.35.209-2.112v-9.299h-3.474v8.657c0 1.117-.155 1.916-.47 2.4-.298.486-.807.731-1.522.731-.856 0-1.485-.31-1.876-.938-.39-.626-.585-1.442-.585-2.45v-8.4h-3.473zM984.77 465.825l3.472 1.063v-4.033h2.884v-2.552h-2.884v-7.474c0-.726.134-1.237.39-1.54.266-.297.656-.449 1.176-.449.505 0 .945.107 1.318.311v-2.46c-.67-.322-1.447-.48-2.326-.48-1.317 0-2.327.331-3.002.992-.688.665-1.028 1.735-1.028 3.21v7.89h-2.294v2.552h2.294zM1001.29 456.89c0 2.557-.799 3.836-2.409 3.836-.856 0-1.498-.377-1.928-1.12-.436-.747-.647-1.65-.647-2.716zm2.63-7.757c-.576-.24-1.21-.456-1.912-.642-.704-.189-1.499-.28-2.398-.28-1.122 0-2.102.184-2.954.561-.852.373-1.549.89-2.094 1.565a6.55 6.55 0 0 0-1.22 2.298 9.428 9.428 0 0 0-.399 2.8c0 1.076.143 2.087.413 3.009.27.924.666 1.732 1.184 2.436a5.507 5.507 0 0 0 1.893 1.62c.74.39 1.554.576 2.448.576.822 0 1.58-.127 2.276-.393.683-.256 1.292-.688 1.814-1.29.525-.592.931-1.392 1.233-2.388.293-1 .447-2.205.447-3.63v-.67h-8.345c0-1.287.284-2.268.856-2.938.568-.676 1.508-1.01 2.816-1.01.95 0 1.703.104 2.262.311a5.7 5.7 0 0 1 1.512.81zM1007.451 460.472c0 1.013-.041 1.803-.116 2.384h3.14c0-.224.019-.572.053-1.037.04-.711.054-1.243.054-1.597h.06c.275.745.725 1.408 1.313 1.99.6.576 1.385.862 2.355.862.091 0 .227-.011.386-.054.116-.016.18-.03.2-.03v-3.242c-.336.09-.66.14-.979.14-.822 0-1.53-.288-2.112-.858-.59-.572-.888-1.47-.888-2.7v-7.896h-3.467zM1021.382 452.076c.434-.881 1.113-1.32 2.023-1.32.94 0 1.601.412 2.008 1.236.4.815.6 1.996.6 3.529 0 1.748-.183 3.03-.55 3.82-.364.787-1.025 1.19-1.992 1.19-.958 0-1.655-.453-2.089-1.345-.438-.895-.656-2.09-.656-3.581 0-1.48.218-2.648.656-3.529m-4.133 8.314c0 1.18-.036 1.998-.107 2.466h3.245c.073-.564.112-1.313.112-2.242h.084c.338.727.799 1.32 1.403 1.778.593.457 1.401.684 2.434.684.874 0 1.642-.186 2.276-.577.647-.377 1.17-.908 1.582-1.592.414-.681.711-1.469.913-2.368.196-.89.293-1.853.293-2.882 0-2.332-.438-4.158-1.317-5.473-.872-1.317-2.094-1.973-3.663-1.973-.958 0-1.74.218-2.355.656a4.1 4.1 0 0 0-1.371 1.642h-.052v-8.125h-3.477zM1032.341 460.472c0 1.013-.044 1.803-.115 2.384h3.136c0-.224.023-.572.06-1.037.033-.711.055-1.243.055-1.597h.052a5.52 5.52 0 0 0 1.317 1.99c.6.576 1.385.862 2.352.862.093 0 .225-.011.393-.054.111-.016.175-.03.191-.03v-3.242c-.327.09-.656.14-.974.14a2.941 2.941 0 0 1-2.117-.858c-.586-.572-.883-1.47-.883-2.7v-7.896h-3.468zM1042.423 462.857h3.468v-14.422h-3.468zm-.064 6.126h3.593v-3.413h-3.593zM1048.969 451.794c.075-.038.168-.074.284-.11a13.744 13.744 0 0 1 1.61-.605 5.886 5.886 0 0 1 1.716-.238c.695 0 1.234.111 1.645.322.4.214.604.584.604 1.108 0 .316-.112.616-.323.895-.218.282-.627.588-1.226.927l-1.426.837-.05.03c-.488.29-.888.552-1.197.77-.307.211-.6.472-.883.78-.27.312-.502.669-.67 1.08a3.764 3.764 0 0 0-.252 1.398c0 .505.116 1.002.354 1.483a4.18 4.18 0 0 0 1.001 1.32 5.08 5.08 0 0 0 1.586.937c.62.237 1.298.348 2.043.348.809 0 1.503-.064 2.121-.19a13.354 13.354 0 0 0 1.49-.398l-.19-2.684c-.546.2-1.048.36-1.513.474-.47.112-.981.17-1.544.17-.67 0-1.165-.124-1.49-.37-.332-.24-.497-.585-.497-1.033 0-.354.12-.656.367-.908.241-.252.661-.566 1.256-.94l1.703-1.09c.995-.638 1.685-1.208 2.094-1.708.4-.504.604-1.142.604-1.93 0-1.308-.506-2.346-1.506-3.109-.992-.767-2.286-1.149-3.871-1.149-.806 0-1.556.068-2.257.211-.704.141-1.281.3-1.751.488zM1068.71 456.89c0 2.557-.8 3.836-2.405 3.836-.863 0-1.508-.377-1.932-1.12-.432-.747-.643-1.65-.643-2.716zm2.634-7.757a14.98 14.98 0 0 0-1.92-.642c-.705-.189-1.5-.28-2.394-.28-1.118 0-2.103.184-2.95.561-.847.373-1.558.89-2.103 1.565a6.7 6.7 0 0 0-1.22 2.298c-.26.858-.39 1.792-.39 2.8 0 1.076.134 2.087.404 3.009a7.74 7.74 0 0 0 1.193 2.436 5.452 5.452 0 0 0 1.889 1.62c.738.39 1.558.576 2.452.576.818 0 1.572-.127 2.262-.393a4.402 4.402 0 0 0 1.819-1.29c.525-.592.94-1.392 1.233-2.388.302-1 .45-2.205.45-3.63v-.67h-8.339c0-1.287.28-2.268.852-2.938.563-.676 1.508-1.01 2.811-1.01.95 0 1.708.104 2.27.311a5.815 5.815 0 0 1 1.509.81zM1087.298 458.824c2.15 0 3.22 1.074 3.22 3.218 0 2.128-1.07 3.188-3.22 3.188h-1.349v-6.406zm-4.923 9.152h5.598c2 0 3.522-.52 4.56-1.565 1.05-1.047 1.569-2.502 1.569-4.369 0-1.864-.518-3.329-1.57-4.383-1.037-1.053-2.559-1.582-4.56-1.582h-2.023v-7.642h-3.574zM1096.683 460.472c0 1.013-.041 1.803-.116 2.384h3.136c0-.224.018-.572.061-1.037.032-.711.045-1.243.045-1.597h.061c.28.745.72 1.408 1.322 1.99.59.576 1.376.862 2.35.862.091 0 .218-.011.386-.054.116-.016.18-.03.195-.03v-3.242c-.331.09-.656.14-.974.14-.826 0-1.53-.288-2.116-.858-.59-.572-.884-1.47-.884-2.7v-7.896h-3.467zM1109.46 453.81a6.392 6.392 0 0 1 .434-1.582c.205-.477.489-.854.852-1.136.361-.277.818-.418 1.367-.418.536 0 .99.141 1.353.418.368.282.639.654.838 1.124.191.463.336.99.42 1.583.085.588.125 1.206.125 1.857 0 .657-.04 1.27-.124 1.851-.084.581-.23 1.1-.434 1.567a3.036 3.036 0 0 1-.838 1.122c-.354.277-.804.418-1.34.418-.55 0-1.006-.141-1.367-.418a2.84 2.84 0 0 1-.852-1.122 6.133 6.133 0 0 1-.433-1.567 12.895 12.895 0 0 1-.13-1.85c0-.652.045-1.27.13-1.847m-3.164 5.405c.37.97.852 1.737 1.47 2.298.615.559 1.29.958 2.03 1.201.738.245 1.51.361 2.316.361.795 0 1.565-.116 2.303-.36a5.487 5.487 0 0 0 2.012-1.202c.613-.561 1.096-1.329 1.46-2.298.363-.977.545-2.157.545-3.559 0-1.43-.182-2.65-.545-3.637-.364-.988-.847-1.76-1.46-2.314a5.28 5.28 0 0 0-1.997-1.159 7.895 7.895 0 0 0-2.318-.336c-.829 0-1.6.114-2.328.336-.733.225-1.403.616-2.018 1.175-.618.56-1.1 1.332-1.47 2.311-.367.979-.545 2.194-.545 3.624 0 1.402.178 2.582.545 3.559M1121.094 460.505c0 .858-.045 1.64-.115 2.35h3.474c0-.206.016-.504.052-.899a22.65 22.65 0 0 0 .06-1.37h.056a4.8 4.8 0 0 0 1.387 1.765c.604.486 1.354.725 2.248.725.56 0 1.047-.07 1.474-.22a3.28 3.28 0 0 0 1.038-.577c.266-.234.484-.47.656-.7.168-.231.327-.493.48-.767v-.03c.465.69.992 1.247 1.582 1.665.581.42 1.34.629 2.28.629 1.49 0 2.555-.489 3.193-1.472.631-.974.954-2.4.954-4.264v-8.904h-3.481v9.097c0 1.796-.614 2.688-1.842 2.688-.736 0-1.304-.3-1.724-.892-.418-.597-.626-1.32-.626-2.157v-8.736h-3.477v9.097c0 1.796-.618 2.688-1.842 2.688-.735 0-1.308-.3-1.728-.892-.422-.597-.627-1.32-.627-2.157v-8.736h-3.472zM1146.277 453.81a6.392 6.392 0 0 1 .434-1.582c.209-.477.488-.854.86-1.136.362-.277.81-.418 1.359-.418.536 0 .985.141 1.353.418.368.282.638.654.838 1.124.2.463.336.99.42 1.583.084.588.125 1.206.125 1.857 0 .657-.04 1.27-.125 1.851-.084.581-.23 1.1-.434 1.567a2.941 2.941 0 0 1-.838 1.122c-.358.277-.803.418-1.34.418-.549 0-.996-.141-1.357-.418-.373-.284-.652-.656-.86-1.122a6.133 6.133 0 0 1-.435-1.567 12.895 12.895 0 0 1-.129-1.85c0-.652.045-1.27.13-1.847m-3.164 5.405c.366.97.852 1.737 1.47 2.298.62.559 1.29.958 2.034 1.201a7.245 7.245 0 0 0 2.312.361c.794 0 1.564-.116 2.302-.36a5.504 5.504 0 0 0 2.017-1.202c.608-.561 1.092-1.329 1.455-2.298.364-.977.545-2.157.545-3.559 0-1.43-.181-2.65-.545-3.637-.363-.988-.847-1.76-1.455-2.314a5.255 5.255 0 0 0-2.003-1.159 7.87 7.87 0 0 0-2.316-.336c-.825 0-1.601.114-2.323.336-.738.225-1.404.616-2.024 1.175-.617.56-1.103 1.332-1.469 2.311-.363.979-.545 2.194-.545 3.624 0 1.402.182 2.582.545 3.559M1159.277 465.825l3.477 1.063v-4.033h2.884v-2.552h-2.884v-7.474c0-.726.129-1.237.39-1.54.261-.297.656-.449 1.176-.449.505 0 .945.107 1.318.311v-2.46c-.675-.322-1.452-.48-2.33-.48-1.317 0-2.319.331-3.002.992-.684.665-1.03 1.735-1.03 3.21v7.89h-2.293v2.552h2.294zM1168.184 462.857h3.476v-14.422h-3.476zm-.054 6.126h3.588v-3.413h-3.588zM1178.446 453.81a6.41 6.41 0 0 1 .438-1.582c.204-.477.484-.854.852-1.136.365-.277.822-.418 1.358-.418.536 0 .994.141 1.362.418.359.282.638.654.838 1.124.19.463.336.99.42 1.583.084.588.125 1.206.125 1.857 0 .657-.04 1.27-.125 1.851a6.228 6.228 0 0 1-.434 1.567 2.988 2.988 0 0 1-.837 1.122c-.36.277-.813.418-1.35.418-.535 0-.992-.141-1.357-.418a2.797 2.797 0 0 1-.852-1.122 6.133 6.133 0 0 1-.438-1.567 12.914 12.914 0 0 1-.125-1.85c0-.652.041-1.27.125-1.847m-3.159 5.405c.361.97.847 1.737 1.465 2.298.62.559 1.294.958 2.035 1.201a7.257 7.257 0 0 0 2.307.361c.799 0 1.569-.116 2.307-.36a5.468 5.468 0 0 0 2.016-1.202c.609-.561 1.093-1.329 1.456-2.298.363-.977.55-2.157.55-3.559 0-1.43-.187-2.65-.55-3.637-.363-.988-.847-1.76-1.456-2.314a5.23 5.23 0 0 0-2-1.159 7.903 7.903 0 0 0-2.323-.336c-.816 0-1.597.114-2.323.336-.73.225-1.4.616-2.02 1.175-.617.56-1.103 1.332-1.464 2.311-.363.979-.554 2.194-.554 3.624 0 1.402.19 2.582.554 3.559M1190.164 460.472c0 1.013-.032 1.803-.116 2.384h3.252c0-.186.014-.483.057-.872.032-.597.05-1.042.05-1.337h.093-.032c.168.277.345.545.545.806.195.261.445.518.745.77a3.55 3.55 0 0 0 1.087.62c.439.154.913.231 1.456.231.802 0 1.48-.134 2.03-.4.55-.272.99-.649 1.317-1.135.32-.488.563-1.051.702-1.694.14-.645.209-1.35.209-2.112v-9.299h-3.47v8.657c0 1.117-.16 1.916-.457 2.4-.315.486-.824.731-1.54.731-.855 0-1.475-.31-1.866-.938-.39-.626-.59-1.442-.59-2.45v-8.4h-3.472zM1219.986 455.88l-2.466 9.13h-.052l-2.689-9.13zm.75-2.74h-6.715l-1.401-4.705h-3.58l6.545 19.54h3.917l6.304-19.54h-3.694zM1231.389 452.203c.443-.816.977-1.22 1.61-1.22 1.083 0 1.867.39 2.337 1.174.474.784.72 2.005.72 3.672 0 1.474-.255 2.607-.759 3.415-.502.8-1.185 1.204-2.055 1.204-.868-.02-1.508-.416-1.905-1.197-.404-.767-.604-1.923-.604-3.456 0-1.585.227-2.784.656-3.592m-3.402-6.01c.604-.312 1.256-.599 1.97-.85a6.838 6.838 0 0 1 2.288-.38c.786 0 1.433.125 1.946.38.516.251.897.583 1.163 1.003.261.422.443.895.545 1.417.102.52.157 1.1.157 1.737v1.372h-.06a5.041 5.041 0 0 0-1.414-1.749c-.59-.463-1.383-.688-2.394-.688-.56 0-1.128.111-1.707.336-.573.225-1.124.602-1.624 1.131-.506.536-.91 1.279-1.228 2.228-.325.951-.484 2.112-.484 3.474 0 1.022.107 1.985.297 2.882.196.897.504 1.692.927 2.38.418.69.958 1.23 1.623 1.621.666.397 1.45.588 2.364.588.954 0 1.713-.216 2.28-.654.577-.44 1.081-1.04 1.53-1.807h.11c0 .338.023.78.059 1.342.039.47.057.765.057.899h3.136a33.48 33.48 0 0 1-.111-2.269v-10.64c0-1.195-.112-2.253-.316-3.178-.207-.922-.559-1.728-1.063-2.407-.502-.679-1.19-1.208-2.055-1.582-.867-.37-1.941-.559-3.231-.559-.995 0-1.908.093-2.75.282-.836.181-1.572.388-2.214.613zM1250.531 456.89c0 2.557-.806 3.836-2.413 3.836-.854 0-1.504-.377-1.928-1.12-.432-.747-.648-1.65-.648-2.716zm2.63-7.757c-.577-.24-1.22-.456-1.919-.642-.697-.189-1.496-.28-2.391-.28-1.122 0-2.098.184-2.959.561-.852.373-1.549.89-2.098 1.565a6.778 6.778 0 0 0-1.22 2.298 9.58 9.58 0 0 0-.395 2.8c0 1.076.143 2.087.414 3.009.27.924.67 1.732 1.183 2.436.529.697 1.153 1.242 1.894 1.62.738.39 1.548.576 2.448.576.83 0 1.585-.127 2.268-.393.695-.256 1.299-.688 1.817-1.29.524-.592.935-1.392 1.237-2.388.302-1 .445-2.205.445-3.63v-.67h-8.343c0-1.287.289-2.268.861-2.938.563-.676 1.503-1.01 2.811-1.01.95 0 1.713.104 2.267.311.554.204 1.06.477 1.517.81zM1256.572 460.472c0 1.013-.032 1.803-.111 2.384h3.247c0-.186.018-.483.061-.872.032-.597.054-1.042.054-1.337h.089-.032c.163.277.34.545.54.806.196.261.45.518.745.77.298.254.659.46 1.097.62.425.154.904.231 1.447.231.806 0 1.49-.134 2.039-.4.55-.272.985-.649 1.312-1.135a4.97 4.97 0 0 0 .697-1.694 9.632 9.632 0 0 0 .214-2.112v-9.299h-3.47v8.657c0 1.117-.159 1.916-.465 2.4-.307.486-.82.731-1.526.731-.866 0-1.481-.31-1.876-.938-.39-.626-.59-1.442-.59-2.45v-8.4h-3.473zM1280.904 448.8a8.871 8.871 0 0 0-1.549-.42 9.872 9.872 0 0 0-1.867-.17c-1.153 0-2.168.193-3.02.575a5.869 5.869 0 0 0-2.132 1.58 6.437 6.437 0 0 0-1.229 2.357c-.263.888-.39 1.862-.39 2.907 0 1.047.136 2.021.415 2.93.28.9.707 1.691 1.279 2.366.568.667 1.294 1.196 2.187 1.573.88.39 1.914.577 3.09.577.507 0 1.033-.061 1.601-.182.577-.118 1.051-.254 1.42-.406l-.2-2.741c-.41.209-.807.37-1.197.504-.4.134-.809.198-1.233.198-1.288 0-2.244-.416-2.857-1.233-.615-.825-.922-2.028-.922-3.611 0-1.406.34-2.546 1.02-3.436.683-.88 1.657-1.328 2.927-1.328.386 0 .833.08 1.33.227.489.147.87.306 1.131.479zM1288.097 451.96h.057l2.773 10.896h3.363l-5.266-17.165c-.327-1.083-.829-1.93-1.485-2.548-.647-.618-1.53-.924-2.625-.924-.432 0-.831.034-1.2.095-.353.07-.698.157-1.019.266l.2 2.66c.522-.18.967-.278 1.317-.278.507 0 .888.159 1.176.475.28.32.527.86.754 1.623l.252 1.236-4.789 14.56h3.584z" style="fill:#58595b;fill-opacity:1;fill-rule:nonzero;stroke:none;stroke-width:2.27082" transform="matrix(1.33333 0 0 -1.33333 -785.94 757.39)"/><path d="M0 0c3.517-3.221 6.465-6.738 5.392-12.735-1.092-6.069-6.685-9.121-9.285-8.159-1.027.382-1.846 1.466-1.227 3.072 1.143 2.926 4.211 4.969 7.247 5.884 1.78.542 2.007 1.39 1.103 2.125-.782.645-2.303 1.193-4.291 1.23-5.282.104-10.779-5.049-9.12-10.794 1.02-3.535 4.835-5.996 9.453-6.132 5.442-.176 11.738 3.205 13.202 10.252C14.099-7.383 8.76-.563 2.463 1.703-1.587 3.146-1.333 1.242 0 0" style="fill:#ee2b7b;fill-opacity:1;fill-rule:nonzero;stroke:none" transform="matrix(3.02777 0 0 -3.02777 99.27 122.745)"/><path d="M0 0c2.037-.23 7.975-10.527 9.365-10.544C10.76-10.559 21.716.901 23.739.748c2.44-.181.182-4.8-3.069-10.563-1.752-3.125-2.747-4.567-2.747-5.885 0-1.527 6.22-8.983 4.985-10.371-.933-1.065-8.532 3.023-10.349 3.922-1.29.628-1.371-.293-1.371-1.58 0-.954.942-7.143-.961-6.933C5.245-30.1-4.605.551 0 0" style="fill:#027bc1;fill-opacity:1;fill-rule:nonzero;stroke:none" transform="matrix(3.02777 0 0 -3.02777 73.227 5.576)"/><path d="M0 0c1.362-3.659 1.046-7.619 1.923-9.621.856-1.946 3.043-2.535 4.572-1.365 1.726 1.34 1.726 6.032 1.341 8.705C7.475.099 5.847 7.603 2.109 9.015c-2.346.886-4.994-.468-5.396-2.105-.401-1.629-3.364-8.037-4.591-7.55-.463.186-1.598 4.049-2.114 5.458-.565 1.503-2.661 8.52-4.178 8.644-1.16.093-1.463-3.593-1.211-6.752.237-2.737 1.178-11.844 3.971-13.508C-8.628-8.463-2.694-5.298 0 0" style="fill:#f5821f;fill-opacity:1;fill-rule:nonzero;stroke:none" transform="matrix(3.02777 0 0 -3.02777 190 145.205)"/><path d="M854.193 1204.36c-12.561-.01-33.966 6.07-45.191 13.607-2.668 1.796-4.753 3.917-6.098 6.273a8.565 8.565 0 0 0-3.646-5.209c-3.982-2.6-9.329-1.495-11.93 2.487-2.589 3.99-1.445 9.335 2.506 11.918 3.758 2.457 8.732 1.591 11.463-1.885.264 2.585 1.353 5.317 3.46 8.137 15.77 21.118 47.538 32.06 56.298 33.005 7.327.776 12.37-3.563 12.506-9.025.106-5.268-3.031-8.899-9.823-10.67-1.739-.45-3.476-.96-5.209-1.492.346-8.56-1.195-28.013-4.832-29.617-2.996-1.321-6.942 9.4-10.287 24.033-12.088-5.23-21.187-11.074-21.088-13.516.149-3.04 9.746-7.743 19.79-11.972 10.784-4.575 23.743-8.73 21.626-12.998-1.068-2.141-4.63-3.075-9.545-3.077z" style="fill:#00aee6;fill-opacity:1;fill-rule:nonzero;stroke:none;stroke-width:3.02776" transform="translate(-785.94 -1132.37)"/><path d="M0 0c-.826-1.328-2.599-1.726-3.926-.899a2.847 2.847 0 0 0-.907 3.911A2.848 2.848 0 0 0 0 0" style="fill:#027bc1;fill-opacity:1;fill-rule:nonzero;stroke:none" transform="matrix(3.02777 0 0 -3.02777 112.582 13.169)"/><path d="M1006.832 1165.732c-3.996-.148-7.676 2.535-8.633 6.567a8.584 8.584 0 0 0 .143 4.525l-.065-.07c-13.921-14.512-41.11-13.735-55.677 4.504-8.072 10.076-6.995 21.062-1.463 26.424 3.582 3.458 9.008 5.375 14.373 5.605 4.547.206 4.463-1.024 2.48-3.14-4.89-5.226-4.66-11.66-1.756-17.074 6.646-12.411 21.985-15.009 28.649-7.6 6.84 7.639 1.777 21.068-11.44 28.525-11.175 6.337-23.99 4.339-32.84.727-3.273 4.711-2.864 10.397-1.304 13.016 2.343 3.972 5.701 6.101 11.094 8.109 7.32 2.74 29.493 2.238 44.28-12.79 11.832-11.998 14.541-29.317 7.286-41.48a8.56 8.56 0 0 0 2.586 1.1c4.648 1.12 9.308-1.758 10.41-6.37 1.087-4.623-1.763-9.256-6.398-10.337a8.59 8.59 0 0 0-1.725-.24z" style="fill:#39b54a;fill-opacity:1;fill-rule:nonzero;stroke:none;stroke-width:3.02776" transform="translate(-785.94 -1132.37)"/></svg>