<svg xmlns="http://www.w3.org/2000/svg" width="842.54474pt" height="600pt" viewBox="0 0 842.54473 600"><defs><clipPath id="a"><path d="M0 1600h2560V0H0Z"/></clipPath><clipPath id="b"><path d="M0 1600h2560V0H0Z"/></clipPath><clipPath id="c"><path d="M0 1600h2560V0H0Z"/></clipPath></defs><path fill="#fff" d="M681.982-156.424v-78.891h-28.375v78.891H634.22v-78.891h-28.404v78.891h-38.402v22.24h175.403v-22.24z" style="fill:#252f5e;fill-opacity:1;stroke-width:7.15113" transform="matrix(.63694 0 0 .63694 -227.159 675.69)"/><g clip-path="url(#a)" style="fill:#252f5e;fill-opacity:1" transform="matrix(4.55484 0 0 4.55484 -375.824 -472.486)"><path fill="#fff" d="M0 0h2.591c.971 4.983 1.654 11.205 2.065 15.379.221 2.252.232 3.426-1.796 3.426h-18.456v-3.111H0Z" style="fill:#252f5e;fill-opacity:1" transform="matrix(1 0 0 -1 130.237 227.185)"/></g><path fill="#fff" d="M874.186-156.424v-37.987h-31.665v37.987h-72.39v22.24h175.41v-22.24z" style="fill:#252f5e;fill-opacity:1;stroke-width:7.15113" transform="matrix(.63694 0 0 .63694 -227.159 675.69)"/><g fill="#fff" clip-path="url(#b)" style="fill:#252f5e;fill-opacity:1" transform="matrix(4.55484 0 0 4.55484 -375.824 -472.486)"><path d="M0 0c1.831 0 2.461 1.017 2.461 2.47v12.635h-4.432V9.987h-8.778v5.118h-4.427V2.47c0-1.453.625-2.47 2.457-2.47zm-10.749 6.881h8.778V2.674h-8.778Zm0-4.207" style="fill:#252f5e;fill-opacity:1" transform="matrix(1 0 0 -1 158.955 223.22)"/><path d="M0 0c-1.626 1.054-3.666 1.507-5.876 1.507-2.203 0-4.246-.453-5.873-1.507-1.791-1.156-2.61-2.725-2.61-4.471 0-1.743.819-3.319 2.61-4.471 1.627-1.049 3.67-1.507 5.873-1.507 2.21 0 4.25.458 5.876 1.507C1.79-7.79 2.612-6.214 2.612-4.471 2.612-2.725 1.79-1.156 0 0m-2.746-6.589c-.816-.677-1.924-.971-3.13-.971-1.2 0-2.307.294-3.127.971-.739.607-.954 1.326-.954 2.118 0 .796.215 1.514.954 2.123.82.67 1.927.962 3.127.962 1.206 0 2.314-.292 3.13-.962.741-.609.956-1.327.956-2.123 0-.792-.215-1.511-.956-2.118" style="fill:#252f5e;fill-opacity:1" transform="matrix(1 0 0 -1 214.288 225.012)"/></g><path fill="#fff" d="M1286.5-321.286v24.042h-23.898v22.212h23.899v15.081h-23.9v22.248h23.9v28.418h31.68v-112z" style="fill:#252f5e;fill-opacity:1;stroke-width:7.15113" transform="matrix(.63694 0 0 .63694 -227.159 675.69)"/><g fill="#fff" clip-path="url(#c)" style="fill:#252f5e;fill-opacity:1" transform="matrix(4.55484 0 0 4.55484 -375.824 -472.486)"><path d="M0 0c1.835 0 2.463 1.018 2.463 2.469V13.08H-9.622V2.469c0-1.451.625-2.469 2.46-2.469Zm-1.968 3.11h-3.226v6.859h3.226Zm0 6.86" style="fill:#252f5e;fill-opacity:1" transform="matrix(1 0 0 -1 205.317 221.46)"/><path d="m0 0 1.996 1.501c-3.278 3.721-4.225 7.576-4.225 12.552h-4.11c0-4.976-.943-8.831-4.222-12.552L-8.563 0c1.974 1.716 3.219 3.551 4.28 5.782C-3.22 3.551-1.978 1.716 0 0" style="fill:#252f5e;fill-opacity:1" transform="matrix(1 0 0 -1 177.128 222.167)"/><path d="M0 0c-1.628 1.033-3.666 1.479-5.876 1.479-2.207 0-4.247-.446-5.876-1.479-1.79-1.13-2.608-2.667-2.608-4.377 0-1.712.818-3.254 2.608-4.386 1.629-1.026 3.669-1.473 5.876-1.473 2.21 0 4.248.447 5.876 1.473 1.791 1.132 2.608 2.674 2.608 4.386C2.608-2.667 1.791-1.13 0 0m-2.746-6.415c-.818-.651-1.927-.932-3.13-.932-1.201 0-2.312.281-3.129.932-.739.584-.952 1.274-.952 2.038 0 .762.213 1.454.952 2.036.817.649 1.928.927 3.129.927 1.203 0 2.312-.278 3.13-.927.738-.582.956-1.274.956-2.036 0-.764-.218-1.454-.956-2.038" style="fill:#252f5e;fill-opacity:1" transform="matrix(1 0 0 -1 186.968 225.225)"/></g><path fill="#fff" d="M1094.403-321.286v41.512h-11.749v-41.512h-28.397v110.3h28.397v-46.59h11.75v46.59h28.382v-110.3zM931.642-657.48c-32.244 0-60.584 10.47-79.756 30.085-21.94 21.653-33.99 55.736-33.99 95.882 0 40.125 12.05 74.2 33.99 95.861 19.172 19.659 47.512 30.378 79.756 30.378 32.23 0 60.95-10.72 80.114-30.378 21.554-21.646 33.625-55.736 33.625-95.86 0-40.147-12.071-74.23-33.625-95.883-19.186-19.616-47.884-30.085-80.114-30.085m46.16 195.555v.017c-10.547 13.415-27.145 21.081-46.16 21.081-18.671 0-35.634-7.666-45.824-21.081-11.785-14.603-17.978-38.931-17.978-69.602 0-30.672 6.193-54.664 17.978-69.624 10.176-13.408 27.145-20.717 45.824-20.717 19.015 0 35.627 7.309 46.16 20.717 11.8 14.982 17.857 38.952 17.857 69.624 0 30.67-6.057 54.999-17.856 69.587M1554.84-627.397c-19.243-19.615-47.905-30.085-80.106-30.085-32.245 0-60.592 10.47-79.936 30.085-21.753 21.654-33.732 55.736-33.732 95.883 0 40.125 11.979 74.2 33.732 95.868 19.344 19.651 47.677 30.37 79.936 30.37 32.201 0 60.863-10.719 80.107-30.37 21.618-21.668 33.617-55.743 33.617-95.868 0-40.147-11.985-74.23-33.617-95.883m-33.96 165.47v.017c-10.542 13.401-27.132 21.089-46.147 21.089-18.679 0-35.656-7.688-45.903-21.103-11.692-14.581-17.921-38.91-17.921-69.588 0-30.671 6.229-54.663 17.92-69.623 10.241-13.409 27.21-20.717 45.904-20.717 19.029 0 35.62 7.308 46.146 20.695 11.792 14.982 17.814 38.974 17.814 69.645 0 30.679-6.022 55.007-17.814 69.588M705.473-411.063c-2.767-2.495-6.107-8.245-6.107-16.855v-87.473l81.609-136.758h-55.893c4.04 4.033 4.44 10.455-.472 18.157l-44.194 76.553c-37.165-67.292-37.115-69.202-43.837-81.437-5.263-9.24-9.718-13.273-19.637-13.273h-44.03c3.476 3.225 7.08 8.08 14.617 20.617l65.069 115.512v88.102c0 8.61-3.318 14.36-6.086 16.855zM1123.23-411.063c2.782-2.495 6.114-8.245 6.114-16.855V-635.3c0-8.596-3.333-14.366-6.114-16.848h79.842c38.337 0 71.755 18.479 71.755 54.349 0 15.182-6.965 36.707-24.679 46.189 21.496 8.217 44.287 28.025 44.287 61.671 0 24.922-12.364 46.804-29.048 59.362-15.425 11.628-33.21 19.515-62.315 19.515zm52.868-150.045c8.703 1.001 26.467-.128 34.097-4.112 7.644-3.976 16.383-9.818 16.383-25 0-14.46-12.665-27.239-31.093-27.239-6.922 0-12.672.372-19.387 2.46zm52.275 109.456c13.823-8.896 17.02-21.811 17.02-35.356 0-26.437-23.242-38.616-45.632-38.616-4.777 0-16.34.179-23.663 1.416v77.247c15.375 4.29 39.99 3.218 52.275-4.691M362.756-427.916c0 8.61-3.34 14.36-6.114 16.856h58.968c-2.775-2.496-6.107-8.246-6.107-16.856v-94.18l68.486 97.756c6.322 9.246 11.242 13.28 21.153 13.28h47.248c-3.848-3.233-8.017-8.088-16.999-20.624L452.16-541.168l78.97-110.986h-58.088c3.017 3.948 3.382 8.882-2.26 18.364l-61.278 88.331v-89.84c0-8.602 3.332-14.373 6.107-16.855h-58.968c2.774 2.482 6.114 8.253 6.114 16.855z" style="fill:#252f5e;fill-opacity:1;stroke-width:7.15113" transform="matrix(.63694 0 0 .63694 -227.159 675.69)"/><path fill="#6bb340" d="M1664.104-982.362c-21.982-22.268-58.367-18.414-79.842 4.327-27.875 29.298-49.565 40.218-75.409 39.102-36.084-1.552-53.89-29.441-72.434-64.646-19.25-36.8-48.82-57.26-85.72-57.26-58.017 0-92.85 46.977-92.85 99.366 0 80.629 56.7 128.849 95.94 149.18 32.63 16.962 68.893 24.042 101.166 24.843-1.902 19.3-7.58 44.744-13.859 62.73h66.399c-6.55-17.986-12.357-45.503-14.095-64.833 97.234-12.629 143.409-56.816 168.71-98.879 11.341-18.435 17.398-37.586 17.334-54.792-.071-15.074-4.892-28.769-15.34-39.138m-312.933 50.437c-18.865 1.187-34.92-13.043-36.12-31.758-1.166-18.707 12.979-34.89 31.83-36.07 18.664-1.195 34.725 13.086 35.912 31.794 1.187 18.707-12.972 34.847-31.622 36.034" style="stroke-width:7.15113" transform="matrix(.63694 0 0 .63694 -227.159 675.69)"/></svg>