<svg width="200" height="26" viewBox="0 0 200 26" fill="none" xmlns="http://www.w3.org/2000/svg">
<g clip-path="url(#clip0_616_3542)">
<path d="M19.5547 17.1368C18.3218 17.1368 17.0321 16.9297 15.7158 16.5271C15.0216 17.6966 14.5892 19.0118 14.4412 20.4458C14.3312 21.554 14.3199 23.4481 15.0785 25.4037L15.3554 25.2349C22.4642 20.9021 26.6975 16.784 28.1807 12.735C27.2134 14.0463 24.4291 17.1368 19.5547 17.1368ZM13.4967 19.1767C13.4967 19.1767 13.5005 19.1652 13.5043 19.1537C13.527 19.0463 13.5498 18.9389 13.5764 18.8316C9.26333 17.2403 7.4008 14.3684 6.59662 12.1981C5.6938 9.75566 5.90244 7.69661 5.91002 7.60842C5.92899 7.45121 6.01244 7.3055 6.13762 7.20964C6.2666 7.11762 6.42971 7.07928 6.58524 7.11378C6.66869 7.13296 8.67537 7.5624 10.6972 9.1805C12.2525 10.4228 14.0543 12.5892 14.6309 16.1437C14.7371 15.9558 14.8509 15.7718 14.9685 15.5877C14.9837 15.5609 14.9989 15.534 15.014 15.511C15.4465 14.9282 15.8941 14.4106 16.3417 13.9504C16.6224 13.613 16.8842 13.2526 17.1155 12.8768C14.1643 9.64829 13.6712 6.4236 13.8533 4.12299C12.389 2.79247 10.3672 1.5348 7.94705 1.5348C5.64828 1.5348 3.66816 2.3055 2.21531 3.75489C0.762461 5.20428 0 7.17897 0 9.47191C0.00379334 14.5869 4.41165 19.7442 13.4664 25.2349L13.9026 25.4995C12.7494 22.2595 13.4588 19.3185 13.4929 19.1767M26.561 3.72421C25.1119 2.2825 23.1318 1.51562 20.8254 1.51562C19.9757 1.51562 19.1791 1.67283 18.4356 1.93357C18.6025 2.23265 18.7656 2.5509 18.9174 2.89216C19.8088 4.90903 20.4613 8.0647 18.8112 11.9911C20.7496 10.8408 22.6462 10.5302 24.137 10.5302C26.542 10.5302 28.249 11.3201 28.3211 11.3546C28.4121 11.3968 28.4842 11.4619 28.5411 11.5425C28.7042 10.8408 28.7877 10.1391 28.7877 9.44124C28.7877 7.14829 28.0138 5.1736 26.561 3.72421Z" fill="#E5262A"/>
<path d="M17.3845 2.3865C16.8951 1.53528 16.3679 0.894939 15.9999 0.5C15.6471 1.20169 15.1312 2.46702 14.9795 4.06595C15.6661 3.44479 16.4741 2.84663 17.3845 2.3865Z" fill="#E5262A"/>
<path d="M17.3848 2.38672C16.4744 2.84684 15.6664 3.44884 14.9798 4.06617C14.7787 6.21724 15.2415 8.97798 17.6731 11.7924C19.5052 7.64746 18.5455 4.40742 17.381 2.38672M7.01758 8.422C7.03654 10.2663 7.66624 15.2855 13.6749 17.6475C13.2842 11.2096 8.73596 9.02015 7.01758 8.422ZM24.1445 11.6697C22.2554 11.6697 19.638 12.241 17.1875 14.7142C17.1648 14.741 17.1458 14.7679 17.123 14.7909C17.0927 14.8254 17.0585 14.856 17.0244 14.8829C16.8234 15.0899 16.6261 15.3123 16.4289 15.5501C17.5062 15.8453 18.5569 15.9987 19.5622 15.9987C23.7879 15.9987 26.2953 13.3415 27.2057 12.149C26.5571 11.9381 25.4608 11.6697 24.1407 11.6697" fill="#65B32E"/>
<path d="M60.3677 6.51963H57.6971L57.7047 6.2589V6.15537C57.7047 5.377 57.2382 4.92071 56.4529 4.92071H49.5566V11.7612C49.5566 12.6201 50.0498 13.1147 50.9109 13.1147H57.424L57.4695 11.7995H60.3639V13.8087H62.4312V4.70215H60.3714V6.51963H60.3677ZM55.5274 11.3202H52.064C51.7264 11.3049 51.6354 11.2052 51.6164 10.8371V6.71135H55.1822C55.4515 6.73436 55.5084 6.78804 55.5274 7.10629V11.3202ZM60.3677 10.0626H57.5454L57.6175 8.2566H60.3677V10.0626Z" fill="#65B32E"/>
<path d="M61.1257 15.055C60.3177 14.3265 59.2101 13.9737 57.8255 13.9776C56.4295 13.9776 55.3067 14.3265 54.5177 15.055C53.7097 15.7797 53.3076 16.7268 53.3076 17.8541C53.3076 18.9814 53.7021 19.9362 54.4949 20.6378C55.3105 21.3894 56.4333 21.7536 57.8293 21.7536H57.8407C59.2252 21.7536 60.3329 21.3855 61.1522 20.634C61.9451 19.9362 62.3471 19.0006 62.3471 17.8541C62.3471 16.7076 61.9375 15.7797 61.1295 15.055M59.5894 19.407C59.119 19.8096 58.5462 20.0167 57.8255 20.0167C57.1048 20.0167 56.5054 19.8096 56.0464 19.407C55.5874 19.0044 55.3636 18.5059 55.3636 17.8541C55.3636 17.2099 55.5874 16.7038 56.0464 16.2974C56.5054 15.8909 57.0896 15.6915 57.8255 15.6877C58.5462 15.6877 59.1228 15.8909 59.5894 16.2974C60.0408 16.7 60.2646 17.2099 60.2646 17.8541C60.2646 18.4983 60.0408 19.0044 59.5894 19.407Z" fill="#65B32E"/>
<path d="M92.2771 15.1659H82.6875V20.0164C82.6875 20.5149 82.7747 20.8868 82.991 21.1322C83.2148 21.3738 83.5676 21.4735 84.0265 21.4735H93.1306V16.0632C93.1306 15.7909 93.0812 15.5724 92.9599 15.4075C92.8081 15.2196 92.5729 15.1621 92.2771 15.1621M90.9722 19.679H85.2632C84.8725 19.6598 84.7663 19.5563 84.7511 19.169V16.9528H90.6345C90.8925 16.9719 90.9532 17.0333 90.9759 17.3324V19.679H90.9722Z" fill="#65B32E"/>
<path d="M86.8289 13.2568C87.4889 12.7315 87.91 12.0144 88.0655 11.144H91.0167V14.3266H93.0727V4.70232H91.0167V9.38407H88.0807C87.982 8.86643 87.7886 8.39864 87.5041 7.98837H89.048V6.19772H85.285V4.13867H83.2176V6.19772H79.3408V7.98837H80.9492C80.5168 8.61337 80.2929 9.37257 80.2929 10.266C80.2929 11.4009 80.6571 12.3404 81.3778 13.0305C82.0986 13.7284 83.0583 14.0773 84.2342 14.0735C85.2622 14.0735 86.1309 13.8051 86.8251 13.2529M82.3186 10.2698C82.3186 9.65631 82.4893 9.18468 82.8421 8.81275C83.1949 8.44465 83.6463 8.2606 84.238 8.25677C84.826 8.25677 85.2774 8.44465 85.6188 8.81275C85.9678 9.18085 86.1423 9.65631 86.1461 10.2698C86.1385 10.8833 85.964 11.3549 85.6188 11.7307C85.2736 12.0988 84.826 12.279 84.238 12.2867C83.6463 12.279 83.1949 12.0988 82.8421 11.7307C82.4893 11.3588 82.3186 10.8871 82.3186 10.2698Z" fill="#65B32E"/>
<path d="M72.4797 13.5057H77.0241V4.90137H74.9643V7.19815H67.9315V4.90137H65.8717V12.0141C65.8717 12.5087 65.9703 12.8845 66.1979 13.1452C66.4369 13.3983 66.8124 13.5057 67.3056 13.5057H70.4199V16.1284H64.0547V17.919H78.8449V16.1284H72.4835V13.5057H72.4797ZM68.4739 11.715C68.068 11.692 67.9504 11.5693 67.9315 11.1629V8.98112H74.9605V11.715H68.4739Z" fill="#65B32E"/>
<path d="M45.4636 8.06871H43.8401V4.70215H41.7803V13.2604H43.8401V9.85936H45.4636V13.5058H47.5234V4.70215H45.4636V8.06871Z" fill="#65B32E"/>
<path d="M42.7244 13.8018C41.3095 13.8018 40.1525 14.2121 39.2876 15.0441C38.5176 15.788 38.123 16.7121 38.123 17.7742C38.123 18.8363 38.5176 19.7834 39.2876 20.5234C40.1563 21.3478 41.3095 21.7581 42.7244 21.7542H42.7395C44.1507 21.7542 45.2887 21.3478 46.1535 20.5234C46.9236 19.7834 47.3143 18.8555 47.3105 17.7742C47.3105 16.7082 46.9198 15.7841 46.1535 15.0441C45.2887 14.2121 44.1393 13.7979 42.7244 13.8018ZM44.5717 19.3654C44.0748 19.7987 43.4679 20.0211 42.7244 20.0211C41.9809 20.0211 41.3701 19.7987 40.8732 19.3654C40.3915 18.9245 40.1525 18.4068 40.1525 17.7742C40.1525 17.1415 40.3877 16.6507 40.8732 16.2059C41.3664 15.7726 41.9733 15.5503 42.7244 15.5503C43.4754 15.5503 44.0748 15.7726 44.5717 16.2059C45.0611 16.6469 45.3 17.1645 45.3038 17.7742C45.3038 18.3992 45.0611 18.9207 44.5717 19.3654Z" fill="#65B32E"/>
<path d="M40.1261 13.3417L40.2361 13.4107L41.2641 11.9652L41.1541 11.8808C40.2399 11.1983 39.5723 10.3739 39.1436 9.40381C38.7188 8.44138 38.4988 7.20672 38.4988 5.71516V4.89844H36.401V5.71516C36.401 7.31792 36.1962 8.60243 35.7941 9.54568C35.3882 10.5004 34.6637 11.3785 33.6129 12.1875L33.5029 12.2681L34.6599 13.6868L34.7585 13.6216C35.4375 13.1998 36.0293 12.6362 36.5338 11.9306C36.9852 11.3133 37.3076 10.6806 37.4973 10.0288C37.7135 10.627 38.0474 11.2213 38.4912 11.8041C39.0184 12.5058 39.5571 13.0158 40.1261 13.3379" fill="#65B32E"/>
<path d="M133.518 8.87793H131.485V12.0604H126.121V13.7552H140.676V12.0604H133.518V8.87793Z" fill="#3C3C3B"/>
<path d="M136.61 7.06044V10.7568H138.521L138.836 6.31657L138.696 6.2974L138.836 6.30891C138.836 6.20538 138.836 6.10952 138.836 6.02133C138.836 5.69924 138.791 5.44234 138.681 5.24679C138.521 4.97838 138.203 4.86719 137.801 4.86719H128.12V6.56197H136.249C136.511 6.57731 136.587 6.66167 136.606 7.0566" fill="#3C3C3B"/>
<path d="M136.731 15.5003C135.923 14.8485 134.8 14.5264 133.378 14.5264C131.955 14.5264 130.833 14.8485 130.028 15.5003C129.213 16.1445 128.814 17.0609 128.814 18.1882C128.814 19.3155 129.217 20.2281 130.021 20.8837C130.833 21.5432 131.959 21.8577 133.378 21.8577C134.797 21.8577 135.923 21.5432 136.735 20.8837C137.535 20.2281 137.941 19.3155 137.941 18.1882C137.941 17.0609 137.535 16.1445 136.731 15.5003ZM135.218 19.5647C134.755 19.9136 134.144 20.0939 133.378 20.0939C132.612 20.0939 132.008 19.9136 131.538 19.5647C131.079 19.212 130.867 18.7633 130.859 18.1882C130.867 17.6169 131.075 17.1797 131.538 16.8308C131.989 16.4704 132.596 16.294 133.378 16.294C134.159 16.294 134.766 16.4704 135.225 16.8308C135.68 17.1797 135.893 17.6207 135.893 18.1882C135.893 18.7557 135.673 19.212 135.218 19.5647Z" fill="#3C3C3B"/>
<path d="M146.435 18.8128V15.8066H144.409V19.825C144.409 20.2468 144.477 20.5574 144.671 20.7683C144.861 20.9754 145.168 21.0597 145.57 21.0597H155.175V19.2921H146.928C146.556 19.2767 146.458 19.1694 146.435 18.8166" fill="#3C3C3B"/>
<path d="M148.471 13.6442C149.116 13.1074 149.522 12.3635 149.685 11.4433H152.651V16.6043H154.681V4.84819H152.651V9.68331H149.689C149.594 9.08515 149.385 8.55985 149.082 8.10739H150.584V6.34359H146.931L146.912 4.30371H144.886V6.34359H141.135V8.10739H142.709C142.246 8.77074 142.03 9.58745 142.03 10.5422C142.03 11.7309 142.371 12.7048 143.069 13.4141C143.767 14.1312 144.723 14.4916 145.899 14.4878C146.931 14.4878 147.8 14.204 148.471 13.6442ZM144.006 10.546C144.006 9.85969 144.185 9.33822 144.522 8.95095C144.864 8.55601 145.311 8.36813 145.903 8.36429C146.487 8.36813 146.935 8.55601 147.269 8.95095C147.606 9.33822 147.777 9.85969 147.777 10.546C147.777 11.2324 147.606 11.7615 147.269 12.145C146.935 12.5322 146.487 12.724 145.903 12.724C145.319 12.724 144.864 12.5361 144.522 12.145C144.185 11.7539 144.006 11.2362 144.006 10.546Z" fill="#3C3C3B"/>
<path d="M107.928 4.84863H105.884V21.1408H107.928L107.917 11.7045H110.413V9.95216H107.917L107.928 4.84863Z" fill="#3C3C3B"/>
<path d="M100.748 7.54333V5.0625H98.6651V7.54333C98.6651 9.36465 98.3882 10.8907 97.8495 12.1331C97.2653 13.4597 96.3056 14.6407 94.9628 15.6837L94.8604 15.768L96.0553 17.2903L96.1577 17.2136C97.0074 16.6844 97.7698 15.9712 98.4451 15.074C99.0634 14.2535 99.5034 13.4176 99.7576 12.574C100.076 13.4061 100.569 14.2343 101.241 15.0778C101.969 15.9942 102.69 16.6499 103.384 17.0487L103.483 17.1062L104.628 15.5533L104.518 15.4728C101.988 13.5786 100.74 10.9559 100.74 7.54716" fill="#3C3C3B"/>
<path d="M122.57 15.742H117.283V14.2274C118.163 14.0625 118.868 13.6753 119.399 13.0848C119.949 12.4521 120.226 11.6277 120.226 10.6231C120.226 9.77188 120.021 9.04335 119.612 8.44136H121.201V6.68139H117.302V4.48047H115.272V6.68139H111.244V8.44136H112.935C112.526 9.04335 112.321 9.77571 112.321 10.6269C112.321 11.6277 112.594 12.4559 113.155 13.0886C113.683 13.6944 114.396 14.0779 115.272 14.2427V15.7458H110.766V17.4253H122.574V21.1484H124.604V4.84857H122.574V15.742H122.57ZM114.855 11.9728C114.506 11.6469 114.32 11.2021 114.32 10.6231C114.32 10.0441 114.506 9.61084 114.855 9.27725C115.211 8.93599 115.67 8.77111 116.266 8.77111C116.862 8.77111 117.317 8.93599 117.673 9.27725C118.03 9.607 118.208 10.0518 118.208 10.6231C118.208 11.1944 118.03 11.6469 117.673 11.9728C117.321 12.3179 116.858 12.4904 116.266 12.4904C115.674 12.4904 115.211 12.3179 114.855 11.9728Z" fill="#3C3C3B"/>
<path d="M161.512 12.8624C162.897 12.8624 163.993 12.4828 164.782 11.7045C165.518 10.9798 165.882 9.99819 165.882 8.8057C165.882 7.61322 165.518 6.63545 164.782 5.91076C163.993 5.12472 162.897 4.74512 161.512 4.74512C160.128 4.74512 159.028 5.12472 158.235 5.91076C157.495 6.63162 157.116 7.60938 157.127 8.8057C157.116 9.99819 157.495 10.9798 158.235 11.7045C159.024 12.4828 160.12 12.8624 161.512 12.8624ZM159.828 7.09558C160.26 6.6623 160.811 6.4399 161.512 6.4399C162.214 6.4399 162.764 6.66613 163.204 7.10708C163.648 7.5442 163.86 8.10401 163.868 8.8057C163.86 9.51122 163.648 10.0634 163.204 10.5005C162.764 10.9299 162.206 11.1562 161.512 11.1562C160.818 11.1562 160.261 10.9299 159.82 10.5005C159.392 10.0634 159.176 9.51122 159.172 8.8057C159.176 8.10401 159.392 7.5442 159.828 7.09558Z" fill="#3C3C3B"/>
<path d="M167.81 14.0588H156.392V15.7574H160.519V20.9683H162.59V15.7574H167.81V21.1408H169.843V4.84863H167.81V14.0588Z" fill="#3C3C3B"/>
<path d="M197.986 4.84857L197.948 15.8072V15.9337C197.948 15.9337 193.627 15.9835 192.69 15.9835V15.9337H192.668V14.4306H192.69V14.2274C193.567 14.0625 194.28 13.6753 194.799 13.0848C195.357 12.4521 195.634 11.6277 195.634 10.6231C195.634 9.77188 195.425 9.04335 195.016 8.44136H196.605V6.68139H192.713V4.48047H190.68V6.68139H186.655V8.44136H188.343C187.93 9.04335 187.732 9.77571 187.732 10.6269C187.732 11.6277 188.002 12.4559 188.563 13.0886C189.09 13.6944 189.807 14.0779 190.68 14.2427V16.0065H186.321V17.7703H190.775C191.901 17.7703 192.812 17.755 193.586 17.7358H197.986V21.1484H200.011V4.84857H197.997H197.986ZM190.266 11.9728C189.906 11.6469 189.728 11.2021 189.728 10.6231C189.728 10.0441 189.906 9.61084 190.259 9.27725C190.619 8.93599 191.078 8.77111 191.674 8.77111C192.269 8.77111 192.721 8.93599 193.081 9.27725C193.434 9.607 193.612 10.0518 193.612 10.6231C193.612 11.1944 193.438 11.6469 193.081 11.9728C192.717 12.3179 192.269 12.4904 191.674 12.4904C191.078 12.4904 190.615 12.3179 190.266 11.9728Z" fill="#3C3C3B"/>
<path d="M179.562 16.0334H182.9V17.2719H184.925V4.84863H182.9V14.446H179.562V16.0334Z" fill="#3C3C3B"/>
<path d="M173.689 10.2197C174.399 10.8792 175.396 11.2013 176.656 11.2013C177.915 11.2013 178.909 10.883 179.618 10.2197C180.271 9.62537 180.593 8.82783 180.593 7.86924C180.593 6.91065 180.271 6.09776 179.618 5.50344C178.909 4.85543 177.915 4.54102 176.656 4.54102C175.396 4.54102 174.399 4.85927 173.689 5.50344C173.037 6.09776 172.699 6.89914 172.699 7.86924C172.699 8.82783 173.033 9.62537 173.689 10.2197ZM175.275 6.56556C175.616 6.2358 176.072 6.07476 176.656 6.07476C177.24 6.07476 177.687 6.2358 178.048 6.56556C178.389 6.89148 178.564 7.31325 178.564 7.86924C178.564 8.42522 178.389 8.847 178.048 9.16908C177.687 9.50267 177.236 9.66755 176.656 9.66755C176.075 9.66755 175.62 9.49884 175.275 9.16908C174.926 8.847 174.748 8.41755 174.748 7.86924C174.748 7.32092 174.926 6.89148 175.275 6.56556Z" fill="#3C3C3B"/>
<path d="M176.41 18.9581V16.8799H174.392V19.9014C174.395 20.3193 174.464 20.6184 174.65 20.8216C174.843 21.0248 175.135 21.09 175.552 21.09H185.582V19.4527H176.861C176.52 19.4336 176.429 19.3339 176.41 18.9619" fill="#3C3C3B"/>
<path d="M175.548 16.1708H177.555V13.6478C178.389 13.6325 179.171 13.5673 179.884 13.4599C180.464 13.364 180.95 13.249 181.375 13.111V11.7383L181.299 11.7498C180.825 11.8418 180.362 11.9147 179.895 11.9377C179.186 11.9952 178.302 12.0335 177.217 12.0335H171.747V13.6708H175.548V16.1708Z" fill="#3C3C3B"/>
</g>
<defs>
<clipPath id="clip0_616_3542">
<rect width="200" height="25" fill="white" transform="translate(0 0.5)"/>
</clipPath>
</defs>
</svg>
