<svg xmlns="http://www.w3.org/2000/svg" xml:space="preserve" width="1115.3499" height="500" viewBox="0 0 1115.3499 500"><path d="M157.238 55.011a54.06 54.06 0 0 0-54.06-54.06 54.06 54.06 0 0 0-54.06 54.06 54.06 54.06 0 0 0 54.06 54.06 54.06 54.06 0 0 0 54.06-54.06Z" style="fill:#fff;fill-rule:evenodd;stroke-width:.290787;stroke-linecap:round;stroke-miterlimit:10" transform="matrix(3.33383 0 0 -3.33383 -37.93 438.436)"/><path d="M0 0c-8.591 5.834-19.588 3.45-25.36-5.325a17.952 17.952 0 0 0-14.921-8.244c-9.184 0-15.473 6.461-17.334 13.146h-.01c-.013.07-.03.126-.043.187a2.767 2.767 0 0 0-.061.231c-.733 2.787-.911 4.119-.911 7.084 0 15.99 16.402 33.789 40.035 33.789 24.196 0 38.039-18.416 41.596-28.652-.056.182-.111.359-.174.545C15.955 32.78-3.037 47.183-25.387 47.183c-28.139 0-50.949-22.812-50.949-50.957 0-25.147 18.141-46.676 43.305-46.676 20.067 0 33.557 11.252 39.742 26.762C10.11-15.21 7.7-5.243 0 0" style="fill:#003863;fill-opacity:1;fill-rule:nonzero;stroke:none" transform="matrix(3.33731 0 0 -3.33731 390.777 242.477)"/><path d="M0 0c-2.974 9.985-16.917 29.644-41.918 29.644-23.633 0-40.035-17.799-40.035-33.79 0-2.964.178-4.296.911-7.083a14.789 14.789 0 0 0-.469 3.632c0 16.651 16.673 28.195 33.816 28.195 23.199 0 42.005-18.813 42.005-42.009 0-18.191-10.466-33.931-25.67-41.493l.003-.012c19.603 7.1 33.602 25.875 33.602 47.917C2.245-9.774 1.541-5.176 0 0" style="fill:#e4032e;fill-opacity:1;fill-rule:nonzero;stroke:none" transform="matrix(3.33731 0 0 -3.33731 468.58 205.017)"/><path d="m0 0-3.539 7.644V0h-1.56v9.378h2.314L.753 1.709v7.669h1.562V0Z" style="fill:#575756;fill-opacity:1;fill-rule:nonzero;stroke:none" transform="matrix(3.33731 0 0 -3.33731 578.183 348.675)"/><path d="M0 0c.394 0 .786.096 1.169.287.387.193.664.417.835.667v1.143H.647c-.772 0-1.311-.098-1.616-.296-.295-.224-.444-.492-.444-.807 0-.285.126-.523.378-.713C-.785.095-.439 0 0 0m.42 3.295h1.584c0 .441-.171.769-.509.989-.341.22-.835.329-1.482.329h-.04c-.609 0-1.256-.141-1.936-.43l-.391 1.196c.708.308 1.489.463 2.341.474h.026c1.132 0 1.998-.219 2.603-.654.608-.435.908-1.129.908-2.079v-4.171h-1.45v.741a2.986 2.986 0 0 0-1.057-.667 3.587 3.587 0 0 0-1.272-.235c-.807 0-1.46.214-1.958.64-.496.426-.745.947-.745 1.566 0 .692.308 1.262.925 1.709.575.395 1.392.592 2.453.592" style="fill:#575756;fill-opacity:1;fill-rule:nonzero;stroke:none" transform="matrix(3.33731 0 0 -3.33731 600.265 345.168)"/><path d="M0 0v-2.168h1.467v-1.235H0v-3.431c0-.322.08-.545.237-.664.157-.124.378-.185.666-.185h.564v-1.223H.539c-.727 0-1.255.162-1.586.484-.332.323-.5.803-.5 1.44v3.579h-1.157v1.235h1.157V0Z" style="fill:#575756;fill-opacity:1;fill-rule:nonzero;stroke:none" transform="matrix(3.33731 0 0 -3.33731 624.5 318.951)"/><path d="M193.24 34.346h1.536v-6.739h-1.536zm1.736 1.899a.92.92 0 0 0-.29-.678.933.933 0 0 0-.692-.292.938.938 0 0 0-.692.292.925.925 0 0 0-.291.678c0 .269.098.499.291.693a.94.94 0 0 0 .692.29c.27 0 .501-.096.692-.29a.944.944 0 0 0 .29-.693" style="fill:#575756;fill-opacity:1;fill-rule:nonzero;stroke:none" transform="matrix(3.33731 0 0 -3.33731 -11.116 440.809)"/><path d="M0 0c.558 0 1.034.214 1.434.639.399.424.597.966.597 1.621 0 .645-.198 1.185-.597 1.621-.4.435-.876.654-1.434.654-.546 0-1.019-.219-1.419-.654-.398-.436-.599-.976-.599-1.621 0-.655.201-1.197.599-1.621C-1.019.214-.546 0 0 0m0-1.265c-.986 0-1.826.338-2.521 1.015-.696.678-1.044 1.515-1.044 2.51 0 .997.348 1.834 1.044 2.516C-1.826 5.457-.986 5.8 0 5.8c.997 0 1.84-.343 2.531-1.024.69-.682 1.037-1.519 1.037-2.516 0-.995-.347-1.832-1.037-2.51C1.84-.927.997-1.265 0-1.265" style="fill:#575756;fill-opacity:1;fill-rule:nonzero;stroke:none" transform="matrix(3.33731 0 0 -3.33731 655.463 344.992)"/><path d="M0 0v-3.39h-1.521v6.739h1.465v-.898c.181.312.442.569.783.767.339.196.707.296 1.101.296.799 0 1.438-.272 1.919-.816.479-.542.719-1.265.719-2.172V-3.39H2.933V.138c0 .716-.116 1.247-.35 1.591-.233.347-.59.52-1.076.52-.251 0-.497-.084-.734-.251a1.56 1.56 0 0 1-.544-.678C.076.986 0 .547 0 0" style="fill:#575756;fill-opacity:1;fill-rule:nonzero;stroke:none" transform="matrix(3.33731 0 0 -3.33731 676.831 337.362)"/><path d="M0 0c.396 0 .787.096 1.172.287.385.193.662.417.834.667v1.143H.647c-.771 0-1.308-.098-1.614-.296-.297-.224-.444-.492-.444-.807 0-.285.126-.523.377-.713C-.783.095-.439 0 0 0m.418 3.295h1.588c0 .441-.172.769-.511.989-.342.22-.835.329-1.48.329h-.04c-.61 0-1.256-.141-1.937-.43l-.392 1.196c.71.308 1.491.463 2.341.474h.028c1.131 0 1.998-.219 2.605-.654.604-.435.905-1.129.905-2.079v-4.171H2.073v.741a2.968 2.968 0 0 0-1.057-.667 3.57 3.57 0 0 0-1.271-.235c-.807 0-1.46.214-1.956.64-.499.426-.746.947-.746 1.566 0 .692.309 1.262.927 1.709.574.395 1.39.592 2.448.592" style="fill:#575756;fill-opacity:1;fill-rule:nonzero;stroke:none" transform="matrix(3.33731 0 0 -3.33731 705.956 345.168)"/><path d="M220.165 36.985h1.519v-9.378h-1.519z" style="fill:#575756;fill-opacity:1;fill-rule:nonzero;stroke:none" transform="matrix(3.33731 0 0 -3.33731 -11.116 440.809)"/><path d="M0 0v-8.058h-1.575V0H-4.44v1.32h7.305V0Z" style="fill:#575756;fill-opacity:1;fill-rule:nonzero;stroke:none" transform="matrix(3.33731 0 0 -3.33731 759.861 321.784)"/><path d="M0 0c.396 0 .783.096 1.171.287.386.193.664.417.833.667v1.143H.646c-.772 0-1.309-.098-1.615-.296-.294-.224-.444-.492-.444-.807 0-.285.127-.523.378-.713C-.786.095-.439 0 0 0m.417 3.295h1.587c0 .441-.169.769-.512.989-.339.22-.833.329-1.479.329h-.04c-.611 0-1.255-.141-1.938-.43l-.39 1.196c.709.308 1.49.463 2.34.474h.028c1.132 0 1.997-.219 2.603-.654.607-.435.908-1.129.908-2.079v-4.171H2.07v.741a2.95 2.95 0 0 0-1.055-.667 3.58 3.58 0 0 0-1.27-.235c-.807 0-1.46.214-1.957.64-.499.426-.746.947-.746 1.566 0 .692.307 1.262.927 1.709.574.395 1.389.592 2.448.592" style="fill:#575756;fill-opacity:1;fill-rule:nonzero;stroke:none" transform="matrix(3.33731 0 0 -3.33731 777.855 345.168)"/><path d="M0 0h-1.721l2.61 3.527-2.383 3.211H.228l1.52-2.042 1.51 2.042h1.72L2.612 3.527 5.209 0H3.484L1.748 2.354Z" style="fill:#575756;fill-opacity:1;fill-rule:nonzero;stroke:none" transform="matrix(3.33731 0 0 -3.33731 798.185 348.675)"/><path d="m0 0 1.035 1.051c.278-.594.629-1.028 1.05-1.306.458-.307.919-.458 1.385-.458.494 0 .915.129 1.264.391.351.25.526.581.526.995 0 .367-.179.666-.533.892a6.4 6.4 0 0 1-1.149.587c-.415.154-.843.318-1.292.497-.718.26-1.231.603-1.54 1.023-.308.422-.466.866-.466 1.334 0 .723.311 1.347.929 1.863.621.515 1.378.773 2.273.773.943 0 1.709-.243 2.302-.725.304-.236.516-.495.631-.781l-.94-.996c-.082.161-.23.344-.443.549a2.34 2.34 0 0 1-1.63.62c-.394 0-.742-.108-1.041-.329a1.033 1.033 0 0 1-.45-.881c0-.557.608-1.048 1.828-1.48.225-.072.458-.152.698-.242.816-.314 1.43-.686 1.838-1.111.409-.425.612-.954.612-1.58 0-.743-.32-1.384-.953-1.922-.63-.549-1.441-.823-2.438-.823-.913 0-1.672.207-2.271.62C.641-1.036.231-.555 0 0" style="fill:#575756;fill-opacity:1;fill-rule:nonzero;stroke:none" transform="matrix(3.33731 0 0 -3.33731 828.974 342.342)"/><path d="M0 0h3.74c-.018.44-.203.84-.552 1.205-.349.361-.793.545-1.331.545-.556 0-1.016-.198-1.373-.592C.224.86.063.474 0 0m.026-1.211c.091-.412.284-.75.579-1.01.43-.394 1.001-.592 1.709-.592.746 0 1.438.275 2.083.822l.459-1.13c-.727-.628-1.586-.942-2.582-.942-1.139 0-2.064.323-2.779.968-.713.644-1.067 1.493-1.067 2.541 0 1.033.314 1.882.946 2.55.633.668 1.46 1.005 2.483 1.005 1.004 0 1.827-.333 2.466-.996.642-.666.963-1.484.963-2.463 0-.27-.02-.521-.066-.753z" style="fill:#575756;fill-opacity:1;fill-rule:nonzero;stroke:none" transform="matrix(3.33731 0 0 -3.33731 860.346 335.651)"/><path d="M0 0v6.738h1.438V5.731c.223.332.498.587.822.768.384.232.838.349 1.358.349h.109V5.475h-.164c-.636 0-1.143-.193-1.519-.578-.35-.376-.525-.963-.525-1.761V0Z" style="fill:#575756;fill-opacity:1;fill-rule:nonzero;stroke:none" transform="matrix(3.33731 0 0 -3.33731 882.341 348.675)"/><path d="m0 0 1.805 5.46h1.588L1.052-1.278h-2.101l-2.34 6.738h1.587z" style="fill:#575756;fill-opacity:1;fill-rule:nonzero;stroke:none" transform="matrix(3.33731 0 0 -3.33731 907.96 344.408)"/><path d="M279.713 34.346h1.532v-6.739h-1.532zm1.735 1.899a.923.923 0 0 0-.289-.678.941.941 0 0 0-.692-.292.938.938 0 0 0-.694.292.925.925 0 0 0-.291.678c0 .269.098.499.291.693a.94.94 0 0 0 .694.29.943.943 0 0 0 .692-.29.947.947 0 0 0 .289-.693" style="fill:#575756;fill-opacity:1;fill-rule:nonzero;stroke:none" transform="matrix(3.33731 0 0 -3.33731 -11.116 440.809)"/><path d="M0 0c0 .971.364 1.803 1.096 2.495.729.696 1.658 1.045 2.778 1.045.878 0 1.702-.284 2.476-.849l-.498-1.196c-.674.519-1.332.78-1.978.78-.691 0-1.253-.22-1.683-.661-.43-.438-.644-.977-.644-1.614 0-.636.214-1.173.644-1.607.43-.436.992-.653 1.683-.653.652 0 1.321.256 2.004.767l.497-1.196a4.067 4.067 0 0 0-2.501-.835c-1.12 0-2.049.344-2.778 1.036C.364-1.8 0-.968 0 0" style="fill:#575756;fill-opacity:1;fill-rule:nonzero;stroke:none" transform="matrix(3.33731 0 0 -3.33731 932.153 337.45)"/><path d="M0 0h3.74c-.016.44-.201.84-.552 1.205-.347.361-.792.545-1.33.545-.555 0-1.012-.198-1.372-.592C.227.86.064.474 0 0m.026-1.211c.092-.412.285-.75.579-1.01.432-.394 1.001-.592 1.71-.592.746 0 1.439.275 2.085.822l.456-1.13c-.725-.628-1.585-.942-2.581-.942-1.141 0-2.065.323-2.778.968-.715.644-1.071 1.493-1.071 2.541 0 1.033.318 1.882.948 2.55.633.668 1.459 1.005 2.484 1.005 1.004 0 1.827-.333 2.469-.996.641-.666.961-1.484.961-2.463 0-.27-.022-.521-.066-.753z" style="fill:#575756;fill-opacity:1;fill-rule:nonzero;stroke:none" transform="matrix(3.33731 0 0 -3.33731 961.68 335.651)"/><path d="M0 0v-11.773h-4.911v7.43h-25.535V0Zm0-25.009v-13.76h-4.911v9.471h-25.981v4.289h13.236v5.807h-15.711v4.285h36.29v-4.285h-15.714v-5.807z" style="fill:#575756;fill-opacity:1;fill-rule:nonzero;stroke:none" transform="matrix(3.33731 0 0 -3.33731 672.425 142.142)"/><path d="M247.331 90.287h4.735V50.813h-4.735zm-8.275-.043h4.554V51.03h-4.554v20.405h-4.911v4.424h4.911zm-13.279-.219 11.021-32.133-4.116-1.679-6.905 20.266-6.815-20.572-4.203 1.672z" style="fill:#575756;fill-opacity:1;fill-rule:nonzero;stroke:none" transform="matrix(3.33731 0 0 -3.33731 -11.116 440.809)"/><path d="M0 0v7.515h-6.903v4.214H0v9.286h4.914V0Zm-3.272-10.005c0 1.475-.537 2.743-1.617 3.801-1.076 1.061-2.37 1.597-3.871 1.597-1.475 0-2.745-.536-3.806-1.597-1.06-1.058-1.594-2.326-1.594-3.801 0-1.51.534-2.783 1.594-3.823 1.061-1.046 2.331-1.572 3.806-1.572 1.501 0 2.795.526 3.871 1.572 1.08 1.04 1.617 2.313 1.617 3.823m4.821-.043a8.711 8.711 0 0 0-.813-3.734 10.36 10.36 0 0 0-2.196-3.077 10.213 10.213 0 0 0-3.252-2.108 10.445 10.445 0 0 0-4.004-.772c-1.388 0-2.714.258-3.984.772-1.271.517-2.36 1.222-3.274 2.108a10.232 10.232 0 0 0-2.189 3.077 8.6 8.6 0 0 0-.82 3.734c0 1.323.271 2.57.82 3.729a10.268 10.268 0 0 0 2.189 3.088c.914.88 2.003 1.583 3.274 2.097 1.27.526 2.596.781 3.984.781 1.417 0 2.751-.255 4.004-.781A10.237 10.237 0 0 0-1.46-3.231 10.396 10.396 0 0 0 .736-6.319a8.721 8.721 0 0 0 .813-3.729m-31.507 23.677v4.111h9.248v3.761h5.223V17.74h8.807v-4.111h-9.607l9.961-10.095L-9.514.529l-8.587 8.941-8.495-9.646-3.274 3.047 10.001 10.758z" style="fill:#575756;fill-opacity:1;fill-rule:nonzero;stroke:none" transform="matrix(3.33731 0 0 -3.33731 962.69 209.625)"/></svg>