<svg width="54" height="40" viewBox="0 0 54 40" fill="none" xmlns="http://www.w3.org/2000/svg">
<g clip-path="url(#clip0_616_3972)">
<path d="M34.7913 4.72198C38.6783 7.56245 38.1841 22.2788 37.9 27.1937C38.7961 27.2478 39.688 27.4614 40.5756 27.5283C40.8255 3.48756 34.6734 -0.000732422 34.6734 -0.000732422C31.6442 5.49226 31.5107 13.353 31.5107 13.353L31.7635 16.3116C32.7733 6.4163 34.7913 4.72341 34.7913 4.72341V4.72198Z" fill="#009D85"/>
<path d="M32.594 20.8463C32.594 20.8463 33.4006 23.6782 32.9575 26.8105C33.6875 26.8348 34.4174 26.8632 35.146 26.896C35.2908 24.504 35.3079 19.7443 33.3339 18.2507C33.3339 18.2507 31.7376 16.7757 29.001 16.4211L29.6287 18.7818C29.6287 18.7818 32.4221 19.2531 32.594 20.8463Z" fill="#E8421F"/>
<path d="M25.1252 15.7123C25.1252 15.7123 26.0369 18.426 26.3224 21.7164C26.4516 23.21 26.4828 25.2617 26.4857 26.7139C26.6731 26.7139 26.862 26.7125 27.0495 26.7125C27.7411 26.7125 28.4327 26.7168 29.1243 26.7253C29.0391 23.9475 28.6585 18.1356 27.0055 14.6516C25.3964 11.2644 24.212 11.0522 23.5275 10.7575C22.4439 10.403 20.4912 10.3446 20.4912 10.3446L20.7909 12.5273C20.7909 12.5273 24.2688 11.7015 25.1238 15.7137L25.1252 15.7123Z" fill="#152A8C"/>
<path d="M16.583 27.1728C16.495 24.8164 16.4978 20.2389 17.4493 15.482C18.8695 9.70997 20.122 7.70669 21.812 5.26489C21.812 5.26489 17.9535 6.85242 15.7394 13.3321C15.7394 13.3321 14.0693 17.8398 13.1846 27.5558C14.3108 27.4703 15.444 27.2397 16.583 27.1728Z" fill="#152A8C"/>
<path d="M0 30.8264C0 30.8264 12.0926 27.9105 27 27.9105C27 27.9105 43.133 27.9447 54 30.8264H0Z" fill="#152A8C"/>
<path d="M12.3832 33.3843H12.2724V33.4939V35.4175H11.372H11.2627V35.5271V36.3301V36.4397H11.372H12.2724V39.8882V39.9992H12.3832H13.4171H13.5264V39.8882V33.4939V33.3843H13.4171H12.3832Z" fill="#231815"/>
<path d="M10.8512 37.539C10.4209 36.8528 10.2037 36.2021 10.2037 35.6055V33.5453H8.94966V35.6055C8.94966 36.2092 8.73521 36.8713 8.31485 37.576C7.98679 38.1256 7.6559 38.5385 7.33494 38.8019L7.24121 38.8788L7.32784 38.9642L7.8746 39.5096L7.94277 39.5765L8.01946 39.5181C8.37308 39.249 8.69971 38.9116 8.99084 38.5129C9.25925 38.1413 9.46091 37.7626 9.59441 37.381C9.71796 37.7668 9.90542 38.1427 10.1582 38.5044C10.4408 38.9087 10.7689 39.2504 11.131 39.5181L11.202 39.5708L11.2688 39.5138L11.9064 38.9614L12.0016 38.8788L11.9078 38.7948C11.5201 38.4488 11.1651 38.0245 10.8541 37.5362L10.8512 37.539Z" fill="#231815"/>
<path d="M18.9327 35.9372C18.5336 35.5756 18.3263 35.1812 18.2965 34.7384H20.3074V33.7289H18.2894V33.1921H17.0481V33.7289H14.9435V34.7384H17.041C17.0112 35.1812 16.801 35.5741 16.3977 35.9372C15.9518 36.3416 15.4917 36.4654 14.7844 36.6221L14.6367 36.6548L14.7134 36.7858L15.0599 37.3809L15.0983 37.4478L15.175 37.4336L15.3596 37.3994C15.9092 37.2984 16.3054 37.2243 16.7442 36.9453C17.1362 36.6961 17.4415 36.4042 17.6545 36.0739C17.8619 36.4042 18.1658 36.6961 18.562 36.9453C18.9994 37.2243 19.3914 37.2969 19.9325 37.3994L20.1171 37.4336L20.1881 37.4478L20.2293 37.3866L20.6241 36.7915L20.7136 36.6576L20.5559 36.6235C19.843 36.4669 19.3786 36.343 18.9298 35.9386L18.9327 35.9372Z" fill="#231815"/>
<path d="M18.3391 38.8V37.1469V37.0359H18.2298H17.1959H17.0866V37.1469V38.8H15.0756H14.9648V38.911V39.6756V39.7852H15.0756H20.2194H20.3302V39.6756V38.911V38.8H20.2194H18.3391Z" fill="#231815"/>
<path d="M25.0326 36.4626L24.7472 36.2889L24.3964 36.0739L24.1138 35.9016C23.8965 35.7763 23.7162 35.6382 23.5784 35.4915C23.452 35.3563 23.3909 35.1911 23.3909 34.9832C23.3909 34.7754 23.4719 34.6074 23.6381 34.4607C23.8071 34.3126 24.0343 34.2372 24.3126 34.2372C24.6847 34.2372 25.0724 34.3112 25.4672 34.455L25.6149 34.5091V33.6363L25.5382 33.6121C25.159 33.494 24.76 33.4327 24.351 33.4327C23.7048 33.4327 23.2205 33.5922 22.9095 33.9083C22.5985 34.2229 22.4409 34.6173 22.4409 35.0786C22.4409 35.708 22.7902 36.2405 23.4776 36.6605L23.8454 36.8812L24.2061 37.099C24.537 37.2998 24.7657 37.4834 24.8807 37.6443C24.9943 37.8009 25.0497 37.9647 25.0497 38.1412C25.0497 38.2893 25.0085 38.4288 24.929 38.5555C24.8494 38.6837 24.733 38.7791 24.5725 38.8488C24.4092 38.92 24.2359 38.957 24.057 38.957C23.6082 38.957 23.1012 38.8189 22.5502 38.5484L22.3926 38.4701V39.4297L22.4636 39.4568C22.7916 39.5792 23.0615 39.6618 23.2674 39.7003C23.4747 39.7401 23.6934 39.7601 23.9178 39.7601C24.635 39.7601 25.1676 39.5878 25.5013 39.2489C25.8336 38.9101 26.0026 38.4986 26.0026 38.0259C26.0026 37.4051 25.6774 36.8797 25.0341 36.4654L25.0326 36.4626Z" fill="#231815"/>
<path d="M27.4608 38.729V36.935H29.3482H29.4576V36.8254V36.2416V36.132H29.3482H27.4608V34.4092H29.5754H29.6848V34.2996V33.7158V33.6062H29.5754H26.6201H26.5107V33.7158V39.4736V39.5847H26.6201H29.6237H29.7345V39.4736V38.8401V38.729H29.6237H27.4608Z" fill="#231815"/>
<path d="M32.1904 33.4327C31.5229 33.4327 31.0059 33.7289 30.6537 34.3112C30.3129 34.8765 30.1396 35.6453 30.1396 36.5936C30.1396 37.5418 30.3129 38.3135 30.6537 38.8802C31.0059 39.4625 31.5229 39.7586 32.1904 39.7586C32.8578 39.7586 33.3776 39.4625 33.7298 38.8802C34.0706 38.3135 34.2425 37.5446 34.2425 36.5936C34.2425 35.6425 34.0706 34.8779 33.7298 34.3112C33.379 33.7275 32.8607 33.4327 32.1904 33.4327ZM32.1904 38.9556C31.885 38.9556 31.6322 38.7734 31.422 38.3989C31.2019 38.0088 31.0897 37.4037 31.0897 36.5964C31.0897 35.7891 31.2019 35.184 31.422 34.7939C31.6337 34.4194 31.885 34.2372 32.1904 34.2372C32.4957 34.2372 32.7471 34.4194 32.9587 34.7939C33.1788 35.184 33.291 35.7905 33.291 36.5964C33.291 37.4023 33.1788 38.0088 32.9587 38.3989C32.7471 38.7734 32.4957 38.9556 32.1904 38.9556Z" fill="#231815"/>
<path d="M37.181 33.4327C36.7209 33.4327 36.2934 33.5623 35.9114 33.8186C35.5294 34.0749 35.2297 34.4536 35.021 34.9462C34.8151 35.4317 34.71 35.987 34.71 36.595C34.71 37.2029 34.8151 37.7653 35.0238 38.2537C35.2354 38.7478 35.5365 39.1265 35.9185 39.3785C36.302 39.6305 36.7266 39.7586 37.181 39.7586C37.5233 39.7586 37.9124 39.6732 38.3399 39.5066L38.4095 39.4796V38.5256L38.2433 38.6253C37.8755 38.8446 37.5091 38.957 37.1526 38.957C36.8927 38.957 36.6613 38.8688 36.4454 38.688C36.2267 38.5043 36.0435 38.2224 35.9015 37.8465C35.7566 37.4663 35.6828 37.0449 35.6828 36.595C35.6828 36.1451 35.7538 35.7364 35.8944 35.3591C36.0321 34.9889 36.2153 34.7042 36.4383 34.5148C36.657 34.3283 36.8913 34.2372 37.154 34.2372C37.5119 34.2372 37.8783 34.3482 38.2447 34.5661L38.4109 34.6657V33.7104L38.3413 33.6833C37.9138 33.5167 37.5247 33.4327 37.1825 33.4327H37.181Z" fill="#231815"/>
<path d="M41.7192 33.6062H41.6099V33.7158V36.0808H39.7835V33.7158V33.6062H39.6742H38.9428H38.832V33.7158V39.4736V39.5847H38.9428H39.6742H39.7835V39.4736V36.8838H41.6099V39.4736V39.5847H41.7192H42.4506H42.5599V39.4736V33.7158V33.6062H42.4506H41.7192Z" fill="#231815"/>
<path d="M46.64 34.3112C46.2892 33.7275 45.7708 33.4327 45.1005 33.4327C44.4302 33.4327 43.9161 33.7289 43.5639 34.3112C43.2216 34.8765 43.0498 35.6453 43.0498 36.5936C43.0498 37.5418 43.2231 38.3135 43.5639 38.8802C43.9161 39.4625 44.433 39.7586 45.1005 39.7586C45.768 39.7586 46.2892 39.4625 46.64 38.8802C46.9808 38.3135 47.1526 37.5446 47.1526 36.5936C47.1526 35.6425 46.9808 34.8779 46.64 34.3112ZM45.1005 38.9556C44.7952 38.9556 44.5438 38.7734 44.3322 38.3989C44.1121 38.0088 43.9999 37.4037 43.9999 36.5964C43.9999 35.7891 44.1121 35.184 44.3322 34.7939C44.5438 34.4194 44.7952 34.2372 45.1005 34.2372C45.4058 34.2372 45.6572 34.4194 45.8688 34.7939C46.0889 35.184 46.2011 35.7905 46.2011 36.5964C46.2011 37.4023 46.0889 38.0088 45.8688 38.3989C45.6572 38.7734 45.4058 38.9556 45.1005 38.9556Z" fill="#231815"/>
</g>
<defs>
<clipPath id="clip0_616_3972">
<rect width="54" height="40" fill="white"/>
</clipPath>
</defs>
</svg>
