<svg width="158" height="40" viewBox="0 0 158 40" fill="none" xmlns="http://www.w3.org/2000/svg">
<g clip-path="url(#clip0_616_3957)">
<path d="M22.8078 5.33671C22.8841 5.45571 22.9859 5.5577 22.9944 5.6767C23.1047 6.02519 23.427 6.23769 23.4694 6.58618C23.4864 6.70517 23.6391 6.75617 23.7154 6.80717C23.8002 6.91767 23.7409 7.04517 23.9105 7.20666C23.9869 7.25766 23.9275 7.38516 23.9445 7.50415C24.0208 7.55515 24.1056 7.60615 24.182 7.65715C24.903 8.78762 24.9708 10.0966 24.1396 11.3121C24.0038 11.4481 23.8766 11.6351 23.8257 11.822C23.7578 11.89 23.6136 11.958 23.5458 12.026C23.5627 12.145 23.6391 12.196 23.7239 12.3065C23.3592 12.4 23.3167 12.706 23.0453 12.91C22.969 12.91 22.8248 12.927 22.7484 12.9355C22.5448 13.1395 22.3328 13.216 22.1207 13.352C22.0528 13.42 22.0698 13.5985 22.0783 13.658C21.7305 13.93 21.23 14.1 20.7041 14.083C20.6363 14.083 20.5769 14.2785 20.509 14.2785C20.1358 14.3125 19.6947 14.2955 19.3215 14.3295C19.1688 14.287 19.084 14.1765 18.9228 14.1255C18.7786 14.1425 18.6259 14.151 18.4732 14.1085C18.2357 13.947 17.9303 13.9215 17.6928 13.8195C17.5401 13.777 17.2602 13.9215 17.099 13.8195C16.5986 13.386 16.1066 12.9525 15.8351 12.502C15.657 12.2215 15.3431 12.128 15.2414 11.839C15.2244 11.72 15.2838 11.5331 15.1311 11.4906C14.8257 11.3971 14.9529 11.2101 14.936 11.0316C14.8427 10.8616 14.8257 10.7426 14.6645 10.5811C14.5712 10.4111 14.69 10.1561 14.5967 9.92659C14.5967 9.8671 14.6561 9.7991 14.6476 9.7396C14.5373 9.39111 14.7154 9.01712 14.6815 8.71962C14.6645 8.54113 14.707 8.29464 14.7663 8.11614C14.9529 7.74215 15.1226 7.30016 15.4534 6.90917C15.4534 6.84967 15.4365 6.73067 15.428 6.67118C15.4958 6.60318 15.5722 6.59468 15.6316 6.52668C15.7503 6.22069 15.8691 5.96569 16.0642 5.7107C16.3271 5.38771 16.7428 5.10721 17.0821 4.77572C17.2856 4.58023 17.5656 4.42723 17.7522 4.11274C17.82 4.04474 18.0576 4.14674 18.1254 4.07874C18.329 3.88325 18.6259 3.90874 18.838 3.77275C19.05 3.63675 19.0076 3.93424 19.2197 3.85775C19.3639 3.84075 19.4317 3.78125 19.5759 3.70475C19.788 3.62825 20.034 3.78125 20.263 3.81525C20.4836 3.79825 20.7126 3.83225 20.9501 3.99374C21.2724 4.20624 22.0104 4.12974 22.1292 4.54623C22.3073 4.82672 22.6297 5.03922 22.8078 5.31971V5.33671Z" fill="#C2002F"/>
<path d="M35.2932 10.029C35.2932 9.84202 35.2932 9.73152 35.2169 9.53603C35.1999 9.34903 35.3441 9.14504 35.2762 8.89004C35.2338 8.82205 35.1405 8.74555 35.149 8.68605C35.2762 8.29506 35.2847 7.93807 35.2508 7.52158C35.2169 7.39408 35.1744 7.32608 35.132 7.25809C35.1405 7.19859 35.166 7.08809 35.1829 6.96909C35.1914 6.6121 35.0811 6.34861 34.9709 6.02562C34.9369 5.89812 34.8436 5.82162 34.8267 5.63463C34.7842 5.56663 34.6909 5.48163 34.6994 5.42213C34.7927 4.90364 34.5467 4.49566 34.4704 4.00267C34.3516 3.44168 33.8257 3.08469 33.6561 2.5152C33.6645 2.45571 33.8427 2.48121 33.8936 2.48971C34.3092 2.8807 34.7758 3.33968 34.886 3.90067C34.9624 4.09617 34.9284 4.26616 35.0133 4.40216C35.3695 4.83565 35.4289 5.38813 35.4968 5.94062C35.4883 6.00012 35.5986 5.96612 35.641 6.03412C35.6325 6.09361 35.607 6.20411 35.6495 6.27211C35.9209 6.5696 35.7513 6.89259 35.8106 7.19859C35.8446 7.32608 35.8785 7.39408 35.9209 7.46208C35.9124 7.52158 35.7767 7.67458 35.7597 7.72557C35.9803 8.01457 36.0736 8.38856 36.0142 8.73705C36.2687 8.85605 36.1499 9.18754 36.2093 9.43403C36.2517 9.50203 36.3026 9.51053 36.3535 9.52753C36.4214 9.42553 36.4977 9.32353 36.5232 9.20454C36.5571 8.73705 36.5741 8.32056 36.4892 7.88707C36.4214 7.69157 36.3959 7.50458 36.5316 7.36008C36.4299 7.33458 36.3959 7.20709 36.3535 7.13909C36.1669 6.38261 36.0906 5.53263 35.8615 4.75915C35.8615 4.75915 35.9209 4.71665 35.9379 4.65715C35.8615 3.97717 35.3441 3.33968 35.0981 2.6597C35.0557 2.5407 34.8606 2.38771 34.7673 2.26021C34.7673 2.26021 34.7673 2.20071 34.7842 2.14121C35.0472 2.17521 35.2508 2.43021 35.3865 2.6257C35.6664 3.01669 35.9803 3.45018 36.0651 3.89217C36.2093 4.28316 36.4299 4.69115 36.5147 5.07364C36.5741 5.32863 36.7522 5.49013 36.8794 5.70262C36.9473 5.89812 36.9134 6.06812 36.9303 6.25511C37.0067 6.6971 37.1339 7.11359 37.2187 7.55558C37.3205 7.87857 37.3714 8.24406 37.2611 8.51605C37.1169 9.01754 37.4478 9.57003 37.5835 10.0205C37.6598 10.216 37.5665 10.437 37.4817 10.5985C37.4732 10.658 37.5665 10.7345 37.5496 10.794C37.4562 11.015 37.5326 11.2105 37.4902 11.44C37.4308 11.4825 37.5665 11.6355 37.4902 11.7375C37.4308 11.7885 37.3799 11.7715 37.312 11.8225C37.2272 11.984 37.3036 12.1795 37.2696 12.3495C37.1 12.6724 37.1848 13.1059 36.8709 13.3354C36.7522 13.3694 36.7437 13.4289 36.6843 13.4714C36.7352 13.4799 36.7776 13.5479 36.8201 13.6244C36.7607 13.6669 36.7013 13.6584 36.6419 13.7009C36.625 13.8114 36.8455 13.9559 36.8879 14.0239C36.8031 14.4829 36.4638 14.8824 36.4723 15.4264C36.4468 15.5369 36.4214 15.7154 36.3959 15.8259C36.2941 16.0979 36.0906 16.2934 35.9888 16.5739C35.9718 16.6843 35.7513 16.7013 35.7258 16.8118C35.5901 16.9563 35.5986 17.2028 35.5053 17.4238C35.4289 17.5258 35.2762 17.4918 35.149 17.5853C35.0048 17.7893 35.0218 17.9763 34.9284 18.1888C34.7673 18.4523 34.5807 18.7413 34.428 19.0048C34.2498 19.3873 33.9529 19.7443 33.6306 20.0333C33.5797 20.0248 33.461 20.0588 33.4016 20.1013C33.2319 20.4243 33.0453 20.6622 32.6891 20.8237C32.6382 20.8152 32.5618 21.0617 32.4939 21.1042C32.248 21.2827 32.1122 21.4952 31.8153 21.6652C31.7051 21.6992 31.6457 21.7417 31.5185 21.5377C31.1283 22.2262 30.6108 22.7617 30.051 23.2377C29.7541 23.4077 29.4572 23.3907 29.2621 23.5862C28.6174 24.2152 27.5995 24.8866 27.4892 24.9801C27.4383 24.9716 27.2432 25.2606 27.2432 25.2606C27.0397 25.2776 27.1584 25.2946 26.9633 25.2606C26.9633 25.2606 26.9548 25.5836 26.6919 25.6346C26.1405 25.7451 25.9963 26.3826 25.9539 26.6461C25.9285 26.7821 25.8436 26.6886 25.7758 26.7396C25.7164 26.7906 25.7588 26.8756 25.6909 26.9266C25.4534 27.0711 25.2414 27.3686 25.0463 27.5981C24.9869 27.6491 24.9445 27.5726 24.8766 27.6236C24.8172 27.6746 24.5204 28.0401 24.4186 28.3631C24.1641 28.924 23.8926 29.4255 23.5449 29.8165C23.46 29.91 23.74 30.284 23.723 30.4115C23.6466 30.59 23.4855 30.6155 23.4091 30.794C23.3413 31.2275 23.3158 31.7205 23.2395 32.188C23.1122 32.6384 23.2734 32.9614 23.3328 33.3694C23.4007 33.7094 23.3158 34.1514 23.3328 34.4829C23.3582 34.7464 23.5364 35.0439 23.5109 35.2989C23.5194 35.6984 23.4261 35.6474 23.5109 35.9789C23.5024 36.1744 23.4346 36.3699 23.477 36.4974C23.46 36.7608 23.4176 36.9223 23.4091 37.1773C23.3498 37.2368 23.2395 37.3643 23.2395 37.4238C23.1971 38.0783 22.7729 38.6478 22.3319 39.0813C22.0519 39.2598 21.8144 39.5318 21.5006 39.5063C21.3394 39.4978 20.8135 39.8293 20.6353 39.8718C20.1688 39.9993 19.7956 40.0078 19.346 39.9398C18.854 39.8038 18.4553 39.6848 18.116 39.1748C17.9124 38.9453 17.5647 39.0303 17.4374 38.6818C17.395 38.5458 17.1151 38.4693 17.0642 38.4013C16.8012 38.1718 16.6655 37.8828 16.4704 37.5938C16.3432 37.2453 16.4365 37.0073 16.2753 36.6758C16.1141 36.4719 16.0463 36.3274 15.8851 36.1149C15.673 35.8429 15.936 35.4519 15.7748 35.1799C15.6646 35.1034 15.5543 34.9674 15.5034 34.8314C15.4016 34.5679 15.4271 34.1769 15.2659 33.8964C15.1811 33.5564 15.232 32.324 15.2998 31.9925C15.3083 31.9245 15.1217 31.831 15.1302 31.763C15.1556 31.287 15.3253 30.8195 15.2828 30.3265C15.3337 30.063 15.3083 29.8505 15.5458 29.621C15.5458 29.621 15.4355 29.5275 15.444 29.4595C15.5797 29.077 15.5797 28.7795 15.6561 28.3801C15.6646 28.3121 15.8088 28.2696 15.8173 28.2101C15.7409 27.9211 15.7324 27.3261 15.7833 27.0626C15.8088 26.9266 16.1481 26.7311 16.2329 26.6121C16.2414 26.5441 16.182 26.3741 16.3092 26.1446C16.3432 26.0851 16.428 26.1021 16.4959 26.0511C16.5043 25.9831 16.4619 25.9066 16.4789 25.8386C16.5128 25.6431 16.8436 25.4986 16.8691 25.3626C17.0048 24.9121 17.2254 24.7251 17.4629 24.3597C17.5477 24.1982 17.5816 24.0282 17.7173 23.8752C17.7767 23.8327 17.8107 23.8752 17.8191 23.8157C17.8276 23.7562 17.8022 23.6287 17.8107 23.5777C17.9464 23.4247 18.1245 23.2887 18.1584 23.1187C18.2517 22.8977 18.3281 22.7447 18.4638 22.5917C18.7098 22.4047 18.9558 22.2262 19.1085 21.9627C19.2442 21.8097 19.3969 21.8437 19.5241 21.6992C19.7192 21.5037 19.7701 21.2147 19.9143 21.0107C20.2536 20.6112 20.6184 20.3308 20.9831 20.0588C21.2885 19.8293 21.6787 19.7358 21.9756 19.5658C22.281 19.3363 22.4676 18.9028 22.7645 18.7328C22.9426 18.5968 23.1631 18.5798 23.3498 18.4438C23.5364 18.3078 23.6891 18.0443 23.9605 17.9848C24.5712 17.8233 24.1302 17.9933 24.707 17.7638C25.0632 17.5428 24.919 17.4833 25.2753 17.2708C25.8691 16.9223 26.1744 16.7098 26.2253 16.7183C26.2847 16.6758 26.3441 16.6249 26.3695 16.5144C26.5138 16.3104 27.2687 15.7749 27.379 15.7409C27.4892 15.7069 27.625 15.8514 27.7522 15.7069C27.8201 15.6049 27.6843 15.5114 27.7522 15.4094C27.9473 15.2139 28.1339 14.9504 28.3205 14.8144C28.3799 14.7719 28.5326 14.8569 28.6429 14.8229C28.7023 14.7804 28.7277 14.6614 28.7871 14.6189C28.8634 14.5169 28.7277 14.3639 28.7956 14.2619C28.8804 14.1004 28.9652 13.9389 29.0755 13.9049C29.2536 13.8284 29.4911 13.7009 29.4657 13.5734C29.5081 13.3439 29.6014 13.1229 29.8389 12.9954C29.8474 12.9359 29.8644 12.8764 29.8728 12.8254C30.0086 12.6725 30.1358 12.5875 30.2715 12.4345C30.4157 12.2305 30.3563 11.9755 30.4412 11.814C30.7126 11.5165 30.9756 11.2785 31.0434 10.8705C31.0265 10.6835 30.9077 10.42 30.9925 10.2585C31.0604 10.1565 31.2894 10.0885 31.3149 9.97802C31.3573 9.74852 31.2385 9.48503 31.2301 9.24704C31.264 9.07704 31.4506 8.93254 31.4251 8.75405C31.4082 8.26956 31.4336 7.80207 31.3658 7.30908C31.5269 7.28359 31.5524 7.17309 31.5694 7.05409C31.5269 6.6886 31.3149 6.34861 31.2216 5.96612C31.2131 5.72812 31.4082 5.53263 31.3997 5.29463C31.3743 5.10764 31.2046 4.89514 31.0095 4.73365C30.8314 4.51265 30.9501 4.18116 30.8823 3.93467C30.8314 3.62868 30.6023 3.39068 30.5599 3.02519C30.543 2.8382 30.3224 2.8552 30.2461 2.6597C30.1867 2.40471 30.1188 2.15821 30.1188 1.85222C30.0849 1.72472 29.9237 1.75022 29.8304 1.67373C29.6184 1.32523 29.6947 0.628252 29.2366 0.466756C29.2791 0.237262 29.067 0.186263 28.9991 -0.000732422C29.2706 -0.000732422 29.5251 0.109765 29.6777 0.449756C29.7202 0.517755 29.8728 0.551754 29.9237 0.568753C30.0595 0.71325 30.051 1.07024 30.1952 1.16374C30.3818 1.32523 30.6617 1.26574 30.7381 1.46123C30.8399 1.78422 31.0858 1.95422 31.1961 2.21771C31.1876 2.27721 31.2131 2.40471 31.2555 2.47271C31.4421 2.6342 31.4676 2.8127 31.5948 2.96569C31.9087 3.33118 32.2225 3.70517 32.0783 4.20666C31.985 4.42766 32.2649 4.36816 32.3497 4.50415C32.5618 4.85265 32.477 5.31163 32.7484 5.60913C32.6975 6.19561 32.9775 6.7311 33.1556 7.24959C32.8502 7.71707 33.0199 8.54155 33.2574 9.01754C33.2574 9.01754 33.427 8.99204 33.4355 8.94104C33.4864 8.66055 34.0038 8.55855 33.919 8.42256C33.8172 8.09956 33.6561 7.42808 33.6561 7.13059C33.69 6.6546 33.707 6.24661 33.6306 5.75362C33.5882 5.68563 33.5458 5.61763 33.5034 5.54963C33.444 5.29463 33.3761 5.03964 33.427 4.75915C33.3931 4.63165 33.2998 4.55515 33.2659 4.42766C33.2743 4.36816 33.2998 4.25766 33.3083 4.19816C33.427 4.16416 33.5712 4.25766 33.673 4.28316C33.7663 4.35966 33.6815 4.52115 33.7239 4.58915C33.8936 4.86115 34.1396 4.98014 34.1905 5.28613C34.182 5.34563 34.1565 5.45613 34.148 5.51563C34.1905 5.88112 34.411 6.17011 34.4619 6.47611C34.4874 6.6546 34.3262 6.91809 34.4025 7.12209C34.64 7.58958 34.6485 8.13356 34.6146 8.66055C34.5722 8.89004 34.8606 9.07704 34.7842 9.23004C34.6994 9.39153 34.8097 9.41703 34.7249 9.57853C34.7164 9.63803 34.5976 9.67202 34.5891 9.73152C34.7418 10.063 34.5128 10.5645 34.4534 10.8535C34.4449 10.913 34.6316 10.9725 34.674 10.76C34.6994 10.6325 34.9115 10.6325 35.0302 10.5985C35.1575 10.505 35.2508 10.284 35.2423 10.046L35.2932 10.029ZM36.4129 11.1765C36.4214 10.8875 36.5571 10.675 36.5062 10.3605C36.4044 10.0375 36.1669 10.3605 35.9972 10.3775C36.0906 10.76 35.9379 11.015 35.8191 11.355C35.7513 11.457 35.6919 11.746 35.8615 11.7205C36.1245 11.78 36.4044 11.525 36.4129 11.1765ZM35.9718 12.7489C36.0397 12.6554 36.0057 12.4685 35.9124 12.392C35.7682 12.2985 35.5816 12.443 35.4968 12.596C35.4119 12.7574 35.4798 13.0124 35.7004 12.9954C35.7513 13.0039 35.9039 12.8509 35.9803 12.7489H35.9718Z" fill="#0081C8"/>
<path d="M32.9015 2.95705C33.1815 3.16954 33.2917 3.51804 33.5123 3.80703L33.4868 3.92602C33.1051 4.25752 32.7658 3.70503 32.664 3.38204C32.5113 3.05055 32.3502 2.71906 32.0702 2.47256C32.0787 2.41306 32.0957 2.36206 32.1042 2.30257C31.9684 2.14957 31.7903 1.93707 31.9684 1.85208C32.0448 1.75008 32.172 1.95407 32.3162 2.04757C32.5368 2.33656 32.5792 2.70206 32.91 2.95705H32.9015Z" fill="#0081C8"/>
<path d="M34.4789 1.48713C34.4789 1.54663 34.3856 1.64863 34.3771 1.69963C34.199 1.52963 34.0123 1.35963 33.8597 1.07914C33.8088 1.06214 33.707 1.03664 33.6646 0.968645C33.6137 0.951645 33.6221 0.900646 33.6391 0.841148C33.8088 0.824148 33.936 0.977144 34.0802 1.07914C34.1311 1.09614 34.199 1.05364 34.2499 1.06214C34.3941 1.15564 34.4704 1.30014 34.4874 1.48713H34.4789Z" fill="#0081C8"/>
<path d="M10.915 12.0437C10.9659 12.0862 11.0422 12.1542 11.0762 12.2052C11.161 12.2647 11.2458 12.2647 11.3391 12.2307C11.424 12.2307 11.5003 12.4602 11.5936 12.4687C11.7209 12.5282 11.7972 12.7492 11.9244 12.8597C12.0093 12.9107 12.0941 12.9957 12.1789 13.0467C12.2977 13.1997 12.374 13.3527 12.5012 13.4547C12.5776 13.5567 12.7133 13.5227 12.8066 13.5227C12.9763 13.5822 13.0441 13.8287 13.1629 13.9817C13.2053 13.9817 13.2816 14.1347 13.2816 14.1857C13.3665 14.2367 13.4428 14.3387 13.57 14.3982C13.604 14.4492 13.604 14.5427 13.6379 14.5937C13.9518 15.1037 14.3674 15.4267 14.6304 15.9706C14.6304 15.9706 14.6643 16.0726 14.6643 16.1151C14.9866 16.4296 15.1308 16.8801 15.4108 17.2371C15.4871 17.3901 15.555 17.6366 15.6313 17.8321C15.7161 17.9341 15.7925 17.9936 15.8773 18.0956C15.9961 18.2996 16.1063 18.5461 16.1318 18.7926C16.1318 18.8861 16.0639 19.1751 15.8943 19.0136C15.6907 18.8011 15.7077 18.5206 15.5041 18.3591C15.5041 18.3081 15.4532 18.1891 15.4108 18.1381C15.3259 18.0361 15.1817 18.0446 15.1478 17.9001C15.1563 17.7556 14.9951 17.6366 14.9188 17.5431C14.7152 17.2456 14.4098 17.1351 14.1638 16.8376C14.1214 16.8376 14.0705 16.8376 14.0281 16.8801C13.9857 16.9736 13.85 17.1096 13.9687 17.2626C14.1384 17.3646 14.2232 17.5601 14.4353 17.6706C14.5625 17.7726 14.5964 18.0616 14.6728 18.3081C14.7576 18.4101 14.8424 18.5036 14.9697 18.5631C15.0969 18.6651 15.046 18.8181 15.1648 18.9711C15.1648 19.0221 15.1139 19.0646 15.1139 19.1071C15.1902 19.2601 15.3683 19.2261 15.4871 19.3791C15.5804 19.2941 15.7077 19.3621 15.784 19.4981C15.6398 19.634 15.6822 19.7275 15.6228 19.872C15.4786 20.1015 15.8094 20.3225 16.0215 20.433C16.1572 20.4415 16.1318 20.6795 16.259 20.79C16.3354 20.943 16.5559 20.96 16.6662 21.164C16.7001 21.266 16.6153 21.3 16.5644 21.3935C16.5559 21.538 16.7256 21.5975 16.8104 21.657C16.8952 21.7165 16.9291 21.81 16.9631 21.912C16.8273 21.946 16.5729 21.7675 16.4372 21.759C16.3523 21.725 16.1996 21.538 16.03 21.4955C15.9706 21.4785 15.9282 21.623 15.8688 21.606C15.7925 21.589 15.7077 21.572 15.6228 21.555C15.5295 21.538 15.309 21.2915 15.2157 21.283C15.1054 21.266 14.9697 21.4615 14.8679 21.4445C14.4777 21.3765 14.4607 21.351 14.3335 21.3C14.1893 21.2405 14.0451 21.1725 13.9178 21.096C13.833 21.0535 13.8585 20.9345 13.7736 20.8835C13.6973 20.8325 13.5192 20.8325 13.4428 20.7815C13.129 20.586 12.8321 20.1525 12.5606 20.008C12.3825 19.9145 12.2383 19.821 12.0347 19.7275C11.9414 19.668 11.8651 19.5321 11.7463 19.4896C11.3731 19.3621 11.0762 19.1326 10.6605 19.0136C9.86317 18.7841 9.20153 19.2431 8.54838 19.5831C8.51444 19.5831 8.44658 19.583 8.41265 19.6C8.25997 19.7275 8.09032 19.7955 7.93763 19.8975C7.73405 20.059 7.45413 20.1015 7.23358 20.229C7.16572 20.2715 7.15724 20.399 7.08938 20.4415C6.98759 20.501 6.79249 20.518 6.6907 20.5775C6.59739 20.637 6.58891 20.7475 6.4956 20.824C6.30898 20.977 6.13085 21.096 5.87637 21.215C5.73217 21.2915 4.53613 21.4955 4.34103 21.4955C4.03566 21.4955 3.81511 21.7505 3.35705 21.7505C2.66148 21.7505 1.95743 21.7335 1.38062 21.3C1.26186 21.198 1.23641 20.9005 1.15159 20.8495C0.897112 20.688 0.92256 20.348 0.854699 20.1015C0.769874 20.0505 0.600222 20.0335 0.608705 19.889C0.702013 19.1751 1.05828 18.5291 1.49089 18.0361C1.59268 17.8491 1.81323 17.7726 1.83868 17.5346C1.83868 17.5346 2.22887 16.9906 2.46638 16.7696C2.51728 16.6761 2.44094 16.5231 2.49183 16.4381C2.8481 15.7411 3.49277 15.2652 4.02717 14.6362C4.17138 14.5002 4.26469 14.3217 4.49371 14.2877C4.58702 14.2877 4.67185 14.3047 4.72274 14.2112C4.82453 13.9817 5.01115 13.8542 5.14687 13.7607C5.65582 13.4122 6.07995 12.8937 6.65677 12.8002C6.75007 12.7577 6.80097 12.6642 6.88579 12.6217C6.9791 12.5367 7.14875 12.6387 7.24206 12.6047C7.67467 12.4092 8.06487 11.9927 8.50596 11.9332C8.59927 11.8907 8.65017 11.7972 8.69258 11.8057C9.08278 11.8397 9.54932 11.4913 9.91407 11.8567C10.2449 11.7887 10.7454 11.8567 10.9489 12.0352L10.915 12.0437ZM13.9178 16.2511C13.9178 16.2001 13.9178 16.1576 13.9178 16.1066C13.7482 16.0046 13.6718 15.7071 13.4513 15.6476C13.4089 15.6476 13.3156 15.6901 13.3156 15.7411C13.3071 16.0301 13.4258 16.2256 13.5446 16.4721C13.5955 16.2851 13.7227 16.2936 13.8076 16.4381C13.85 16.3956 13.9009 16.3021 13.9009 16.2511H13.9178Z" fill="#00943B"/>
<path d="M55.7624 29.6984L53.786 31.7638L48.2893 26.392C47.5683 27.6754 46.703 28.7634 45.7021 29.6644C44.7012 30.5569 43.7002 31.2878 42.7078 31.8488L40.7822 29.6474C41.868 29.1034 42.7926 28.4744 43.556 27.7519C44.3195 27.0294 44.9472 26.2645 45.4391 25.474C45.9227 24.675 46.2789 23.8675 46.508 23.0345C46.7285 22.2016 46.8473 21.3856 46.8473 20.5951V16.7957H49.884V20.0511C49.884 20.6886 49.8416 21.2921 49.7653 21.8701C49.6804 22.4481 49.5786 23.009 49.4514 23.553L55.7624 29.7154V29.6984ZM62.048 39.0311H59.1724V24.4795H53.1837V21.7086H59.1724V14.3223H62.048V39.0226V39.0311Z" fill="#231815"/>
<path d="M88.039 28.2361H77.7751V29.5961H82.8647V35.9709H73.0334V37.1949H83.5178V39.9658H70.056V33.3445H79.8618V32.2565H69.9203V29.5961H74.8741V28.2361H64.8223V25.5247H88.039V28.2361ZM82.6187 19.4983C82.6187 20.2803 82.449 20.9858 82.1182 21.6318C81.7874 22.2778 81.3378 22.8303 80.7779 23.2977C80.2011 23.7482 79.514 24.1052 78.7337 24.3602C77.9448 24.6152 77.0965 24.7427 76.1719 24.7427C75.3067 24.7427 74.4924 24.6237 73.7205 24.3857C72.9485 24.1477 72.2699 23.8077 71.6762 23.3572C71.0994 22.9068 70.6413 22.3543 70.3105 21.7168C69.9797 21.0708 69.81 20.3483 69.81 19.5323C69.81 18.7164 69.9712 17.9769 70.2935 17.3224C70.6159 16.6594 71.0739 16.0984 71.6507 15.6224C72.2106 15.155 72.8807 14.7895 73.6526 14.5345C74.4245 14.2795 75.2643 14.152 76.1719 14.152C77.0796 14.152 77.8939 14.2795 78.6743 14.5345C79.4632 14.7895 80.1418 15.1465 80.7186 15.6224C81.2954 16.0729 81.7534 16.6339 82.1012 17.2884C82.4405 17.9514 82.6187 18.6909 82.6187 19.4983ZM79.6413 19.4643C79.6413 18.6144 79.302 17.9429 78.6149 17.4584C77.9278 16.9654 77.1135 16.7274 76.1804 16.7274C75.2473 16.7274 74.3906 16.9654 73.7289 17.4499C73.0673 17.9259 72.745 18.6059 72.745 19.4728C72.745 20.3398 73.0758 20.9603 73.7289 21.4278C74.3906 21.8953 75.2049 22.1333 76.1804 22.1333C77.1559 22.1333 77.9278 21.9208 78.6149 21.4873C79.302 21.0538 79.6413 20.3823 79.6413 19.4813V19.4643Z" fill="#231815"/>
<path d="M112.426 30.0121H89.2432V27.2752H112.426V30.0121ZM107.387 39.9568H104.486V34.296H94.1121V31.5251H107.387V39.9568ZM107.336 25.8557H94.2224V15.163H107.167V17.8999H97.0895V19.0644H106.844V21.8353H97.0895V23.1103H107.328V25.8472L107.336 25.8557Z" fill="#231815"/>
<path d="M125.43 26.9529H114.402V15.6652H117.269V18.9207H122.529V15.6652H125.43V26.9529ZM122.529 24.216V21.6661H117.269V24.216H122.529ZM133.581 39.9576H120.281V33.1408H129.951V31.7298H120.145V28.9844H132.928V35.8012H123.318V37.2122H133.581V39.9491V39.9576ZM133.802 28.2024H130.96V25.5675H126.303V22.8476H130.96V20.8926H126.303V18.1472H130.96V14.3223H133.802V28.1939V28.2024Z" fill="#231815"/>
<path d="M151.471 29.7827L149.495 31.8481L144.024 26.4508C143.32 27.7512 142.463 28.8562 141.462 29.7487C140.461 30.6412 139.443 31.3722 138.417 31.9331L136.491 29.7317C137.594 29.1367 138.527 28.4737 139.299 27.7512C140.062 27.0288 140.69 26.2723 141.182 25.4988C141.649 24.6998 141.996 23.9008 142.225 23.0849C142.454 22.2689 142.565 21.4614 142.565 20.6709V16.7865H145.601V20.1269C145.601 20.7644 145.559 21.3594 145.483 21.9289C145.398 22.4984 145.296 23.0424 145.169 23.5693L151.48 29.7827H151.471ZM157.401 39.0305H154.5V14.3301H157.401V39.0305Z" fill="#231815"/>
</g>
<defs>
<clipPath id="clip0_616_3957">
<rect width="156.8" height="40" fill="white" transform="translate(0.599609)"/>
</clipPath>
</defs>
</svg>
