<svg xmlns="http://www.w3.org/2000/svg" xml:space="preserve" width="1019.6511" height="165.3768" viewBox="0 0 1019.6511 165.3768"><defs><clipPath id="a" clipPathUnits="userSpaceOnUse"><path d="M0 14400h14400V0H0Z"/></clipPath></defs><g clip-path="url(#a)" style="stroke-width:.630139" transform="matrix(2.11593 0 0 -2.11593 -14727.965 15314.294)"><g style="stroke-width:.630139"><path d="M0 0c-5.242-.8-12.949-1.258-17.621-1.316l-4.109-.056v15.397h15.8v5.593h-22.476V-6.79l9.871.059c4.219 0 14.484.681 18.535 1.476zm-19.387-13.12v-16.483h29.485v5.528h-22.817v10.955ZM9.297 7.638v14.263H2.684V-15.86h6.613V2.05h7.246v5.588Zm-54.985.232h-4.675v13.12h-6.274v-42.608h6.274V1.824h4.675v-24.759h6.504v44.723h-6.504zm-27.492 5.474v-1.996c0-3.367-.57-7.304-1.707-9.867-1.375-3.197-4.168-6.619-8.047-9.869l4.051-3.937c2.735 1.996 4.391 3.765 6.043 5.82 1.598 1.996 2.856 3.762 3.195 4.563.348-.801 1.543-2.512 3.137-4.395 1.594-1.935 3.199-3.59 5.707-5.246l3.363 3.937c-3.425 2.965-5.992 6.049-7.246 8.782-1.308 2.74-1.937 6.734-1.937 10.326v1.882h6.961v5.648h-20.707v-5.648ZM-93.313 2.107v19.681h-6.562V-22.36h6.562v18.933h7.188v5.534zm-18.71 3.081c0-3.194-2.793-5.93-5.645-5.93-2.855 0-5.648 2.736-5.648 5.93 0 3.25 2.793 5.988 5.648 5.988 2.852 0 5.645-2.738 5.645-5.988m-2.051 12.662v5.591h-6.844V17.85h-10.727v-5.36h5.477c-1.887-1.94-3.137-4.566-3.137-7.472 0-5.079 3.305-9.359 8.043-10.777v-3.883c-1.828 0-3.535-.058-5.136-.058h-7.184v-5.305l9.184.055c7.355.058 18.199.801 22.699 1.431v5.186c-2.91-.336-7.645-.684-12.606-1.027v3.543c4.903 1.363 8.328 5.701 8.328 10.835 0 2.906-1.253 5.532-3.195 7.472h5.192v5.36zm-55.899-2.852h16.023V6.046h-16.023zM-176.648.735h29.547v19.566h-29.547zm-.227-13.744v-16.484h30.855v5.537h-23.953v10.947zm12.664 3.711v-9.527h6.902v9.527h19.161v5.418h-47.114v-5.418zm-55.445 21.558c0 3.534 2.91 6.276 6.504 6.276s6.504-2.742 6.504-6.276c0-3.476-2.965-6.334-6.504-6.334s-6.504 2.858-6.504 6.334m6.504 11.692c-7.071 0-12.779-5.305-12.779-11.692 0-6.447 5.708-11.693 12.779-11.693s12.773 5.246 12.773 11.693c0 6.387-5.703 11.692-12.773 11.692m-3.422-29.945v-3.305h-11.298v-5.137h22.309v-2.566h-22.309v-12.66h30.29v5.183h-23.211v2.627h22.242v12.553h-11.008v3.305h20.532V-.8h-48.085v-5.193zm-39.636-.858c-4.275 2.686-7.471 5.821-9.244 9.189-1.709 3.134-2.619 7.756-2.619 12.372v4.964h-6.903v-5.246c0-4.279-.742-8.556-2.337-11.58-1.768-3.365-5.588-7.415-10.155-10.552l4.166-4.219c2.164 1.367 4.791 3.535 7.071 5.817 2.056 1.996 3.824 4.106 4.791 5.818 1.084-1.941 2.968-4.104 5.076-6.104 2.054-1.941 4.392-3.707 6.33-4.789zm3.936 17.345h-9.639V4.846h9.639v-27.382h6.668v44.378h-6.668z" style="fill:#595b53;fill-opacity:1;fill-rule:nonzero;stroke:none;stroke-width:.630139" transform="translate(7425.85 7202.189)"/></g><path d="M7033.646 7224.254h-7.197v7.162h7.197zm-13.418-6.191h19.645v19.538h-19.645z" style="fill:#f49e00;fill-opacity:1;fill-rule:nonzero;stroke:none;stroke-width:.630139"/><g style="stroke-width:.630139"><path d="M0 0v6.513h-6.551V-6.516H6.547V0Z" style="fill:#f49e00;fill-opacity:1;fill-rule:nonzero;stroke:none;stroke-width:.630139" transform="translate(7052.968 7231.09)"/></g><g style="stroke-width:.630139"><path d="M0 0v6.514h-6.547V-6.51H6.549V0Z" style="fill:#f49e00;fill-opacity:1;fill-rule:nonzero;stroke:none;stroke-width:.630139" transform="translate(7026.774 7192.01)"/></g><g style="stroke-width:.630139"><path d="M0 0v-6.513h6.549v13.03H-6.547V0Z" style="fill:#f49e00;fill-opacity:1;fill-rule:nonzero;stroke:none;stroke-width:.630139" transform="translate(7026.774 7205.036)"/></g><g style="stroke-width:.630139"><path d="M0 0h-6.553v6.51H-13.1v-19.539h6.547v6.512H0Z" style="fill:#f49e00;fill-opacity:1;fill-rule:nonzero;stroke:none;stroke-width:.630139" transform="translate(7079.161 7211.553)"/></g><g style="stroke-width:.630139"><path d="M0 0c2.17 0 3.93-1.75 3.93-3.906 0-2.159-1.76-3.912-3.93-3.912s-3.932 1.753-3.932 3.912C-3.932-1.75-2.17 0 0 0m3.273-13.124C7.088-11.782 9.82-8.162 9.82-3.906c0 5.392-4.398 9.768-9.82 9.768-5.432 0-9.822-4.376-9.822-9.768 0-4.256 2.736-7.876 6.547-9.218v-7.066h-6.547v-6.514H9.82v6.514H3.273Z" style="fill:#f49e00;fill-opacity:1;fill-rule:nonzero;stroke:none;stroke-width:.630139" transform="translate(7049.694 7212.2)"/></g><g style="stroke-width:.630139"><path d="M0 0v6.514h-6.555V-6.512h13.1V0Z" style="fill:#f49e00;fill-opacity:1;fill-rule:nonzero;stroke:none;stroke-width:.630139" transform="translate(7007.13 7178.982)"/></g><g style="stroke-width:.630139"><path d="M0 0v-13.028h6.551V6.517h-13.1V0Z" style="fill:#f49e00;fill-opacity:1;fill-rule:nonzero;stroke:none;stroke-width:.630139" transform="translate(6987.485 7205.036)"/></g><g style="stroke-width:.630139"><path d="M0 0v6.517h-13.1v-19.545h6.555v-6.51H0v13.025h-6.545V0Z" style="fill:#f49e00;fill-opacity:1;fill-rule:nonzero;stroke:none;stroke-width:.630139" transform="translate(7013.675 7205.036)"/></g><g style="stroke-width:.630139"><path d="M0 0v6.512h-13.1v-19.539H0v6.511h-6.553V0Z" style="fill:#f49e00;fill-opacity:1;fill-rule:nonzero;stroke:none;stroke-width:.630139" transform="translate(7079.161 7185.498)"/></g><g style="stroke-width:.630139"><path d="M0 0v6.512h-6.547V-6.512H6.545V0Z" style="fill:#f49e00;fill-opacity:1;fill-rule:nonzero;stroke:none;stroke-width:.630139" transform="translate(7085.708 7165.957)"/></g><g style="stroke-width:.630139"><path d="M0 0v6.512h-6.551v-19.537H0v6.511h6.547v-6.511h6.545V0Z" style="fill:#f49e00;fill-opacity:1;fill-rule:nonzero;stroke:none;stroke-width:.630139" transform="translate(7052.968 7172.47)"/></g><g style="stroke-width:.630139"><path d="M0 0h-6.549v6.512h-6.543v-19.539h6.543v6.511H0Z" style="fill:#f49e00;fill-opacity:1;fill-rule:nonzero;stroke:none;stroke-width:.630139" transform="translate(7098.802 7185.498)"/></g><g style="stroke-width:.630139"><path d="M0 0h5.451v6.512h-19.646V0h5.445l-5.705-13.025H-7.6l3.225 7.355 3.229-7.355h6.859z" style="fill:#f49e00;fill-opacity:1;fill-rule:nonzero;stroke:none;stroke-width:.630139" transform="translate(7034.42 7172.47)"/></g><g style="stroke-width:.630139"><path d="M0 0c-2.174 0-3.93 1.75-3.93 3.906 0 2.158 1.756 3.907 3.93 3.907a3.914 3.914 0 0 0 3.928-3.907C3.928 1.75 2.174 0 0 0m0 13.675c-5.426 0-9.82-4.372-9.82-9.769S-5.426-5.863 0-5.863c5.428 0 9.818 4.372 9.818 9.769S5.428 13.675 0 13.675" style="fill:#f49e00;fill-opacity:1;fill-rule:nonzero;stroke:none;stroke-width:.630139" transform="translate(7003.855 7223.926)"/></g><g style="stroke-width:.630139"><path d="M0 0h6.947l3.666 9.118L14.273 0h6.948L10.613 23.448Z" style="fill:#f49e00;fill-opacity:1;fill-rule:nonzero;stroke:none;stroke-width:.630139" transform="translate(6960.501 7192.01)"/></g><path d="M7118.999 7159.445h1.426v78.155h-1.426z" style="fill:#f49e00;fill-opacity:1;fill-rule:nonzero;stroke:none;stroke-width:.630139"/></g></svg>