<svg xmlns="http://www.w3.org/2000/svg" width="1145.046" height="300.001" viewBox="0 0 1145.046 300.001"><path d="M299.833 143.323c.106 2.195.169 4.376.183 6.55v.119c0 69.396-47.116 127.79-111.118 144.921a151.574 151.574 0 0 1-32.131 4.93c-3.269.148-6.524.19-9.758.134C71.095 298.49 9.008 240.608.898 166.492a145.285 145.285 0 0 1-.715-9.656A155.642 155.642 0 0 1 0 150.307v-.315C0 67.166 67.152 0 150.004 0c70.66 0 129.891 48.843 145.81 114.585a150.424 150.424 0 0 1 4.019 28.738Zm-70.652-68.604c-8.777-2.426-15.266-4.509-17.181-8.541-.905-1.908-.351-3.829.898-4.727 1.354-.989 3.178-.659 5.304.379 3.143 1.522 6.987 3.78 9.941 4.144 8.6 1.038 7.029-12.117-8.426-19.754-9.092-4.516-17.988-6.367-30.04-5.919-4.462.183-8.671.021-12.404-.568-5.633-.869-12.536-3.261-17.187-4.228-3.557-.751-5.585-.652-6.434.533-.785 1.122-.533 2.777 1.635 5.519 4.35 5.483 11.204 11.584 7.696 25.855-8.678 35.378 3.206 51.57 15.315 54.228 6.784 1.508 13.034-.084 16.851-4.046 3.627-3.794 5.191-10.211 1.698-15.645-5.346-8.324-7.233-15.561-2.456-18.57 4.364-2.755 10.565-.217 15.28 10.33 7.541 16.9 17.356 21.381 27.171 9.362 8.039-9.846 7.724-24.102-7.661-28.352ZM201.87 167.06c-40.683-24.375-60.859-34.018-77.325-45.771-27.283-19.452-31.597-33.947-32.432-44.031-1.487-18.051 12.172-34.299 26.076-41.957 1.074-.652 2.912-2.152 2.112-4.207-.807-2.076-3.297-1.676-4.23-1.473-31.1 6.599-61.322 33.983-56.629 70.54 1.873 14.48 11.084 38.933 58.782 67.019 16.269 9.572 30.314 16.83 52.364 29.452 29.858 17.069 43.601 39.06 25.108 63.05-1.403 1.676-2.61 3.415-2.105 4.93.569 1.753 2.877 2.055 5.031 1.087 14.192-6.536 25.915-16.346 31.499-25.441 9.829-16.017 14.725-47.426-28.251-73.198Zm-47.586 97.335c-3.606-1.038-9.078-2.735-13.638-4.727-5.753-2.51-10.951-5.266-13.245-7.538-1.502-1.508-1.733-3.212-.533-4.965 6.875-9.881 8.811-13.794 10.733-18.443 4.083-9.846.049-10.799-6.286-8.976-6.889 1.97-12.34 3.983-16.563 5.568-5.921 2.209-9.583 3.562-11.737 2.51-2.245-1.087-2.659-4.986-3.466-11.451-.568-4.6-1.536-9.846-2.771-14.965-2.546-10.259-6.938-8.289-10.565-4.095-4.518 5.483-7.008 12.272-8.882 15.834-1.003 1.907-2.153 2.539-3.556 2.237-3.129-.666-7.261-5.512-11.772-11.269-6.588-8.422-9.527-14.895-12.958-15.295-7.289-.848-4.048 16.389 2.792 30.596 6.672 13.906 17.02 27.595 34.355 38.548 19.776 12.518 49.003 17.062 66.955 14.537 5.669-.799 6.791-6.479 1.137-8.106Z" style="fill-rule:nonzero;fill:#fff"/><path d="m350.895 160.933-9.409-17.802c6.819-2.596 13.277-5.697 19.341-9.327 6.075-3.596 11.418-7.65 16.07-12.162 4.641-4.502 8.288-9.479 10.954-14.933 2.66-5.471 3.979-11.482 3.979-18.034v-8.578c0-3.409-.227-6.186-.715-8.294-.476-2.114-1.661-4.257-3.589-6.458-1.214-1.487-1.562-2.852-1.011-4.083.541-1.214 1.569-1.842 3.073-1.842h35.4v27.223c0 6.685 1.498 12.713 4.518 18.109 2.997 5.39 6.854 10.129 11.541 14.23 4.728 4.083 10.036 7.643 15.96 10.628a137.822 137.822 0 0 0 17.936 7.586l-8.817 16.564c-1.365 2.463-4.519 3.148-9.514 2.056-4.977-1.086-11.889-4.362-20.781-9.81a120.993 120.993 0 0 1-14.404-10.553c-4.588-3.891-8.444-8.009-11.592-12.388-7.493 10.652-16.768 19.654-27.821 27.024a164.007 164.007 0 0 1-9.717 5.837c-3.345 1.83-6.516 3.334-9.519 4.502-3.014 1.161-5.558 1.829-7.678 2.044-2.132.203-3.514-.308-4.205-1.539Zm69.803 61.206h105.398v23.127H415.564c-6.813 0-12.743-.487-17.784-1.44-5.053-.958-9.276-2.654-12.691-5.117-3.427-2.462-5.936-5.732-7.579-9.833-1.633-4.071-2.446-9.281-2.446-15.536v-19.655c0-3.554-.255-6.301-.726-8.299-.47-1.975-1.661-4.101-3.572-6.465-1.248-1.492-1.585-2.84-1.028-4.071.529-1.231 1.54-1.841 3.061-1.841h34.784v37.247c0 4.786 1.028 7.957 3.085 9.525 2.044 1.562 5.372 2.358 10.03 2.358Zm70.208-38.681V77.009c0-3.537-.389-6.406-1.132-8.596-.761-2.184-2.085-4.344-3.996-6.528-1.226-1.505-1.533-2.84-.918-4.014.616-1.138 1.673-1.748 3.177-1.748h34.994v127.335ZM575.231 213.133v-15.356c0-2.045-.348-3.892-1.034-5.518-.673-1.644-1.771-3.345-3.275-5.128-1.226-1.511-1.563-2.87-1.023-4.078.546-1.231 1.563-1.87 3.085-1.87h34.79v28.663c0 4.919 1.051 8.206 3.171 9.844 2.102 1.603 5.552 2.451 10.332 2.451h103.377v23.145H615.748c-6.819 0-12.76-.488-17.813-1.452-5.036-.981-9.27-2.666-12.697-5.117-3.391-2.456-5.93-5.721-7.556-9.838-1.649-4.101-2.451-9.346-2.451-15.746Zm11.673-91.899c0 6.54 1.887 12.174 5.726 16.866 3.799 4.734 9.345 7.069 16.582 7.069 7.092 0 12.569-2.335 16.466-7.069 3.897-4.692 5.854-10.326 5.854-16.866 0-6.964-1.957-12.789-5.854-17.505-3.897-4.711-9.374-7.08-16.466-7.08-7.237 0-12.783 2.369-16.582 7.08-3.839 4.716-5.726 10.541-5.726 17.505Zm-20.892-25.387H544.54V73.335h49.722v-2.05c0-3.555-.238-6.377-.714-8.486-.482-2.114-1.679-4.332-3.601-6.656-1.359-1.492-1.731-2.828-1.127-3.995.622-1.156 1.667-1.737 3.189-1.737h34.999v22.924h46.464v22.512h-21.519a42.498 42.498 0 0 1 7.499 11.97c1.829 4.438 2.747 9.247 2.747 14.428 0 6.423-1.156 12.4-3.473 17.911-2.318 5.53-5.739 10.356-10.24 14.445-4.507 4.083-10.048 7.295-16.675 9.618-6.592 2.323-14.148 3.485-22.599 3.485-8.491 0-15.978-1.162-22.529-3.485-6.557-2.323-12.092-5.535-16.605-9.618-4.472-4.089-7.917-8.915-10.292-14.445-2.41-5.511-3.601-11.488-3.601-17.911 0-5.315.871-10.159 2.567-14.532 1.696-4.362 4.135-8.311 7.26-11.866Zm156.167 7.58h23.314v23.133h-23.314v59.742h-32.112V77.012c0-3.543-.384-6.383-1.034-8.491-.703-2.108-1.981-4.327-3.88-6.639-1.4-1.515-1.771-2.84-1.15-3.996.616-1.167 1.673-1.742 3.177-1.742h34.999ZM891.84 96.668c0-6.272-3.27-11.285-9.81-15.037-6.563-3.757-17.61-5.639-33.147-5.639-15.582 0-26.612 1.882-33.175 5.639-6.551 3.752-9.833 8.765-9.833 15.037 0 6.412 3.282 11.396 9.833 14.944 6.563 3.555 17.593 5.332 33.175 5.332 15.537 0 26.584-1.777 33.147-5.332 6.54-3.548 9.81-8.532 9.81-14.944Zm27.64-17.302c2.991 5.268 4.501 11.03 4.501 17.302 0 6.139-1.51 11.802-4.501 17-2.974 5.175-7.62 9.636-13.817 13.394-6.221 3.752-14.027 6.696-23.418 8.805-9.415 2.12-20.537 3.165-33.362 3.165-12.858 0-23.952-1.045-33.39-3.165-9.391-2.109-17.174-5.053-23.331-8.805-6.127-3.758-10.715-8.219-13.712-13.394-2.997-5.198-4.473-10.861-4.473-17 0-6.272 1.476-12.034 4.473-17.302 2.997-5.239 7.585-9.74 13.712-13.503 6.157-3.752 13.94-6.639 23.331-8.701 9.438-2.038 20.532-3.055 33.39-3.055 12.825 0 23.947 1.017 33.362 3.055 9.391 2.062 17.197 4.949 23.418 8.701 6.197 3.763 10.843 8.264 13.817 13.503Zm7.17 165.896H811.82c-6.139 0-11.488-.36-16.053-1.115-4.565-.766-8.34-2.126-11.262-4.106-2.939-1.975-5.111-4.652-6.563-7.986-1.452-3.328-2.143-7.603-2.143-12.789v-19.254c0-2.027-.325-3.874-1.011-5.512-.685-1.62-1.771-3.339-3.287-5.117-1.231-1.498-1.562-2.869-1.011-4.083.546-1.243 1.569-1.852 3.067-1.852h34.79v30.306c0 3.665.714 6 2.155 6.952 1.434.941 3.862 1.435 7.266 1.435H926.65Zm19.649-74.105H751.243V148.86h195.056ZM992.336 117.144c0 2.718.342 5.39 1.028 7.974.702 2.585 1.8 4.908 3.386 6.953 1.574 2.056 3.548 3.699 5.93 4.919 2.398 1.22 5.204 1.847 8.497 1.847 3.27 0 6.098-.627 8.491-1.847 2.37-1.22 4.362-2.863 5.942-4.919a19.217 19.217 0 0 0 3.363-6.953 31.331 31.331 0 0 0 1.028-7.974c0-2.887-.349-5.634-1.028-8.294a20.086 20.086 0 0 0-3.363-7.173c-1.58-2.108-3.572-3.781-5.942-5.012-2.393-1.231-5.221-1.835-8.491-1.835-3.293 0-6.099.604-8.497 1.835a17.09 17.09 0 0 0-5.93 5.012c-1.586 2.114-2.684 4.501-3.386 7.173-.686 2.66-1.028 5.407-1.028 8.294ZM970.858 94.22h-16.164V71.696h41.94v-.604c0-3.694-.175-6.598-.581-8.706-.436-2.114-1.592-4.252-3.497-6.441-1.394-1.644-1.725-3.067-1.016-4.315.662-1.22 1.766-1.836 3.258-1.836h33.78v21.902h36.433V94.22h-13.718c2.317 3.13 4.135 6.609 5.529 10.437 1.365 3.827 2.044 7.899 2.044 12.278 0 6.54-1.08 12.539-3.165 17.993-2.12 5.471-5.21 10.106-9.217 13.933-4.019 3.822-9.014 6.784-14.956 8.898-5.918 2.114-12.714 3.177-20.351 3.177-7.626 0-14.427-1.063-20.369-3.177-5.941-2.114-10.919-5.076-14.926-8.898-4.037-3.827-7.109-8.462-9.224-13.933-2.12-5.454-3.177-11.453-3.177-17.993 0-4.379.663-8.451 1.952-12.278 1.295-3.828 3.101-7.307 5.425-10.437Zm131.197-36.845v37.647h13.713V56.143h29.278V162.79h-29.278v-43.6h-13.713v38.054h-29.284V76.402c0-3.671-.365-6.377-1.103-8.079-.778-1.719-1.76-3.444-2.974-5.21-1.249-1.777-1.568-3.177-1.022-4.205.552-1.034 1.498-1.533 2.852-1.533ZM1029.8 209.441c0 3.136.715 5.976 2.155 8.497 1.429 2.526 3.775 4.629 7.051 6.331 3.27 1.707 7.533 3.014 12.801 3.914 5.256.877 11.686 1.319 19.358 1.319 7.614 0 14.061-.442 19.335-1.319 5.221-.9 9.461-2.207 12.685-3.914 3.206-1.702 5.511-3.805 6.934-6.331 1.464-2.521 2.184-5.361 2.184-8.497 0-3.282-.72-6.168-2.184-8.695-1.423-2.52-3.728-4.617-6.934-6.243-3.224-1.638-7.464-2.881-12.685-3.799-5.274-.894-11.721-1.301-19.335-1.301-7.672 0-14.102.407-19.358 1.301-5.268.918-9.531 2.161-12.801 3.799-3.276 1.626-5.622 3.723-7.051 6.243-1.44 2.527-2.155 5.413-2.155 8.695Zm-13.939-31.433c12.423-7.684 30.87-11.541 55.304-11.541 23.848 0 42.143 3.857 54.816 11.541 12.696 7.73 19.05 18.214 19.05 31.433 0 6.424-1.632 12.284-4.925 17.598-3.247 5.303-8.009 9.874-14.206 13.608-6.227 3.752-13.911 6.656-23.139 8.707-9.218 2.044-19.748 3.089-31.596 3.089-12.15 0-22.808-1.045-31.973-3.089-9.142-2.051-16.809-4.955-23.116-8.707-6.267-3.734-10.966-8.305-14.108-13.608-3.148-5.314-4.71-11.174-4.71-17.598 0-13.219 6.226-23.703 18.603-31.433Z" style="fill-opacity:1;fill-rule:nonzero;stroke:none;fill:#fff"/></svg>