<svg width="200" height="34" viewBox="0 0 200 34" fill="none" xmlns="http://www.w3.org/2000/svg">
<g clip-path="url(#clip0_616_3240)">
<path d="M52.896 5.84606C52.896 5.61006 52.8903 5.39708 52.8846 5.19562C52.8846 4.99415 52.8616 4.77542 52.8387 4.54517H54.5537C54.5308 4.77542 54.5193 4.99415 54.5021 5.19562C54.4906 5.40284 54.4906 5.61006 54.4906 5.84606V7.25056C54.4906 7.87222 54.5595 8.43633 54.6914 8.94863C54.829 9.45517 55.0241 9.9099 55.2707 10.3128C55.5174 10.7215 55.8042 11.0842 56.1368 11.4007C56.4638 11.7231 56.8137 11.9994 57.2037 12.2354C57.089 12.3448 56.98 12.4426 56.8768 12.5347C56.7793 12.6326 56.6703 12.7189 56.5785 12.8168C56.4753 12.9031 56.3892 12.9894 56.3032 13.0758C56.2229 13.1564 56.154 13.2312 56.091 13.3003C55.9074 13.1794 55.7124 13.024 55.4944 12.8225C55.2707 12.6153 55.047 12.3908 54.8233 12.149C54.5939 11.9015 54.3874 11.6367 54.1981 11.3489C54.0088 11.0726 53.8482 10.7906 53.7278 10.5085C53.636 10.7906 53.4926 11.0842 53.3033 11.3777C53.1083 11.677 52.896 11.9648 52.6551 12.2469C52.4257 12.5232 52.1905 12.7707 51.9439 13.001C51.703 13.2197 51.4907 13.4039 51.3072 13.5248C51.1466 13.3809 50.9573 13.2082 50.7279 13.0182C50.5042 12.8168 50.2805 12.6383 50.0625 12.4771C50.5386 12.1778 50.963 11.8382 51.3359 11.4468C51.7087 11.0611 52.0184 10.6237 52.2594 10.1344C52.4659 9.7257 52.6265 9.28248 52.7354 8.79896C52.8444 8.31545 52.9018 7.7974 52.9018 7.2448V5.8403L52.896 5.84606ZM58.1903 8.88531H56.98C56.8424 8.88531 56.6817 8.88531 56.5326 8.88531C56.372 8.89682 56.2286 8.90258 56.091 8.93711V7.3369C56.2343 7.36568 56.3892 7.3772 56.5498 7.38295C56.7162 7.38871 56.8653 7.39446 57.0087 7.39446H58.1903V5.81152C58.1903 5.53523 58.1903 5.24742 58.1788 4.95961C58.1674 4.67756 58.1559 4.38975 58.1329 4.09619H59.7562C59.739 4.384 59.7218 4.67181 59.7218 4.95961C59.7161 5.24167 59.7103 5.53523 59.7103 5.81152V13.8126C59.7103 14.1004 59.7103 14.3882 59.7218 14.676C59.7218 14.9638 59.7447 15.2401 59.7562 15.5221H58.1329C58.1501 15.2401 58.1674 14.9638 58.1788 14.676C58.1903 14.3939 58.1903 14.1004 58.1903 13.8126V8.89106V8.88531Z" fill="#3D3D3C"/>
<path d="M66.6564 10.5085H69.7997C69.7768 10.6696 69.7596 10.8308 69.7538 10.992C69.7424 11.1589 69.7424 11.3086 69.7424 11.464V13.5592H63.8229V14.2384H69.4269C69.599 14.2384 69.7825 14.2269 69.9718 14.1981V15.5393C69.771 15.5163 69.5875 15.499 69.4154 15.4933C69.2491 15.4933 69.0655 15.4933 68.8705 15.4933H62.0792V12.408H67.9872V11.7575H63.1346C62.9625 11.7575 62.7904 11.7575 62.6069 11.7691C62.4233 11.7806 62.2513 11.7921 62.0734 11.8093V10.4567C62.2742 10.4739 62.452 10.4969 62.6183 10.4969C62.7847 10.5027 62.9625 10.5085 63.1288 10.5085H65.0676V9.74865H62.7101C62.3946 9.74865 62.0849 9.74865 61.7809 9.74865C61.4826 9.7544 61.1614 9.77167 60.8574 9.79469V8.442C61.1672 8.46502 61.4826 8.48805 61.7809 8.48805C62.0792 8.48805 62.3889 8.49956 62.7101 8.49956H69.1229C69.4269 8.49956 69.7366 8.49956 70.0406 8.48805C70.3504 8.48805 70.6544 8.46502 70.9698 8.442V9.79469C70.6601 9.77167 70.3504 9.7544 70.0406 9.74865C69.7366 9.74865 69.4269 9.74865 69.1229 9.74865H66.6564V10.5085ZM61.8497 5.96686C61.8497 5.69056 61.9415 5.42578 62.1308 5.18978C62.3201 4.94802 62.5782 4.74655 62.9281 4.57387C63.2837 4.40694 63.7082 4.26879 64.2129 4.16518C64.7177 4.06157 65.2798 4.00977 65.9108 4.00977C67.1727 4.00977 68.165 4.19396 68.882 4.56236C69.6162 4.92499 69.9775 5.397 69.9775 5.95534C69.9775 6.59428 69.6162 7.07779 68.882 7.41741C68.165 7.75126 67.1669 7.92395 65.9108 7.92395C64.6546 7.92395 63.6623 7.74551 62.9338 7.41165C62.2226 7.06628 61.8555 6.59428 61.8555 5.9611L61.8497 5.96686ZM63.5361 5.98412C63.5361 6.2374 63.7426 6.4331 64.1613 6.58276C64.58 6.72091 65.1594 6.78999 65.905 6.78999C66.6507 6.78999 67.2013 6.72091 67.6373 6.59428C68.0732 6.46189 68.2912 6.26618 68.2912 6.01291C68.2912 5.75963 68.0675 5.55241 67.6258 5.40275C67.1784 5.24734 66.6105 5.16675 65.905 5.16675C65.1995 5.16675 64.6317 5.24158 64.1957 5.397C63.7541 5.54666 63.5418 5.74237 63.5418 5.98988L63.5361 5.98412Z" fill="#3D3D3C"/>
<path d="M79.6425 11.349H73.2355C72.92 11.349 72.616 11.3548 72.3006 11.3548C72.0023 11.3548 71.6926 11.372 71.3828 11.4066V9.97328C71.6983 9.99631 72.008 10.0136 72.3006 10.0193C72.6103 10.0251 72.92 10.0251 73.2355 10.0251H79.6425C79.9638 10.0251 80.2678 10.0251 80.5718 10.0193C80.8758 10.0193 81.1855 10.0021 81.501 9.97328V11.4066C81.1912 11.3778 80.8815 11.3605 80.5718 11.3548C80.2735 11.3548 79.9638 11.349 79.6425 11.349ZM80.2735 14.4113C80.2735 14.607 80.2792 14.8027 80.2907 15.0099C80.2964 15.2171 80.3194 15.4128 80.3366 15.6028H78.6445C78.6732 15.4186 78.6789 15.2229 78.6846 15.0099C78.6961 14.8027 78.6961 14.5955 78.6961 14.4113V13.3694H73.8493C73.6026 13.3694 73.3847 13.3694 73.1782 13.3809C72.9774 13.3809 72.7594 13.3982 72.5128 13.427V12.0052C72.7594 12.0282 72.9717 12.0455 73.1782 12.0455H80.3308C80.3079 12.2182 80.2907 12.3794 80.2907 12.5405C80.2792 12.6959 80.2792 12.8571 80.2792 13.024V14.417L80.2735 14.4113ZM79.0173 8.09102H79.6483C79.8777 8.09102 80.1244 8.07375 80.3882 8.05073V9.38616C80.1244 9.36889 79.8777 9.35162 79.6483 9.35162C79.4303 9.34586 79.2123 9.34586 79.0173 9.34586H72.6218V5.60437C72.6218 5.39139 72.6218 5.17841 72.6046 4.95968C72.5931 4.7467 72.5874 4.52221 72.5587 4.30348H79.5393C79.7573 4.30348 80.0096 4.28621 80.2678 4.26318V5.59285C80.0039 5.58134 79.7573 5.56983 79.5393 5.56407C79.3099 5.56407 79.1034 5.55256 78.9083 5.55256H74.1361V6.23179H80.2161V7.40604H74.1361V8.09678H79.0116L79.0173 8.09102Z" fill="#3D3D3C"/>
<path d="M87.834 5.47191H89.7212V5.38557C89.7212 5.17259 89.7212 4.95386 89.7097 4.74664C89.7039 4.53366 89.6867 4.31493 89.6581 4.09619H91.2756C91.2412 4.31493 91.2354 4.53366 91.2297 4.74664C91.2297 4.95386 91.2297 5.16683 91.2297 5.38557V10.002H89.7212V8.87955H87.834V9.73146H82.5742V5.4604C82.5742 5.27045 82.5742 5.09201 82.5742 4.92508C82.5742 4.75239 82.557 4.57395 82.5283 4.37249H84.1114C84.0885 4.5682 84.077 4.75239 84.077 4.92508C84.0598 5.09201 84.0598 5.27045 84.0598 5.4604V5.80577H86.3657V5.4604C86.3657 5.27045 86.3656 5.09201 86.3542 4.92508C86.3542 4.75239 86.3427 4.57395 86.3083 4.37249H87.8914C87.8627 4.5682 87.8513 4.75239 87.8513 4.92508C87.8398 5.09201 87.8398 5.27045 87.8398 5.4604V5.47191H87.834ZM83.7271 15.4934V12.3966H89.5835V11.6713H84.7825C84.6105 11.6713 84.4326 11.6713 84.2548 11.6828C84.077 11.6943 83.8935 11.7001 83.7329 11.7231V10.3646C83.9221 10.3877 84.1114 10.4107 84.2778 10.4107C84.4441 10.4164 84.6162 10.4222 84.7825 10.4222H91.2526C91.2354 10.5834 91.2125 10.7445 91.2068 10.9057C91.1896 11.0726 91.1896 11.2281 91.1896 11.3777V13.4845H85.3504V14.2328H90.8741C91.0404 14.2328 91.2354 14.2155 91.4247 14.1925V15.5452C91.224 15.5221 91.0289 15.5049 90.8683 15.4991C90.6963 15.4991 90.5185 15.4991 90.3234 15.4991H83.7271V15.4934ZM86.3599 8.40179V7.14695H84.0541V8.40179H86.3599ZM87.834 6.70948V7.61895H89.7212V6.70948H87.834Z" fill="#3D3D3C"/>
<path d="M95.0148 5.84596C95.0148 5.60996 95.0148 5.39698 95.0033 5.19551C94.9976 4.99405 94.9747 4.77531 94.9517 4.54507H96.6668C96.6496 4.77531 96.6323 4.99405 96.6151 5.19551C96.6094 5.40273 96.6037 5.60996 96.6037 5.84596V7.25046C96.6037 7.87212 96.6725 8.43622 96.8102 8.94852C96.9421 9.45506 97.1428 9.9098 97.3895 10.3127C97.6361 10.7214 97.9172 11.0841 98.2499 11.4006C98.5768 11.723 98.9324 11.9993 99.3168 12.2353C99.202 12.3446 99.0931 12.4425 98.9898 12.5346C98.8866 12.6325 98.7833 12.7188 98.6858 12.8167C98.5883 12.903 98.5023 12.9893 98.4162 13.0757C98.3302 13.1563 98.2614 13.2311 98.204 13.3002C98.0262 13.1793 97.8254 13.0239 97.6075 12.8224C97.3838 12.6152 97.1658 12.3907 96.9364 12.1489C96.7069 11.9014 96.5004 11.6366 96.3054 11.3488C96.1104 11.0725 95.9555 10.7905 95.8351 10.5084C95.7433 10.7905 95.6056 11.0841 95.4106 11.3776C95.2156 11.6769 95.0033 11.9647 94.7682 12.2468C94.533 12.5231 94.2921 12.7706 94.0512 13.0008C93.8103 13.2196 93.598 13.4038 93.4145 13.5247C93.2539 13.3808 93.0646 13.2081 92.8409 13.0181C92.6115 12.8167 92.382 12.6382 92.1641 12.477C92.6401 12.1777 93.0646 11.8381 93.4374 11.4467C93.8103 11.061 94.12 10.6236 94.3609 10.1343C94.5731 9.7256 94.7338 9.28238 94.8427 8.79886C94.9517 8.31534 95.0091 7.79729 95.0091 7.2447V5.8402L95.0148 5.84596ZM101.823 13.8182C101.823 14.1118 101.823 14.3938 101.835 14.6816C101.835 14.9637 101.852 15.2515 101.869 15.5336H100.235C100.257 15.2515 100.275 14.9637 100.28 14.6816C100.292 14.3938 100.292 14.1118 100.292 13.8182V5.80566C100.292 5.52937 100.292 5.24156 100.28 4.95375C100.275 4.6717 100.257 4.3839 100.235 4.09033H101.869C101.846 4.37814 101.835 4.66595 101.835 4.95375C101.823 5.23581 101.823 5.52937 101.823 5.80566V13.8182Z" fill="#3D3D3C"/>
<path d="M108.185 5.81142C108.185 5.58117 108.185 5.37395 108.173 5.16098C108.162 4.95951 108.15 4.74653 108.122 4.51053H109.842C109.819 4.74653 109.796 4.95951 109.791 5.16098C109.779 5.37395 109.773 5.58117 109.773 5.81142V7.22168C109.773 7.84334 109.842 8.40744 109.98 8.91974C110.123 9.42628 110.307 9.87526 110.559 10.2839C110.8 10.6926 111.087 11.0553 111.42 11.3719C111.752 11.6884 112.108 11.9705 112.487 12.2123C112.366 12.3101 112.257 12.408 112.16 12.5001C112.045 12.5922 111.947 12.69 111.856 12.7821C111.758 12.8627 111.666 12.949 111.58 13.0354C111.488 13.1217 111.425 13.2023 111.368 13.2714C111.196 13.1505 110.989 12.9951 110.772 12.7879C110.554 12.5922 110.324 12.3677 110.095 12.1144C109.871 11.8726 109.659 11.6079 109.469 11.3258C109.269 11.0438 109.12 10.7675 108.993 10.4797C108.907 10.7617 108.77 11.0495 108.569 11.3488C108.38 11.6482 108.162 11.9417 107.932 12.218C107.697 12.4943 107.456 12.7418 107.221 12.9663C106.974 13.1966 106.756 13.3692 106.579 13.5016C106.424 13.3577 106.229 13.185 106.005 12.9893C105.776 12.7994 105.546 12.6152 105.328 12.454C105.804 12.1547 106.229 11.8151 106.601 11.4294C106.98 11.038 107.29 10.6063 107.536 10.117C107.743 9.70833 107.909 9.26511 108.013 8.78159C108.122 8.30383 108.173 7.78578 108.173 7.23319V5.82293L108.185 5.81142ZM114.615 8.34413H115.119C115.263 8.34413 115.418 8.34413 115.584 8.34413C115.739 8.33837 115.905 8.3211 116.043 8.29808V9.84648C115.899 9.8177 115.739 9.80619 115.567 9.80043C115.406 9.79467 115.251 9.79467 115.119 9.79467H114.615V13.8182C114.615 14.1118 114.615 14.3938 114.62 14.6816C114.62 14.9637 114.638 15.2515 114.66 15.5336H113.054C113.083 15.2515 113.1 14.9637 113.106 14.6816C113.106 14.3938 113.112 14.1118 113.112 13.8182V5.80566C113.112 5.52937 113.112 5.24156 113.106 4.95375C113.095 4.6717 113.077 4.3839 113.054 4.09033H114.66C114.643 4.37814 114.62 4.66595 114.62 4.95375C114.615 5.23581 114.615 5.52937 114.615 5.80566V8.34413Z" fill="#3D3D3C"/>
<path d="M119.508 12.1029V11.3431C119.25 11.3028 118.986 11.228 118.739 11.1186C118.498 11.015 118.28 10.8768 118.108 10.7157C117.925 10.566 117.77 10.3876 117.667 10.1918C117.558 9.98463 117.5 9.77741 117.5 9.54716C117.5 9.27087 117.575 9.02335 117.712 8.79886C117.862 8.56862 118.062 8.37291 118.315 8.20598C118.55 8.05056 118.842 7.91817 119.175 7.82607C119.513 7.73973 119.869 7.69368 120.248 7.69368C120.626 7.69368 120.999 7.73973 121.332 7.82607C121.664 7.91241 121.957 8.04481 122.209 8.20598C122.45 8.37291 122.645 8.56286 122.783 8.78735C122.921 9.01184 122.989 9.26511 122.989 9.54716C122.989 10.0077 122.806 10.3876 122.445 10.6926C122.077 10.9977 121.641 11.1934 121.114 11.297V12.0626C121.59 12.0396 122.095 12.0108 122.622 11.9763C123.15 11.9417 123.597 11.9014 123.965 11.8496V13.2081C123.225 13.3059 122.347 13.3865 121.309 13.4383C120.276 13.5016 119.158 13.5247 117.953 13.5247C117.724 13.5247 117.5 13.5247 117.311 13.5362C117.116 13.5362 116.904 13.5534 116.691 13.5765V12.0856C116.904 12.1086 117.11 12.1202 117.311 12.1202H117.953L119.496 12.1086L119.508 12.1029ZM122.422 7.30802H118.074C117.896 7.30802 117.735 7.31378 117.592 7.31953C117.449 7.32529 117.288 7.3368 117.122 7.35982V5.98986C117.288 6.01864 117.449 6.03015 117.592 6.03015H122.886C123.035 6.03015 123.19 6.01864 123.374 5.98986V7.35982C123.19 7.33104 123.035 7.32529 122.886 7.31953C122.743 7.31953 122.594 7.30802 122.422 7.30802ZM121.183 5.47181H118.883C118.819 5.47181 118.751 5.47756 118.693 5.47756C118.624 5.47756 118.556 5.49483 118.487 5.49483V4.1997C118.636 4.21697 118.762 4.22848 118.894 4.22848H121.584C121.71 4.22848 121.848 4.21697 121.997 4.1997V5.49483C121.848 5.49483 121.71 5.47756 121.584 5.47756C121.452 5.47756 121.326 5.47181 121.183 5.47181ZM118.98 9.54716C118.98 9.80043 119.106 9.99614 119.37 10.1228C119.634 10.2437 119.921 10.3127 120.248 10.3127C120.575 10.3127 120.867 10.2437 121.131 10.117C121.395 9.99038 121.533 9.79467 121.533 9.54716C121.533 9.29965 121.401 9.13272 121.142 9.00608C120.879 8.8852 120.58 8.81613 120.248 8.81613C119.915 8.81613 119.634 8.8852 119.37 9.00608C119.106 9.13272 118.98 9.3054 118.98 9.54716ZM125.84 13.8182C125.84 14.1118 125.84 14.3938 125.852 14.6816C125.852 14.9637 125.857 15.2515 125.886 15.5336H124.28C124.303 15.2515 124.326 14.9637 124.332 14.6816C124.343 14.3938 124.343 14.1118 124.343 13.8182V5.80566C124.343 5.52937 124.343 5.24156 124.332 4.95375C124.332 4.6717 124.309 4.3839 124.28 4.09033H125.886C125.857 4.37814 125.852 4.66595 125.852 4.95375C125.84 5.23581 125.84 5.52937 125.84 5.80566V13.8182Z" fill="#3D3D3C"/>
<path d="M131.163 5.93274V6.36445C131.163 6.72133 131.22 7.06095 131.358 7.37178C131.49 7.68261 131.668 7.96466 131.891 8.22369C132.109 8.46545 132.368 8.68418 132.666 8.86838C132.97 9.04682 133.28 9.19072 133.612 9.28858C133.446 9.47853 133.274 9.69726 133.079 9.93902C132.89 10.1865 132.763 10.3592 132.689 10.4628C132.54 10.411 132.356 10.3247 132.138 10.198C131.92 10.0714 131.708 9.916 131.478 9.74331C131.243 9.56487 131.031 9.37492 130.825 9.1677C130.624 8.96048 130.469 8.75325 130.354 8.54028C130.274 8.72447 130.142 8.92594 129.953 9.14467C129.763 9.36341 129.551 9.57063 129.316 9.77785C129.075 9.98507 128.84 10.1693 128.588 10.3362C128.335 10.5089 128.111 10.6413 127.911 10.7334C127.842 10.6816 127.779 10.6125 127.699 10.5261C127.618 10.4456 127.532 10.3535 127.429 10.2556C127.331 10.152 127.228 10.0484 127.125 9.94478C127.016 9.83541 126.907 9.73756 126.804 9.62819C127.148 9.4958 127.503 9.3116 127.859 9.08711C128.215 8.85686 128.524 8.59208 128.788 8.28701C129.006 8.02798 129.184 7.72866 129.339 7.40056C129.482 7.07246 129.551 6.71558 129.551 6.32416V5.93274H128.57C128.404 5.93274 128.249 5.93274 128.117 5.9385C127.985 5.9385 127.836 5.95577 127.664 5.98455V4.50522C127.836 4.52824 127.985 4.54551 128.117 4.55127C128.255 4.55127 128.404 4.55127 128.57 4.55127H132.15C132.31 4.55127 132.465 4.55127 132.597 4.55127C132.735 4.54551 132.89 4.52824 133.062 4.50522V5.98455C132.89 5.96152 132.735 5.94425 132.597 5.9385C132.459 5.93274 132.31 5.93274 132.15 5.93274H131.174H131.163ZM136.4 14.4173C136.4 14.6073 136.4 14.8145 136.411 15.0217C136.423 15.2232 136.434 15.4189 136.463 15.6088H134.834C134.863 15.4304 134.868 15.2347 134.88 15.0217C134.88 14.8087 134.88 14.6073 134.88 14.4173V12.8689H130.096C129.849 12.8689 129.626 12.8689 129.425 12.8747C129.224 12.8747 129.001 12.8919 128.765 12.9207V11.4241C129.006 11.4471 129.224 11.4644 129.425 11.4644H136.446C136.417 11.6371 136.406 11.804 136.4 11.9537C136.394 12.1091 136.394 12.2703 136.394 12.4372V14.4173H136.4ZM134.92 7.97617H133.911C133.767 7.97617 133.612 7.97617 133.457 7.97617C133.297 7.98193 133.153 7.99344 133.016 8.02222V6.49109C133.165 6.51987 133.314 6.53138 133.475 6.53714C133.629 6.53714 133.79 6.53714 133.939 6.53714H134.92V5.36288C134.92 5.1499 134.909 4.93117 134.903 4.71819C134.903 4.50522 134.88 4.29224 134.857 4.06775H136.469C136.446 4.29224 136.429 4.50522 136.429 4.71819C136.417 4.93117 136.417 5.14415 136.417 5.36288V10.9809H134.92V7.96466V7.97617Z" fill="#3D3D3C"/>
<path d="M139.326 5.91547C139.125 5.91547 138.947 5.92123 138.775 5.92123C138.614 5.92123 138.436 5.9385 138.241 5.96728V4.47068C138.436 4.49946 138.614 4.51673 138.775 4.52248C138.947 4.52248 139.13 4.52248 139.326 4.52248H143.352C143.352 5.28805 143.237 6.00757 142.997 6.66377C142.761 7.31997 142.434 7.91286 142.039 8.43091C141.597 8.98926 141.075 9.47853 140.473 9.88146C139.876 10.2844 139.222 10.5952 138.534 10.7967C138.477 10.7161 138.356 10.5492 138.167 10.3074C137.978 10.0541 137.794 9.84117 137.616 9.65697C138.092 9.53033 138.586 9.34614 139.079 9.09862C139.572 8.85111 140.02 8.54603 140.421 8.17764C140.742 7.87832 141.006 7.53871 141.213 7.17031C141.425 6.79616 141.563 6.37596 141.62 5.91547H139.331H139.326ZM139.027 13.2776C139.027 12.8804 139.125 12.5293 139.343 12.2185C139.549 11.9134 139.836 11.6601 140.203 11.4529C140.559 11.2514 140.972 11.096 141.454 10.9924C141.935 10.8945 142.44 10.8427 142.974 10.8427C143.507 10.8427 144.029 10.8945 144.511 10.9924C144.998 11.096 145.417 11.2514 145.79 11.4529C146.14 11.6601 146.421 11.9134 146.639 12.2185C146.851 12.5178 146.954 12.8747 146.954 13.2833C146.954 13.692 146.851 14.0662 146.639 14.3713C146.432 14.6821 146.151 14.9354 145.79 15.1368C145.417 15.344 144.998 15.4937 144.511 15.5916C144.035 15.6894 143.513 15.7412 142.974 15.7412C142.434 15.7412 141.901 15.6894 141.413 15.5858C140.937 15.4879 140.519 15.3325 140.169 15.1253C139.807 14.9181 139.532 14.6706 139.331 14.3597C139.13 14.0489 139.033 13.6978 139.033 13.2833L139.027 13.2776ZM140.656 13.2776C140.656 13.6345 140.874 13.9223 141.299 14.1468C141.717 14.3597 142.285 14.4691 142.991 14.4691C143.696 14.4691 144.258 14.3655 144.689 14.1525C145.13 13.9395 145.348 13.6575 145.348 13.3064C145.348 12.9552 145.13 12.6674 144.689 12.4545C144.258 12.2472 143.685 12.1379 142.991 12.1379C142.297 12.1379 141.723 12.2415 141.299 12.4487C140.874 12.6617 140.656 12.938 140.656 13.2833V13.2776ZM145.32 6.85372H144.557C144.413 6.85372 144.258 6.85372 144.104 6.85372C143.943 6.85948 143.794 6.87675 143.656 6.89977V5.43771C143.805 5.46074 143.954 5.47801 144.121 5.48376C144.287 5.48376 144.436 5.48376 144.574 5.48376H145.314V5.36288C145.314 5.1499 145.308 4.93117 145.297 4.71819C145.297 4.50522 145.279 4.29224 145.245 4.06775H146.868C146.845 4.29224 146.834 4.50522 146.828 4.71819C146.817 4.93117 146.817 5.14415 146.817 5.36288V9.52458C146.817 9.74907 146.817 9.9678 146.828 10.1808C146.834 10.388 146.845 10.601 146.868 10.8197H145.245C145.274 10.6067 145.291 10.388 145.297 10.1808C145.308 9.9678 145.314 9.74331 145.314 9.52458V9.4037H144.379C144.235 9.4037 144.081 9.4037 143.926 9.40945C143.771 9.40945 143.622 9.42672 143.484 9.4555V8.00495C143.633 8.03949 143.782 8.051 143.949 8.05676C144.104 8.05676 144.258 8.06252 144.408 8.06252H145.314V6.84797L145.32 6.85372Z" fill="#3D3D3C"/>
<path d="M151.588 6.20284V7.4807C151.588 8.04481 151.617 8.54559 151.697 8.98881C151.766 9.43204 151.886 9.83497 152.053 10.2034C152.219 10.5602 152.431 10.8883 152.707 11.1819C152.97 11.4755 153.297 11.7518 153.687 12.0165C153.504 12.2065 153.337 12.3849 153.171 12.5634C153.005 12.7476 152.85 12.926 152.695 13.1045C152.546 12.9951 152.38 12.8569 152.196 12.7015C152.018 12.5461 151.84 12.3677 151.663 12.172C151.491 11.982 151.336 11.7805 151.181 11.5618C151.026 11.3431 150.9 11.1243 150.791 10.8999C150.705 11.1243 150.584 11.3546 150.441 11.5906C150.292 11.8324 150.137 12.0626 149.971 12.2928C149.798 12.5173 149.609 12.7246 149.414 12.9203C149.219 13.116 149.036 13.2829 148.858 13.421C148.777 13.3405 148.691 13.2656 148.6 13.1793C148.508 13.0987 148.41 13.0239 148.301 12.9433C148.204 12.8569 148.089 12.7706 147.974 12.69C147.86 12.6037 147.756 12.5231 147.647 12.4367C148.06 12.1547 148.422 11.8324 148.749 11.4812C149.07 11.1301 149.334 10.7157 149.54 10.2379C149.689 9.88102 149.81 9.47809 149.89 9.02911C149.976 8.58013 150.016 8.0851 150.016 7.53826V6.19708H149.271C149.116 6.19708 148.961 6.19708 148.841 6.20284C148.703 6.20284 148.565 6.22011 148.416 6.24889V4.76956C148.559 4.79258 148.703 4.80985 148.841 4.81561C148.967 4.82136 149.116 4.82136 149.271 4.82136H152.334C152.489 4.82136 152.626 4.82136 152.758 4.81561C152.884 4.80985 153.033 4.79834 153.194 4.76956V6.24889C153.039 6.22586 152.89 6.20859 152.758 6.20284C152.626 6.19708 152.489 6.19708 152.334 6.19708H151.588V6.20284ZM154.032 9.20179H153.446C153.309 9.20179 153.171 9.20179 153.022 9.20755C152.867 9.20755 152.729 9.22482 152.598 9.2536V7.61885C152.735 7.64188 152.884 7.65914 153.028 7.6649C153.177 7.67066 153.326 7.67066 153.464 7.67066H154.026V5.99562C154.026 5.71932 154.026 5.43151 154.009 5.14371C154.003 4.86166 153.991 4.57385 153.974 4.28029H155.5C155.483 4.56809 155.466 4.8559 155.466 5.14371V14.1463C155.466 14.4284 155.483 14.7162 155.5 14.9982H153.974C153.991 14.7162 154.003 14.4284 154.009 14.1463C154.026 13.8585 154.026 13.5707 154.026 13.2771V9.20179H154.032ZM157.645 13.8182C157.645 14.1118 157.645 14.3938 157.651 14.6816C157.651 14.9637 157.674 15.2515 157.697 15.5336H156.148C156.171 15.2515 156.194 14.9637 156.2 14.6816C156.2 14.3938 156.211 14.1118 156.211 13.8182V5.80566C156.211 5.52937 156.2 5.24156 156.2 4.95375C156.188 4.6717 156.171 4.3839 156.148 4.09033H157.697C157.674 4.37814 157.651 4.66595 157.651 4.95375C157.651 5.23581 157.645 5.52937 157.645 5.80566V13.8182Z" fill="#3D3D3C"/>
<path d="M162.877 6.16255V7.09504C162.877 7.63036 162.929 8.14266 163.032 8.63193C163.135 9.12121 163.296 9.57019 163.514 10.0019C163.732 10.4451 164.013 10.8481 164.357 11.2107C164.707 11.5733 165.108 11.8784 165.579 12.1489C165.378 12.3274 165.189 12.5116 164.999 12.7015C164.81 12.8915 164.65 13.0699 164.5 13.2196C164.294 13.1045 164.059 12.9375 163.824 12.7188C163.583 12.5116 163.353 12.2698 163.124 12.0165C162.894 11.7575 162.688 11.4927 162.499 11.228C162.309 10.9517 162.166 10.6869 162.074 10.4279C161.959 10.7444 161.805 11.0553 161.621 11.3546C161.432 11.6597 161.225 11.9417 160.99 12.2065C160.772 12.4713 160.543 12.713 160.29 12.9318C160.049 13.162 159.82 13.3347 159.613 13.4786C159.527 13.4038 159.436 13.3232 159.338 13.2426C159.246 13.162 159.149 13.0757 159.057 12.9951C158.948 12.903 158.839 12.8051 158.719 12.713C158.598 12.6267 158.483 12.5231 158.352 12.4195C158.816 12.1432 159.229 11.8151 159.596 11.4524C159.963 11.0898 160.279 10.6754 160.537 10.2034C160.766 9.78316 160.956 9.31692 161.076 8.79886C161.202 8.27505 161.265 7.71095 161.265 7.08353V6.15103H160.072C159.895 6.15103 159.734 6.15103 159.591 6.15103C159.441 6.15679 159.287 6.17406 159.114 6.19708V4.71775C159.287 4.74078 159.441 4.75805 159.591 4.7638C159.734 4.76956 159.895 4.76956 160.072 4.76956H164.087C164.26 4.76956 164.42 4.76956 164.558 4.7638C164.707 4.7638 164.868 4.74653 165.045 4.71775V6.19708C164.868 6.17406 164.707 6.15679 164.558 6.15103C164.414 6.15103 164.26 6.15103 164.087 6.15103H162.883L162.877 6.16255ZM167.919 13.8067C167.919 14.0945 167.919 14.3823 167.919 14.6701C167.919 14.9579 167.936 15.2342 167.965 15.5163H166.353C166.376 15.2342 166.393 14.9579 166.399 14.6701C166.416 14.3881 166.416 14.0945 166.416 13.8067V5.80566C166.416 5.52937 166.416 5.24156 166.399 4.95375C166.388 4.6717 166.37 4.3839 166.353 4.09033H167.965C167.936 4.37814 167.925 4.66595 167.919 4.95375C167.919 5.23581 167.919 5.52937 167.919 5.80566V13.8067Z" fill="#3D3D3C"/>
<path d="M173 10.0828V10.8483C173 11.0038 173 11.1707 173.006 11.3549C173.006 11.5448 173.023 11.706 173.046 11.8614H171.44C171.457 11.7003 171.48 11.5276 171.48 11.3491C171.48 11.1707 171.48 11.0038 171.48 10.8541V10.1116H170.505C170.287 10.1116 170.086 10.1116 169.903 10.1173C169.714 10.1231 169.518 10.1346 169.289 10.1634V8.73008C169.518 8.75886 169.714 8.76462 169.903 8.76462H172.49C172.696 8.76462 172.966 8.76462 173.31 8.74735C173.66 8.73584 174.027 8.71281 174.411 8.69554C174.796 8.67252 175.18 8.63798 175.558 8.60344C175.937 8.56891 176.264 8.53437 176.534 8.48832V9.7777C176.086 9.8698 175.558 9.94463 174.95 9.99068C174.354 10.0367 173.694 10.0655 172.989 10.0885L173 10.0828ZM172.782 8.24656C172.335 8.24656 171.939 8.189 171.595 8.07388C171.262 7.95876 170.981 7.80334 170.746 7.60188C170.522 7.41192 170.356 7.18168 170.241 6.92265C170.126 6.66362 170.069 6.38733 170.069 6.09376C170.069 5.81747 170.126 5.55844 170.241 5.30517C170.356 5.04615 170.522 4.82166 170.746 4.62595C170.987 4.41873 171.268 4.26331 171.595 4.14243C171.939 4.02155 172.335 3.96399 172.776 3.96399C173.218 3.96399 173.625 4.02155 173.964 4.14243C174.302 4.26331 174.589 4.41873 174.807 4.61443C175.036 4.82166 175.203 5.04615 175.323 5.30517C175.438 5.55844 175.49 5.82323 175.49 6.09376C175.49 6.38157 175.432 6.66362 175.312 6.92265C175.191 7.18168 175.019 7.41192 174.796 7.60188C174.566 7.80334 174.291 7.953 173.952 8.07388C173.608 8.189 173.218 8.24656 172.776 8.24656H172.782ZM170.895 15.3266V13.3465C170.895 13.1911 170.895 13.0299 170.884 12.863C170.884 12.6903 170.866 12.5291 170.838 12.3737H172.478C172.444 12.5291 172.438 12.6903 172.432 12.8515C172.432 13.0184 172.432 13.1738 172.432 13.3177V13.9164H176.849C177.159 13.9164 177.468 13.9164 177.755 13.9106C178.048 13.9106 178.352 13.8876 178.656 13.8646V15.3727C178.346 15.3439 178.048 15.3266 177.755 15.3266C177.468 15.3209 177.159 15.3209 176.849 15.3209H170.895V15.3266ZM171.538 6.09376C171.538 6.28372 171.641 6.49094 171.842 6.70392C172.042 6.92265 172.369 7.03202 172.794 7.03202C173.218 7.03202 173.545 6.92265 173.752 6.70392C173.952 6.49094 174.056 6.28372 174.056 6.09376C174.056 5.90381 173.952 5.69083 173.752 5.46634C173.545 5.24761 173.224 5.13249 172.782 5.13249C172.341 5.13249 172.014 5.24761 171.83 5.46634C171.635 5.69083 171.543 5.90381 171.543 6.09376H171.538ZM176.969 11.7981H175.576C175.432 11.7981 175.283 11.8039 175.122 11.8096C174.968 11.8154 174.824 11.8269 174.681 11.8499V10.5087C174.824 10.5375 174.979 10.549 175.128 10.549C175.295 10.5548 175.449 10.5605 175.599 10.5605H176.975V5.38576C176.975 5.17278 176.975 4.95405 176.964 4.74683C176.958 4.53385 176.935 4.31511 176.912 4.09638H178.518C178.489 4.31511 178.478 4.53385 178.478 4.74683C178.478 4.95405 178.478 5.16702 178.478 5.38576V11.3779C178.478 11.6024 178.478 11.8211 178.478 12.0284C178.478 12.2413 178.489 12.4601 178.518 12.6673H176.912C176.929 12.5234 176.935 12.3795 176.941 12.2298C176.958 12.0917 176.964 11.942 176.964 11.7981H176.969Z" fill="#3D3D3C"/>
<path d="M182.97 5.86898C182.97 6.78997 183.153 7.53827 183.515 8.10812C183.87 8.67798 184.369 9.17877 184.995 9.61623C184.822 9.78892 184.645 9.96736 184.473 10.1573C184.295 10.353 184.157 10.52 184.031 10.6754C183.727 10.4681 183.394 10.1803 183.033 9.80043C182.677 9.42053 182.408 9.02911 182.201 8.61467C182.104 8.87369 181.972 9.12121 181.817 9.36872C181.656 9.60472 181.496 9.82921 181.312 10.0422C181.146 10.2552 180.962 10.4451 180.79 10.612C180.607 10.779 180.434 10.9286 180.28 11.0322C180.194 10.9632 180.108 10.8768 180.016 10.7962C179.93 10.7099 179.838 10.6293 179.74 10.5487C179.649 10.4681 179.54 10.3818 179.436 10.2955C179.339 10.2034 179.224 10.117 179.115 10.0192C179.385 9.84073 179.683 9.61048 179.981 9.33994C180.291 9.05789 180.561 8.71252 180.802 8.29232C180.968 7.98724 181.117 7.63612 181.215 7.23319C181.335 6.83026 181.381 6.38128 181.381 5.86323V5.41425C181.381 5.23581 181.381 5.06312 181.381 4.88468C181.369 4.71775 181.352 4.53931 181.329 4.35511H183.033C183.016 4.53931 182.993 4.72351 182.981 4.88468C182.981 5.05737 182.976 5.23581 182.976 5.41425V5.86323L182.97 5.86898ZM181.542 15.3263V12.7303C181.542 12.5749 181.542 12.4137 181.542 12.241C181.536 12.0741 181.519 11.9129 181.496 11.7575H183.102C183.079 11.9129 183.062 12.0684 183.056 12.241V13.9218H187.444C187.759 13.9218 188.063 13.9218 188.35 13.9161C188.637 13.9161 188.941 13.8931 189.262 13.87V15.3781C188.941 15.3494 188.637 15.3321 188.35 15.3321C188.063 15.3263 187.759 15.3263 187.444 15.3263H181.542ZM185.402 7.65914H184.782C184.645 7.65914 184.501 7.65914 184.352 7.6649C184.203 7.67066 184.065 7.68217 183.933 7.71095V6.17981C184.077 6.20284 184.214 6.22011 184.364 6.22011C184.513 6.22011 184.662 6.23162 184.805 6.23162H185.396V5.78264C185.396 5.52937 185.396 5.2761 185.385 5.02858C185.385 4.78107 185.362 4.53356 185.35 4.28029H186.893C186.864 4.53356 186.853 4.78107 186.853 5.02858V11.3949C186.853 11.6424 186.864 11.8842 186.893 12.1374H185.35C185.367 11.8899 185.379 11.6482 185.385 11.3949C185.39 11.1474 185.396 10.8941 185.396 10.6408V7.6649L185.402 7.65914ZM189.044 10.8999C189.044 11.1589 189.044 11.4122 189.05 11.6654C189.05 11.9187 189.061 12.1662 189.09 12.408H187.547C187.57 12.1662 187.587 11.9187 187.593 11.6654C187.604 11.4179 187.61 11.1589 187.61 10.8999V5.59844C187.61 5.33942 187.604 5.0919 187.604 4.84439C187.604 4.59687 187.587 4.34936 187.564 4.09033H189.096C189.073 4.3436 189.061 4.59687 189.056 4.84439C189.05 5.0919 189.05 5.33942 189.05 5.59844V10.8999H189.044Z" fill="#3D3D3C"/>
<path d="M194.694 6.05893H192.313V8.05056H195.72V9.44931H192.313V11.5561H193.288C193.438 11.5561 193.598 11.5445 193.77 11.5388C193.942 11.5388 194.149 11.5215 194.39 11.5043C194.602 11.4927 194.808 11.487 195.021 11.4582C195.239 11.4409 195.451 11.4122 195.663 11.3891C195.87 11.3661 196.059 11.3373 196.242 11.3085C196.432 11.2855 196.592 11.2567 196.73 11.2337V12.6267C196.575 12.6497 196.403 12.6728 196.231 12.6958C196.059 12.7188 195.87 12.7476 195.675 12.7648C195.474 12.7936 195.273 12.8167 195.061 12.8397C194.849 12.8627 194.619 12.88 194.401 12.8857C194.189 12.903 193.977 12.9145 193.759 12.9203C193.541 12.9318 193.294 12.9375 193.019 12.9433C192.749 12.9548 192.428 12.9548 192.072 12.9548H190.828V5.97835C190.828 5.76537 190.816 5.54664 190.816 5.3279C190.811 5.10341 190.793 4.88468 190.765 4.66019H195.25C195.439 4.66019 195.634 4.64868 195.835 4.6199V6.09347C195.726 6.08196 195.634 6.0762 195.543 6.0762C195.451 6.07045 195.353 6.06469 195.256 6.05893H194.688H194.694ZM197.803 9.50687H197.109C196.954 9.50687 196.805 9.51262 196.65 9.51838C196.495 9.51838 196.34 9.52989 196.208 9.55867V7.96422C196.351 7.993 196.506 7.99876 196.667 8.01027C196.828 8.01027 196.982 8.01027 197.126 8.01027H197.803V5.80566C197.803 5.52937 197.803 5.24156 197.791 4.95375C197.791 4.6717 197.774 4.3839 197.745 4.09033H199.351C199.328 4.37814 199.317 4.66595 199.305 4.95375C199.305 5.23581 199.305 5.52937 199.305 5.80566V13.8067C199.305 14.0945 199.305 14.3823 199.305 14.6701C199.311 14.9579 199.328 15.2342 199.351 15.5163H197.745C197.768 15.2342 197.785 14.9579 197.791 14.6701C197.803 14.3881 197.803 14.0945 197.803 13.8067V9.50687Z" fill="#3D3D3C"/>
<path d="M53.7784 23.6903C53.6005 23.5809 53.4113 23.5003 53.1933 23.4428C52.9753 23.3794 52.7574 23.3507 52.5279 23.3507C52.1895 23.3507 51.9142 23.46 51.702 23.6615C51.4897 23.8687 51.3865 24.1277 51.3865 24.4501C51.3865 24.571 51.4037 24.6861 51.4324 24.7839C51.461 24.8818 51.5241 24.9797 51.6102 25.089C51.6962 25.1869 51.8167 25.2962 51.983 25.4171C52.1494 25.538 52.3673 25.6761 52.6197 25.8258C53.1704 26.1424 53.5604 26.4705 53.7898 26.8044C54.0135 27.1382 54.1283 27.5239 54.1283 27.9556C54.1283 28.5715 53.9447 29.0665 53.5719 29.4579C53.2048 29.8436 52.6771 30.0393 52.0002 30.0393C51.7134 30.0393 51.4381 30.0105 51.1743 29.9587C50.9047 29.9012 50.6752 29.8206 50.4687 29.7285V28.7672C50.6982 28.8996 50.9333 29.0147 51.18 29.1068C51.4266 29.1932 51.6561 29.2392 51.8568 29.2392C52.2583 29.2392 52.5738 29.1241 52.8147 28.8996C53.0442 28.6751 53.1704 28.3988 53.1704 28.0822C53.1704 27.9326 53.1474 27.7944 53.1245 27.6735C53.0958 27.5584 53.0384 27.449 52.9639 27.3397C52.8836 27.2361 52.7746 27.1209 52.6254 26.9943C52.4648 26.8734 52.2698 26.7353 52.0346 26.5856C51.6848 26.3784 51.4152 26.1942 51.2144 26.033C51.0136 25.8719 50.853 25.7049 50.7326 25.5495C50.6179 25.3883 50.5318 25.2157 50.4917 25.0315C50.4458 24.853 50.4229 24.6343 50.4229 24.3868C50.4229 23.8054 50.6121 23.3507 50.9964 23.0283C51.3807 22.706 51.8626 22.5448 52.4534 22.5448C52.6828 22.5448 52.918 22.5678 53.1589 22.6139C53.4055 22.6599 53.612 22.7232 53.7726 22.7923V23.6845L53.7784 23.6903Z" fill="#3D3D3C"/>
<path d="M55.8662 22.6254H59.2733V23.4255H56.7954V25.7567H59.1644V26.5568H56.7954V29.1644H59.411V29.9587H55.8662V22.6196V22.6254Z" fill="#3D3D3C"/>
<path d="M61.585 23.5176C62.0668 22.8729 62.738 22.5448 63.6098 22.5448C64.4243 22.5448 65.0782 22.8729 65.5543 23.5349C66.0361 24.1911 66.277 25.089 66.277 26.2172C66.277 27.4721 66.0361 28.4218 65.5543 29.0665C65.0782 29.7112 64.4014 30.0335 63.5295 30.0335C62.7035 30.0335 62.0611 29.7054 61.5793 29.0435C61.1032 28.3873 60.8623 27.4951 60.8623 26.3669C60.8623 25.1063 61.1089 24.1623 61.5793 23.5176H61.585ZM61.9292 27.4663C61.9865 27.8117 62.0841 28.1225 62.2275 28.3988C62.3651 28.6751 62.5429 28.8823 62.7609 29.0435C62.9731 29.2047 63.2312 29.2852 63.5352 29.2852C63.7819 29.2852 64.0171 29.2277 64.2293 29.1183C64.4415 29.0032 64.6308 28.8248 64.7971 28.5888C64.9635 28.347 65.0897 28.0362 65.1815 27.639C65.2675 27.2476 65.3191 26.7698 65.3191 26.2287C65.3191 25.8373 65.2847 25.4632 65.2216 25.1236C65.1585 24.7839 65.061 24.4731 64.9233 24.2026C64.7799 23.9263 64.6136 23.7133 64.3899 23.5579C64.1662 23.4025 63.9138 23.3276 63.6098 23.3276C63.3632 23.3276 63.128 23.3794 62.9215 23.4888C62.7093 23.6039 62.52 23.7766 62.3594 24.0184C62.1873 24.2601 62.0611 24.5767 61.9693 24.9681C61.8833 25.3653 61.8374 25.8316 61.8374 26.3784C61.8374 26.7641 61.8661 27.1267 61.9292 27.4778V27.4663Z" fill="#3D3D3C"/>
<path d="M72.6258 27.2648C72.6258 27.6505 72.6086 27.9556 72.5685 28.1916C72.5226 28.4161 72.448 28.6578 72.3276 28.9053C72.1612 29.2392 71.9089 29.5097 71.5762 29.7227C71.232 29.9299 70.8248 30.0335 70.3257 30.0335C69.8267 30.0335 69.4137 29.9299 69.081 29.7227C68.7426 29.5097 68.496 29.2334 68.3296 28.9053C68.2092 28.6578 68.1346 28.4161 68.0887 28.1916C68.0543 27.9556 68.0371 27.6505 68.0371 27.2648V22.6254H68.9549V27.403C68.9549 27.9843 69.081 28.4448 69.322 28.7787C69.5629 29.1183 69.8955 29.2852 70.3315 29.2852C70.7674 29.2852 71.1058 29.1183 71.3467 28.7787C71.5876 28.4448 71.7081 27.9786 71.7081 27.403V22.6254H72.6258V27.2648Z" fill="#3D3D3C"/>
<path d="M74.6914 22.6254H75.6149V29.1701H78.0125V29.9645H74.6914V22.6254Z" fill="#3D3D3C"/>
<path d="M85.3947 23.6903C85.2226 23.5809 85.0276 23.5003 84.8039 23.4428C84.5917 23.3794 84.368 23.3507 84.15 23.3507C83.8116 23.3507 83.5363 23.46 83.324 23.6615C83.1118 23.8687 83.0143 24.1277 83.0143 24.4501C83.0143 24.571 83.0258 24.6861 83.0602 24.7839C83.0946 24.8818 83.1462 24.9797 83.238 25.089C83.324 25.1869 83.4502 25.2962 83.6166 25.4171C83.7829 25.538 83.9951 25.6761 84.2533 25.8258C84.8039 26.1424 85.1939 26.4705 85.4234 26.8044C85.6471 27.1382 85.7675 27.5239 85.7675 27.9556C85.7675 28.5715 85.5783 29.0665 85.2112 29.4579C84.8383 29.8436 84.3106 30.0393 83.6395 30.0393C83.3527 30.0393 83.0774 30.0105 82.8078 29.9587C82.5439 29.9012 82.303 29.8206 82.1023 29.7285V28.7672C82.326 28.8996 82.5554 29.0147 82.8135 29.1068C83.0717 29.1932 83.2954 29.2392 83.4904 29.2392C83.8919 29.2392 84.2074 29.1241 84.4425 28.8996C84.6777 28.6751 84.7924 28.3988 84.7924 28.0822C84.7924 27.9326 84.781 27.7944 84.7465 27.6735C84.7236 27.5584 84.6662 27.449 84.5974 27.3397C84.5171 27.2361 84.4081 27.1209 84.2533 26.9943C84.1041 26.8734 83.9091 26.7353 83.6625 26.5856C83.324 26.3784 83.0487 26.1942 82.848 26.033C82.6415 25.8719 82.4866 25.7049 82.3661 25.5495C82.2457 25.3883 82.1654 25.2157 82.1195 25.0315C82.0736 24.853 82.0449 24.6343 82.0449 24.3868C82.0449 23.8054 82.2399 23.3507 82.6243 23.0283C83.0028 22.706 83.4904 22.5448 84.0812 22.5448C84.3106 22.5448 84.5515 22.5678 84.7867 22.6139C85.0276 22.6599 85.2284 22.7232 85.4004 22.7923V23.6845L85.3947 23.6903Z" fill="#3D3D3C"/>
<path d="M87.8956 23.5176C88.3717 22.8729 89.0485 22.5448 89.9204 22.5448C90.7406 22.5448 91.3888 22.8729 91.8648 23.5349C92.3409 24.1911 92.5818 25.089 92.5818 26.2172C92.5818 27.4721 92.3409 28.4218 91.8648 29.0665C91.383 29.7112 90.7119 30.0335 89.8343 30.0335C89.0198 30.0335 88.3717 29.7054 87.8956 29.0435C87.4138 28.3873 87.1729 27.4951 87.1729 26.3669C87.1729 25.1063 87.408 24.1623 87.8956 23.5176ZM88.234 27.4663C88.2971 27.8117 88.3946 28.1225 88.5323 28.3988C88.6699 28.6751 88.842 28.8823 89.0657 29.0435C89.2837 29.2047 89.5418 29.2852 89.8343 29.2852C90.0867 29.2852 90.3161 29.2277 90.5341 29.1183C90.7463 29.0032 90.9356 28.8248 91.1077 28.5888C91.2626 28.347 91.3945 28.0362 91.4863 27.639C91.578 27.2476 91.6239 26.7698 91.6239 26.2287C91.6239 25.8373 91.5952 25.4632 91.5322 25.1236C91.4691 24.7839 91.3658 24.4731 91.2339 24.2026C91.0962 23.9263 90.9184 23.7133 90.7062 23.5579C90.4882 23.4025 90.2301 23.3276 89.9261 23.3276C89.6737 23.3276 89.45 23.3794 89.2321 23.4888C89.0198 23.6039 88.8305 23.7766 88.6642 24.0184C88.5036 24.2601 88.3831 24.5767 88.2856 24.9681C88.1938 25.3653 88.1537 25.8316 88.1537 26.3784C88.1537 26.7641 88.1824 27.1267 88.2455 27.4778L88.234 27.4663Z" fill="#3D3D3C"/>
<path d="M98.673 29.8207C98.1969 29.9646 97.7495 30.0394 97.3365 30.0394C96.7801 30.0394 96.2868 29.9416 95.8738 29.7458C95.4551 29.5559 95.1052 29.2796 94.8356 28.9342C94.5718 28.5831 94.371 28.1859 94.2448 27.7312C94.1186 27.2822 94.0498 26.7987 94.0498 26.2864C94.0498 25.7281 94.1301 25.21 94.285 24.7495C94.4398 24.289 94.6635 23.8918 94.9503 23.5637C95.2371 23.2299 95.587 22.9824 95.9828 22.8097C96.3786 22.637 96.8145 22.5507 97.2906 22.5507C97.5602 22.5507 97.8126 22.5737 98.0535 22.6197C98.3001 22.6658 98.5066 22.7291 98.6787 22.8154V23.7192C98.2886 23.4774 97.824 23.3508 97.3021 23.3508C97.0038 23.3508 96.7113 23.4083 96.4359 23.5292C96.1606 23.6501 95.914 23.8285 95.7075 24.0645C95.4953 24.2948 95.3232 24.5883 95.2027 24.9279C95.0823 25.2733 95.0192 25.659 95.0192 26.0964C95.0192 27.075 95.2085 27.8406 95.6157 28.3989C96.0058 28.9573 96.5908 29.2393 97.3709 29.2393C97.847 29.2393 98.2829 29.1242 98.6844 28.8997V29.8207H98.673Z" fill="#3D3D3C"/>
<path d="M100.429 22.6254H101.352V29.9645H100.429V22.6254Z" fill="#3D3D3C"/>
<path d="M106.153 22.6254L108.539 29.9645H107.576L106.985 28.0477H104.197L103.612 29.9645H102.694L105.144 22.6254H106.153ZM106.75 27.2533L105.631 23.5866H105.608L104.455 27.2533H106.75Z" fill="#3D3D3C"/>
<path d="M109.882 22.6254H110.811V29.1701H113.209V29.9645H109.882V22.6254Z" fill="#3D3D3C"/>
<path d="M117.556 22.6254H120.969V23.4255H118.485V25.7567H120.854V26.5568H118.485V29.1644H121.106V29.9587H117.556V22.6196V22.6254Z" fill="#3D3D3C"/>
<path d="M127.187 29.8207C126.711 29.9646 126.269 30.0394 125.856 30.0394C125.294 30.0394 124.806 29.9416 124.388 29.7458C123.975 29.5559 123.625 29.2796 123.355 28.9342C123.085 28.5831 122.885 28.1859 122.753 27.7312C122.627 27.2822 122.563 26.7987 122.563 26.2864C122.563 25.7281 122.644 25.21 122.804 24.7495C122.954 24.289 123.177 23.8918 123.464 23.5637C123.751 23.2299 124.095 22.9824 124.491 22.8097C124.892 22.637 125.322 22.5507 125.799 22.5507C126.062 22.5507 126.321 22.5737 126.561 22.6197C126.808 22.6658 127.015 22.7291 127.181 22.8154V23.7192C126.797 23.4774 126.338 23.3508 125.81 23.3508C125.512 23.3508 125.225 23.4083 124.944 23.5292C124.669 23.6501 124.428 23.8285 124.215 24.0645C124.003 24.2948 123.837 24.5883 123.705 24.9279C123.584 25.2733 123.527 25.659 123.527 26.0964C123.527 27.075 123.716 27.8406 124.124 28.3989C124.519 28.9573 125.104 29.2393 125.879 29.2393C126.355 29.2393 126.791 29.1242 127.187 28.8997V29.8207Z" fill="#3D3D3C"/>
<path d="M129.366 23.5176C129.842 22.8729 130.513 22.5448 131.391 22.5448C132.211 22.5448 132.854 22.8729 133.336 23.5349C133.817 24.1911 134.053 25.089 134.053 26.2172C134.053 27.4721 133.812 28.4218 133.336 29.0665C132.854 29.7112 132.177 30.0335 131.311 30.0335C130.491 30.0335 129.842 29.7054 129.366 29.0435C128.884 28.3873 128.644 27.4951 128.644 26.3669C128.644 25.1063 128.884 24.1623 129.366 23.5176ZM129.705 27.4663C129.762 27.8117 129.865 28.1225 129.997 28.3988C130.141 28.6751 130.318 28.8823 130.531 29.0435C130.743 29.2047 131.007 29.2852 131.311 29.2852C131.557 29.2852 131.798 29.2277 132.005 29.1183C132.223 29.0032 132.406 28.8248 132.573 28.5888C132.733 28.347 132.865 28.0362 132.951 27.639C133.043 27.2476 133.089 26.7698 133.089 26.2287C133.089 25.8373 133.054 25.4632 132.991 25.1236C132.928 24.7839 132.825 24.4731 132.693 24.2026C132.555 23.9263 132.383 23.7133 132.165 23.5579C131.953 23.4025 131.689 23.3276 131.391 23.3276C131.139 23.3276 130.909 23.3794 130.691 23.4888C130.479 23.6039 130.296 23.7766 130.123 24.0184C129.957 24.2601 129.831 24.5767 129.739 24.9681C129.653 25.3653 129.607 25.8316 129.607 26.3784C129.607 26.7641 129.636 27.1267 129.705 27.4778V27.4663Z" fill="#3D3D3C"/>
<path d="M135.819 22.6254H136.961L139.714 28.6866H139.737V22.6254H140.62V29.9645H139.479L136.726 23.9493H136.703V29.9645H135.825V22.6254H135.819Z" fill="#3D3D3C"/>
<path d="M143.092 23.5176C143.568 22.8729 144.251 22.5448 145.128 22.5448C145.937 22.5448 146.591 22.8729 147.073 23.5349C147.549 24.1911 147.79 25.089 147.79 26.2172C147.79 27.4721 147.549 28.4218 147.073 29.0665C146.597 29.7112 145.92 30.0335 145.042 30.0335C144.228 30.0335 143.574 29.7054 143.098 29.0435C142.622 28.3873 142.381 27.4951 142.381 26.3669C142.381 25.1063 142.622 24.1623 143.098 23.5176H143.092ZM143.436 27.4663C143.505 27.8117 143.597 28.1225 143.729 28.3988C143.866 28.6751 144.044 28.8823 144.262 29.0435C144.48 29.2047 144.738 29.2852 145.037 29.2852C145.295 29.2852 145.524 29.2277 145.742 29.1183C145.954 29.0032 146.144 28.8248 146.304 28.5888C146.465 28.347 146.591 28.0362 146.683 27.639C146.775 27.2476 146.82 26.7698 146.82 26.2287C146.82 25.8373 146.792 25.4632 146.734 25.1236C146.666 24.7839 146.562 24.4731 146.43 24.2026C146.298 23.9263 146.121 23.7133 145.903 23.5579C145.685 23.4025 145.427 23.3276 145.128 23.3276C144.876 23.3276 144.641 23.3794 144.429 23.4888C144.216 23.6039 144.027 23.7766 143.861 24.0184C143.7 24.2601 143.568 24.5767 143.482 24.9681C143.39 25.3653 143.344 25.8316 143.344 26.3784C143.344 26.7641 143.373 27.1267 143.436 27.4778V27.4663Z" fill="#3D3D3C"/>
<path d="M149.545 22.6254H150.973L152.803 28.4621H152.82L154.696 22.6254H156.084V29.9645H155.201V23.6327H155.178L153.107 29.9645H152.436L150.445 23.6327H150.428V29.9645H149.545V22.6254Z" fill="#3D3D3C"/>
<path d="M159.595 26.8849L157.409 22.6254H158.459L160.071 25.8776L161.7 22.6254H162.715L160.524 26.8849V29.9645H159.595V26.8849Z" fill="#3D3D3C"/>
<path d="M171.313 29.8207C170.842 29.9646 170.395 30.0394 169.982 30.0394C169.425 30.0394 168.938 29.9416 168.513 29.7458C168.095 29.5559 167.751 29.2796 167.481 28.9342C167.223 28.5831 167.016 28.1859 166.89 27.7312C166.758 27.2822 166.689 26.7987 166.689 26.2864C166.689 25.7281 166.77 25.21 166.925 24.7495C167.085 24.289 167.303 23.8918 167.59 23.5637C167.877 23.2299 168.227 22.9824 168.622 22.8097C169.013 22.637 169.454 22.5507 169.925 22.5507C170.194 22.5507 170.446 22.5737 170.693 22.6197C170.94 22.6658 171.146 22.7291 171.307 22.8154V23.7192C170.928 23.4774 170.469 23.3508 169.936 23.3508C169.638 23.3508 169.351 23.4083 169.07 23.5292C168.795 23.6501 168.554 23.8285 168.341 24.0645C168.123 24.2948 167.957 24.5883 167.831 24.9279C167.716 25.2733 167.653 25.659 167.653 26.0964C167.653 27.075 167.848 27.8406 168.244 28.3989C168.64 28.9573 169.225 29.2393 170.005 29.2393C170.481 29.2393 170.917 29.1242 171.307 28.8997V29.8207H171.313Z" fill="#3D3D3C"/>
<path d="M173.08 22.6254H176.487V23.4255H174.004V25.7567H176.367V26.5568H174.004V29.1644H176.625V29.9587H173.086V22.6196L173.08 22.6254Z" fill="#3D3D3C"/>
<path d="M178.386 22.6254H179.527L182.286 28.6866H182.303V22.6254H183.187V29.9645H182.039L179.286 23.9493H179.257V29.9645H178.38V22.6254H178.386Z" fill="#3D3D3C"/>
<path d="M186.307 23.4255H184.632V22.6254H188.899V23.4255H187.224V29.9645H186.307V23.4255Z" fill="#3D3D3C"/>
<path d="M190.351 22.6254H193.763V23.4255H191.274V25.7567H193.643V26.5568H191.274V29.1644H193.901V29.9587H190.351V22.6196V22.6254Z" fill="#3D3D3C"/>
<path d="M195.65 22.6254H197.532C197.91 22.6254 198.214 22.6657 198.455 22.752C198.696 22.8326 198.903 22.9592 199.08 23.1262C199.258 23.3046 199.396 23.5118 199.488 23.7478C199.579 23.9838 199.625 24.2428 199.625 24.5249C199.625 24.9509 199.511 25.325 199.275 25.6416C199.046 25.9524 198.679 26.1654 198.174 26.2805V26.3035C198.392 26.3496 198.559 26.4244 198.679 26.5338C198.799 26.6432 198.897 26.7986 198.971 27.0231L199.998 29.9645H199.006L198.163 27.4836C198.059 27.167 197.928 26.954 197.755 26.8274C197.595 26.7065 197.342 26.6432 197.004 26.6432H196.58V29.9645H195.656V22.6254H195.65ZM196.574 25.8833H197.291C197.738 25.8833 198.088 25.7567 198.318 25.5034C198.541 25.2502 198.662 24.9451 198.662 24.5825C198.662 24.1853 198.541 23.886 198.306 23.6845C198.071 23.4715 197.744 23.3737 197.32 23.3737H196.58V25.8776L196.574 25.8833Z" fill="#3D3D3C"/>
<path d="M30.1706 11.5005H27.4346V22.5005H30.1706V11.5005Z" fill="#1F9C52"/>
<path d="M38.3903 25.2574H35.6543V33.506H38.3903V25.2574Z" fill="#954B97"/>
<path d="M24.6932 4.62177H21.9457V0.500366H19.2097V4.62177H16.4736V7.37321L24.6875 7.37896L24.6932 4.62177Z" fill="#1F9C52"/>
<path d="M23.7006 12.1853C23.7006 10.4527 22.3011 9.05396 20.5803 9.05396C18.8595 9.05396 17.46 10.4527 17.46 12.1853C17.46 13.9179 18.8538 15.3166 20.5803 15.3166C22.3068 15.3166 23.7006 13.9179 23.7006 12.1853Z" fill="#1F9C52"/>
<path d="M16.852 30.3114C16.852 28.5846 15.4524 27.1801 13.7259 27.1801C11.9994 27.1801 10.6113 28.5846 10.6113 30.3114C10.6113 32.0382 12.0052 33.4427 13.7259 33.4427C15.4467 33.4427 16.852 32.044 16.852 30.3114Z" fill="#F7A823"/>
<path d="M19.9776 22.5058C20.815 22.5058 24.6925 22.5058 24.6925 22.5058V19.7544H21.945V17.0029H19.209C19.209 17.0029 19.209 20.566 19.209 21.746C19.209 22.3964 19.3122 22.5058 19.9719 22.5058H19.9776Z" fill="#1F9C52"/>
<path d="M0.0224609 17.0029V19.7486H5.51173L5.506 25.2515H8.24777V17.0029H0.0224609Z" fill="#F7A823"/>
<path d="M16.4623 17.757C16.4623 17.1065 16.3591 17.0029 15.6994 17.0029C14.8677 17.0029 10.9902 17.0029 10.9902 17.0029V19.7544H13.732V22.5058H10.9902V25.2515H16.468C16.468 25.2515 16.468 18.7643 16.468 17.757H16.4623Z" fill="#F7A823"/>
<path d="M11.7588 0.500366C12.5906 0.500366 16.468 0.500366 16.468 0.500366V3.24605H13.7263V14.246H10.9902V1.25442C10.9902 0.603977 11.0935 0.500366 11.7531 0.500366H11.7588Z" fill="#EA5053"/>
<path d="M4.11822 14.2515H8.1563C8.23661 14.2515 8.25955 14.2055 8.21366 14.1249C8.09321 13.9177 6.20609 10.6309 6.20609 10.6309C6.20609 10.6309 4.34192 7.39019 4.23294 7.20023C4.1641 7.08511 4.0838 7.08511 4.01497 7.20023C3.90599 7.39019 2.03608 10.6309 2.03608 10.6309C2.03608 10.6309 0.143226 13.9177 0.0285073 14.1249C-0.01738 14.2112 0.00556366 14.2458 0.0801306 14.2458H4.11822V14.2515Z" fill="#EA5053"/>
<path d="M37.627 3.25122H32.9121V6.00266H35.6539V8.7541H38.3899V4.00528C38.3899 3.35483 38.2809 3.25122 37.627 3.25122Z" fill="#F7A823"/>
<path d="M37.6328 11.5005C36.7953 11.5005 32.9121 11.5005 32.9121 11.5005V14.2462H35.6539V22.5005H38.3956V12.2488C38.3956 11.6041 38.2867 11.5005 37.6328 11.5005Z" fill="#F7A823"/>
<path d="M32.9177 0.500366H24.6924V3.25181H32.9177V0.500366Z" fill="#F7A823"/>
<path d="M28.7423 8.74946H31.6963C31.7479 8.74946 31.7708 8.71492 31.7307 8.65736C31.6447 8.50195 30.2623 6.10163 30.2623 6.10163C30.2623 6.10163 28.8971 3.7301 28.8168 3.5862C28.771 3.50561 28.7079 3.50561 28.662 3.5862C28.5817 3.72434 27.2165 6.10163 27.2165 6.10163C27.2165 6.10163 25.8342 8.50195 25.7481 8.65736C25.7137 8.71492 25.7309 8.74946 25.7883 8.74946H28.748H28.7423Z" fill="#F7A823"/>
<path d="M32.1438 28.0031C31.3121 28.0031 27.4346 28.0031 27.4346 28.0031V30.7545H30.1763V33.5002H32.9066V28.7571C32.9066 28.1067 32.8034 27.9973 32.1438 27.9973V28.0031Z" fill="#954B97"/>
<path d="M27.4343 25.2516H19.209V28.003H27.4343V25.2516Z" fill="#954B97"/>
<path d="M23.2595 33.5001H26.2193C26.2709 33.5001 26.2938 33.4713 26.2594 33.408C26.1734 33.2526 24.791 30.8522 24.791 30.8522C24.791 30.8522 23.4201 28.4807 23.3398 28.3368C23.294 28.2562 23.2309 28.2562 23.185 28.3368C23.1047 28.475 21.7395 30.8522 21.7395 30.8522C21.7395 30.8522 20.3572 33.2526 20.2654 33.4137C20.231 33.4713 20.2539 33.5001 20.3055 33.5001H23.2595Z" fill="#954B97"/>
</g>
<defs>
<clipPath id="clip0_616_3240">
<rect width="200" height="33" fill="white" transform="translate(0 0.5)"/>
</clipPath>
</defs>
</svg>
