<svg width="200" height="36" viewBox="0 0 200 36" fill="none" xmlns="http://www.w3.org/2000/svg">
<g clip-path="url(#clip0_616_3380)">
<path d="M73.2578 26.2145H74.0763V23.734H76.721V22.9974H74.0763V21.415H77.0995V20.6785H73.2578V26.2145Z" fill="#1C1C1B"/>
<path d="M79.3184 20.6785H78.5566V21.5196H79.3184V20.6785Z" fill="#1C1C1B"/>
<path d="M79.309 22.1604H78.5615V26.2138H79.309V22.1604Z" fill="#1C1C1B"/>
<path d="M82.9468 22.0421C82.5021 22.0421 82.1284 22.2179 81.8303 22.5648L81.7593 22.6599V22.1562H81.0449V26.2096H81.7924V24.0427C81.7924 23.6388 81.8823 23.3156 82.0669 23.078C82.2466 22.8452 82.4879 22.7311 82.7954 22.7311C83.084 22.7311 83.2922 22.8024 83.4152 22.9497C83.543 23.097 83.6045 23.3394 83.6045 23.6768V26.2096H84.352V23.4487C84.352 23.002 84.229 22.6504 83.983 22.408C83.7417 22.1657 83.3916 22.0374 82.9468 22.0374V22.0421Z" fill="#1C1C1B"/>
<path d="M89.5045 25.6679C89.4666 25.6679 89.443 25.6726 89.424 25.6726C89.3673 25.6726 89.3199 25.6584 89.2916 25.6251C89.2632 25.5918 89.2443 25.5491 89.2443 25.492V23.3109C89.2443 22.8975 89.1118 22.5791 88.8516 22.3652C88.5961 22.1514 88.2176 22.0421 87.7303 22.0421C87.2146 22.0421 86.8124 22.1562 86.5286 22.3795C86.2494 22.6028 86.0886 22.945 86.0555 23.3917V23.4392H86.7462V23.4012C86.7793 23.1636 86.8692 22.9783 87.0159 22.8595C87.1625 22.7407 87.366 22.6789 87.6309 22.6789C87.8959 22.6789 88.123 22.7359 88.2744 22.8499C88.4258 22.964 88.4967 23.1161 88.4967 23.3156V23.3489C88.4967 23.4392 88.4778 23.52 88.4352 23.577C88.3926 23.634 88.3359 23.672 88.2602 23.6958C88.1987 23.7148 88.1277 23.7243 88.0567 23.7338L87.1531 23.8479C86.7367 23.9001 86.415 24.0379 86.1974 24.2518C85.975 24.4704 85.8662 24.765 85.8662 25.1309C85.8662 25.4968 85.9845 25.7867 86.221 26.0053C86.4529 26.2191 86.7746 26.3284 87.1673 26.3284C87.6546 26.3284 88.0757 26.1716 88.4116 25.8675C88.4541 25.8294 88.492 25.7914 88.5298 25.7487C88.563 25.8817 88.615 25.991 88.6812 26.0718C88.8043 26.2191 88.9982 26.2951 89.2584 26.2951C89.3105 26.2951 89.3767 26.2856 89.4477 26.2714C89.5234 26.2571 89.5896 26.2334 89.6559 26.2096L89.6842 26.2001V25.6346L89.6322 25.6441C89.5896 25.6536 89.5518 25.6631 89.5139 25.6679H89.5045ZM88.492 24.5987C88.492 24.6842 88.492 24.7602 88.4825 24.8315C88.4778 24.9123 88.4683 24.9551 88.4636 24.9741C88.4116 25.1309 88.3075 25.2782 88.1514 25.4065C87.9195 25.5918 87.6309 25.6821 87.2903 25.6821C87.0821 25.6821 86.9165 25.6251 86.8077 25.5158C86.6942 25.4065 86.6374 25.2402 86.6374 25.0311C86.6374 24.8648 86.7036 24.7365 86.8408 24.6367C86.9828 24.5369 87.2099 24.4609 87.5221 24.4181L88.1324 24.3278C88.2602 24.3088 88.3832 24.2755 88.492 24.228V24.5939V24.5987Z" fill="#1C1C1B"/>
<path d="M93.0054 22.0421C92.5607 22.0421 92.187 22.2179 91.8889 22.5648L91.8179 22.6599V22.1562H91.1035V26.2096H91.851V24.0427C91.851 23.6388 91.9409 23.3156 92.1254 23.078C92.3052 22.8452 92.5465 22.7311 92.854 22.7311C93.1426 22.7311 93.3508 22.8024 93.4738 22.9497C93.6016 23.097 93.6631 23.3394 93.6631 23.6768V26.2096H94.4106V23.4487C94.4106 23.002 94.2876 22.6504 94.0416 22.408C93.8003 22.1657 93.4502 22.0374 93.0054 22.0374V22.0421Z" fill="#1C1C1B"/>
<path d="M98.6122 24.7365C98.5555 25.0311 98.4466 25.2639 98.281 25.4255C98.1155 25.5823 97.9073 25.6631 97.6613 25.6631C97.3254 25.6631 97.0746 25.5443 96.9043 25.2972C96.734 25.0501 96.6441 24.6747 96.6441 24.1853C96.6441 23.7243 96.7387 23.3537 96.9232 23.0923C97.103 22.8357 97.3585 22.7026 97.6755 22.7026C97.9451 22.7026 98.1675 22.7787 98.3284 22.926C98.4892 23.0733 98.5838 23.2871 98.6122 23.558V23.596H99.3361V23.5532C99.3124 23.0875 99.1563 22.7121 98.8677 22.446C98.5791 22.1799 98.1864 22.0421 97.7038 22.0421C97.1456 22.0421 96.6961 22.2369 96.3649 22.6266C96.0385 23.0115 95.8682 23.5342 95.8682 24.1853C95.8682 24.8363 96.029 25.3542 96.346 25.7391C96.6677 26.1241 97.0983 26.3236 97.6329 26.3236C98.1107 26.3236 98.5034 26.1858 98.792 25.9197C99.0806 25.6536 99.2651 25.2592 99.3314 24.7507V24.7032H98.617V24.7365H98.6122Z" fill="#1C1C1B"/>
<path d="M102.463 22.0421C101.881 22.0421 101.413 22.2464 101.067 22.6504C100.722 23.0495 100.552 23.596 100.552 24.2708C100.552 24.9075 100.717 25.4113 101.044 25.7772C101.37 26.1383 101.824 26.3236 102.392 26.3236C102.865 26.3236 103.258 26.2048 103.561 25.972C103.864 25.7391 104.067 25.397 104.166 24.9503L104.176 24.898H103.433V24.9313C103.386 25.1404 103.277 25.3162 103.097 25.454C102.917 25.5918 102.7 25.6584 102.458 25.6584C102.07 25.6584 101.782 25.5348 101.607 25.2972C101.465 25.1024 101.38 24.822 101.351 24.4609H104.233L104.242 24.1805C104.242 23.5437 104.076 23.0258 103.755 22.6313C103.428 22.2369 102.998 22.0374 102.473 22.0374L102.463 22.0421ZM101.347 23.8431C101.384 23.539 101.479 23.2919 101.63 23.1018C101.834 22.8499 102.099 22.7264 102.435 22.7264C102.771 22.7264 103.021 22.8357 103.192 23.0495C103.343 23.2396 103.428 23.5057 103.452 23.8431H101.342H101.347Z" fill="#1C1C1B"/>
<path d="M110.965 24.7076C111.106 24.3512 111.196 23.9853 111.229 23.6194V23.5718H110.558V23.6099C110.529 23.8807 110.463 24.1563 110.359 24.4224L109.413 23.2582C109.668 23.1014 109.881 22.9161 110.051 22.7165C110.288 22.4361 110.411 22.1653 110.411 21.9087C110.411 21.5475 110.293 21.2529 110.061 21.0295C109.829 20.8062 109.522 20.6969 109.148 20.6969C108.741 20.6969 108.41 20.8157 108.159 21.0533C107.908 21.2909 107.78 21.5998 107.78 21.9847C107.78 22.1272 107.833 22.3031 107.932 22.5169C108.031 22.726 108.168 22.9303 108.334 23.1299C107.956 23.3533 107.676 23.5813 107.501 23.7999C107.265 24.0946 107.146 24.451 107.146 24.8596C107.146 25.3016 107.298 25.6627 107.601 25.9336C107.903 26.2044 108.301 26.3422 108.788 26.3422C109.11 26.3422 109.413 26.2805 109.682 26.1569C109.943 26.0381 110.184 25.867 110.402 25.6485L110.865 26.2044L110.879 26.2187H111.821L110.837 25.0117C110.884 24.9214 110.927 24.8216 110.969 24.7171L110.965 24.7076ZM108.679 21.4905C108.783 21.3954 108.925 21.3432 109.1 21.3432C109.276 21.3432 109.413 21.3954 109.517 21.5047C109.621 21.6093 109.673 21.7518 109.673 21.9277C109.673 22.0892 109.588 22.2603 109.417 22.4456C109.309 22.5597 109.176 22.6642 109.029 22.7688L108.902 22.6119C108.788 22.4694 108.694 22.3268 108.627 22.189C108.561 22.056 108.523 21.9514 108.523 21.8706C108.523 21.7091 108.575 21.5855 108.679 21.4905ZM109.947 25.1305C109.805 25.2873 109.63 25.4156 109.427 25.5106C109.228 25.6057 109.029 25.658 108.845 25.658C108.556 25.658 108.32 25.5772 108.145 25.4156C107.97 25.254 107.88 25.0402 107.88 24.7788C107.88 24.5412 107.984 24.3036 108.192 24.0756C108.334 23.9235 108.519 23.7809 108.746 23.6384L109.952 25.1115L109.938 25.1257L109.947 25.1305Z" fill="#1C1C1B"/>
<path d="M117.546 23.1348L116.599 22.9067C116.178 22.807 115.89 22.7072 115.753 22.6074C115.62 22.5123 115.554 22.3698 115.554 22.1702C115.554 21.8708 115.653 21.6522 115.857 21.5002C116.065 21.3481 116.372 21.2673 116.775 21.2673C117.177 21.2673 117.479 21.3576 117.707 21.5382C117.934 21.7188 118.066 21.9754 118.094 22.3032V22.3413H118.856V22.2985C118.828 21.752 118.629 21.3148 118.26 21.0012C117.891 20.6876 117.394 20.5308 116.775 20.5308C116.155 20.5308 115.677 20.6876 115.317 20.9965C114.958 21.3101 114.773 21.7378 114.773 22.27C114.773 22.6406 114.882 22.9305 115.09 23.1443C115.298 23.3534 115.648 23.515 116.136 23.629L117.082 23.8571C117.536 23.9664 117.844 24.0805 117.99 24.1993C118.137 24.3181 118.208 24.4987 118.208 24.7505C118.208 25.0404 118.099 25.2542 117.877 25.4015C117.65 25.5536 117.314 25.6296 116.874 25.6296C116.396 25.6296 116.022 25.5251 115.757 25.316C115.497 25.1117 115.355 24.8123 115.346 24.4321V24.3894H114.584V24.4701C114.584 25.0499 114.787 25.5156 115.185 25.853C115.587 26.1904 116.159 26.3614 116.874 26.3614C117.517 26.3614 118.038 26.2141 118.416 25.9195C118.799 25.6249 118.993 25.2162 118.993 24.7125C118.993 24.2753 118.88 23.9284 118.658 23.6861C118.435 23.4437 118.061 23.2584 117.55 23.1348H117.546Z" fill="#1C1C1B"/>
<path d="M122.301 22.0421C121.719 22.0421 121.251 22.2464 120.905 22.6504C120.56 23.0495 120.39 23.596 120.39 24.2708C120.39 24.9075 120.555 25.4113 120.882 25.7772C121.208 26.1383 121.662 26.3236 122.23 26.3236C122.703 26.3236 123.096 26.2048 123.399 25.972C123.701 25.7391 123.905 25.397 124.004 24.9503L124.014 24.898H123.271V24.9313C123.224 25.1404 123.115 25.3162 122.935 25.454C122.755 25.5918 122.538 25.6584 122.296 25.6584C121.908 25.6584 121.62 25.5348 121.445 25.2972C121.303 25.1024 121.218 24.822 121.189 24.4609H124.07L124.08 24.1805C124.08 23.5437 123.914 23.0258 123.593 22.6313C123.266 22.2369 122.836 22.0374 122.31 22.0374L122.301 22.0421ZM121.184 23.8431C121.222 23.539 121.317 23.2919 121.468 23.1018C121.672 22.8499 121.937 22.7264 122.273 22.7264C122.609 22.7264 122.859 22.8357 123.03 23.0495C123.181 23.2396 123.266 23.5057 123.29 23.8431H121.18H121.184Z" fill="#1C1C1B"/>
<path d="M127.482 22.0421C127.104 22.0421 126.782 22.2179 126.522 22.5648C126.484 22.6123 126.451 22.6646 126.418 22.7216V22.1609H125.703V26.2143H126.451V24.0474C126.451 23.6578 126.545 23.3584 126.735 23.1493C126.919 22.945 127.189 22.8404 127.534 22.8404H127.714V22.0896L127.685 22.0801C127.619 22.0564 127.548 22.0421 127.482 22.0421Z" fill="#1C1C1B"/>
<path d="M130.396 25.3157L129.374 22.1889L129.365 22.1604H128.499L129.994 26.1853L130.008 26.2138H130.775L132.26 22.2174L132.279 22.1604H131.456L130.396 25.3157Z" fill="#1C1C1B"/>
<path d="M134.323 22.1604H133.575V26.2138H134.323V22.1604Z" fill="#1C1C1B"/>
<path d="M134.327 20.6785H133.565V21.5196H134.327V20.6785Z" fill="#1C1C1B"/>
<path d="M138.534 24.7365C138.477 25.0311 138.369 25.2639 138.203 25.4255C138.037 25.5823 137.829 25.6631 137.583 25.6631C137.247 25.6631 136.996 25.5443 136.826 25.2972C136.656 25.0501 136.566 24.6747 136.566 24.1853C136.566 23.7243 136.661 23.3537 136.845 23.0923C137.025 22.8357 137.28 22.7026 137.597 22.7026C137.867 22.7026 138.089 22.7787 138.25 22.926C138.411 23.0733 138.506 23.2871 138.534 23.558V23.596H139.258V23.5532C139.234 23.0875 139.078 22.7121 138.79 22.446C138.501 22.1799 138.108 22.0421 137.626 22.0421C137.067 22.0421 136.618 22.2369 136.287 22.6266C135.956 23.0115 135.79 23.5342 135.79 24.1853C135.79 24.8363 135.951 25.3542 136.268 25.7391C136.59 26.1241 137.02 26.3236 137.555 26.3236C138.033 26.3236 138.425 26.1858 138.714 25.9197C139.002 25.6536 139.187 25.2592 139.253 24.7507V24.7032H138.539V24.7365H138.534Z" fill="#1C1C1B"/>
<path d="M142.385 22.0421C141.803 22.0421 141.335 22.2464 140.989 22.6504C140.649 23.0495 140.474 23.596 140.474 24.2708C140.474 24.9075 140.639 25.4113 140.966 25.7772C141.292 26.1383 141.746 26.3236 142.314 26.3236C142.787 26.3236 143.18 26.2048 143.483 25.972C143.785 25.7391 143.989 25.397 144.088 24.9503L144.098 24.898H143.355V24.9313C143.308 25.1404 143.199 25.3162 143.019 25.454C142.839 25.5918 142.622 25.6584 142.38 25.6584C141.992 25.6584 141.704 25.5348 141.529 25.2972C141.387 25.1024 141.302 24.822 141.273 24.4609H144.154L144.164 24.1805C144.164 23.5437 143.998 23.0258 143.677 22.6313C143.35 22.2369 142.92 22.0374 142.394 22.0374L142.385 22.0421ZM141.268 23.8431C141.306 23.539 141.401 23.2919 141.552 23.1018C141.756 22.8499 142.021 22.7264 142.357 22.7264C142.693 22.7264 142.943 22.8357 143.114 23.0495C143.265 23.2396 143.35 23.5057 143.374 23.8431H141.264H141.268Z" fill="#1C1C1B"/>
<path d="M179.747 26.2191H180.58V23.7386H183.224V22.9878H180.58V21.4196H183.603V20.6736H179.747V26.2191Z" fill="#1C1C1B"/>
<path d="M187.406 24.3225C187.406 24.736 187.317 25.0639 187.137 25.3062C186.957 25.5438 186.72 25.6578 186.413 25.6578C186.139 25.6578 185.945 25.5913 185.826 25.4535C185.708 25.3157 185.646 25.0829 185.646 24.7645V22.1604H184.885V24.9355C184.885 25.3965 185.003 25.7481 185.235 25.981C185.467 26.2138 185.817 26.3326 186.276 26.3326C186.735 26.3326 187.085 26.1568 187.373 25.8099C187.397 25.7814 187.416 25.7576 187.44 25.7291V26.2281H188.168V22.1652H187.406V24.3321V24.3225Z" fill="#1C1C1B"/>
<path d="M191.801 22.0373C191.356 22.0373 190.978 22.2132 190.68 22.5648L190.618 22.6503V22.1561H189.89V26.2191H190.651V24.0474C190.651 23.6435 190.741 23.3204 190.921 23.0875C191.101 22.8547 191.337 22.7406 191.645 22.7406C191.929 22.7406 192.137 22.8119 192.26 22.9545C192.383 23.1018 192.449 23.3441 192.449 23.6768V26.2143H193.211V23.4487C193.211 22.9972 193.088 22.6456 192.842 22.4032C192.596 22.1561 192.246 22.0326 191.801 22.0326V22.0373Z" fill="#1C1C1B"/>
<path d="M197.541 20.6736V22.6314C197.252 22.237 196.864 22.0422 196.386 22.0422C195.909 22.0422 195.473 22.2322 195.166 22.6076C194.858 22.9783 194.702 23.4772 194.702 24.0807C194.702 24.765 194.863 25.3163 195.18 25.7154C195.502 26.1241 195.937 26.3284 196.481 26.3284C196.935 26.3284 197.309 26.1479 197.593 25.782V26.2191H198.303V20.6736H197.541ZM197.257 25.3115C197.068 25.5444 196.826 25.6584 196.514 25.6584C196.183 25.6584 195.937 25.5348 195.757 25.283C195.577 25.0264 195.488 24.6557 195.488 24.1805C195.488 23.6768 195.573 23.3014 195.738 23.0733C195.899 22.85 196.164 22.7359 196.514 22.7359C196.845 22.7359 197.091 22.8737 197.271 23.1541C197.451 23.4392 197.541 23.8479 197.541 24.3801C197.541 24.7698 197.446 25.0834 197.257 25.3163V25.3115Z" fill="#1C1C1B"/>
<path d="M151.795 24.1378C151.795 24.6321 151.676 25.0122 151.449 25.2641C151.222 25.5159 150.882 25.6442 150.437 25.6442C149.992 25.6442 149.651 25.5159 149.424 25.2641C149.193 25.0122 149.079 24.6321 149.079 24.1378V20.6499H148.223V24.1949C148.223 24.9172 148.412 25.4732 148.79 25.8533C149.169 26.2287 149.722 26.4235 150.437 26.4235C151.151 26.4235 151.672 26.224 152.064 25.8295C152.452 25.4351 152.651 24.8887 152.651 24.1949V20.6499H151.795V24.1378Z" fill="#1C1C1B"/>
<path d="M156.195 22.028C155.774 22.028 155.414 22.2038 155.13 22.5554V20.6499H154.345V26.2715H155.088V25.8866C155.362 26.2145 155.721 26.3808 156.166 26.3808C156.724 26.3808 157.174 26.1717 157.491 25.763C157.803 25.3591 157.964 24.7936 157.964 24.0903C157.964 23.4631 157.808 22.9594 157.496 22.5887C157.179 22.2133 156.734 22.0185 156.195 22.028ZM156.138 22.755C156.483 22.755 156.734 22.8643 156.895 23.0924C157.06 23.3205 157.146 23.6864 157.146 24.1711C157.146 24.6558 157.056 25.0455 156.885 25.3021C156.715 25.5539 156.469 25.6775 156.133 25.6775C155.797 25.6775 155.565 25.5682 155.39 25.3496C155.215 25.131 155.125 24.8079 155.125 24.3945C155.125 23.8195 155.211 23.3918 155.371 23.1304C155.532 22.8738 155.783 22.7503 156.133 22.7503L156.138 22.755Z" fill="#1C1C1B"/>
<path d="M161.976 24.3423C161.976 24.7557 161.886 25.0883 161.701 25.3307C161.522 25.5683 161.285 25.6823 160.978 25.6823C160.703 25.6823 160.509 25.6158 160.391 25.478C160.273 25.3402 160.211 25.1073 160.211 24.7889V22.1469H159.426V24.96C159.426 25.4305 159.544 25.7869 159.781 26.0245C160.017 26.2621 160.372 26.3809 160.84 26.3809C161.309 26.3809 161.664 26.2003 161.957 25.8486C161.976 25.8296 161.99 25.8106 162.004 25.7869V26.2716H162.757V22.1469H161.971V24.3423H161.976Z" fill="#1C1C1B"/>
<path d="M166.357 22.0279C165.903 22.0279 165.519 22.2085 165.217 22.5649L165.169 22.6267V22.1467H164.417V26.2715H165.202V24.0665C165.202 23.6626 165.292 23.3395 165.472 23.1019C165.652 22.869 165.888 22.755 166.196 22.755C166.48 22.755 166.688 22.8263 166.811 22.9688C166.939 23.1114 167 23.3585 167 23.6911V26.2667H167.786V23.463C167.786 23.0069 167.658 22.6505 167.412 22.3986C167.161 22.1467 166.806 22.0232 166.352 22.0232L166.357 22.0279Z" fill="#1C1C1B"/>
<path d="M170.378 21.0251H169.593V22.1466H169.039V22.8119H169.593V25.397C169.593 25.7343 169.659 25.9624 169.787 26.105C169.919 26.2476 170.141 26.3188 170.449 26.3188C170.558 26.3188 170.723 26.2998 170.955 26.2666L171.002 26.2571V25.6298H170.704C170.6 25.6298 170.515 25.606 170.454 25.5633C170.397 25.5205 170.369 25.4682 170.369 25.397V22.8119H170.998V22.1466H170.369V21.0251H170.378Z" fill="#1C1C1B"/>
<path d="M174.887 22.1469V24.3423C174.887 24.7557 174.797 25.0883 174.613 25.3307C174.433 25.5683 174.196 25.6823 173.889 25.6823C173.614 25.6823 173.42 25.6158 173.302 25.478C173.184 25.3402 173.122 25.1073 173.122 24.7889V22.1469H172.337V24.96C172.337 25.4305 172.455 25.7869 172.692 26.0245C172.928 26.2621 173.283 26.3809 173.752 26.3809C174.22 26.3809 174.575 26.2003 174.868 25.8486C174.887 25.8296 174.901 25.8106 174.915 25.7869V26.2716H175.668V22.1469H174.882H174.887Z" fill="#1C1C1B"/>
<path d="M73.2139 11.021L75.5416 11.9904L78.262 6.31181L80.9588 11.9904L83.2865 11.021L78.262 0.847046L73.2139 11.021Z" fill="#1C1C1B"/>
<path d="M86.5938 6.07405V1.22229H84.0059V16.0057H86.5938V8.02236H88.9878V6.07405H86.5938Z" fill="#1C1C1B"/>
<path d="M89.9199 9.61023V11.5585H94.301V16.0064H96.87V11.5585H101.256V9.61023H89.9199Z" fill="#1C1C1B"/>
<path d="M93.1553 3.19002H98.0189V6.21227H93.1553V3.19002ZM92.4788 8.14632H98.6908C99.7364 8.14632 100.607 7.46679 100.607 6.6447V1.24646H90.5674V6.63995C90.5674 7.45729 91.4379 8.14157 92.4835 8.14157L92.4788 8.14632Z" fill="#1C1C1B"/>
<path d="M113.495 6.89631V1.24622H103.626V3.19452H110.903V6.89631H103.021V8.83986H114.356V6.89631H113.495Z" fill="#1C1C1B"/>
<path d="M106.432 11.9721H110.903V14.063H106.432V11.9721ZM103.844 14.4907C103.844 15.327 104.714 16.0065 105.76 16.0065H111.579C112.625 16.0065 113.495 15.3223 113.495 14.4907V10.0286H103.848V14.4907H103.844Z" fill="#1C1C1B"/>
<path d="M121.921 7.19579C124.683 7.19579 127.025 5.72268 127.025 3.88842C127.025 2.40105 125.455 1.14178 123.392 0.718852C122.554 0.538277 121.253 0.528773 120.454 0.718852C118.386 1.14178 116.82 2.40105 116.82 3.88842C116.82 5.72743 119.162 7.19579 121.925 7.19579H121.921ZM121.921 2.55786C123.117 2.55786 124.064 3.1186 124.064 3.88842C124.064 4.65824 123.117 5.21897 121.921 5.21897C120.724 5.21897 119.777 4.65824 119.777 3.88842C119.777 3.1186 120.724 2.55786 121.921 2.55786Z" fill="#1C1C1B"/>
<path d="M127.589 9.54846V7.56213H116.253V9.54846H118.505V11.2877C118.339 11.378 118.179 11.473 118.032 11.5728H118.027C117.937 11.6393 117.847 11.7106 117.767 11.7819C117.436 12.0575 117.19 12.3664 117.029 12.6943C117.024 12.7085 117.019 12.718 117.015 12.7323C116.982 12.8036 116.953 12.8748 116.929 12.9461C116.915 12.9841 116.911 13.0221 116.896 13.0649C116.882 13.1124 116.868 13.1647 116.859 13.2122C116.844 13.3073 116.835 13.4023 116.835 13.4973C116.835 13.5971 116.844 13.6922 116.859 13.7872C116.868 13.8347 116.882 13.887 116.896 13.9345C116.906 13.9725 116.915 14.0153 116.929 14.0533C116.953 14.1246 116.982 14.1959 117.015 14.2672C117.019 14.2767 117.024 14.2909 117.029 14.3052C117.185 14.6378 117.436 14.9467 117.767 15.2223C117.847 15.2936 117.937 15.3649 118.027 15.4266H118.032C118.973 16.0872 120.378 16.5053 121.921 16.5053C123.463 16.5053 124.864 16.0872 125.81 15.4266H125.815C125.904 15.3601 125.994 15.2888 126.08 15.2176C126.406 14.9419 126.652 14.6378 126.813 14.3099C126.818 14.2957 126.827 14.2814 126.832 14.2672C126.86 14.2006 126.889 14.1341 126.912 14.0628C126.926 14.0201 126.936 13.982 126.945 13.9393C126.96 13.8918 126.974 13.8442 126.978 13.7967C126.993 13.7017 127.002 13.6066 127.002 13.5116C127.002 13.4118 126.993 13.3168 126.978 13.2217C126.969 13.1742 126.955 13.1267 126.945 13.0792C126.936 13.0364 126.926 12.9936 126.912 12.9556C126.889 12.8843 126.86 12.8178 126.832 12.7513C126.827 12.737 126.818 12.7228 126.813 12.7085C126.657 12.3806 126.406 12.0718 126.08 11.8009C125.994 11.7296 125.909 11.6583 125.815 11.5918H125.81C125.663 11.492 125.507 11.397 125.337 11.3067V9.56747H127.589V9.54846ZM121.093 9.54846H122.744V10.5416C122.474 10.5131 122.2 10.4941 121.916 10.4941C121.632 10.4941 121.363 10.5131 121.088 10.5416V9.54846H121.093ZM124.026 13.6684C123.932 14.0533 123.539 14.3717 122.971 14.5523C122.664 14.6473 122.309 14.7091 121.921 14.7091C121.533 14.7091 121.183 14.6473 120.871 14.5523C120.303 14.3717 119.91 14.0581 119.815 13.6684C119.801 13.6114 119.787 13.5544 119.787 13.4973C119.787 13.4403 119.801 13.3833 119.815 13.3263C119.91 12.9414 120.303 12.623 120.871 12.4424C121.183 12.3474 121.538 12.2856 121.921 12.2856C122.304 12.2856 122.664 12.3426 122.971 12.4424C123.534 12.623 123.932 12.9366 124.021 13.3263C124.036 13.3833 124.05 13.4403 124.05 13.4973C124.05 13.5544 124.036 13.6114 124.021 13.6684H124.026Z" fill="#1C1C1B"/>
<path d="M194.545 9.41492V7.27178H189.014V3.10906H194.516V1.15125H186.431V7.88479C186.431 8.72589 187.296 9.41492 188.342 9.41492H194.545Z" fill="#1C1C1B"/>
<path d="M190.584 10.1849H188.006V14.476C188.006 15.3171 188.763 16.0061 189.714 16.0061H198.301V13.863H190.584V10.1849Z" fill="#1C1C1B"/>
<path d="M198.296 3.88394V1.18958H195.779V10.3941H198.296V5.86551H199.999V3.88394H198.296Z" fill="#1C1C1B"/>
<path d="M146.608 10.6556H144.011V14.4762C144.011 15.3173 144.772 16.0064 145.733 16.0064H154.012V13.8632H146.613V10.6556H146.608Z" fill="#1C1C1B"/>
<path d="M143.296 7.53857V9.54391H147.663V11.1168H150.218V9.54391H154.712V7.53857H143.296Z" fill="#1C1C1B"/>
<path d="M151.443 1.07556V2.32058H146.565V1.07556H144.006V5.61844C144.006 6.44054 144.867 7.11056 145.898 7.11056H152.091C153.142 7.11056 154.003 6.44054 154.003 5.79427V1.07556H151.438H151.443ZM151.443 5.19552H146.565V4.22137H151.443V5.19552Z" fill="#1C1C1B"/>
<path d="M159.524 6.07929V5.54232H167.027V3.58451H159.524V3.04753H167.027V1.08972H156.94V3.58451V6.69705C156.94 7.53815 157.806 8.22718 158.852 8.22718H167.06V6.08404H159.528L159.524 6.07929Z" fill="#1C1C1B"/>
<path d="M156.33 9.55334V11.5587H160.716V16.0065H163.285V11.5587H167.671V9.55334H156.33Z" fill="#1C1C1B"/>
<path d="M130.313 9.55371V11.559H134.699V16.0069H137.268V11.559H141.649V9.55371H130.313Z" fill="#1C1C1B"/>
<path d="M135.981 2.8958C137.178 2.8958 138.124 3.53731 138.124 4.42593C138.124 5.31455 137.178 5.95131 135.981 5.95131C134.784 5.95131 133.838 5.3098 133.838 4.42593C133.838 3.54206 134.784 2.8958 135.981 2.8958ZM135.981 8.22275C138.744 8.22275 141.086 6.53581 141.086 4.42118C141.086 2.71047 139.515 1.26587 137.452 0.785921C136.615 0.576835 135.314 0.572083 134.514 0.785921C132.447 1.27062 130.881 2.71522 130.881 4.42118C130.881 6.53105 133.223 8.22275 135.986 8.22275H135.981Z" fill="#1C1C1B"/>
<path d="M182.437 1.15564V5.08552H181.174V1.15564H178.889V16.0055H181.174V7.01482H182.437V16.0055H184.713V1.15564H182.437Z" fill="#1C1C1B"/>
<path d="M177.768 3.20849V1.15564H169.379V3.20849H172.473L168.901 11.0112L171.054 11.9854L173.562 6.30678L176.097 11.9854L178.245 11.0112L174.654 3.20849H177.768Z" fill="#1C1C1B"/>
<path d="M23.0547 19.7477V23.0075H31.268V26.6475C31.268 27.5979 32.0344 28.3678 32.9806 28.3678C33.9269 28.3678 34.6933 27.5979 34.6933 26.6475V23.0075H42.9066V19.7477H23.0547Z" fill="#F18415"/>
<path d="M59.4467 9.76713V6.60707H46.9423V4.21683H59.442V1.06152H43.5264V7.4054V13.6257C43.5264 15.8164 45.2911 17.5889 47.4721 17.5889H59.442V14.4288H48.2575C47.5289 14.4288 46.9423 13.8396 46.9423 13.1078V9.76238H59.4467V9.76713Z" fill="#00A8AB"/>
<path d="M37.5789 1.06152V6.38373H28.3816V1.06152H25.2354V10.2518C25.2354 14.2292 28.7837 17.5936 32.9802 17.5936C37.1768 17.5936 40.7251 14.2292 40.7251 10.2518V1.06152H37.5789ZM37.5789 10.2518C37.5789 12.4805 35.431 14.4336 32.9802 14.4336C30.5295 14.4336 28.3816 12.4805 28.3816 10.2518V9.54854H37.5789V10.2518Z" fill="#F18415"/>
<path d="M58.1169 19.7476C60.4399 19.7476 62.4175 18.2269 63.113 16.1218L65.9564 17.7708C64.6648 20.8453 61.6369 23.0027 58.1169 23.0027H53.75V26.6379C53.75 27.5883 52.9836 28.3581 52.0374 28.3581C51.0911 28.3581 50.3247 27.5883 50.3247 26.6379V22.9979H42.9062V19.7381H58.1169V19.7476Z" fill="#00A8AB"/>
<path d="M13.9225 17.5942C18.6158 17.5942 22.4291 13.7593 22.4291 9.05014C22.4291 4.34093 18.611 0.501343 13.9225 0.501343C9.2339 0.501343 5.41113 4.33618 5.41113 9.04538C5.41113 13.7546 9.22917 17.5894 13.9177 17.5894L13.9225 17.5942ZM13.9225 3.76119C16.8227 3.76119 19.1835 6.13243 19.1835 9.04538C19.1835 11.9583 16.8227 14.3296 13.9225 14.3296C11.0223 14.3296 8.66143 11.9583 8.66143 9.04538C8.66143 6.13243 11.0223 3.76119 13.9225 3.76119Z" fill="#585FA8"/>
<path d="M7.83854 19.7479C5.51555 19.7479 3.53793 18.2273 2.84245 16.1222L-0.000976562 17.7711C1.29063 20.8457 4.31856 23.003 7.83854 23.003H12.2054V26.6383C12.2054 27.5887 12.9718 28.3585 13.9181 28.3585C14.8643 28.3585 15.6308 27.5887 15.6308 26.6383V22.9983H23.0492V19.7384H7.83854V19.7479Z" fill="#585FA8"/>
<path d="M33.742 32.241C30.8418 32.241 28.4809 29.8698 28.4809 26.9568V26.168H25.2354V26.9568C25.2354 31.6707 29.0534 35.5008 33.742 35.5008H37.0774V32.241H33.742Z" fill="#F18415"/>
<path d="M15.8057 9.04533C15.8057 7.99989 14.9589 7.14929 13.918 7.14929C12.8771 7.14929 12.0303 7.99989 12.0303 9.04533C12.0303 10.0908 12.8771 10.9414 13.918 10.9414C14.9589 10.9414 15.8057 10.0908 15.8057 9.04533Z" fill="#83BC34"/>
</g>
<defs>
<clipPath id="clip0_616_3380">
<rect width="200" height="35" fill="white" transform="translate(0 0.5)"/>
</clipPath>
</defs>
</svg>
