<svg xmlns="http://www.w3.org/2000/svg" xml:space="preserve" width="350" height="110" style="fill-rule:evenodd;clip-rule:evenodd;stroke-linejoin:round;stroke-miterlimit:2" viewBox="0 0 2305 725"><path d="M350.902.9c-.166-.022-.297-.13-.297-.295 0-.165.133-.295.297-.295h180.815v109.759C490.239 51.493 425.402 10.702 350.902.9Z" style="fill:#f36c21;fill-rule:nonzero" transform="scale(4.16667)"/><path d="M501.875 64.255c1.224-18.068.831-28.619 3.923-31.485 2.861-2.65 8.02-3.372 16.785-4.009-19.242-2.223-18.776-1.653-20.708-20.356-1.931 18.703-1.465 18.133-20.708 20.356 8.765.637 13.925 1.359 16.786 4.009 3.092 2.866 2.699 13.417 3.922 31.485Z" style="fill:#fff;fill-rule:nonzero" transform="scale(4.16667)"/><path d="M203.043 76.774v23.584c-2.802 2.39-5.401 4.156-9.349 4.156-4.779 0-11.012-4.052-11.012-15.791 0-12.674 9.869-21.815 20.361-11.949Zm190.594 11.743c0 9.037-3.013 16.204-9.765 16.204-6.753 0-9.766-7.167-9.766-16.204 0-9.04 3.013-16.21 9.766-16.21 6.752 0 9.765 7.17 9.765 16.21Zm-30.958 0c0 10.908 8.101 19.946 21.193 19.946 13.088 0 21.192-9.038 21.192-19.946 0-10.91-8.104-19.949-21.192-19.949-13.092 0-21.193 9.039-21.193 19.949Zm-259.52 0c0 9.037-3.013 16.204-9.765 16.204-6.753 0-9.767-7.167-9.767-16.204 0-9.04 3.014-16.21 9.767-16.21 6.752 0 9.765 7.17 9.765 16.21ZM44.047 60.571h-6.13L25.659 92.255l-13.09-36.462H0l19.427 52.149h5.922l12.568-32.203 12.466 32.203h5.924l19.424-52.044h-5.92l-13.61 36.357-12.154-31.684Zm408.425 47.473V86.542c0-14.545-11.115-18.18-17.657-18.18-4.677 0-8.626 1.766-12.573 4.466l-.211-.105v-3.742h-9.97v39.063h10.802V76.57c3.221-2.809 6.34-3.951 9.039-3.951 5.715 0 9.662 5.508 9.662 11.53v23.895h10.908Zm-191.317 0h4.573l22.855-52.462h-5.923l-15.895 36.882-15.687-36.882H237.99l23.165 52.462Zm-70.473.833c5.09 0 9.246-1.765 12.985-4.676l.208.104v3.739h9.973V48.309h-10.805v23.793c-3.012-2.288-7.582-3.74-12.257-3.74-5.922 0-20.05 3.635-20.05 20.777 0 12.779 11.219 19.738 19.946 19.738Zm117.506-29.191c-1.038 14.857 20.779 11.324 20.156 20.363-.314 3.63-3.43 4.881-6.753 4.777-5.404-.418-8.727-3.534-11.636-6.962l-3.219 7.168c4.359 2.493 9.139 3.74 13.295 4.053 9.351.622 17.249-3.432 17.764-12.466.935-14.024-21.608-12.261-21.191-19.428.209-3.116 3.737-4.673 7.374-4.468 3.742.312 6.651 2.39 9.87 5.298l2.911-6.44a36.35 36.35 0 0 0-11.324-2.909c-10.077-.622-16.83 4.675-17.247 11.014Zm-10.776-28.361c-3.223 0-5.715 2.494-5.715 5.715 0 3.217 2.492 5.711 5.715 5.711 3.221 0 5.713-2.494 5.713-5.711 0-3.221-2.492-5.715-5.713-5.715Zm4.052 17.656h-10.803v39.064h10.803V68.981ZM72.201 88.517c0 10.908 8.101 19.946 21.193 19.946 13.088 0 21.192-9.038 21.192-19.946 0-10.91-8.104-19.949-21.192-19.949-13.092 0-21.193 9.039-21.193 19.949Zm92.535-40.208h-10.805v59.735h10.805V48.309Zm-43.734 20.672v39.063h10.801V76.256c3.639-3.116 6.235-2.078 13.404 3.845l4.363-9.766c-2.182-.936-4.987-1.973-9.039-1.973-4.051 0-7.065 1.973-8.518 3.74l-.522.621-.103-.104.103-3.638h-10.489ZM344.796 68.981h10.803v39.064h-10.803zM350.547 51.325c-3.223 0-5.715 2.494-5.715 5.715 0 3.217 2.492 5.711 5.715 5.711 3.221 0 5.713-2.494 5.713-5.711 0-3.221-2.492-5.715-5.713-5.715Z" style="fill:#221e1f;fill-rule:nonzero" transform="scale(4.16667)"/><path d="m7.146 138.683-1.704 12.121h16.923l1.588-12.121h1.858l-3.601 26.41h-1.858l1.781-12.624H5.248l-1.703 12.624H1.686l3.602-26.41h1.858ZM38.609 161.395c1.175-1.768 1.763-4.033 1.763-6.796 0-1.833-.414-3.265-1.24-4.299-.826-1.032-1.897-1.548-3.214-1.548-1.936 0-3.479.949-4.628 2.846-1.148 1.898-1.723 4.15-1.723 6.757 0 1.704.4 3.079 1.201 4.124.799 1.046 1.858 1.568 3.175 1.568 1.936 0 3.492-.883 4.666-2.652Zm1.22 1.066c-1.497 2.039-3.472 3.058-5.925 3.058-1.859 0-3.33-.683-4.414-2.052-1.085-1.368-1.627-3.111-1.627-5.228 0-3.304.756-5.957 2.266-7.958 1.51-2 3.491-3.001 5.944-3.001 1.807 0 3.259.672 4.357 2.014 1.096 1.342 1.645 3.136 1.645 5.382 0 3.151-.749 5.744-2.246 7.785ZM47.38 163.893c.594.077 1.013.129 1.259.154.245.027.587.039 1.026.039 2.788 0 4.995-.806 6.622-2.419 1.626-1.614 2.439-3.763 2.439-6.449 0-2.091-.503-3.711-1.51-4.859-1.007-1.148-2.298-1.724-3.872-1.724a7.24 7.24 0 0 0-2.092.329 6.018 6.018 0 0 0-1.975 1.027l-1.897 13.902Zm2.711-20.02-.62 4.646c.749-.465 1.472-.787 2.169-.968a8.632 8.632 0 0 1 2.168-.271c1.988 0 3.588.729 4.802 2.188 1.213 1.458 1.82 3.375 1.82 5.75 0 3.151-.962 5.649-2.885 7.493-1.923 1.847-4.525 2.77-7.803 2.77-.362 0-.774-.02-1.239-.059a42.634 42.634 0 0 1-1.356-.135l-1.123 8.365h-1.665l3.137-22.693c-.31.258-.639.594-.987 1.006-.349.413-.678.814-.988 1.202l-.774 1.044c-.233.31-.362.465-.388.465-.129 0-.193-.077-.193-.232 0-.335.335-1.026 1.007-2.071a13.162 13.162 0 0 1 2.478-2.847l.813-5.653h1.627ZM75.571 154.483c0-1.781-.381-3.189-1.142-4.222-.762-1.032-1.853-1.549-3.272-1.549-1.317 0-2.505.504-3.563 1.511-1.059 1.007-1.781 2.427-2.168 4.26h10.145Zm1.588 1.277H65.155c-.027.233-.046.459-.058.678-.014.22-.02.498-.02.833 0 2.194.509 3.879 1.53 5.054 1.019 1.175 2.355 1.761 4.008 1.761.903 0 1.787-.161 2.653-.484.864-.322 1.787-.857 2.768-1.606l-.193 1.742a9.754 9.754 0 0 1-2.537 1.336 8.59 8.59 0 0 1-2.807.445c-2.221 0-3.964-.748-5.228-2.246-1.266-1.497-1.898-3.511-1.898-6.041 0-2.711.755-5.047 2.266-7.009 1.51-1.962 3.375-2.943 5.595-2.943 1.782 0 3.227.652 4.337 1.956 1.11 1.304 1.666 3.208 1.666 5.712 0 .413-.027.683-.078.812ZM80.179 161.957h2.169l-.349 2.671c-.207 1.524-.594 2.698-1.162 3.525-.567.825-1.277 1.381-2.13 1.665l.117-1.007c.516-.309.916-.774 1.2-1.394.284-.62.49-1.394.62-2.324h-.891l.426-3.136ZM103.414 138.683l-3.795 27.572c-.413 2.891-1.142 4.905-2.188 6.041-1.046 1.136-2.485 1.704-4.318 1.704a8.654 8.654 0 0 1-2.014-.232l-.426-1.782c.413.103.775.181 1.085.232.309.052.684.078 1.122.078 1.421 0 2.512-.432 3.273-1.297.761-.866 1.297-2.459 1.607-4.783l3.796-27.533h1.858ZM116.212 161.395c1.175-1.768 1.763-4.033 1.763-6.796 0-1.833-.414-3.265-1.24-4.299-.826-1.032-1.897-1.548-3.214-1.548-1.936 0-3.479.949-4.628 2.846-1.148 1.898-1.723 4.15-1.723 6.757 0 1.704.4 3.079 1.201 4.124.799 1.046 1.858 1.568 3.175 1.568 1.936 0 3.492-.883 4.666-2.652Zm1.22 1.066c-1.497 2.039-3.472 3.058-5.925 3.058-1.859 0-3.33-.683-4.414-2.052-1.085-1.368-1.627-3.111-1.627-5.228 0-3.304.756-5.957 2.266-7.958 1.51-2 3.491-3.001 5.944-3.001 1.807 0 3.259.672 4.357 2.014 1.096 1.342 1.645 3.136 1.645 5.382 0 3.151-.749 5.744-2.246 7.785ZM124.015 147.706l2.711 14.755 7.396-14.755h1.743L122.776 174h-1.821l4.609-9.139-3.253-17.155h1.704ZM156.175 163.137c.968-.528 1.826-1.258 2.575-2.187l1.627-12.005a24.52 24.52 0 0 0-1.046-.136 11.544 11.544 0 0 0-1.2-.057c-2.814 0-5.054.884-6.719 2.652-1.665 1.768-2.498 4.034-2.498 6.797 0 1.781.394 3.181 1.182 4.201.787 1.02 1.839 1.529 3.155 1.529.981 0 1.956-.263 2.924-.794Zm6.022-15.392-2.324 17.348h-1.665l.31-2.401c-1.73 1.808-3.615 2.711-5.654 2.711-1.678 0-3.04-.658-4.085-1.975-1.046-1.316-1.569-3.033-1.569-5.15 0-3.278.994-5.931 2.982-7.958 1.988-2.026 4.673-3.04 8.055-3.04.749 0 1.465.046 2.149.136.684.09 1.284.2 1.801.329ZM178.984 153.069c-.039.401-.085.781-.136 1.142l-1.549 10.882h-1.665l1.549-10.882a23.125 23.125 0 0 0 .193-2.051c0-1.136-.251-1.982-.754-2.537-.504-.555-1.208-.832-2.111-.832-2.066 0-4.273 1.342-6.622 4.027l-1.704 12.275h-1.626l2.362-17.387h1.665l-.464 3.331c2.245-2.427 4.517-3.641 6.815-3.641 1.316 0 2.33.413 3.04 1.239.709.826 1.064 1.989 1.064 3.486 0 .232-.019.548-.057.948ZM192.149 164.009a8.648 8.648 0 0 0 1.414-.271l2.052-14.831a25.63 25.63 0 0 0-1.258-.136c-.452-.039-.91-.059-1.375-.059-2.763 0-4.951.847-6.564 2.538-1.613 1.69-2.42 3.775-2.42 6.253 0 2.091.606 3.711 1.82 4.86 1.213 1.149 2.891 1.723 5.034 1.723.388 0 .819-.025 1.297-.077Zm6.526-25.326-3.64 26.333-1.317.233c-.517.102-.975.173-1.375.212-.4.039-.936.058-1.607.058-2.737 0-4.835-.716-6.293-2.149-1.459-1.433-2.188-3.363-2.188-5.789 0-2.995 1.007-5.454 3.021-7.377 2.013-1.923 4.531-2.885 7.551-2.885.336 0 .8.013 1.394.038.594.026 1.123.065 1.588.116l1.201-8.79h1.665ZM216.643 138.683l-3.795 27.572c-.413 2.891-1.142 4.905-2.188 6.041-1.046 1.136-2.485 1.704-4.318 1.704a8.654 8.654 0 0 1-2.014-.232l-.426-1.782c.413.103.775.181 1.085.232.309.052.684.078 1.122.078 1.421 0 2.512-.432 3.273-1.297.761-.866 1.297-2.459 1.607-4.783l3.795-27.533h1.859ZM222.373 147.706l-1.548 11.346c-.053.44-.091.775-.117 1.007a6.186 6.186 0 0 0-.038.658c0 1.137.251 1.975.755 2.518.503.542 1.206.812 2.111.812.954 0 1.961-.302 3.02-.91 1.058-.605 2.246-1.632 3.563-3.078l1.665-12.353h1.665l-2.362 17.387h-1.666l.427-3.292c-1.137 1.214-2.253 2.118-3.35 2.711a7.182 7.182 0 0 1-3.466.891c-1.343 0-2.356-.419-3.04-1.259-.684-.838-1.026-1.941-1.026-3.31 0-.207.019-.478.058-.814.039-.335.083-.684.136-1.045l1.548-11.269h1.665ZM247.08 148.907l-.194 1.665c-.982-.671-1.846-1.136-2.595-1.395a7.2 7.2 0 0 0-2.362-.386c-1.033 0-1.865.257-2.497.774-.634.517-.949 1.161-.949 1.936 0 1.11.838 2.195 2.517 3.252 1.678 1.06 2.956 2.053 3.833 2.983.878.929 1.317 2.026 1.317 3.291 0 1.394-.484 2.492-1.452 3.292-.968.8-2.214 1.2-3.737 1.2h-.077a8.311 8.311 0 0 1-2.924-.542 9.524 9.524 0 0 1-2.692-1.549l.388-1.627c1.755 1.498 3.524 2.246 5.305 2.246 1.162 0 2.039-.295 2.633-.89.594-.594.891-1.303.891-2.13 0-1.445-1.284-2.942-3.853-4.492-2.569-1.549-3.853-3.2-3.853-4.956 0-1.24.484-2.259 1.452-3.06.968-.8 2.226-1.2 3.776-1.2 1.729 0 3.42.529 5.073 1.588ZM255.173 143.873l-.658 3.833h4.685l-.272 1.433h-4.684l-1.511 9.062c-.052.413-.116.923-.194 1.529a12.512 12.512 0 0 0-.116 1.529c0 .982.226 1.692.678 2.13.451.44 1.052.658 1.801.658a4.64 4.64 0 0 0 1.723-.329 8.008 8.008 0 0 0 1.53-.794l-.194 1.627a7.395 7.395 0 0 1-1.627.736 5.761 5.761 0 0 1-1.665.232c-1.084 0-2.007-.323-2.769-.968-.761-.645-1.142-1.677-1.142-3.097 0-.362.026-.814.077-1.356.052-.543.142-1.175.272-1.897l1.471-9.062h-3.33l.232-1.433h3.37l.658-3.833h1.665ZM265.202 140.193l-.387 2.982h-1.704l.387-2.982h1.704Zm-1.045 7.513-2.363 17.387h-1.665l2.401-17.387h1.627ZM280.305 147.668l-.233 1.509a15.516 15.516 0 0 0-1.413-.29 9.565 9.565 0 0 0-1.414-.096c-2.453 0-4.486.878-6.099 2.632-1.614 1.756-2.42 3.873-2.42 6.351 0 1.834.497 3.331 1.491 4.492.993 1.162 2.368 1.743 4.124 1.743.697 0 1.439-.103 2.227-.31.787-.206 1.594-.568 2.42-1.084l-.233 1.781a10.503 10.503 0 0 1-4.762 1.123c-2.092 0-3.776-.723-5.054-2.168-1.278-1.446-1.917-3.344-1.917-5.693 0-2.839.955-5.28 2.866-7.319 1.91-2.039 4.401-3.059 7.473-3.059.465 0 .962.039 1.491.116.529.077 1.013.168 1.453.272ZM293.975 154.483c0-1.781-.381-3.189-1.143-4.222-.762-1.032-1.854-1.549-3.272-1.549-1.318 0-2.505.504-3.564 1.511-1.059 1.007-1.78 2.427-2.168 4.26h10.147Zm1.587 1.277h-12.005c-.026.233-.045.459-.058.678-.014.22-.02.498-.02.833 0 2.194.51 3.879 1.531 5.054 1.019 1.175 2.355 1.761 4.008 1.761a7.52 7.52 0 0 0 2.652-.484c.865-.322 1.787-.857 2.769-1.606l-.193 1.742a9.77 9.77 0 0 1-2.537 1.336 8.59 8.59 0 0 1-2.807.445c-2.22 0-3.965-.748-5.229-2.246-1.265-1.497-1.898-3.511-1.898-6.041 0-2.711.756-5.047 2.266-7.009 1.51-1.962 3.375-2.943 5.596-2.943 1.781 0 3.226.652 4.338 1.956 1.109 1.304 1.664 3.208 1.664 5.712 0 .413-.026.683-.077.812ZM323.56 138.838l-.232 1.549a6.98 6.98 0 0 0-1.84-.658 9.207 9.207 0 0 0-1.84-.194c-3.097 0-4.892 1.807-5.381 5.422l-.427 2.749h4.26l-.233 1.433h-4.221l-3.136 23.506h-1.665l3.136-23.506h-3.213l.232-1.433h3.214l.426-2.866c.309-2.194 1.045-3.879 2.207-5.053 1.162-1.175 2.762-1.762 4.801-1.762a9.64 9.64 0 0 1 3.912.813ZM328.536 161.395c1.174-1.768 1.762-4.033 1.762-6.796 0-1.833-.413-3.265-1.239-4.299-.827-1.032-1.898-1.548-3.214-1.548-1.937 0-3.48.949-4.628 2.846-1.15 1.898-1.724 4.15-1.724 6.757 0 1.704.4 3.079 1.201 4.124.8 1.046 1.859 1.568 3.175 1.568 1.937 0 3.491-.883 4.667-2.652Zm1.22 1.066c-1.498 2.039-3.473 3.058-5.925 3.058-1.859 0-3.331-.683-4.415-2.052-1.084-1.368-1.626-3.111-1.626-5.228 0-3.304.755-5.957 2.265-7.958 1.51-2 3.491-3.001 5.944-3.001 1.807 0 3.259.672 4.356 2.014 1.098 1.342 1.647 3.136 1.647 5.382 0 3.151-.749 5.744-2.246 7.785ZM345.865 147.822l-.581 1.665c-.491-.258-.981-.387-1.472-.387-.749 0-1.523.297-2.323.891-.801.594-1.549 1.343-2.246 2.246l-1.394 1.858-1.51 10.998h-1.665l2.4-17.387h1.665l-.619 4.298c1.316-1.729 2.426-2.929 3.33-3.601.903-.671 1.807-1.007 2.711-1.007a3.61 3.61 0 0 1 1.704.426ZM360.58 154.251h8.636l-2.826-13.206-5.81 13.206Zm7.049-15.839 5.614 26.681h-1.742l-2.014-9.333h-9.565l-4.105 9.333h-1.858l11.927-26.681h1.743ZM381.801 138.683l-3.447 24.745h11.385l-.193 1.665h-13.243l3.639-26.41h1.859ZM398.259 138.683l-3.447 24.745h11.385l-.193 1.665h-13.243l3.639-26.41h1.859ZM439.268 138.567l-.309 1.665a36.599 36.599 0 0 0-1.549-.174 16.306 16.306 0 0 0-.93-.019c-4.259 0-7.829 1.407-10.707 4.22-2.879 2.815-4.318 6.184-4.318 10.108 0 2.659.762 4.885 2.285 6.679 1.523 1.795 3.486 2.692 5.886 2.692 2.452 0 5.073-.903 7.861-2.711l-.271 2.092a17.553 17.553 0 0 1-3.833 1.703c-1.343.413-2.621.62-3.834.62-2.969 0-5.383-1.059-7.241-3.176-1.86-2.116-2.79-4.724-2.79-7.822 0-4.543 1.66-8.364 4.977-11.462 3.317-3.099 7.3-4.647 11.946-4.647.982 0 1.923.077 2.827.232ZM445.426 138.683l-1.704 12.276c2.271-2.453 4.594-3.679 6.97-3.679 1.136 0 2.077.413 2.826 1.239.75.826 1.124 1.949 1.124 3.369 0 .336-.026.742-.078 1.22-.051.478-.103.858-.155 1.143l-1.51 10.842h-1.665l1.549-11.152c.052-.284.097-.626.136-1.026.038-.401.058-.704.058-.911 0-1.162-.278-2.006-.833-2.536-.555-.529-1.246-.794-2.072-.794-.981 0-1.981.304-3.001.911-1.02.606-2.214 1.658-3.582 3.155l-1.704 12.353h-1.665l3.64-26.41h1.666ZM462.774 140.193l-.387 2.982h-1.704l.387-2.982h1.704Zm-1.046 7.513-2.362 17.387h-1.665l2.401-17.387h1.626ZM469.629 138.683l-3.641 26.41h-1.626l3.601-26.41h1.666ZM481.227 164.009a8.668 8.668 0 0 0 1.414-.271l2.051-14.831a25.366 25.366 0 0 0-1.258-.136c-.452-.039-.91-.059-1.374-.059-2.763 0-4.952.847-6.565 2.538-1.613 1.69-2.42 3.775-2.42 6.253 0 2.091.607 3.711 1.82 4.86 1.213 1.149 2.891 1.723 5.035 1.723.386 0 .819-.025 1.297-.077Zm6.525-25.326-3.641 26.333-1.316.233c-.517.102-.975.173-1.375.212-.401.039-.936.058-1.607.058-2.737 0-4.835-.716-6.293-2.149-1.459-1.433-2.187-3.363-2.187-5.789 0-2.995 1.007-5.454 3.02-7.377 2.014-1.923 4.531-2.885 7.551-2.885.335 0 .8.013 1.395.038.593.026 1.123.065 1.587.116l1.201-8.79h1.665ZM500.105 147.822l-.581 1.665c-.491-.258-.981-.387-1.471-.387-.749 0-1.524.297-2.324.891-.8.594-1.548 1.343-2.246 2.246l-1.394 1.858-1.51 10.998h-1.665l2.4-17.387h1.665l-.619 4.298c1.317-1.729 2.426-2.929 3.33-3.601.904-.671 1.807-1.007 2.711-1.007a3.604 3.604 0 0 1 1.704.426ZM511.451 154.483c0-1.781-.381-3.189-1.142-4.222-.762-1.032-1.853-1.549-3.272-1.549-1.317 0-2.505.504-3.563 1.511-1.059 1.007-1.782 2.427-2.168 4.26h10.145Zm1.588 1.277h-12.005a13.096 13.096 0 0 0-.077 1.511c0 2.194.51 3.879 1.529 5.054 1.02 1.175 2.356 1.761 4.009 1.761.903 0 1.787-.161 2.652-.484.865-.322 1.788-.857 2.769-1.606l-.193 1.742a9.76 9.76 0 0 1-2.538 1.336 8.58 8.58 0 0 1-2.806.445c-2.221 0-3.964-.748-5.229-2.246-1.264-1.497-1.897-3.511-1.897-6.041 0-2.711.755-5.047 2.265-7.009 1.51-1.962 3.375-2.943 5.596-2.943 1.781 0 3.227.652 4.337 1.956 1.109 1.304 1.665 3.208 1.665 5.712 0 .413-.025.683-.077.812ZM530.019 153.069a26.52 26.52 0 0 1-.135 1.142l-1.549 10.882h-1.665l1.549-10.882c.051-.361.096-.754.135-1.18.039-.426.058-.717.058-.871 0-1.136-.252-1.982-.755-2.537-.504-.555-1.207-.832-2.11-.832-2.068 0-4.274 1.342-6.622 4.027l-1.704 12.275h-1.627l2.362-17.387h1.666l-.466 3.331c2.247-2.427 4.519-3.641 6.817-3.641 1.316 0 2.329.413 3.04 1.239.71.826 1.064 1.989 1.064 3.486 0 .232-.019.548-.058.948ZM546.462 8.217c.38 0 .687-.079.922-.239.235-.16.352-.405.352-.735 0-.62-.41-.93-1.229-.93h-.885v1.904h.84Zm-2.04-2.729h2.55c.66 0 1.17.142 1.53.428.359.284.54.681.54 1.192 0 .42-.15.774-.45 1.064-.3.29-.696.471-1.186.54.25.081.453.196.608.346.155.15.317.355.488.614l1.14 1.741h-1.395l-.886-1.486c-.25-.409-.452-.659-.607-.75-.155-.09-.372-.134-.652-.134h-.48v2.37h-1.2V5.488Zm5.654 6.33c.92-.92 1.381-2.035 1.381-3.346 0-1.289-.463-2.396-1.388-3.322-.926-.925-2.027-1.388-3.307-1.388-1.3 0-2.415.466-3.345 1.396-.931.929-1.396 2.04-1.396 3.33 0 1.3.468 2.41 1.403 3.33.935.92 2.048 1.38 3.338 1.38s2.394-.46 3.314-1.38Zm.413-7.096c1.055 1.041 1.582 2.296 1.582 3.766 0 1.45-.519 2.697-1.559 3.742s-2.29 1.567-3.75 1.567c-1.481 0-2.744-.524-3.788-1.575-1.045-1.05-1.568-2.295-1.568-3.734 0-1.45.523-2.7 1.568-3.75 1.044-1.05 2.302-1.575 3.773-1.575 1.439 0 2.687.52 3.742 1.559Z" style="fill:#030404;fill-rule:nonzero" transform="scale(4.16667)"/></svg>