<svg width="21" height="21" viewBox="0 0 21 21" fill="none" xmlns="http://www.w3.org/2000/svg">
<path d="M10.5013 7.22937C8.6995 7.22937 7.16797 8.7609 7.16797 10.5627C7.16797 12.3645 8.6995 13.896 10.5013 13.896C12.3031 13.896 13.8346 12.3645 13.8346 10.5627C13.8346 8.7609 12.3031 7.22937 10.5013 7.22937Z" fill="black"/>
<path d="M14.7727 0.5625H6.31818C3.04545 0.5625 0.5 3.10795 0.5 6.28977V14.7443C0.5 18.017 3.04545 20.5625 6.31818 20.5625H14.7727C17.9545 20.5625 20.5 18.017 20.5 14.7443V6.28977C20.5 3.10795 17.9545 0.5625 14.7727 0.5625ZM10.5 15.8352C7.59091 15.8352 5.31818 13.4716 5.31818 10.6534C5.31818 7.83523 7.59091 5.38068 10.5 5.38068C13.4091 5.38068 15.6818 7.74432 15.6818 10.5625C15.6818 13.3807 13.4091 15.8352 10.5 15.8352ZM15.8636 6.47159C15.2273 6.47159 14.6818 5.92614 14.6818 5.28977C14.6818 4.65341 15.2273 4.10795 15.8636 4.10795C16.5 4.10795 17.0455 4.65341 17.0455 5.28977C17.0455 5.92614 16.5 6.47159 15.8636 6.47159Z" fill="black"/>
</svg>
