<svg width="29" height="21" viewBox="0 0 29 21" fill="none" xmlns="http://www.w3.org/2000/svg">
<path d="M14.7002 0.5625C14.7636 0.562508 23.5823 0.564308 25.7939 1.16309C27.0159 1.48862 27.978 2.45555 28.3037 3.6875C28.8947 5.9164 28.8896 10.5654 28.8896 10.5654C28.8896 10.6164 28.8866 15.2258 28.2988 17.4424C27.9732 18.6694 27.0111 19.6362 25.7891 19.9668C23.584 20.5603 14.7694 20.5625 14.6953 20.5625C14.6953 20.5625 5.81485 20.5628 3.60059 19.9668C2.37854 19.6413 1.41646 18.6744 1.09082 17.4424C0.503055 15.2258 0.500018 10.6164 0.5 10.5654C0.5 10.5654 0.49966 5.91653 1.0957 3.68262C1.42133 2.45558 2.38341 1.48876 3.60547 1.1582C5.81954 0.562192 14.7002 0.5625 14.7002 0.5625ZM11.7949 14.7871L19.2178 10.5654L11.7949 6.34277V14.7871Z" fill="black"/>
</svg>
